<?plantuml 1.2026.1?><svg xmlns="http://www.w3.org/2000/svg" xmlns:xlink="http://www.w3.org/1999/xlink" contentStyleType="text/css" data-diagram-type="CLASS" height="949px" preserveAspectRatio="none" style="width:1429px;height:949px;background:#FFFFFF;" version="1.1" viewBox="0 0 1429 949" width="1429px" zoomAndPan="magnify"><defs/><g><!--cluster Markdown AST--><g class="cluster" data-qualified-name="Markdown AST" data-source-line="25" id="ent0008"><path d="M635.5,360 L753.9756,360 A3.75,3.75 0 0 1 756.4756,362.5 L763.4756,382.2969 L1382.5,382.2969 A2.5,2.5 0 0 1 1385,384.7969 L1385,939.5 A2.5,2.5 0 0 1 1382.5,942 L635.5,942 A2.5,2.5 0 0 1 633,939.5 L633,362.5 A2.5,2.5 0 0 1 635.5,360" fill="none" style="stroke:#000000;stroke-width:1.5;"/><line style="stroke:#000000;stroke-width:1.5;" x1="633" x2="763.4756" y1="382.2969" y2="382.2969"/><text fill="#000000" font-family="sans-serif" font-size="14" font-weight="bold" lengthAdjust="spacing" textLength="117.4756" x="637" y="374.9951">Markdown AST</text></g><!--cluster Dependencies--><g class="cluster" data-qualified-name="Dependencies" data-source-line="76" id="ent0032"><path d="M8.5,358 L120.5088,358 A3.75,3.75 0 0 1 123.0088,360.5 L130.0088,380.2969 L606.5,380.2969 A2.5,2.5 0 0 1 609,382.7969 L609,628 A2.5,2.5 0 0 1 606.5,630.5 L8.5,630.5 A2.5,2.5 0 0 1 6,628 L6,360.5 A2.5,2.5 0 0 1 8.5,358" fill="none" style="stroke:#000000;stroke-width:1.5;"/><line style="stroke:#000000;stroke-width:1.5;" x1="6" x2="130.0088" y1="380.2969" y2="380.2969"/><text fill="#000000" font-family="sans-serif" font-size="14" font-weight="bold" lengthAdjust="spacing" textLength="111.0088" x="10" y="372.9951">Dependencies</text></g><!--class MarkdownElement--><g class="entity" data-qualified-name="Markdown AST.MarkdownElement" data-source-line="27" id="ent0009"><rect fill="#F1F1F1" height="64.2969" rx="2.5" ry="2.5" style="stroke:#181818;stroke-width:0.5;" width="162.2588" x="943" y="555"/><ellipse cx="958" cy="571" fill="#A9DCDF" rx="11" ry="11" style="stroke:#181818;stroke-width:1;"/><path d="M958.1094,566.3438 L956.9531,571.4219 L959.2813,571.4219 L958.1094,566.3438 Z M956.625,564.1094 L959.6094,564.1094 L962.9688,576.5 L960.5156,576.5 L959.75,573.4375 L956.4688,573.4375 L955.7188,576.5 L953.2813,576.5 L956.625,564.1094 Z " fill="#000000"/><text fill="#000000" font-family="sans-serif" font-size="14" font-style="italic" lengthAdjust="spacing" textLength="130.2588" x="972" y="575.8467">MarkdownElement</text><line style="stroke:#181818;stroke-width:0.5;" x1="944" x2="1104.2588" y1="587" y2="587"/><line style="stroke:#181818;stroke-width:0.5;" x1="944" x2="1104.2588" y1="595" y2="595"/><g data-visibility-modifier="PUBLIC_METHOD"><ellipse cx="954" cy="608.6484" fill="#84BE84" rx="3" ry="3" style="stroke:#038048;stroke-width:1;"/></g><text fill="#000000" font-family="sans-serif" font-size="14" font-style="italic" lengthAdjust="spacing" textLength="89.5781" x="963" y="611.9951">render() : str</text></g><!--class Heading--><g class="entity" data-qualified-name="Markdown AST.Heading" data-source-line="31" id="ent0010"><rect fill="#F1F1F1" height="64.2969" rx="2.5" ry="2.5" style="stroke:#181818;stroke-width:0.5;" width="115.5781" x="649" y="680"/><ellipse cx="675.395" cy="696" fill="#ADD1B2" rx="11" ry="11" style="stroke:#181818;stroke-width:1;"/><path d="M678.3638,701.6406 Q677.7856,701.9375 677.145,702.0781 Q676.5044,702.2344 675.8013,702.2344 Q673.3013,702.2344 671.9731,700.5938 Q670.6606,698.9375 670.6606,695.8125 Q670.6606,692.6875 671.9731,691.0313 Q673.3013,689.375 675.8013,689.375 Q676.5044,689.375 677.145,689.5313 Q677.8013,689.6875 678.3638,689.9844 L678.3638,692.7031 Q677.7388,692.125 677.145,691.8594 Q676.5513,691.5781 675.9263,691.5781 Q674.5825,691.5781 673.895,692.6563 Q673.2075,693.7188 673.2075,695.8125 Q673.2075,697.9063 673.895,698.9844 Q674.5825,700.0469 675.9263,700.0469 Q676.5513,700.0469 677.145,699.7813 Q677.7388,699.5 678.3638,698.9219 L678.3638,701.6406 Z " fill="#000000"/><text fill="#000000" font-family="sans-serif" font-size="14" lengthAdjust="spacing" textLength="58.2559" x="691.9272" y="700.8467">Heading</text><line style="stroke:#181818;stroke-width:0.5;" x1="650" x2="763.5781" y1="712" y2="712"/><line style="stroke:#181818;stroke-width:0.5;" x1="650" x2="763.5781" y1="720" y2="720"/><g data-visibility-modifier="PUBLIC_METHOD"><ellipse cx="660" cy="733.6484" fill="#84BE84" rx="3" ry="3" style="stroke:#038048;stroke-width:1;"/></g><text fill="#000000" font-family="sans-serif" font-size="14" lengthAdjust="spacing" textLength="89.5781" x="669" y="736.9951">render() : str</text></g><!--class Table--><g class="entity" data-qualified-name="Markdown AST.Table" data-source-line="34" id="ent0012"><rect fill="#F1F1F1" height="64.2969" rx="2.5" ry="2.5" style="stroke:#181818;stroke-width:0.5;" width="115.5781" x="800" y="680"/><ellipse cx="835.2759" cy="696" fill="#ADD1B2" rx="11" ry="11" style="stroke:#181818;stroke-width:1;"/><path d="M838.2447,701.6406 Q837.6666,701.9375 837.0259,702.0781 Q836.3853,702.2344 835.6822,702.2344 Q833.1822,702.2344 831.8541,700.5938 Q830.5416,698.9375 830.5416,695.8125 Q830.5416,692.6875 831.8541,691.0313 Q833.1822,689.375 835.6822,689.375 Q836.3853,689.375 837.0259,689.5313 Q837.6822,689.6875 838.2447,689.9844 L838.2447,692.7031 Q837.6197,692.125 837.0259,691.8594 Q836.4322,691.5781 835.8072,691.5781 Q834.4634,691.5781 833.7759,692.6563 Q833.0884,693.7188 833.0884,695.8125 Q833.0884,697.9063 833.7759,698.9844 Q834.4634,700.0469 835.8072,700.0469 Q836.4322,700.0469 837.0259,699.7813 Q837.6197,699.5 838.2447,698.9219 L838.2447,701.6406 Z " fill="#000000"/><text fill="#000000" font-family="sans-serif" font-size="14" lengthAdjust="spacing" textLength="38.5205" x="853.7817" y="700.8467">Table</text><line style="stroke:#181818;stroke-width:0.5;" x1="801" x2="914.5781" y1="712" y2="712"/><line style="stroke:#181818;stroke-width:0.5;" x1="801" x2="914.5781" y1="720" y2="720"/><g data-visibility-modifier="PUBLIC_METHOD"><ellipse cx="811" cy="733.6484" fill="#84BE84" rx="3" ry="3" style="stroke:#038048;stroke-width:1;"/></g><text fill="#000000" font-family="sans-serif" font-size="14" lengthAdjust="spacing" textLength="89.5781" x="820" y="736.9951">render() : str</text></g><!--class BulletList--><g class="entity" data-qualified-name="Markdown AST.BulletList" data-source-line="37" id="ent0014"><rect fill="#F1F1F1" height="64.2969" rx="2.5" ry="2.5" style="stroke:#181818;stroke-width:0.5;" width="115.5781" x="951" y="680"/><ellipse cx="974.4357" cy="696" fill="#ADD1B2" rx="11" ry="11" style="stroke:#181818;stroke-width:1;"/><path d="M977.4045,701.6406 Q976.8264,701.9375 976.1857,702.0781 Q975.5451,702.2344 974.842,702.2344 Q972.342,702.2344 971.0139,700.5938 Q969.7014,698.9375 969.7014,695.8125 Q969.7014,692.6875 971.0139,691.0313 Q972.342,689.375 974.842,689.375 Q975.5451,689.375 976.1857,689.5313 Q976.842,689.6875 977.4045,689.9844 L977.4045,692.7031 Q976.7795,692.125 976.1857,691.8594 Q975.592,691.5781 974.967,691.5781 Q973.6232,691.5781 972.9357,692.6563 Q972.2482,693.7188 972.2482,695.8125 Q972.2482,697.9063 972.9357,698.9844 Q973.6232,700.0469 974.967,700.0469 Q975.592,700.0469 976.1857,699.7813 Q976.7795,699.5 977.4045,698.9219 L977.4045,701.6406 Z " fill="#000000"/><text fill="#000000" font-family="sans-serif" font-size="14" lengthAdjust="spacing" textLength="64.832" x="990.3104" y="700.8467">BulletList</text><line style="stroke:#181818;stroke-width:0.5;" x1="952" x2="1065.5781" y1="712" y2="712"/><line style="stroke:#181818;stroke-width:0.5;" x1="952" x2="1065.5781" y1="720" y2="720"/><g data-visibility-modifier="PUBLIC_METHOD"><ellipse cx="962" cy="733.6484" fill="#84BE84" rx="3" ry="3" style="stroke:#038048;stroke-width:1;"/></g><text fill="#000000" font-family="sans-serif" font-size="14" lengthAdjust="spacing" textLength="89.5781" x="971" y="736.9951">render() : str</text></g><!--class Image--><g class="entity" data-qualified-name="Markdown AST.Image" data-source-line="40" id="ent0016"><rect fill="#F1F1F1" height="64.2969" rx="2.5" ry="2.5" style="stroke:#181818;stroke-width:0.5;" width="115.5781" x="1102" y="680"/><ellipse cx="1134.8796" cy="696" fill="#ADD1B2" rx="11" ry="11" style="stroke:#181818;stroke-width:1;"/><path d="M1137.8483,701.6406 Q1137.2702,701.9375 1136.6296,702.0781 Q1135.989,702.2344 1135.2858,702.2344 Q1132.7858,702.2344 1131.4577,700.5938 Q1130.1452,698.9375 1130.1452,695.8125 Q1130.1452,692.6875 1131.4577,691.0313 Q1132.7858,689.375 1135.2858,689.375 Q1135.989,689.375 1136.6296,689.5313 Q1137.2858,689.6875 1137.8483,689.9844 L1137.8483,692.7031 Q1137.2233,692.125 1136.6296,691.8594 Q1136.0358,691.5781 1135.4108,691.5781 Q1134.0671,691.5781 1133.3796,692.6563 Q1132.6921,693.7188 1132.6921,695.8125 Q1132.6921,697.9063 1133.3796,698.9844 Q1134.0671,700.0469 1135.4108,700.0469 Q1136.0358,700.0469 1136.6296,699.7813 Q1137.2233,699.5 1137.8483,698.9219 L1137.8483,701.6406 Z " fill="#000000"/><text fill="#000000" font-family="sans-serif" font-size="14" lengthAdjust="spacing" textLength="43.8457" x="1152.8528" y="700.8467">Image</text><line style="stroke:#181818;stroke-width:0.5;" x1="1103" x2="1216.5781" y1="712" y2="712"/><line style="stroke:#181818;stroke-width:0.5;" x1="1103" x2="1216.5781" y1="720" y2="720"/><g data-visibility-modifier="PUBLIC_METHOD"><ellipse cx="1113" cy="733.6484" fill="#84BE84" rx="3" ry="3" style="stroke:#038048;stroke-width:1;"/></g><text fill="#000000" font-family="sans-serif" font-size="14" lengthAdjust="spacing" textLength="89.5781" x="1122" y="736.9951">render() : str</text></g><!--class RawText--><g class="entity" data-qualified-name="Markdown AST.RawText" data-source-line="43" id="ent0018"><rect fill="#F1F1F1" height="64.2969" rx="2.5" ry="2.5" style="stroke:#181818;stroke-width:0.5;" width="115.5781" x="1253" y="680"/><ellipse cx="1278.2968" cy="696" fill="#ADD1B2" rx="11" ry="11" style="stroke:#181818;stroke-width:1;"/><path d="M1281.2656,701.6406 Q1280.6875,701.9375 1280.0468,702.0781 Q1279.4062,702.2344 1278.7031,702.2344 Q1276.2031,702.2344 1274.875,700.5938 Q1273.5625,698.9375 1273.5625,695.8125 Q1273.5625,692.6875 1274.875,691.0313 Q1276.2031,689.375 1278.7031,689.375 Q1279.4062,689.375 1280.0468,689.5313 Q1280.7031,689.6875 1281.2656,689.9844 L1281.2656,692.7031 Q1280.6406,692.125 1280.0468,691.8594 Q1279.4531,691.5781 1278.8281,691.5781 Q1277.4843,691.5781 1276.7968,692.6563 Q1276.1093,693.7188 1276.1093,695.8125 Q1276.1093,697.9063 1276.7968,698.9844 Q1277.4843,700.0469 1278.8281,700.0469 Q1279.4531,700.0469 1280.0468,699.7813 Q1280.6406,699.5 1281.2656,698.9219 L1281.2656,701.6406 Z " fill="#000000"/><text fill="#000000" font-family="sans-serif" font-size="14" lengthAdjust="spacing" textLength="60.6963" x="1294.585" y="700.8467">RawText</text><line style="stroke:#181818;stroke-width:0.5;" x1="1254" x2="1367.5781" y1="712" y2="712"/><line style="stroke:#181818;stroke-width:0.5;" x1="1254" x2="1367.5781" y1="720" y2="720"/><g data-visibility-modifier="PUBLIC_METHOD"><ellipse cx="1264" cy="733.6484" fill="#84BE84" rx="3" ry="3" style="stroke:#038048;stroke-width:1;"/></g><text fill="#000000" font-family="sans-serif" font-size="14" lengthAdjust="spacing" textLength="89.5781" x="1273" y="736.9951">render() : str</text></g><!--class MarkdownDocument--><g class="entity" data-qualified-name="Markdown AST.MarkdownDocument" data-source-line="47" id="ent0020"><rect fill="#F1F1F1" height="96.8906" rx="2.5" ry="2.5" style="stroke:#181818;stroke-width:0.5;" width="310.5732" x="649.5" y="395"/><ellipse cx="728.1235" cy="411" fill="#ADD1B2" rx="11" ry="11" style="stroke:#181818;stroke-width:1;"/><path d="M731.0923,416.6406 Q730.5142,416.9375 729.8735,417.0781 Q729.2329,417.2344 728.5298,417.2344 Q726.0298,417.2344 724.7017,415.5938 Q723.3892,413.9375 723.3892,410.8125 Q723.3892,407.6875 724.7017,406.0313 Q726.0298,404.375 728.5298,404.375 Q729.2329,404.375 729.8735,404.5313 Q730.5298,404.6875 731.0923,404.9844 L731.0923,407.7031 Q730.4673,407.125 729.8735,406.8594 Q729.2798,406.5781 728.6548,406.5781 Q727.311,406.5781 726.6235,407.6563 Q725.936,408.7188 725.936,410.8125 Q725.936,412.9063 726.6235,413.9844 Q727.311,415.0469 728.6548,415.0469 Q729.2798,415.0469 729.8735,414.7813 Q730.4673,414.5 731.0923,413.9219 L731.0923,416.6406 Z " fill="#000000"/><text fill="#000000" font-family="sans-serif" font-size="14" lengthAdjust="spacing" textLength="144.8262" x="748.6235" y="415.8467">MarkdownDocument</text><line style="stroke:#181818;stroke-width:0.5;" x1="650.5" x2="959.0732" y1="427" y2="427"/><line style="stroke:#181818;stroke-width:0.5;" x1="650.5" x2="959.0732" y1="435" y2="435"/><g data-visibility-modifier="PUBLIC_METHOD"><ellipse cx="660.5" cy="448.6484" fill="#84BE84" rx="3" ry="3" style="stroke:#038048;stroke-width:1;"/></g><text fill="#000000" font-family="sans-serif" font-size="14" lengthAdjust="spacing" textLength="284.5732" x="669.5" y="451.9951">add(element: MarkdownElement) : None</text><g data-visibility-modifier="PUBLIC_METHOD"><ellipse cx="660.5" cy="464.9453" fill="#84BE84" rx="3" ry="3" style="stroke:#038048;stroke-width:1;"/></g><text fill="#000000" font-family="sans-serif" font-size="14" lengthAdjust="spacing" textLength="117.5439" x="669.5" y="468.292">is_empty() : bool</text><g data-visibility-modifier="PUBLIC_METHOD"><ellipse cx="660.5" cy="481.2422" fill="#84BE84" rx="3" ry="3" style="stroke:#038048;stroke-width:1;"/></g><text fill="#000000" font-family="sans-serif" font-size="14" lengthAdjust="spacing" textLength="89.5781" x="669.5" y="484.5889">render() : str</text></g><!--class MarkdownText--><g class="entity" data-qualified-name="Markdown AST.MarkdownText" data-source-line="53" id="ent0021"><rect fill="#F1F1F1" height="121.4531" rx="2.5" ry="2.5" style="stroke:#181818;stroke-width:0.5;" width="380.252" x="859" y="805"/><ellipse cx="993.2578" cy="825.1328" fill="#ADD1B2" rx="11" ry="11" style="stroke:#181818;stroke-width:1;"/><path d="M996.2266,830.7734 Q995.6484,831.0703 995.0078,831.2109 Q994.3672,831.3672 993.6641,831.3672 Q991.1641,831.3672 989.8359,829.7266 Q988.5234,828.0703 988.5234,824.9453 Q988.5234,821.8203 989.8359,820.1641 Q991.1641,818.5078 993.6641,818.5078 Q994.3672,818.5078 995.0078,818.6641 Q995.6641,818.8203 996.2266,819.1172 L996.2266,821.8359 Q995.6016,821.2578 995.0078,820.9922 Q994.4141,820.7109 993.7891,820.7109 Q992.4453,820.7109 991.7578,821.7891 Q991.0703,822.8516 991.0703,824.9453 Q991.0703,827.0391 991.7578,828.1172 Q992.4453,829.1797 993.7891,829.1797 Q994.4141,829.1797 995.0078,828.9141 Q995.6016,828.6328 996.2266,828.0547 L996.2266,830.7734 Z " fill="#000000"/><text fill="#000000" font-family="sans-serif" font-size="12" font-style="italic" lengthAdjust="spacing" textLength="48.9316" x="1040.9102" y="821.1387">&#171;utility&#187;</text><text fill="#000000" font-family="sans-serif" font-size="14" lengthAdjust="spacing" textLength="103.2363" x="1013.7578" y="836.9639">MarkdownText</text><line style="stroke:#181818;stroke-width:0.5;" x1="860" x2="1238.252" y1="845.2656" y2="845.2656"/><line style="stroke:#181818;stroke-width:0.5;" x1="860" x2="1238.252" y1="853.2656" y2="853.2656"/><g data-visibility-modifier="PUBLIC_METHOD"><ellipse cx="870" cy="866.9141" fill="#84BE84" rx="3" ry="3" style="stroke:#038048;stroke-width:1;"/></g><text fill="#000000" font-family="sans-serif" font-size="14" lengthAdjust="spacing" text-decoration="underline" textLength="148.3467" x="879" y="870.2607">escape(text: str) : str</text><g data-visibility-modifier="PUBLIC_METHOD"><ellipse cx="870" cy="883.2109" fill="#84BE84" rx="3" ry="3" style="stroke:#038048;stroke-width:1;"/></g><text fill="#000000" font-family="sans-serif" font-size="14" lengthAdjust="spacing" text-decoration="underline" textLength="193.0264" x="879" y="886.5576">lf2soft_return(text: str) : str</text><g data-visibility-modifier="PUBLIC_METHOD"><ellipse cx="870" cy="899.5078" fill="#84BE84" rx="3" ry="3" style="stroke:#038048;stroke-width:1;"/></g><text fill="#000000" font-family="sans-serif" font-size="14" lengthAdjust="spacing" text-decoration="underline" textLength="276.2061" x="879" y="902.8545">link(text: str, url: str, escape: bool) : str</text><g data-visibility-modifier="PUBLIC_METHOD"><ellipse cx="870" cy="915.8047" fill="#84BE84" rx="3" ry="3" style="stroke:#038048;stroke-width:1;"/></g><text fill="#000000" font-family="sans-serif" font-size="14" lengthAdjust="spacing" text-decoration="underline" textLength="354.252" x="879" y="919.1514">colored_text(text: str, color: str, escape: bool) : str</text></g><g class="entity" data-qualified-name="Markdown AST.GMN22" data-source-line="61" id="ent0023"><path d="M666.5,559.5 L666.5,614.8984 A0,0 0 0 0 666.5,614.8984 L907.6748,614.8984 A0,0 0 0 0 907.6748,614.8984 L907.6748,569.5 L897.6748,559.5 L794.38,559.5 L798.96,492.01 L786.38,559.5 L666.5,559.5 A0,0 0 0 0 666.5,559.5" fill="#FEFFDD" style="stroke:#181818;stroke-width:0.5;"/><path d="M897.6748,559.5 L897.6748,569.5 L907.6748,569.5 L897.6748,559.5" fill="#FEFFDD" style="stroke:#181818;stroke-width:0.5;"/><text fill="#000000" font-family="sans-serif" font-size="13" lengthAdjust="spacing" textLength="209.168" x="672.5" y="576.5669">render() concatenates the block</text><text fill="#000000" font-family="sans-serif" font-size="13" lengthAdjust="spacing" textLength="220.1748" x="672.5" y="591.6997">elements, separating consecutive</text><text fill="#000000" font-family="sans-serif" font-size="13" lengthAdjust="spacing" textLength="187.5161" x="672.5" y="606.8325">blocks by a single blank line.</text></g><!--class trlc--><g class="entity" data-qualified-name="Dependencies.trlc" data-source-line="78" id="ent0033"><rect fill="#F1F1F1" height="56.2656" rx="2.5" ry="2.5" style="stroke:#181818;stroke-width:0.5;" width="87.7832" x="22" y="415.5"/><ellipse cx="37" cy="435.6328" fill="#ADD8E6" rx="11" ry="11" style="stroke:#181818;stroke-width:1;"/><path d="M32.7188,429.2422 L35.6406,429.2422 L37.1094,434.6797 L38.5781,429.2422 L41.5156,429.2422 L41.5156,441.6328 L39.4063,441.6328 L39.4063,431.7109 L38.0938,437.1328 L36.1563,437.1328 L34.8281,431.7109 L34.8281,441.6328 L32.7188,441.6328 L32.7188,429.2422 Z " fill="#000000"/><text fill="#000000" font-family="sans-serif" font-size="12" font-style="italic" lengthAdjust="spacing" textLength="59.7832" x="49" y="431.6387">&#171;module&#187;</text><text fill="#000000" font-family="sans-serif" font-size="14" lengthAdjust="spacing" textLength="22.832" x="67.4756" y="447.4639">trlc</text><line style="stroke:#181818;stroke-width:0.5;" x1="23" x2="108.7832" y1="455.7656" y2="455.7656"/><line style="stroke:#181818;stroke-width:0.5;" x1="23" x2="108.7832" y1="463.7656" y2="463.7656"/></g><g class="entity" data-qualified-name="Dependencies.GMN34" data-source-line="82" id="ent0035"><path d="M145,393 L145,439.5 L110.2,443.5 L145,447.5 L145,493.7969 A0,0 0 0 0 145,493.7969 L296.5615,493.7969 A0,0 0 0 0 296.5615,493.7969 L296.5615,403 L286.5615,393 L145,393 A0,0 0 0 0 145,393" fill="#FEFFDD" style="stroke:#181818;stroke-width:0.5;"/><path d="M286.5615,393 L286.5615,403 L296.5615,403 L286.5615,393" fill="#FEFFDD" style="stroke:#181818;stroke-width:0.5;"/><text fill="#000000" font-family="sans-serif" font-size="13" lengthAdjust="spacing" textLength="130.3364" x="151" y="410.0669">Use TRLC ast items:</text><ellipse cx="156.5" cy="420.7656" fill="#000000" rx="2.5" ry="2.5"/><text fill="#000000" font-family="sans-serif" font-size="13" lengthAdjust="spacing" textLength="79.5171" x="163" y="425.1997">Implicit_Null</text><ellipse cx="156.5" cy="435.8984" fill="#000000" rx="2.5" ry="2.5"/><text fill="#000000" font-family="sans-serif" font-size="13" lengthAdjust="spacing" textLength="94.5674" x="163" y="440.3325">Record_Object</text><ellipse cx="156.5" cy="451.0313" fill="#000000" rx="2.5" ry="2.5"/><text fill="#000000" font-family="sans-serif" font-size="13" lengthAdjust="spacing" textLength="118.5615" x="163" y="455.4653">Record_Reference</text><ellipse cx="156.5" cy="466.1641" fill="#000000" rx="2.5" ry="2.5"/><text fill="#000000" font-family="sans-serif" font-size="13" lengthAdjust="spacing" textLength="86.1694" x="163" y="470.5981">String_Literal</text><ellipse cx="156.5" cy="481.2969" fill="#000000" rx="2.5" ry="2.5"/><text fill="#000000" font-family="sans-serif" font-size="13" lengthAdjust="spacing" textLength="70.8525" x="163" y="485.731">Expression</text></g><!--class TrlcAstWalker--><g class="entity" data-qualified-name="Dependencies.TrlcAstWalker" data-source-line="90" id="ent0037"><rect fill="#F1F1F1" height="48" rx="2.5" ry="2.5" style="stroke:#181818;stroke-width:0.5;" width="129.043" x="332.5" y="419.5"/><ellipse cx="347.5" cy="435.5" fill="#ADD1B2" rx="11" ry="11" style="stroke:#181818;stroke-width:1;"/><path d="M350.4688,441.1406 Q349.8906,441.4375 349.25,441.5781 Q348.6094,441.7344 347.9063,441.7344 Q345.4063,441.7344 344.0781,440.0938 Q342.7656,438.4375 342.7656,435.3125 Q342.7656,432.1875 344.0781,430.5313 Q345.4063,428.875 347.9063,428.875 Q348.6094,428.875 349.25,429.0313 Q349.9063,429.1875 350.4688,429.4844 L350.4688,432.2031 Q349.8438,431.625 349.25,431.3594 Q348.6563,431.0781 348.0313,431.0781 Q346.6875,431.0781 346,432.1563 Q345.3125,433.2188 345.3125,435.3125 Q345.3125,437.4063 346,438.4844 Q346.6875,439.5469 348.0313,439.5469 Q348.6563,439.5469 349.25,439.2813 Q349.8438,439 350.4688,438.4219 L350.4688,441.1406 Z " fill="#000000"/><text fill="#000000" font-family="sans-serif" font-size="14" lengthAdjust="spacing" textLength="97.043" x="361.5" y="440.3467">TrlcAstWalker</text><line style="stroke:#181818;stroke-width:0.5;" x1="333.5" x2="460.543" y1="451.5" y2="451.5"/><line style="stroke:#181818;stroke-width:0.5;" x1="333.5" x2="460.543" y1="459.5" y2="459.5"/></g><!--class PlantUML--><g class="entity" data-qualified-name="Dependencies.PlantUML" data-source-line="93" id="ent0038"><rect fill="#F1F1F1" height="48" rx="2.5" ry="2.5" style="stroke:#181818;stroke-width:0.5;" width="97.3994" x="496.5" y="419.5"/><ellipse cx="511.5" cy="435.5" fill="#ADD1B2" rx="11" ry="11" style="stroke:#181818;stroke-width:1;"/><path d="M514.4688,441.1406 Q513.8906,441.4375 513.25,441.5781 Q512.6094,441.7344 511.9063,441.7344 Q509.4063,441.7344 508.0781,440.0938 Q506.7656,438.4375 506.7656,435.3125 Q506.7656,432.1875 508.0781,430.5313 Q509.4063,428.875 511.9063,428.875 Q512.6094,428.875 513.25,429.0313 Q513.9063,429.1875 514.4688,429.4844 L514.4688,432.2031 Q513.8438,431.625 513.25,431.3594 Q512.6563,431.0781 512.0313,431.0781 Q510.6875,431.0781 510,432.1563 Q509.3125,433.2188 509.3125,435.3125 Q509.3125,437.4063 510,438.4844 Q510.6875,439.5469 512.0313,439.5469 Q512.6563,439.5469 513.25,439.2813 Q513.8438,439 514.4688,438.4219 L514.4688,441.1406 Z " fill="#000000"/><text fill="#000000" font-family="sans-serif" font-size="14" lengthAdjust="spacing" textLength="65.3994" x="525.5" y="440.3467">PlantUML</text><line style="stroke:#181818;stroke-width:0.5;" x1="497.5" x2="592.8994" y1="451.5" y2="451.5"/><line style="stroke:#181818;stroke-width:0.5;" x1="497.5" x2="592.8994" y1="459.5" y2="459.5"/></g><g class="entity" data-qualified-name="Dependencies.GMN39" data-source-line="96" id="ent0040"><path d="M375,559.5 L375,614.8984 A0,0 0 0 0 375,614.8984 L592.8218,614.8984 A0,0 0 0 0 592.8218,614.8984 L592.8218,569.5 L582.8218,559.5 L499.6,559.5 L535.06,467.55 L491.6,559.5 L375,559.5 A0,0 0 0 0 375,559.5" fill="#FEFFDD" style="stroke:#181818;stroke-width:0.5;"/><path d="M582.8218,559.5 L582.8218,569.5 L592.8218,569.5 L582.8218,559.5" fill="#FEFFDD" style="stroke:#181818;stroke-width:0.5;"/><text fill="#000000" font-family="sans-serif" font-size="13" lengthAdjust="spacing" textLength="193.8955" x="381" y="576.5669">Renders inline ```plantuml```</text><text fill="#000000" font-family="sans-serif" font-size="13" lengthAdjust="spacing" textLength="173.6274" x="381" y="591.6997">fenced code blocks to SVG</text><text fill="#000000" font-family="sans-serif" font-size="13" lengthAdjust="spacing" textLength="196.8218" x="381" y="606.8325">when --render-plantuml is set.</text></g><!--class BaseConverter--><g class="entity" data-qualified-name="BaseConverter" data-source-line="2" id="ent0002"><rect fill="#F1F1F1" height="48" rx="2.5" ry="2.5" style="stroke:#181818;stroke-width:0.5;" width="135.8174" x="590" y="7"/><ellipse cx="605" cy="23" fill="#ADD1B2" rx="11" ry="11" style="stroke:#181818;stroke-width:1;"/><path d="M607.9688,28.6406 Q607.3906,28.9375 606.75,29.0781 Q606.1094,29.2344 605.4063,29.2344 Q602.9063,29.2344 601.5781,27.5938 Q600.2656,25.9375 600.2656,22.8125 Q600.2656,19.6875 601.5781,18.0313 Q602.9063,16.375 605.4063,16.375 Q606.1094,16.375 606.75,16.5313 Q607.4063,16.6875 607.9688,16.9844 L607.9688,19.7031 Q607.3438,19.125 606.75,18.8594 Q606.1563,18.5781 605.5313,18.5781 Q604.1875,18.5781 603.5,19.6563 Q602.8125,20.7188 602.8125,22.8125 Q602.8125,24.9063 603.5,25.9844 Q604.1875,27.0469 605.5313,27.0469 Q606.1563,27.0469 606.75,26.7813 Q607.3438,26.5 607.9688,25.9219 L607.9688,28.6406 Z " fill="#000000"/><text fill="#000000" font-family="sans-serif" font-size="14" lengthAdjust="spacing" textLength="103.8174" x="619" y="27.8467">BaseConverter</text><line style="stroke:#181818;stroke-width:0.5;" x1="591" x2="724.8174" y1="39" y2="39"/><line style="stroke:#181818;stroke-width:0.5;" x1="591" x2="724.8174" y1="47" y2="47"/></g><!--class MarkdownConverter--><g class="entity" data-qualified-name="MarkdownConverter" data-source-line="4" id="ent0003"><rect fill="#F1F1F1" height="194.6719" rx="2.5" ry="2.5" style="stroke:#181818;stroke-width:0.5;" width="704.7129" x="305.5" y="116"/><ellipse cx="582.5947" cy="132" fill="#ADD1B2" rx="11" ry="11" style="stroke:#181818;stroke-width:1;"/><path d="M585.5635,137.6406 Q584.9854,137.9375 584.3447,138.0781 Q583.7041,138.2344 583.001,138.2344 Q580.501,138.2344 579.1729,136.5938 Q577.8604,134.9375 577.8604,131.8125 Q577.8604,128.6875 579.1729,127.0313 Q580.501,125.375 583.001,125.375 Q583.7041,125.375 584.3447,125.5313 Q585.001,125.6875 585.5635,125.9844 L585.5635,128.7031 Q584.9385,128.125 584.3447,127.8594 Q583.751,127.5781 583.126,127.5781 Q581.7822,127.5781 581.0947,128.6563 Q580.4072,129.7188 580.4072,131.8125 Q580.4072,133.9063 581.0947,134.9844 Q581.7822,136.0469 583.126,136.0469 Q583.751,136.0469 584.3447,135.7813 Q584.9385,135.5 585.5635,134.9219 L585.5635,137.6406 Z " fill="#000000"/><text fill="#000000" font-family="sans-serif" font-size="14" lengthAdjust="spacing" textLength="142.0234" x="603.0947" y="136.8467">MarkdownConverter</text><line style="stroke:#181818;stroke-width:0.5;" x1="306.5" x2="1009.2129" y1="148" y2="148"/><line style="stroke:#181818;stroke-width:0.5;" x1="306.5" x2="1009.2129" y1="156" y2="156"/><g data-visibility-modifier="PUBLIC_METHOD"><ellipse cx="316.5" cy="169.6484" fill="#84BE84" rx="3" ry="3" style="stroke:#038048;stroke-width:1;"/></g><text fill="#000000" font-family="sans-serif" font-size="14" lengthAdjust="spacing" textLength="168" x="325.5" y="172.9951">get_subcommand() : str</text><g data-visibility-modifier="PUBLIC_METHOD"><ellipse cx="316.5" cy="185.9453" fill="#84BE84" rx="3" ry="3" style="stroke:#038048;stroke-width:1;"/></g><text fill="#000000" font-family="sans-serif" font-size="14" lengthAdjust="spacing" textLength="150.9102" x="325.5" y="189.292">get_description() : str</text><g data-visibility-modifier="PUBLIC_METHOD"><ellipse cx="316.5" cy="202.2422" fill="#84BE84" rx="3" ry="3" style="stroke:#038048;stroke-width:1;"/></g><text fill="#000000" font-family="sans-serif" font-size="14" lengthAdjust="spacing" textLength="233.666" x="325.5" y="205.5889">register(args_parser: Any) : None</text><g data-visibility-modifier="PUBLIC_METHOD"><ellipse cx="316.5" cy="218.5391" fill="#84BE84" rx="3" ry="3" style="stroke:#038048;stroke-width:1;"/></g><text fill="#000000" font-family="sans-serif" font-size="14" lengthAdjust="spacing" textLength="87.5205" x="325.5" y="221.8857">begin() : Ret</text><g data-visibility-modifier="PUBLIC_METHOD"><ellipse cx="316.5" cy="234.8359" fill="#84BE84" rx="3" ry="3" style="stroke:#038048;stroke-width:1;"/></g><text fill="#000000" font-family="sans-serif" font-size="14" lengthAdjust="spacing" textLength="209.7676" x="325.5" y="238.1826">enter_file(file_name: str) : Ret</text><g data-visibility-modifier="PUBLIC_METHOD"><ellipse cx="316.5" cy="251.1328" fill="#84BE84" rx="3" ry="3" style="stroke:#038048;stroke-width:1;"/></g><text fill="#000000" font-family="sans-serif" font-size="14" lengthAdjust="spacing" textLength="210.4033" x="325.5" y="254.4795">leave_file(file_name: str) : Ret</text><g data-visibility-modifier="PUBLIC_METHOD"><ellipse cx="316.5" cy="267.4297" fill="#84BE84" rx="3" ry="3" style="stroke:#038048;stroke-width:1;"/></g><text fill="#000000" font-family="sans-serif" font-size="14" lengthAdjust="spacing" textLength="306.8105" x="325.5" y="270.7764">convert_section(section: str, level: int) : Ret</text><g data-visibility-modifier="PUBLIC_METHOD"><ellipse cx="316.5" cy="283.7266" fill="#84BE84" rx="3" ry="3" style="stroke:#038048;stroke-width:1;"/></g><text fill="#000000" font-family="sans-serif" font-size="14" lengthAdjust="spacing" textLength="678.7129" x="325.5" y="287.0732">convert_record_object_generic(record: Record_Object, level: int, translation: Optional[dict]) : Ret</text><g data-visibility-modifier="PUBLIC_METHOD"><ellipse cx="316.5" cy="300.0234" fill="#84BE84" rx="3" ry="3" style="stroke:#038048;stroke-width:1;"/></g><text fill="#000000" font-family="sans-serif" font-size="14" lengthAdjust="spacing" textLength="86.1191" x="325.5" y="303.3701">finish() : Ret</text></g><g class="entity" data-qualified-name="GMN5" data-source-line="17" id="ent0006"><path d="M1046,163 L1046,209.5 L1010.51,213.5 L1046,217.5 L1046,263.7969 A0,0 0 0 0 1046,263.7969 L1367.7456,263.7969 A0,0 0 0 0 1367.7456,263.7969 L1367.7456,173 L1357.7456,163 L1046,163 A0,0 0 0 0 1046,163" fill="#FEFFDD" style="stroke:#181818;stroke-width:0.5;"/><path d="M1357.7456,163 L1357.7456,173 L1367.7456,173 L1357.7456,163" fill="#FEFFDD" style="stroke:#181818;stroke-width:0.5;"/><text fill="#000000" font-family="sans-serif" font-size="13" lengthAdjust="spacing" textLength="300.7456" x="1052" y="180.0669">Builds a Markdown AST (MarkdownDocument)</text><text fill="#000000" font-family="sans-serif" font-size="13" lengthAdjust="spacing" textLength="280.9917" x="1052" y="195.1997">while walking the TRLC symbols and writes</text><text fill="#000000" font-family="sans-serif" font-size="13" lengthAdjust="spacing" textLength="271.4829" x="1052" y="210.3325">the output file(s) only once the document</text><text fill="#000000" font-family="sans-serif" font-size="13" lengthAdjust="spacing" textLength="79.6187" x="1052" y="225.4653">is complete:</text><ellipse cx="1057.5" cy="236.1641" fill="#000000" rx="2.5" ry="2.5"/><text fill="#000000" font-family="sans-serif" font-size="13" lengthAdjust="spacing" textLength="264.0562" x="1064" y="240.5981">leave_file()  -&gt; multiple-document mode</text><ellipse cx="1057.5" cy="251.2969" fill="#000000" rx="2.5" ry="2.5"/><text fill="#000000" font-family="sans-serif" font-size="13" lengthAdjust="spacing" textLength="239.4717" x="1064" y="255.731">finish()      -&gt; single-document mode</text></g><!--reverse link BaseConverter to MarkdownConverter--><g class="link" data-entity-1="ent0002" data-entity-2="ent0003" data-link-type="extension" data-source-line="5" id="lnk4"><path d="M658,73.23 C658,89.03 658,93.12 658,115.76" fill="none" id="BaseConverter-backto-MarkdownConverter" style="stroke:#181818;stroke-width:1;"/><polygon fill="none" points="658,55.23,652,73.23,664,73.23,658,55.23" style="stroke:#181818;stroke-width:1;"/></g><!--reverse link MarkdownElement to Heading--><g class="link" data-entity-1="ent0009" data-entity-2="ent0010" data-link-type="extension" data-source-line="32" id="lnk11"><path d="M951.4462,627.2015 C937.7562,634.1015 939.08,632.91 925,638.5 C863.89,662.77 845.08,658.33 783,680 C777.21,682.02 771.23,684.23 765.27,686.52" fill="none" id="MarkdownElement-backto-Heading" style="stroke:#181818;stroke-width:1;"/><polygon fill="none" points="967.52,619.1,948.7457,621.8435,954.1467,632.5594,967.52,619.1" style="stroke:#181818;stroke-width:1;"/></g><!--reverse link MarkdownElement to Table--><g class="link" data-entity-1="ent0009" data-entity-2="ent0012" data-link-type="extension" data-source-line="35" id="lnk13"><path d="M967.6468,629.7552 C942.4868,648.3952 925.04,661.33 899.88,679.97" fill="none" id="MarkdownElement-backto-Table" style="stroke:#181818;stroke-width:1;"/><polygon fill="none" points="982.11,619.04,964.0751,624.9341,971.2185,634.5763,982.11,619.04" style="stroke:#181818;stroke-width:1;"/></g><!--reverse link MarkdownElement to BulletList--><g class="link" data-entity-1="ent0009" data-entity-2="ent0014" data-link-type="extension" data-source-line="38" id="lnk15"><path d="M1018.034,636.908 C1015.764,655.548 1015.06,661.33 1012.78,679.97" fill="none" id="MarkdownElement-backto-BulletList" style="stroke:#181818;stroke-width:1;"/><polygon fill="none" points="1020.21,619.04,1012.078,636.1827,1023.99,637.6333,1020.21,619.04" style="stroke:#181818;stroke-width:1;"/></g><!--reverse link MarkdownElement to Image--><g class="link" data-entity-1="ent0009" data-entity-2="ent0016" data-link-type="extension" data-source-line="41" id="lnk17"><path d="M1071.6729,631.1107 C1092.2929,649.7507 1105.08,661.33 1125.69,679.97" fill="none" id="MarkdownElement-backto-Image" style="stroke:#181818;stroke-width:1;"/><polygon fill="none" points="1058.32,619.04,1067.6493,635.5616,1075.6964,626.6597,1058.32,619.04" style="stroke:#181818;stroke-width:1;"/></g><!--reverse link MarkdownElement to RawText--><g class="link" data-entity-1="ent0009" data-entity-2="ent0018" data-link-type="extension" data-source-line="44" id="lnk19"><path d="M1112.9644,626.131 C1161.2844,646.841 1207.45,666.62 1252.59,685.97" fill="none" id="MarkdownElement-backto-RawText" style="stroke:#181818;stroke-width:1;"/><polygon fill="none" points="1096.42,619.04,1110.6008,631.6458,1115.3281,620.6161,1096.42,619.04" style="stroke:#181818;stroke-width:1;"/></g><!--reverse link MarkdownDocument to MarkdownElement--><g class="link" data-entity-1="ent0020" data-entity-2="ent0009" data-link-type="aggregation" data-source-line="66" id="lnk25"><path codeLine="66" d="M888.6084,498.5235 C920.6684,519.2435 947.28,536.43 975.79,554.85" fill="none" id="MarkdownDocument-backto-MarkdownElement" style="stroke:#181818;stroke-width:1;"/><polygon fill="none" points="878.53,492.01,881.398,498.6262,888.6084,498.5235,885.7404,491.9073,878.53,492.01" style="stroke:#181818;stroke-width:1;"/><text fill="#000000" font-family="sans-serif" font-size="13" lengthAdjust="spacing" textLength="23.0356" x="940.4518" y="543.7222">0..*</text></g><!--link Heading to MarkdownText--><g class="link" data-entity-1="ent0010" data-entity-2="ent0021" data-link-type="dependency" data-source-line="67" id="lnk26"><path codeLine="67" d="M765.02,738.7 C805.99,756.85 857.1442,779.5098 909.0642,802.5098" fill="none" id="Heading-to-MarkdownText" style="stroke:#181818;stroke-width:1;stroke-dasharray:7,7;"/><polygon fill="#181818" points="914.55,804.94,907.9414,797.6375,909.9785,802.9149,904.7011,804.952,914.55,804.94" style="stroke:#181818;stroke-width:1;"/></g><!--link Image to MarkdownText--><g class="link" data-entity-1="ent0016" data-entity-2="ent0021" data-link-type="dependency" data-source-line="68" id="lnk27"><path codeLine="68" d="M1137.27,744.02 C1124.46,761.51 1111.5665,779.1103 1096.3465,799.8803" fill="none" id="Image-to-MarkdownText" style="stroke:#181818;stroke-width:1;stroke-dasharray:7,7;"/><polygon fill="#181818" points="1092.8,804.72,1101.3462,799.8248,1095.7554,800.6869,1094.8932,795.0962,1092.8,804.72" style="stroke:#181818;stroke-width:1;"/></g><!--link BulletList to MarkdownText--><g class="link" data-entity-1="ent0014" data-entity-2="ent0021" data-link-type="dependency" data-source-line="69" id="lnk28"><path codeLine="69" d="M1017.19,744.02 C1021.81,761.51 1026.1967,778.1492 1031.6867,798.9192" fill="none" id="BulletList-to-MarkdownText" style="stroke:#181818;stroke-width:1;stroke-dasharray:7,7;"/><polygon fill="#181818" points="1033.22,804.72,1034.7873,794.9966,1031.9423,799.886,1027.0529,797.041,1033.22,804.72" style="stroke:#181818;stroke-width:1;"/></g><!--reverse link MarkdownConverter to MarkdownDocument--><g class="link" data-entity-1="ent0003" data-entity-2="ent0020" data-link-type="composition" data-source-line="72" id="lnk29"><path codeLine="72" d="M726.8434,321.2749 C745.4734,350.1649 758.57,370.48 774.21,394.75" fill="none" id="MarkdownConverter-backto-MarkdownDocument" style="stroke:#181818;stroke-width:1;"/><polygon fill="#181818" points="720.34,311.19,720.23,318.4003,726.8434,321.2749,726.9533,314.0647,720.34,311.19" style="stroke:#181818;stroke-width:1;"/></g><!--link MarkdownConverter to MarkdownElement--><g class="link" data-entity-1="ent0003" data-entity-2="ent0009" data-link-type="dependency" data-source-line="73" id="lnk30"><path codeLine="73" d="M938.12,311.14 C952.82,322.69 966.31,335.59 978,350 C1026.38,409.66 1029.2689,499.487 1026.8989,548.657" fill="none" id="MarkdownConverter-to-MarkdownElement" style="stroke:#181818;stroke-width:1;stroke-dasharray:7,7;"/><polygon fill="#181818" points="1026.61,554.65,1031.0387,545.853,1026.8507,549.6558,1023.0479,545.4679,1026.61,554.65" style="stroke:#181818;stroke-width:1;"/><text fill="#000000" font-family="sans-serif" font-size="13" lengthAdjust="spacing" textLength="38.7397" x="1026" y="448.0669">builds</text></g><!--link MarkdownConverter to MarkdownText--><g class="link" data-entity-1="ent0003" data-entity-2="ent0021" data-link-type="dependency" data-source-line="74" id="lnk31"><path codeLine="74" d="M1007.58,311.02 C1208.75,367.82 1422,430.8 1422,442.5 C1422,442.5 1422,442.5 1422,713 C1422,757.16 1336.8635,792.972 1244.8135,819.612" fill="none" id="MarkdownConverter-to-MarkdownText" style="stroke:#181818;stroke-width:1;stroke-dasharray:7,7;"/><polygon fill="#181818" points="1239.05,821.28,1248.8072,822.6203,1243.8529,819.89,1246.5832,814.9357,1239.05,821.28" style="stroke:#181818;stroke-width:1;"/></g><!--link MarkdownConverter to trlc--><g class="link" data-entity-1="ent0003" data-entity-2="ent0033" data-link-type="dependency" data-source-line="102" id="lnk42"><path codeLine="102" d="M305.3,266.19 C242.63,285.79 180.64,312.79 128,350 C104.79,366.4 90.432,389.083 80.172,410.003" fill="none" id="MarkdownConverter-to-trlc" style="stroke:#181818;stroke-width:1;stroke-dasharray:7,7;"/><polygon fill="#181818" points="77.53,415.39,85.0843,409.0708,79.7317,410.9008,77.9017,405.5482,77.53,415.39" style="stroke:#181818;stroke-width:1;"/></g><!--link MarkdownConverter to TrlcAstWalker--><g class="link" data-entity-1="ent0003" data-entity-2="ent0037" data-link-type="dependency" data-source-line="103" id="lnk43"><path codeLine="103" d="M524.13,311.18 C508.54,323.79 493.16,336.9 479,350 C455.37,371.87 435.0786,395.2156 419.1786,414.6556" fill="none" id="MarkdownConverter-to-TrlcAstWalker" style="stroke:#181818;stroke-width:1;stroke-dasharray:7,7;"/><polygon fill="#181818" points="415.38,419.3,424.1742,414.8659,418.5455,415.4297,417.9817,409.801,415.38,419.3" style="stroke:#181818;stroke-width:1;"/></g><!--link MarkdownConverter to PlantUML--><g class="link" data-entity-1="ent0003" data-entity-2="ent0038" data-link-type="dependency" data-source-line="104" id="lnk44"><path codeLine="104" d="M610.08,311.19 C590.35,351 571.8539,388.3138 559.1939,413.8638" fill="none" id="MarkdownConverter-to-PlantUML" style="stroke:#181818;stroke-width:1;stroke-dasharray:7,7;"/><polygon fill="#181818" points="556.53,419.24,564.11,412.9516,558.7499,414.7598,556.9417,409.3998,556.53,419.24" style="stroke:#181818;stroke-width:1;"/></g><?plantuml-src hLPDRziu4BtxLmnyibFRMFHe50QI9jXT84aB9-aU5eL2KMERDKKA91NN2FpVEoGbMOhSfjsk07zntZoICszcp2Mp5YwOnVTQFQ5nQE1vS1Zmi7x3p3RJEtMquLU7Akjx03rlrkWIMwPSvpbJsMWCSx3E76qPMcv4uOHMNQF1jR14D69cRPE26Ojc3kTgxr6tMc64fGIBdajqSGaLkIKh8N7atnB5SWp47PH4zeIledYyJsAHXoDMdm4u0ObFAESWb3lfP91haoKw_K9UoHeL6i57STN3W_L3iBQv9k0CKrQokDE741mc_yq4Tvyx6ws44dRJtFum62Zj48nORnpeLJzNmUsY59BInHepdD_TmwZ-TQbvcLCCnm6ysr1mOCVaLgWrk0t2_VBwFTXzdcf992g3dH4ERK1xkovTKJe8aRLZq4hkwOrZC6OLUK0B2wIBGgB3ULWuWrPMnW3J1UIbT88WqzeJSfrXXMxk7nv2Mpfa3qlY11-NmQ1WVClM2CFspOSarS37KaegumwwGh-I6BYYe4FSdsle0GonaqZRqZr4kiZo5xBCHwukaX-mdgGwCjspb3Bn-pmNfQI8NrDn_GzaV-S-dh_FisIxUsBvpqmjgfSwRlkoB1jXf9o_tAFJLm9Qs0Jpmkt3NgdMyjSF4IxrxbtfX1HklrXqL6GTbJW_0BL0Lk384RRfG3Lh5obNRwrU-SxYIgD-oaEexH4tWTB8wblSDLxi-_vSIsqmIpn5coUily9KHIJqf5Gxf_DsKxfijmB_D36b_iaPwO1UDdIDL6g-RN1L0kq4BD9Se7DIVP4FzMQAyzCnWS7DGhgdNXSx0oqnjVL1mLc07Nk3_zMJZfvEOVZ7R7OsVAcMWA-BUpPRT38UZB4qJffQ9TYpKz3w8_QCpj6BMn_M9gihXz8I-lqhyB3tiK5UOk6peRX0spJ8AEsXCv8FITIZ6vX8FsfIMUBOzzfIucBntCjzCu-YQvEV1rjD4qQ1e1cIstbZEwFu5L9muP9RYbPhlJCt--jBN24fYMFBTESCfIcvfZqCQtDTVIqCMalpzOGQghPBHpwtxX-QWCs_cawfVoH9kOURwyPsGlCrfjbw6RHkQTnxBSBZusFX8MKkwMk3MlbxPAJj36inEmrtd_vi4BiDAfXEO-bCQmu_MIsw5n8_gIolWIejfusT-ty7qrpl6m00?></g></svg>