<?plantuml 1.2026.1?><svg xmlns="http://www.w3.org/2000/svg" xmlns:xlink="http://www.w3.org/1999/xlink" contentStyleType="text/css" data-diagram-type="CLASS" height="702px" preserveAspectRatio="none" style="width:980px;height:702px;background:#FFFFFF;" version="1.1" viewBox="0 0 980 702" width="980px" zoomAndPan="magnify"><defs/><g><!--cluster Dependencies--><g class="cluster" data-qualified-name="Dependencies" data-source-line="17" id="ent0005"><path d="M8.5,335 L120.5088,335 A3.75,3.75 0 0 1 123.0088,337.5 L130.0088,357.2969 L929.5,357.2969 A2.5,2.5 0 0 1 932,359.7969 L932,692.5 A2.5,2.5 0 0 1 929.5,695 L8.5,695 A2.5,2.5 0 0 1 6,692.5 L6,337.5 A2.5,2.5 0 0 1 8.5,335" fill="none" style="stroke:#000000;stroke-width:1.5;"/><line style="stroke:#000000;stroke-width:1.5;" x1="6" x2="130.0088" y1="357.2969" y2="357.2969"/><text fill="#000000" font-family="sans-serif" font-size="14" font-weight="bold" lengthAdjust="spacing" textLength="111.0088" x="10" y="349.9951">Dependencies</text></g><!--class trlc--><g class="entity" data-qualified-name="Dependencies.trlc" data-source-line="19" id="ent0006"><rect fill="#F1F1F1" height="56.2656" rx="2.5" ry="2.5" style="stroke:#181818;stroke-width:0.5;" width="87.7832" x="518" y="392.5"/><ellipse cx="533" cy="412.6328" fill="#ADD8E6" rx="11" ry="11" style="stroke:#181818;stroke-width:1;"/><path d="M528.7188,406.2422 L531.6406,406.2422 L533.1094,411.6797 L534.5781,406.2422 L537.5156,406.2422 L537.5156,418.6328 L535.4063,418.6328 L535.4063,408.7109 L534.0938,414.1328 L532.1563,414.1328 L530.8281,408.7109 L530.8281,418.6328 L528.7188,418.6328 L528.7188,406.2422 Z " fill="#000000"/><text fill="#000000" font-family="sans-serif" font-size="12" font-style="italic" lengthAdjust="spacing" textLength="59.7832" x="545" y="408.6387">&#171;module&#187;</text><text fill="#000000" font-family="sans-serif" font-size="14" lengthAdjust="spacing" textLength="22.832" x="563.4756" y="424.4639">trlc</text><line style="stroke:#181818;stroke-width:0.5;" x1="519" x2="604.7832" y1="432.7656" y2="432.7656"/><line style="stroke:#181818;stroke-width:0.5;" x1="519" x2="604.7832" y1="440.7656" y2="440.7656"/></g><g class="entity" data-qualified-name="Dependencies.GMN7" data-source-line="23" id="ent0008"><path d="M764,370 L764,470.7969 L915.5615,470.7969 L915.5615,380 L905.5615,370 L764,370" fill="#FEFFDD" style="stroke:#181818;stroke-width:0.5;"/><path d="M905.5615,370 L905.5615,380 L915.5615,380 L905.5615,370" fill="#FEFFDD" style="stroke:#181818;stroke-width:1;"/><text fill="#000000" font-family="sans-serif" font-size="13" lengthAdjust="spacing" textLength="130.3364" x="770" y="387.0669">Use TRLC ast items:</text><ellipse cx="775.5" cy="397.7656" fill="#000000" rx="2.5" ry="2.5"/><text fill="#000000" font-family="sans-serif" font-size="13" lengthAdjust="spacing" textLength="79.5171" x="782" y="402.1997">Implicit_Null</text><ellipse cx="775.5" cy="412.8984" fill="#000000" rx="2.5" ry="2.5"/><text fill="#000000" font-family="sans-serif" font-size="13" lengthAdjust="spacing" textLength="94.5674" x="782" y="417.3325">Record_Object</text><ellipse cx="775.5" cy="428.0313" fill="#000000" rx="2.5" ry="2.5"/><text fill="#000000" font-family="sans-serif" font-size="13" lengthAdjust="spacing" textLength="118.5615" x="782" y="432.4653">Record_Reference</text><ellipse cx="775.5" cy="443.1641" fill="#000000" rx="2.5" ry="2.5"/><text fill="#000000" font-family="sans-serif" font-size="13" lengthAdjust="spacing" textLength="86.1694" x="782" y="447.5981">String_Literal</text><ellipse cx="775.5" cy="458.2969" fill="#000000" rx="2.5" ry="2.5"/><text fill="#000000" font-family="sans-serif" font-size="13" lengthAdjust="spacing" textLength="70.8525" x="782" y="462.731">Expression</text></g><!--class TrlcAstWalker--><g class="entity" data-qualified-name="Dependencies.TrlcAstWalker" data-source-line="31" id="ent0010"><rect fill="#F1F1F1" height="48" rx="2.5" ry="2.5" style="stroke:#181818;stroke-width:0.5;" width="129.043" x="353.5" y="396.5"/><ellipse cx="368.5" cy="412.5" fill="#ADD1B2" rx="11" ry="11" style="stroke:#181818;stroke-width:1;"/><path d="M371.4688,418.1406 Q370.8906,418.4375 370.25,418.5781 Q369.6094,418.7344 368.9063,418.7344 Q366.4063,418.7344 365.0781,417.0938 Q363.7656,415.4375 363.7656,412.3125 Q363.7656,409.1875 365.0781,407.5313 Q366.4063,405.875 368.9063,405.875 Q369.6094,405.875 370.25,406.0313 Q370.9063,406.1875 371.4688,406.4844 L371.4688,409.2031 Q370.8438,408.625 370.25,408.3594 Q369.6563,408.0781 369.0313,408.0781 Q367.6875,408.0781 367,409.1563 Q366.3125,410.2188 366.3125,412.3125 Q366.3125,414.4063 367,415.4844 Q367.6875,416.5469 369.0313,416.5469 Q369.6563,416.5469 370.25,416.2813 Q370.8438,416 371.4688,415.4219 L371.4688,418.1406 Z " fill="#000000"/><text fill="#000000" font-family="sans-serif" font-size="14" lengthAdjust="spacing" textLength="97.043" x="382.5" y="417.3467">TrlcAstWalker</text><line style="stroke:#181818;stroke-width:0.5;" x1="354.5" x2="481.543" y1="428.5" y2="428.5"/><line style="stroke:#181818;stroke-width:0.5;" x1="354.5" x2="481.543" y1="436.5" y2="436.5"/></g><!--class Md2ReqifRenderer--><g class="entity" data-qualified-name="Dependencies.Md2ReqifRenderer" data-source-line="34" id="ent0011"><rect fill="#F1F1F1" height="64.2969" rx="2.5" ry="2.5" style="stroke:#181818;stroke-width:0.5;" width="172.8428" x="145.5" y="388.5"/><ellipse cx="165.0382" cy="404.5" fill="#ADD1B2" rx="11" ry="11" style="stroke:#181818;stroke-width:1;"/><path d="M168.007,410.1406 Q167.4289,410.4375 166.7882,410.5781 Q166.1476,410.7344 165.4445,410.7344 Q162.9445,410.7344 161.6164,409.0938 Q160.3039,407.4375 160.3039,404.3125 Q160.3039,401.1875 161.6164,399.5313 Q162.9445,397.875 165.4445,397.875 Q166.1476,397.875 166.7882,398.0313 Q167.4445,398.1875 168.007,398.4844 L168.007,401.2031 Q167.382,400.625 166.7882,400.3594 Q166.1945,400.0781 165.5695,400.0781 Q164.2257,400.0781 163.5382,401.1563 Q162.8507,402.2188 162.8507,404.3125 Q162.8507,406.4063 163.5382,407.4844 Q164.2257,408.5469 165.5695,408.5469 Q166.1945,408.5469 166.7882,408.2813 Q167.382,408 168.007,407.4219 L168.007,410.1406 Z " fill="#000000"/><text fill="#000000" font-family="sans-serif" font-size="14" lengthAdjust="spacing" textLength="130.7578" x="180.0467" y="409.3467">Md2ReqifRenderer</text><line style="stroke:#181818;stroke-width:0.5;" x1="146.5" x2="317.3428" y1="420.5" y2="420.5"/><line style="stroke:#181818;stroke-width:0.5;" x1="146.5" x2="317.3428" y1="428.5" y2="428.5"/><g data-visibility-modifier="PUBLIC_METHOD"><ellipse cx="156.5" cy="442.1484" fill="#84BE84" rx="3" ry="3" style="stroke:#038048;stroke-width:1;"/></g><text fill="#000000" font-family="sans-serif" font-size="14" lengthAdjust="spacing" textLength="146.8428" x="165.5" y="445.4951">render(ast: Any) : str</text></g><!--class Gfm2ReqifRenderer--><g class="entity" data-qualified-name="Dependencies.Gfm2ReqifRenderer" data-source-line="38" id="ent0012"><rect fill="#F1F1F1" height="48" rx="2.5" ry="2.5" style="stroke:#181818;stroke-width:0.5;" width="171.207" x="533.5" y="531"/><ellipse cx="548.5" cy="547" fill="#ADD1B2" rx="11" ry="11" style="stroke:#181818;stroke-width:1;"/><path d="M551.4688,552.6406 Q550.8906,552.9375 550.25,553.0781 Q549.6094,553.2344 548.9063,553.2344 Q546.4063,553.2344 545.0781,551.5938 Q543.7656,549.9375 543.7656,546.8125 Q543.7656,543.6875 545.0781,542.0313 Q546.4063,540.375 548.9063,540.375 Q549.6094,540.375 550.25,540.5313 Q550.9063,540.6875 551.4688,540.9844 L551.4688,543.7031 Q550.8438,543.125 550.25,542.8594 Q549.6563,542.5781 549.0313,542.5781 Q547.6875,542.5781 547,543.6563 Q546.3125,544.7188 546.3125,546.8125 Q546.3125,548.9063 547,549.9844 Q547.6875,551.0469 549.0313,551.0469 Q549.6563,551.0469 550.25,550.7813 Q550.8438,550.5 551.4688,549.9219 L551.4688,552.6406 Z " fill="#000000"/><text fill="#000000" font-family="sans-serif" font-size="14" lengthAdjust="spacing" textLength="139.207" x="562.5" y="551.8467">Gfm2ReqifRenderer</text><line style="stroke:#181818;stroke-width:0.5;" x1="534.5" x2="703.707" y1="563" y2="563"/><line style="stroke:#181818;stroke-width:0.5;" x1="534.5" x2="703.707" y1="571" y2="571"/></g><!--class marko--><g class="entity" data-qualified-name="Dependencies.marko" data-source-line="41" id="ent0014"><rect fill="#F1F1F1" height="56.2656" rx="2.5" ry="2.5" style="stroke:#181818;stroke-width:0.5;" width="87.7832" x="22" y="392.5"/><ellipse cx="37" cy="412.6328" fill="#ADD8E6" rx="11" ry="11" style="stroke:#181818;stroke-width:1;"/><path d="M32.7188,406.2422 L35.6406,406.2422 L37.1094,411.6797 L38.5781,406.2422 L41.5156,406.2422 L41.5156,418.6328 L39.4063,418.6328 L39.4063,408.7109 L38.0938,414.1328 L36.1563,414.1328 L34.8281,408.7109 L34.8281,418.6328 L32.7188,418.6328 L32.7188,406.2422 Z " fill="#000000"/><text fill="#000000" font-family="sans-serif" font-size="12" font-style="italic" lengthAdjust="spacing" textLength="59.7832" x="49" y="408.6387">&#171;module&#187;</text><text fill="#000000" font-family="sans-serif" font-size="14" lengthAdjust="spacing" textLength="44.6455" x="56.5688" y="424.4639">marko</text><line style="stroke:#181818;stroke-width:0.5;" x1="23" x2="108.7832" y1="432.7656" y2="432.7656"/><line style="stroke:#181818;stroke-width:0.5;" x1="23" x2="108.7832" y1="440.7656" y2="440.7656"/></g><g class="entity" data-qualified-name="Dependencies.GMN15" data-source-line="44" id="ent0016"><path d="M22,542.5 L22,567.6328 A0,0 0 0 0 22,567.6328 L155.5313,567.6328 A0,0 0 0 0 155.5313,567.6328 L155.5313,552.5 L145.5313,542.5 L90.98,542.5 L70.71,448.63 L82.98,542.5 L22,542.5 A0,0 0 0 0 22,542.5" fill="#FEFFDD" style="stroke:#181818;stroke-width:0.5;"/><path d="M145.5313,542.5 L145.5313,552.5 L155.5313,552.5 L145.5313,542.5" fill="#FEFFDD" style="stroke:#181818;stroke-width:0.5;"/><text fill="#000000" font-family="sans-serif" font-size="13" lengthAdjust="spacing" textLength="112.5313" x="28" y="559.5669">Markdown Parser</text></g><!--class PlantUML--><g class="entity" data-qualified-name="Dependencies.PlantUML" data-source-line="47" id="ent0018"><rect fill="#F1F1F1" height="48" rx="2.5" ry="2.5" style="stroke:#181818;stroke-width:0.5;" width="97.3994" x="191.5" y="531"/><ellipse cx="206.5" cy="547" fill="#ADD1B2" rx="11" ry="11" style="stroke:#181818;stroke-width:1;"/><path d="M209.4688,552.6406 Q208.8906,552.9375 208.25,553.0781 Q207.6094,553.2344 206.9063,553.2344 Q204.4063,553.2344 203.0781,551.5938 Q201.7656,549.9375 201.7656,546.8125 Q201.7656,543.6875 203.0781,542.0313 Q204.4063,540.375 206.9063,540.375 Q207.6094,540.375 208.25,540.5313 Q208.9063,540.6875 209.4688,540.9844 L209.4688,543.7031 Q208.8438,543.125 208.25,542.8594 Q207.6563,542.5781 207.0313,542.5781 Q205.6875,542.5781 205,543.6563 Q204.3125,544.7188 204.3125,546.8125 Q204.3125,548.9063 205,549.9844 Q205.6875,551.0469 207.0313,551.0469 Q207.6563,551.0469 208.25,550.7813 Q208.8438,550.5 209.4688,549.9219 L209.4688,552.6406 Z " fill="#000000"/><text fill="#000000" font-family="sans-serif" font-size="14" lengthAdjust="spacing" textLength="65.3994" x="220.5" y="551.8467">PlantUML</text><line style="stroke:#181818;stroke-width:0.5;" x1="192.5" x2="287.8994" y1="563" y2="563"/><line style="stroke:#181818;stroke-width:0.5;" x1="192.5" x2="287.8994" y1="571" y2="571"/></g><g class="entity" data-qualified-name="Dependencies.GMN19" data-source-line="50" id="ent0020"><path d="M132.5,639 L132.5,679.2656 A0,0 0 0 0 132.5,679.2656 L347.3955,679.2656 A0,0 0 0 0 347.3955,679.2656 L347.3955,649 L337.3955,639 L244,639 L240,579.15 L236,639 L132.5,639 A0,0 0 0 0 132.5,639" fill="#FEFFDD" style="stroke:#181818;stroke-width:0.5;"/><path d="M337.3955,639 L337.3955,649 L347.3955,649 L337.3955,639" fill="#FEFFDD" style="stroke:#181818;stroke-width:0.5;"/><text fill="#000000" font-family="sans-serif" font-size="13" lengthAdjust="spacing" textLength="193.8955" x="138.5" y="656.0669">Renders inline ```plantuml```</text><text fill="#000000" font-family="sans-serif" font-size="13" lengthAdjust="spacing" textLength="177.7598" x="138.5" y="671.1997">fenced code blocks to SVG.</text></g><!--class reqif--><g class="entity" data-qualified-name="Dependencies.reqif" data-source-line="54" id="ent0022"><rect fill="#F1F1F1" height="56.2656" rx="2.5" ry="2.5" style="stroke:#181818;stroke-width:0.5;" width="87.7832" x="641" y="392.5"/><ellipse cx="656" cy="412.6328" fill="#ADD8E6" rx="11" ry="11" style="stroke:#181818;stroke-width:1;"/><path d="M651.7188,406.2422 L654.6406,406.2422 L656.1094,411.6797 L657.5781,406.2422 L660.5156,406.2422 L660.5156,418.6328 L658.4063,418.6328 L658.4063,408.7109 L657.0938,414.1328 L655.1563,414.1328 L653.8281,408.7109 L653.8281,418.6328 L651.7188,418.6328 L651.7188,406.2422 Z " fill="#000000"/><text fill="#000000" font-family="sans-serif" font-size="12" font-style="italic" lengthAdjust="spacing" textLength="59.7832" x="668" y="408.6387">&#171;module&#187;</text><text fill="#000000" font-family="sans-serif" font-size="14" lengthAdjust="spacing" textLength="32.0742" x="681.8545" y="424.4639">reqif</text><line style="stroke:#181818;stroke-width:0.5;" x1="642" x2="727.7832" y1="432.7656" y2="432.7656"/><line style="stroke:#181818;stroke-width:0.5;" x1="642" x2="727.7832" y1="440.7656" y2="440.7656"/></g><!--class BaseConverter--><g class="entity" data-qualified-name="BaseConverter" data-source-line="2" id="ent0002"><rect fill="#F1F1F1" height="48" rx="2.5" ry="2.5" style="stroke:#181818;stroke-width:0.5;" width="135.8174" x="422" y="7"/><ellipse cx="437" cy="23" fill="#ADD1B2" rx="11" ry="11" style="stroke:#181818;stroke-width:1;"/><path d="M439.9688,28.6406 Q439.3906,28.9375 438.75,29.0781 Q438.1094,29.2344 437.4063,29.2344 Q434.9063,29.2344 433.5781,27.5938 Q432.2656,25.9375 432.2656,22.8125 Q432.2656,19.6875 433.5781,18.0313 Q434.9063,16.375 437.4063,16.375 Q438.1094,16.375 438.75,16.5313 Q439.4063,16.6875 439.9688,16.9844 L439.9688,19.7031 Q439.3438,19.125 438.75,18.8594 Q438.1563,18.5781 437.5313,18.5781 Q436.1875,18.5781 435.5,19.6563 Q434.8125,20.7188 434.8125,22.8125 Q434.8125,24.9063 435.5,25.9844 Q436.1875,27.0469 437.5313,27.0469 Q438.1563,27.0469 438.75,26.7813 Q439.3438,26.5 439.9688,25.9219 L439.9688,28.6406 Z " fill="#000000"/><text fill="#000000" font-family="sans-serif" font-size="14" lengthAdjust="spacing" textLength="103.8174" x="451" y="27.8467">BaseConverter</text><line style="stroke:#181818;stroke-width:0.5;" x1="423" x2="556.8174" y1="39" y2="39"/><line style="stroke:#181818;stroke-width:0.5;" x1="423" x2="556.8174" y1="47" y2="47"/></g><!--class ReqifConverter--><g class="entity" data-qualified-name="ReqifConverter" data-source-line="4" id="ent0003"><rect fill="#F1F1F1" height="194.6719" rx="2.5" ry="2.5" style="stroke:#181818;stroke-width:0.5;" width="704.7129" x="137.5" y="115"/><ellipse cx="432.7202" cy="131" fill="#ADD1B2" rx="11" ry="11" style="stroke:#181818;stroke-width:1;"/><path d="M435.689,136.6406 Q435.1108,136.9375 434.4702,137.0781 Q433.8296,137.2344 433.1265,137.2344 Q430.6265,137.2344 429.2983,135.5938 Q427.9858,133.9375 427.9858,130.8125 Q427.9858,127.6875 429.2983,126.0313 Q430.6265,124.375 433.1265,124.375 Q433.8296,124.375 434.4702,124.5313 Q435.1265,124.6875 435.689,124.9844 L435.689,127.7031 Q435.064,127.125 434.4702,126.8594 Q433.8765,126.5781 433.2515,126.5781 Q431.9077,126.5781 431.2202,127.6563 Q430.5327,128.7188 430.5327,130.8125 Q430.5327,132.9063 431.2202,133.9844 Q431.9077,135.0469 433.2515,135.0469 Q433.8765,135.0469 434.4702,134.7813 Q435.064,134.5 435.689,133.9219 L435.689,136.6406 Z " fill="#000000"/><text fill="#000000" font-family="sans-serif" font-size="14" lengthAdjust="spacing" textLength="105.7725" x="453.2202" y="135.8467">ReqifConverter</text><line style="stroke:#181818;stroke-width:0.5;" x1="138.5" x2="841.2129" y1="147" y2="147"/><line style="stroke:#181818;stroke-width:0.5;" x1="138.5" x2="841.2129" y1="155" y2="155"/><g data-visibility-modifier="PUBLIC_METHOD"><ellipse cx="148.5" cy="168.6484" fill="#84BE84" rx="3" ry="3" style="stroke:#038048;stroke-width:1;"/></g><text fill="#000000" font-family="sans-serif" font-size="14" lengthAdjust="spacing" textLength="168" x="157.5" y="171.9951">get_subcommand() : str</text><g data-visibility-modifier="PUBLIC_METHOD"><ellipse cx="148.5" cy="184.9453" fill="#84BE84" rx="3" ry="3" style="stroke:#038048;stroke-width:1;"/></g><text fill="#000000" font-family="sans-serif" font-size="14" lengthAdjust="spacing" textLength="150.9102" x="157.5" y="188.292">get_description() : str</text><g data-visibility-modifier="PUBLIC_METHOD"><ellipse cx="148.5" cy="201.2422" fill="#84BE84" rx="3" ry="3" style="stroke:#038048;stroke-width:1;"/></g><text fill="#000000" font-family="sans-serif" font-size="14" lengthAdjust="spacing" textLength="233.666" x="157.5" y="204.5889">register(args_parser: Any) : None</text><g data-visibility-modifier="PUBLIC_METHOD"><ellipse cx="148.5" cy="217.5391" fill="#84BE84" rx="3" ry="3" style="stroke:#038048;stroke-width:1;"/></g><text fill="#000000" font-family="sans-serif" font-size="14" lengthAdjust="spacing" textLength="87.5205" x="157.5" y="220.8857">begin() : Ret</text><g data-visibility-modifier="PUBLIC_METHOD"><ellipse cx="148.5" cy="233.8359" fill="#84BE84" rx="3" ry="3" style="stroke:#038048;stroke-width:1;"/></g><text fill="#000000" font-family="sans-serif" font-size="14" lengthAdjust="spacing" textLength="209.7676" x="157.5" y="237.1826">enter_file(file_name: str) : Ret</text><g data-visibility-modifier="PUBLIC_METHOD"><ellipse cx="148.5" cy="250.1328" fill="#84BE84" rx="3" ry="3" style="stroke:#038048;stroke-width:1;"/></g><text fill="#000000" font-family="sans-serif" font-size="14" lengthAdjust="spacing" textLength="210.4033" x="157.5" y="253.4795">leave_file(file_name: str) : Ret</text><g data-visibility-modifier="PUBLIC_METHOD"><ellipse cx="148.5" cy="266.4297" fill="#84BE84" rx="3" ry="3" style="stroke:#038048;stroke-width:1;"/></g><text fill="#000000" font-family="sans-serif" font-size="14" lengthAdjust="spacing" textLength="306.8105" x="157.5" y="269.7764">convert_section(section: str, level: int) : Ret</text><g data-visibility-modifier="PUBLIC_METHOD"><ellipse cx="148.5" cy="282.7266" fill="#84BE84" rx="3" ry="3" style="stroke:#038048;stroke-width:1;"/></g><text fill="#000000" font-family="sans-serif" font-size="14" lengthAdjust="spacing" textLength="678.7129" x="157.5" y="286.0732">convert_record_object_generic(record: Record_Object, level: int, translation: Optional[dict]) : Ret</text><g data-visibility-modifier="PUBLIC_METHOD"><ellipse cx="148.5" cy="299.0234" fill="#84BE84" rx="3" ry="3" style="stroke:#038048;stroke-width:1;"/></g><text fill="#000000" font-family="sans-serif" font-size="14" lengthAdjust="spacing" textLength="86.1191" x="157.5" y="302.3701">finish() : Ret</text></g><!--reverse link BaseConverter to ReqifConverter--><g class="link" data-entity-1="ent0002" data-entity-2="ent0003" data-link-type="extension" data-source-line="5" id="lnk4"><path d="M490,73.1 C490,88.72 490,92.52 490,114.89" fill="none" id="BaseConverter-backto-ReqifConverter" style="stroke:#181818;stroke-width:1;"/><polygon fill="none" points="490,55.1,484,73.1,496,73.1,490,55.1" style="stroke:#181818;stroke-width:1;"/></g><!--link trlc to GMN7--><g class="link" data-entity-1="ent0006" data-entity-2="ent0008" data-link-type="association" data-source-line="23" id="lnk9"><path d="M575.55,392.22 C586.38,371.99 603.18,345.21 624,327 C630.51,321.31 633.07,320.44 641.5,318.5 C679.62,309.73 691.38,309.73 729.5,318.5 C759.65,325.43 785.56,347.8 804.7,369.83" fill="none" id="trlc-GMN7" style="stroke:#181818;stroke-width:1;stroke-dasharray:7,7;"/></g><!--reverse link Md2ReqifRenderer to Gfm2ReqifRenderer--><g class="link" data-entity-1="ent0011" data-entity-2="ent0012" data-link-type="extension" id="lnk13"><path d="M309.4629,460.2199 C323.3729,466.7299 321.9,465.61 336,471 C400.93,495.79 476.58,517.63 533.32,532.68" fill="none" id="Md2ReqifRenderer-backto-Gfm2ReqifRenderer" style="stroke:#181818;stroke-width:1;"/><polygon fill="none" points="293.16,452.59,306.9196,465.6542,312.0062,454.7856,293.16,452.59" style="stroke:#181818;stroke-width:1;"/></g><!--link ReqifConverter to trlc--><g class="link" data-entity-1="ent0003" data-entity-2="ent0006" data-link-type="dependency" data-source-line="58" id="lnk23"><path codeLine="58" d="M523.79,310.17 C534.31,340.27 543.0996,365.4363 550.5196,386.6563" fill="none" id="ReqifConverter-to-trlc" style="stroke:#181818;stroke-width:1;stroke-dasharray:7,7;"/><polygon fill="#181818" points="552.5,392.32,553.3052,382.5041,550.8496,387.6002,545.7535,385.1447,552.5,392.32" style="stroke:#181818;stroke-width:1;"/></g><!--link ReqifConverter to TrlcAstWalker--><g class="link" data-entity-1="ent0003" data-entity-2="ent0010" data-link-type="dependency" data-source-line="59" id="lnk24"><path codeLine="59" d="M456.21,310.17 C445.03,342.15 435.5504,369.2963 428.1304,390.5163" fill="none" id="ReqifConverter-to-TrlcAstWalker" style="stroke:#181818;stroke-width:1;stroke-dasharray:7,7;"/><polygon fill="#181818" points="426.15,396.18,432.8965,389.0047,427.8004,391.4602,425.3448,386.3641,426.15,396.18" style="stroke:#181818;stroke-width:1;"/></g><!--link ReqifConverter to Md2ReqifRenderer--><g class="link" data-entity-1="ent0003" data-entity-2="ent0011" data-link-type="dependency" data-source-line="60" id="lnk25"><path codeLine="60" d="M357.1,310.24 C349.91,315.85 342.84,321.46 336,327 C311.78,346.63 289.9894,365.9128 269.9394,384.2328" fill="none" id="ReqifConverter-to-Md2ReqifRenderer" style="stroke:#181818;stroke-width:1;stroke-dasharray:7,7;"/><polygon fill="#181818" points="265.51,388.28,274.8523,385.1621,269.2012,384.9073,269.456,379.2562,265.51,388.28" style="stroke:#181818;stroke-width:1;"/></g><!--link ReqifConverter to Gfm2ReqifRenderer--><g class="link" data-entity-1="ent0003" data-entity-2="ent0012" data-link-type="dependency" data-source-line="61" id="lnk26"><path codeLine="61" d="M842.68,276.78 C885.17,290.88 918.9,307.56 934,327 C973.25,377.55 973.07,420.31 934,471 C906.12,507.17 793.984,529.8523 710.624,542.3223" fill="none" id="ReqifConverter-to-Gfm2ReqifRenderer" style="stroke:#181818;stroke-width:1;stroke-dasharray:7,7;"/><polygon fill="#181818" points="704.69,543.21,714.1827,545.8345,709.635,542.4703,712.9992,537.9225,704.69,543.21" style="stroke:#181818;stroke-width:1;"/></g><!--link ReqifConverter to marko--><g class="link" data-entity-1="ent0003" data-entity-2="ent0014" data-link-type="dependency" data-source-line="62" id="lnk27"><path codeLine="62" d="M152.62,310.15 C144.14,315.47 135.91,321.08 128,327 C105.4,343.9 91.1109,366.2523 80.6809,386.9423" fill="none" id="ReqifConverter-to-marko" style="stroke:#181818;stroke-width:1;stroke-dasharray:7,7;"/><polygon fill="#181818" points="77.98,392.3,85.6031,386.064,80.2307,387.8352,78.4595,382.4628,77.98,392.3" style="stroke:#181818;stroke-width:1;"/></g><!--link ReqifConverter to reqif--><g class="link" data-entity-1="ent0003" data-entity-2="ent0022" data-link-type="dependency" data-source-line="63" id="lnk28"><path codeLine="63" d="M608.06,310.04 C613.6,315.63 618.94,321.3 624,327 C641.87,347.15 655.3922,367.7517 666.7322,386.9817" fill="none" id="ReqifConverter-to-reqif" style="stroke:#181818;stroke-width:1;stroke-dasharray:7,7;"/><polygon fill="#181818" points="669.78,392.15,668.6539,382.3657,667.2402,387.8431,661.7628,386.4294,669.78,392.15" style="stroke:#181818;stroke-width:1;"/></g><!--link Md2ReqifRenderer to PlantUML--><g class="link" data-entity-1="ent0011" data-entity-2="ent0018" data-link-type="dependency" data-source-line="64" id="lnk29"><path codeLine="64" d="M233.88,452.57 C235.33,476.58 236.9386,503.3009 238.2486,525.0109" fill="none" id="Md2ReqifRenderer-to-PlantUML" style="stroke:#181818;stroke-width:1;stroke-dasharray:7,7;"/><polygon fill="#181818" points="238.61,531,242.0607,521.7754,238.3088,526.0091,234.0752,522.2573,238.61,531" style="stroke:#181818;stroke-width:1;"/></g><?plantuml-src ZLJ1Rjim3BtxAmYVt2teOSUW2D1rGp4WQOkqtGx5u2WoxMgH9OzIiWv3_dsobAXsudJpmKxutgD8FjfSCcFW8pDufTK6oIB1dsIRS1-VuqzHlWBuOb4LntHmr_iARMxMIwxhcgaYEuCn64klM866asYiqAeF4bR2k4GPeyha3IE3D8PBzRjbtMY5WRPqjA2SemqXL4wMbq9YrjvonMhqYNiiYMo3_sJnq4zkaFiITqzF78743Sen26K7HOHSKv7hvG-doYjKI89d8ThIFNhhqMwk4LXYoaWMJhhrms7ogH3SVkyTL0ebp7FiVfiaISFuYbK8wITid2kek42JEZUy8lYNMf8yXOkBR0OZAQfdkvHhF8DQ5sk9aqcmRXiaIbi4QacWovtK0-trQ10UvjChOCQ2i5YRSSJUmPUwaO8Bcz-ifUp4UvqVn-TO8hd2iGFTMnAgogVk36BTN9zV6a9Zt8HyqBNiA-ws--1AlZJs6vEhk9VRBc5MVF0hFMy7Hf7ZHmpaWvbhC6xVVaTxIQxB-Y3B_hquaRwdJcj6A_s69r4KFLbgQtNjJGdYMFJC_ItqBmLt_gqvEPWxoPHzd4tVohtdnEIX2-CMLGg5i5WicfQohgNx6Lbbwry1N1SkcTHyPS1gkFzwVNwocfJQ8VtF2Dpa3Zv1v-UJ_MeE8Bq5628SEZJ4EV9ti8QT4qDGQ2yvseOMZ5F-2m00?></g></svg>