<?plantuml 1.2026.1?><svg xmlns="http://www.w3.org/2000/svg" xmlns:xlink="http://www.w3.org/1999/xlink" contentStyleType="text/css" data-diagram-type="CLASS" height="601px" preserveAspectRatio="none" style="width:884px;height:601px;background:#FFFFFF;" version="1.1" viewBox="0 0 884 601" width="884px" zoomAndPan="magnify"><defs/><g><!--cluster Dependencies--><g class="cluster" data-qualified-name="Dependencies" data-source-line="17" id="ent0005"><path d="M8.5,318 L120.5088,318 A3.75,3.75 0 0 1 123.0088,320.5 L130.0088,340.2969 L874.5,340.2969 A2.5,2.5 0 0 1 877,342.7969 L877,591.5 A2.5,2.5 0 0 1 874.5,594 L8.5,594 A2.5,2.5 0 0 1 6,591.5 L6,320.5 A2.5,2.5 0 0 1 8.5,318" fill="none" style="stroke:#000000;stroke-width:1.5;"/><line style="stroke:#000000;stroke-width:1.5;" x1="6" x2="130.0088" y1="340.2969" y2="340.2969"/><text fill="#000000" font-family="sans-serif" font-size="14" font-weight="bold" lengthAdjust="spacing" textLength="111.0088" x="10" y="332.9951">Dependencies</text></g><!--class trlc--><g class="entity" data-qualified-name="Dependencies.trlc" data-source-line="19" id="ent0006"><rect fill="#F1F1F1" height="56.2656" rx="2.5" ry="2.5" style="stroke:#181818;stroke-width:0.5;" width="87.7832" x="773" y="357"/><ellipse cx="788" cy="377.1328" fill="#ADD8E6" rx="11" ry="11" style="stroke:#181818;stroke-width:1;"/><path d="M783.7188,370.7422 L786.6406,370.7422 L788.1094,376.1797 L789.5781,370.7422 L792.5156,370.7422 L792.5156,383.1328 L790.4063,383.1328 L790.4063,373.2109 L789.0938,378.6328 L787.1563,378.6328 L785.8281,373.2109 L785.8281,383.1328 L783.7188,383.1328 L783.7188,370.7422 Z " fill="#000000"/><text fill="#000000" font-family="sans-serif" font-size="12" font-style="italic" lengthAdjust="spacing" textLength="59.7832" x="800" y="373.1387">&#171;module&#187;</text><text fill="#000000" font-family="sans-serif" font-size="14" lengthAdjust="spacing" textLength="22.832" x="818.4756" y="388.9639">trlc</text><line style="stroke:#181818;stroke-width:0.5;" x1="774" x2="859.7832" y1="397.2656" y2="397.2656"/><line style="stroke:#181818;stroke-width:0.5;" x1="774" x2="859.7832" y1="405.2656" y2="405.2656"/></g><g class="entity" data-qualified-name="Dependencies.GMN7" data-source-line="23" id="ent0008"><path d="M709,477 L709,577.7969 A0,0 0 0 0 709,577.7969 L860.5615,577.7969 A0,0 0 0 0 860.5615,577.7969 L860.5615,487 L850.5615,477 L800.33,477 L810.83,413.09 L792.33,477 L709,477 A0,0 0 0 0 709,477" fill="#FEFFDD" style="stroke:#181818;stroke-width:0.5;"/><path d="M850.5615,477 L850.5615,487 L860.5615,487 L850.5615,477" fill="#FEFFDD" style="stroke:#181818;stroke-width:0.5;"/><text fill="#000000" font-family="sans-serif" font-size="13" lengthAdjust="spacing" textLength="130.3364" x="715" y="494.0669">Use TRLC ast items:</text><ellipse cx="720.5" cy="504.7656" fill="#000000" rx="2.5" ry="2.5"/><text fill="#000000" font-family="sans-serif" font-size="13" lengthAdjust="spacing" textLength="79.5171" x="727" y="509.1997">Implicit_Null</text><ellipse cx="720.5" cy="519.8984" fill="#000000" rx="2.5" ry="2.5"/><text fill="#000000" font-family="sans-serif" font-size="13" lengthAdjust="spacing" textLength="94.5674" x="727" y="524.3325">Record_Object</text><ellipse cx="720.5" cy="535.0313" fill="#000000" rx="2.5" ry="2.5"/><text fill="#000000" font-family="sans-serif" font-size="13" lengthAdjust="spacing" textLength="118.5615" x="727" y="539.4653">Record_Reference</text><ellipse cx="720.5" cy="550.1641" fill="#000000" rx="2.5" ry="2.5"/><text fill="#000000" font-family="sans-serif" font-size="13" lengthAdjust="spacing" textLength="86.1694" x="727" y="554.5981">String_Literal</text><ellipse cx="720.5" cy="565.2969" fill="#000000" rx="2.5" ry="2.5"/><text fill="#000000" font-family="sans-serif" font-size="13" lengthAdjust="spacing" textLength="70.8525" x="727" y="569.731">Expression</text></g><!--class TrlcAstWalker--><g class="entity" data-qualified-name="Dependencies.TrlcAstWalker" data-source-line="31" id="ent0010"><rect fill="#F1F1F1" height="64.2969" rx="2.5" ry="2.5" style="stroke:#181818;stroke-width:0.5;" width="176.3564" x="562" y="353"/><ellipse cx="598.2911" cy="369" fill="#ADD1B2" rx="11" ry="11" style="stroke:#181818;stroke-width:1;"/><path d="M601.2598,374.6406 Q600.6817,374.9375 600.0411,375.0781 Q599.4004,375.2344 598.6973,375.2344 Q596.1973,375.2344 594.8692,373.5938 Q593.5567,371.9375 593.5567,368.8125 Q593.5567,365.6875 594.8692,364.0313 Q596.1973,362.375 598.6973,362.375 Q599.4004,362.375 600.0411,362.5313 Q600.6973,362.6875 601.2598,362.9844 L601.2598,365.7031 Q600.6348,365.125 600.0411,364.8594 Q599.4473,364.5781 598.8223,364.5781 Q597.4786,364.5781 596.7911,365.6563 Q596.1036,366.7188 596.1036,368.8125 Q596.1036,370.9063 596.7911,371.9844 Q597.4786,373.0469 598.8223,373.0469 Q599.4473,373.0469 600.0411,372.7813 Q600.6348,372.5 601.2598,371.9219 L601.2598,374.6406 Z " fill="#000000"/><text fill="#000000" font-family="sans-serif" font-size="14" lengthAdjust="spacing" textLength="97.043" x="617.0224" y="373.8467">TrlcAstWalker</text><line style="stroke:#181818;stroke-width:0.5;" x1="563" x2="737.3564" y1="385" y2="385"/><line style="stroke:#181818;stroke-width:0.5;" x1="563" x2="737.3564" y1="393" y2="393"/><g data-visibility-modifier="PUBLIC_METHOD"><ellipse cx="573" cy="406.6484" fill="#84BE84" rx="3" ry="3" style="stroke:#038048;stroke-width:1;"/></g><text fill="#000000" font-family="sans-serif" font-size="14" lengthAdjust="spacing" textLength="150.3564" x="582" y="409.9951">walk(ast: Any) : None</text></g><!--class Md2RstRenderer--><g class="entity" data-qualified-name="Dependencies.Md2RstRenderer" data-source-line="35" id="ent0011"><rect fill="#F1F1F1" height="64.2969" rx="2.5" ry="2.5" style="stroke:#181818;stroke-width:0.5;" width="172.8428" x="353.5" y="353"/><ellipse cx="379.1291" cy="369" fill="#ADD1B2" rx="11" ry="11" style="stroke:#181818;stroke-width:1;"/><path d="M382.0978,374.6406 Q381.5197,374.9375 380.8791,375.0781 Q380.2384,375.2344 379.5353,375.2344 Q377.0353,375.2344 375.7072,373.5938 Q374.3947,371.9375 374.3947,368.8125 Q374.3947,365.6875 375.7072,364.0313 Q377.0353,362.375 379.5353,362.375 Q380.2384,362.375 380.8791,362.5313 Q381.5353,362.6875 382.0978,362.9844 L382.0978,365.7031 Q381.4728,365.125 380.8791,364.8594 Q380.2853,364.5781 379.6603,364.5781 Q378.3166,364.5781 377.6291,365.6563 Q376.9416,366.7188 376.9416,368.8125 Q376.9416,370.9063 377.6291,371.9844 Q378.3166,373.0469 379.6603,373.0469 Q380.2853,373.0469 380.8791,372.7813 Q381.4728,372.5 382.0978,371.9219 L382.0978,374.6406 Z " fill="#000000"/><text fill="#000000" font-family="sans-serif" font-size="14" lengthAdjust="spacing" textLength="117.2227" x="395.4911" y="373.8467">Md2RstRenderer</text><line style="stroke:#181818;stroke-width:0.5;" x1="354.5" x2="525.3428" y1="385" y2="385"/><line style="stroke:#181818;stroke-width:0.5;" x1="354.5" x2="525.3428" y1="393" y2="393"/><g data-visibility-modifier="PUBLIC_METHOD"><ellipse cx="364.5" cy="406.6484" fill="#84BE84" rx="3" ry="3" style="stroke:#038048;stroke-width:1;"/></g><text fill="#000000" font-family="sans-serif" font-size="14" lengthAdjust="spacing" textLength="146.8428" x="373.5" y="409.9951">render(ast: Any) : str</text></g><!--class Gfm2RstRenderer--><g class="entity" data-qualified-name="Dependencies.Gfm2RstRenderer" data-source-line="39" id="ent0012"><rect fill="#F1F1F1" height="64.2969" rx="2.5" ry="2.5" style="stroke:#181818;stroke-width:0.5;" width="172.8428" x="145.5" y="353"/><ellipse cx="167.3269" cy="369" fill="#ADD1B2" rx="11" ry="11" style="stroke:#181818;stroke-width:1;"/><path d="M170.2957,374.6406 Q169.7175,374.9375 169.0769,375.0781 Q168.4363,375.2344 167.7332,375.2344 Q165.2332,375.2344 163.905,373.5938 Q162.5925,371.9375 162.5925,368.8125 Q162.5925,365.6875 163.905,364.0313 Q165.2332,362.375 167.7332,362.375 Q168.4363,362.375 169.0769,362.5313 Q169.7332,362.6875 170.2957,362.9844 L170.2957,365.7031 Q169.6707,365.125 169.0769,364.8594 Q168.4832,364.5781 167.8582,364.5781 Q166.5144,364.5781 165.8269,365.6563 Q165.1394,366.7188 165.1394,368.8125 Q165.1394,370.9063 165.8269,371.9844 Q166.5144,373.0469 167.8582,373.0469 Q168.4832,373.0469 169.0769,372.7813 Q169.6707,372.5 170.2957,371.9219 L170.2957,374.6406 Z " fill="#000000"/><text fill="#000000" font-family="sans-serif" font-size="14" lengthAdjust="spacing" textLength="125.6719" x="182.844" y="373.8467">Gfm2RstRenderer</text><line style="stroke:#181818;stroke-width:0.5;" x1="146.5" x2="317.3428" y1="385" y2="385"/><line style="stroke:#181818;stroke-width:0.5;" x1="146.5" x2="317.3428" y1="393" y2="393"/><g data-visibility-modifier="PUBLIC_METHOD"><ellipse cx="156.5" cy="406.6484" fill="#84BE84" rx="3" ry="3" style="stroke:#038048;stroke-width:1;"/></g><text fill="#000000" font-family="sans-serif" font-size="14" lengthAdjust="spacing" textLength="146.8428" x="165.5" y="409.9951">render(ast: Any) : str</text></g><!--class marko--><g class="entity" data-qualified-name="Dependencies.marko" data-source-line="43" id="ent0013"><rect fill="#F1F1F1" height="56.2656" rx="2.5" ry="2.5" style="stroke:#181818;stroke-width:0.5;" width="87.7832" x="22" y="357"/><ellipse cx="37" cy="377.1328" fill="#ADD8E6" rx="11" ry="11" style="stroke:#181818;stroke-width:1;"/><path d="M32.7188,370.7422 L35.6406,370.7422 L37.1094,376.1797 L38.5781,370.7422 L41.5156,370.7422 L41.5156,383.1328 L39.4063,383.1328 L39.4063,373.2109 L38.0938,378.6328 L36.1563,378.6328 L34.8281,373.2109 L34.8281,383.1328 L32.7188,383.1328 L32.7188,370.7422 Z " fill="#000000"/><text fill="#000000" font-family="sans-serif" font-size="12" font-style="italic" lengthAdjust="spacing" textLength="59.7832" x="49" y="373.1387">&#171;module&#187;</text><text fill="#000000" font-family="sans-serif" font-size="14" lengthAdjust="spacing" textLength="44.6455" x="56.5688" y="388.9639">marko</text><line style="stroke:#181818;stroke-width:0.5;" x1="23" x2="108.7832" y1="397.2656" y2="397.2656"/><line style="stroke:#181818;stroke-width:0.5;" x1="23" x2="108.7832" y1="405.2656" y2="405.2656"/></g><g class="entity" data-qualified-name="Dependencies.GMN14" data-source-line="46" id="ent0015"><path d="M22,515 L22,540.1328 A0,0 0 0 0 22,540.1328 L155.5313,540.1328 A0,0 0 0 0 155.5313,540.1328 L155.5313,525 L145.5313,515 L91.1,515 L70.43,413.09 L83.1,515 L22,515 A0,0 0 0 0 22,515" fill="#FEFFDD" style="stroke:#181818;stroke-width:0.5;"/><path d="M145.5313,515 L145.5313,525 L155.5313,525 L145.5313,515" fill="#FEFFDD" style="stroke:#181818;stroke-width:0.5;"/><text fill="#000000" font-family="sans-serif" font-size="13" lengthAdjust="spacing" textLength="112.5313" x="28" y="532.0669">Markdown Parser</text></g><!--class BaseConverter--><g class="entity" data-qualified-name="BaseConverter" data-source-line="2" id="ent0002"><rect fill="#F1F1F1" height="48" rx="2.5" ry="2.5" style="stroke:#181818;stroke-width:0.5;" width="135.8174" x="372" y="7"/><ellipse cx="387" cy="23" fill="#ADD1B2" rx="11" ry="11" style="stroke:#181818;stroke-width:1;"/><path d="M389.9688,28.6406 Q389.3906,28.9375 388.75,29.0781 Q388.1094,29.2344 387.4063,29.2344 Q384.9063,29.2344 383.5781,27.5938 Q382.2656,25.9375 382.2656,22.8125 Q382.2656,19.6875 383.5781,18.0313 Q384.9063,16.375 387.4063,16.375 Q388.1094,16.375 388.75,16.5313 Q389.4063,16.6875 389.9688,16.9844 L389.9688,19.7031 Q389.3438,19.125 388.75,18.8594 Q388.1563,18.5781 387.5313,18.5781 Q386.1875,18.5781 385.5,19.6563 Q384.8125,20.7188 384.8125,22.8125 Q384.8125,24.9063 385.5,25.9844 Q386.1875,27.0469 387.5313,27.0469 Q388.1563,27.0469 388.75,26.7813 Q389.3438,26.5 389.9688,25.9219 L389.9688,28.6406 Z " fill="#000000"/><text fill="#000000" font-family="sans-serif" font-size="14" lengthAdjust="spacing" textLength="103.8174" x="401" y="27.8467">BaseConverter</text><line style="stroke:#181818;stroke-width:0.5;" x1="373" x2="506.8174" y1="39" y2="39"/><line style="stroke:#181818;stroke-width:0.5;" x1="373" x2="506.8174" y1="47" y2="47"/></g><!--class RstConverter--><g class="entity" data-qualified-name="RstConverter" data-source-line="5" id="ent0003"><rect fill="#F1F1F1" height="178.375" rx="2.5" ry="2.5" style="stroke:#181818;stroke-width:0.5;" width="704.7129" x="87.5" y="115"/><ellipse cx="389.4878" cy="131" fill="#ADD1B2" rx="11" ry="11" style="stroke:#181818;stroke-width:1;"/><path d="M392.4565,136.6406 Q391.8784,136.9375 391.2378,137.0781 Q390.5972,137.2344 389.894,137.2344 Q387.394,137.2344 386.0659,135.5938 Q384.7534,133.9375 384.7534,130.8125 Q384.7534,127.6875 386.0659,126.0313 Q387.394,124.375 389.894,124.375 Q390.5972,124.375 391.2378,124.5313 Q391.894,124.6875 392.4565,124.9844 L392.4565,127.7031 Q391.8315,127.125 391.2378,126.8594 Q390.644,126.5781 390.019,126.5781 Q388.6753,126.5781 387.9878,127.6563 Q387.3003,128.7188 387.3003,130.8125 Q387.3003,132.9063 387.9878,133.9844 Q388.6753,135.0469 390.019,135.0469 Q390.644,135.0469 391.2378,134.7813 Q391.8315,134.5 392.4565,133.9219 L392.4565,136.6406 Z " fill="#000000"/><text fill="#000000" font-family="sans-serif" font-size="14" lengthAdjust="spacing" textLength="92.2373" x="409.9878" y="135.8467">RstConverter</text><line style="stroke:#181818;stroke-width:0.5;" x1="88.5" x2="791.2129" y1="147" y2="147"/><line style="stroke:#181818;stroke-width:0.5;" x1="88.5" x2="791.2129" y1="155" y2="155"/><g data-visibility-modifier="PUBLIC_METHOD"><ellipse cx="98.5" cy="168.6484" fill="#84BE84" rx="3" ry="3" style="stroke:#038048;stroke-width:1;"/></g><text fill="#000000" font-family="sans-serif" font-size="14" lengthAdjust="spacing" textLength="168" x="107.5" y="171.9951">get_subcommand() : str</text><g data-visibility-modifier="PUBLIC_METHOD"><ellipse cx="98.5" cy="184.9453" fill="#84BE84" rx="3" ry="3" style="stroke:#038048;stroke-width:1;"/></g><text fill="#000000" font-family="sans-serif" font-size="14" lengthAdjust="spacing" textLength="150.9102" x="107.5" y="188.292">get_description() : str</text><g data-visibility-modifier="PUBLIC_METHOD"><ellipse cx="98.5" cy="201.2422" fill="#84BE84" rx="3" ry="3" style="stroke:#038048;stroke-width:1;"/></g><text fill="#000000" font-family="sans-serif" font-size="14" lengthAdjust="spacing" textLength="233.666" x="107.5" y="204.5889">register(args_parser: Any) : None</text><g data-visibility-modifier="PUBLIC_METHOD"><ellipse cx="98.5" cy="217.5391" fill="#84BE84" rx="3" ry="3" style="stroke:#038048;stroke-width:1;"/></g><text fill="#000000" font-family="sans-serif" font-size="14" lengthAdjust="spacing" textLength="87.5205" x="107.5" y="220.8857">begin() : Ret</text><g data-visibility-modifier="PUBLIC_METHOD"><ellipse cx="98.5" cy="233.8359" fill="#84BE84" rx="3" ry="3" style="stroke:#038048;stroke-width:1;"/></g><text fill="#000000" font-family="sans-serif" font-size="14" lengthAdjust="spacing" textLength="209.7676" x="107.5" y="237.1826">enter_file(file_name: str) : Ret</text><g data-visibility-modifier="PUBLIC_METHOD"><ellipse cx="98.5" cy="250.1328" fill="#84BE84" rx="3" ry="3" style="stroke:#038048;stroke-width:1;"/></g><text fill="#000000" font-family="sans-serif" font-size="14" lengthAdjust="spacing" textLength="210.4033" x="107.5" y="253.4795">leave_file(file_name: str) : Ret</text><g data-visibility-modifier="PUBLIC_METHOD"><ellipse cx="98.5" cy="266.4297" fill="#84BE84" rx="3" ry="3" style="stroke:#038048;stroke-width:1;"/></g><text fill="#000000" font-family="sans-serif" font-size="14" lengthAdjust="spacing" textLength="306.8105" x="107.5" y="269.7764">convert_section(section: str, level: int) : Ret</text><g data-visibility-modifier="PUBLIC_METHOD"><ellipse cx="98.5" cy="282.7266" fill="#84BE84" rx="3" ry="3" style="stroke:#038048;stroke-width:1;"/></g><text fill="#000000" font-family="sans-serif" font-size="14" lengthAdjust="spacing" textLength="678.7129" x="107.5" y="286.0732">convert_record_object_generic(record: Record_Object, level: int, translation: Optional[dict]) : Ret</text></g><!--reverse link BaseConverter to RstConverter--><g class="link" data-entity-1="ent0002" data-entity-2="ent0003" data-link-type="extension" data-source-line="6" id="lnk4"><path d="M440,73.06 C440,88.74 440,92.58 440,114.67" fill="none" id="BaseConverter-backto-RstConverter" style="stroke:#181818;stroke-width:1;"/><polygon fill="none" points="440,55.06,434,73.06,446,73.06,440,55.06" style="stroke:#181818;stroke-width:1;"/></g><!--link RstConverter to trlc--><g class="link" data-entity-1="ent0003" data-entity-2="ent0006" data-link-type="dependency" data-source-line="51" id="lnk17"><path codeLine="51" d="M728.9,293.04 C738.23,298.38 747.3,304.03 756,310 C773.85,322.24 785.87,336.2071 796.76,351.8371" fill="none" id="RstConverter-to-trlc" style="stroke:#181818;stroke-width:1;stroke-dasharray:7,7;"/><polygon fill="#181818" points="800.19,356.76,798.327,347.089,797.3317,352.6576,791.7631,351.6623,800.19,356.76" style="stroke:#181818;stroke-width:1;"/></g><!--link RstConverter to TrlcAstWalker--><g class="link" data-entity-1="ent0003" data-entity-2="ent0010" data-link-type="dependency" data-source-line="52" id="lnk18"><path codeLine="52" d="M543.46,293.19 C568.52,314.54 589.1238,332.1077 608.7038,348.7977" fill="none" id="RstConverter-to-TrlcAstWalker" style="stroke:#181818;stroke-width:1;stroke-dasharray:7,7;"/><polygon fill="#181818" points="613.27,352.69,609.0155,343.8075,609.4648,349.4465,603.8258,349.8958,613.27,352.69" style="stroke:#181818;stroke-width:1;"/></g><!--link RstConverter to Md2RstRenderer--><g class="link" data-entity-1="ent0003" data-entity-2="ent0011" data-link-type="dependency" data-source-line="53" id="lnk19"><path codeLine="53" d="M440,293.19 C440,314.54 440,330 440,346.69" fill="none" id="RstConverter-to-Md2RstRenderer" style="stroke:#181818;stroke-width:1;stroke-dasharray:7,7;"/><polygon fill="#181818" points="440,352.69,444,343.69,440,347.69,436,343.69,440,352.69" style="stroke:#181818;stroke-width:1;"/></g><!--link RstConverter to Gfm2RstRenderer--><g class="link" data-entity-1="ent0003" data-entity-2="ent0012" data-link-type="dependency" data-source-line="54" id="lnk20"><path codeLine="54" d="M337.52,293.19 C312.71,314.54 292.3284,332.087 272.9284,348.777" fill="none" id="RstConverter-to-Gfm2RstRenderer" style="stroke:#181818;stroke-width:1;stroke-dasharray:7,7;"/><polygon fill="#181818" points="268.38,352.69,277.8113,349.8527,272.1703,349.4291,272.5939,343.7882,268.38,352.69" style="stroke:#181818;stroke-width:1;"/></g><!--link RstConverter to marko--><g class="link" data-entity-1="ent0003" data-entity-2="ent0013" data-link-type="dependency" data-source-line="55" id="lnk21"><path codeLine="55" d="M155.2,293.04 C145.83,298.39 136.73,304.04 128,310 C110.01,322.29 97.7756,336.2892 86.6756,351.9092" fill="none" id="RstConverter-to-marko" style="stroke:#181818;stroke-width:1;stroke-dasharray:7,7;"/><polygon fill="#181818" points="83.2,356.8,91.6739,351.7808,86.0963,352.7243,85.1528,347.1467,83.2,356.8" style="stroke:#181818;stroke-width:1;"/></g><?plantuml-src fLF1RjD04BtxAqQzu4BK0yUeYbHQX92Q5faY3WXPw_NONRBUjMOcQH7AlxFU9QbT5t70XqH-xytRsNbZRHKpl5ECbzxja0G9VcNxBDEHA5YUS7mKTFLS3U5vqwAKlAsqxphbwlmKbi12JroDhCdqOhoRaeIjuM2KAsgvx1KnqX8ktCz1TUCT9baLPAcoG4aGkb1MDiPYFloKJdKOZISgYsg7_rJfT9-IKSSM__n7uG8ixj0kmJXviOXGUwfBN_q8LMMB3ideFA63FBAtaHrxBK18EROgdNGRXwFijzfe-NuuA4Jn2gwmCGvZ01GKK6CVaa2d3NBMAxrHBSB9rGWz2Rd49bEEGbR3-Nc-XeKrxRrKTekdqFbwQt6rIX7kKu7pWb1v4T-1Rs9bn8Vd2oFS5TUNe5Z027QyF7AluMFNMwEDb3TRQqVuP01plC06ANID8-gpa75jUHtE83NsUl_O4pA7GKKmt3SsFBxhNUZuWkMhiflZUiQuu250UMXzlbxxiS6wVXlslXXcISySA88JZyCYJom-DDr_UtIADlxleS4XjHT2YwN78zVXhVOF3Zx5ZsiwkBXV1QObv7lJSpRvwC_ELca7PkXapdDwEiKv_sn4Sq6wn6y0?></g></svg>