<?plantuml 1.2026.1?><svg xmlns="http://www.w3.org/2000/svg" xmlns:xlink="http://www.w3.org/1999/xlink" contentStyleType="text/css" data-diagram-type="CLASS" height="648px" preserveAspectRatio="none" style="width:677px;height:648px;background:#FFFFFF;" version="1.1" viewBox="0 0 677 648" width="677px" zoomAndPan="magnify"><defs/><g><!--cluster pyTRLCConverter--><g class="cluster" data-qualified-name="pyTRLCConverter" data-source-line="2" id="ent0002"><path d="M8.5,6 L146.6494,6 A3.75,3.75 0 0 1 149.1494,8.5 L156.1494,28.2969 L667.5,28.2969 A2.5,2.5 0 0 1 670,30.7969 L670,498.5 A2.5,2.5 0 0 1 667.5,501 L8.5,501 A2.5,2.5 0 0 1 6,498.5 L6,8.5 A2.5,2.5 0 0 1 8.5,6" fill="none" style="stroke:#000000;stroke-width:1.5;"/><line style="stroke:#000000;stroke-width:1.5;" x1="6" x2="156.1494" y1="28.2969" y2="28.2969"/><text fill="#000000" font-family="sans-serif" font-size="14" font-weight="bold" lengthAdjust="spacing" textLength="137.1494" x="10" y="20.9951">pyTRLCConverter</text></g><!--class AbstractConverter--><g class="entity" data-qualified-name="pyTRLCConverter.AbstractConverter" data-source-line="3" id="ent0003"><rect fill="#F1F1F1" height="48" rx="2.5" ry="2.5" style="stroke:#181818;stroke-width:0.5;" width="160.4951" x="68" y="41"/><ellipse cx="83" cy="57" fill="#A9DCDF" rx="11" ry="11" style="stroke:#181818;stroke-width:1;"/><path d="M83.1094,52.3438 L81.9531,57.4219 L84.2813,57.4219 L83.1094,52.3438 Z M81.625,50.1094 L84.6094,50.1094 L87.9688,62.5 L85.5156,62.5 L84.75,59.4375 L81.4688,59.4375 L80.7188,62.5 L78.2813,62.5 L81.625,50.1094 Z " fill="#000000"/><text fill="#000000" font-family="sans-serif" font-size="14" font-style="italic" lengthAdjust="spacing" textLength="128.4951" x="97" y="61.8467">AbstractConverter</text><line style="stroke:#181818;stroke-width:0.5;" x1="69" x2="227.4951" y1="73" y2="73"/><line style="stroke:#181818;stroke-width:0.5;" x1="69" x2="227.4951" y1="81" y2="81"/></g><g class="entity" data-qualified-name="pyTRLCConverter.GMN4" data-source-line="7" id="ent0005"><path d="M263.5,45 L263.5,61 L228.23,65 L263.5,69 L263.5,85.2656 A0,0 0 0 0 263.5,85.2656 L536.3369,85.2656 A0,0 0 0 0 536.3369,85.2656 L536.3369,55 L526.3369,45 L263.5,45 A0,0 0 0 0 263.5,45" fill="#FEFFDD" style="stroke:#181818;stroke-width:0.5;"/><path d="M526.3369,45 L526.3369,55 L536.3369,55 L526.3369,45" fill="#FEFFDD" style="stroke:#181818;stroke-width:0.5;"/><text fill="#000000" font-family="sans-serif" font-size="13" lengthAdjust="spacing" textLength="251.8369" x="269.5" y="62.0669">Defines the interface for all converters</text><text fill="#000000" font-family="sans-serif" font-size="13" lengthAdjust="spacing" textLength="173.5894" x="269.5" y="77.1997">used by pyTRLCConverter.</text></g><!--class BaseConverter--><g class="entity" data-qualified-name="pyTRLCConverter.BaseConverter" data-source-line="12" id="ent0007"><rect fill="#F1F1F1" height="194.6719" rx="2.5" ry="2.5" style="stroke:#181818;stroke-width:0.5;" width="251.9482" x="22" y="149"/><ellipse cx="91.8154" cy="165" fill="#ADD1B2" rx="11" ry="11" style="stroke:#181818;stroke-width:1;"/><path d="M94.7842,170.6406 Q94.2061,170.9375 93.5654,171.0781 Q92.9248,171.2344 92.2217,171.2344 Q89.7217,171.2344 88.3936,169.5938 Q87.0811,167.9375 87.0811,164.8125 Q87.0811,161.6875 88.3936,160.0313 Q89.7217,158.375 92.2217,158.375 Q92.9248,158.375 93.5654,158.5313 Q94.2217,158.6875 94.7842,158.9844 L94.7842,161.7031 Q94.1592,161.125 93.5654,160.8594 Q92.9717,160.5781 92.3467,160.5781 Q91.0029,160.5781 90.3154,161.6563 Q89.6279,162.7188 89.6279,164.8125 Q89.6279,166.9063 90.3154,167.9844 Q91.0029,169.0469 92.3467,169.0469 Q92.9717,169.0469 93.5654,168.7813 Q94.1592,168.5 94.7842,167.9219 L94.7842,170.6406 Z " fill="#000000"/><text fill="#000000" font-family="sans-serif" font-size="14" lengthAdjust="spacing" textLength="103.8174" x="112.3154" y="169.8467">BaseConverter</text><line style="stroke:#181818;stroke-width:0.5;" x1="23" x2="272.9482" y1="181" y2="181"/><g data-visibility-modifier="PRIVATE_FIELD"><rect fill="none" height="6" style="stroke:#C82930;stroke-width:1;" width="6" x="30" y="191.6484"/></g><text fill="#000000" font-family="sans-serif" font-size="14" lengthAdjust="spacing" textLength="75.2705" x="42" y="197.9951">_translator</text><g data-visibility-modifier="PRIVATE_FIELD"><rect fill="none" height="6" style="stroke:#C82930;stroke-width:1;" width="6" x="30" y="207.9453"/></g><text fill="#000000" font-family="sans-serif" font-size="14" lengthAdjust="spacing" textLength="82.0107" x="42" y="214.292">_render_cfg</text><g data-visibility-modifier="PRIVATE_FIELD"><rect fill="none" height="6" style="stroke:#C82930;stroke-width:1;" width="6" x="30" y="224.2422"/></g><text fill="#000000" font-family="sans-serif" font-size="14" lengthAdjust="spacing" textLength="107.7822" x="42" y="230.5889">_records_policy</text><g data-visibility-modifier="PRIVATE_FIELD"><rect fill="none" height="6" style="stroke:#C82930;stroke-width:1;" width="6" x="30" y="240.5391"/></g><text fill="#000000" font-family="sans-serif" font-size="14" lengthAdjust="spacing" textLength="145.708" x="42" y="246.8857">_record_handler_dict</text><line style="stroke:#181818;stroke-width:0.5;" x1="23" x2="272.9482" y1="254.1875" y2="254.1875"/><g data-visibility-modifier="PUBLIC_METHOD"><ellipse cx="33" cy="267.8359" fill="#84BE84" rx="3" ry="3" style="stroke:#038048;stroke-width:1;"/></g><text fill="#000000" font-family="sans-serif" font-size="14" lengthAdjust="spacing" textLength="114.3311" x="42" y="271.1826">set_render_cfg()</text><g data-visibility-modifier="PUBLIC_METHOD"><ellipse cx="33" cy="284.1328" fill="#84BE84" rx="3" ry="3" style="stroke:#038048;stroke-width:1;"/></g><text fill="#000000" font-family="sans-serif" font-size="14" lengthAdjust="spacing" textLength="121.625" x="42" y="287.4795">convert_section()</text><g data-visibility-modifier="PUBLIC_METHOD"><ellipse cx="33" cy="300.4297" fill="#84BE84" rx="3" ry="3" style="stroke:#038048;stroke-width:1;"/></g><text fill="#000000" font-family="sans-serif" font-size="14" lengthAdjust="spacing" textLength="166.6191" x="42" y="303.7764">convert_record_object()</text><g data-visibility-modifier="PUBLIC_METHOD"><ellipse cx="33" cy="316.7266" fill="#84BE84" rx="3" ry="3" style="stroke:#038048;stroke-width:1;"/></g><text fill="#000000" font-family="sans-serif" font-size="14" lengthAdjust="spacing" textLength="225.9482" x="42" y="320.0732">convert_record_object_generic()</text><g data-visibility-modifier="PRIVATE_METHOD"><rect fill="#F24D5C" height="6" style="stroke:#C82930;stroke-width:1;" width="6" x="30" y="330.0234"/></g><text fill="#000000" font-family="sans-serif" font-size="14" lengthAdjust="spacing" textLength="215.2568" x="42" y="336.3701">_set_project_record_handlers()</text></g><g class="entity" data-qualified-name="pyTRLCConverter.GMN9" data-source-line="24" id="ent0010"><path d="M309.5,181 L309.5,242.5 L274.21,246.5 L309.5,250.5 L309.5,312.0625 A0,0 0 0 0 309.5,312.0625 L618.9785,312.0625 A0,0 0 0 0 618.9785,312.0625 L618.9785,191 L608.9785,181 L309.5,181 A0,0 0 0 0 309.5,181" fill="#FEFFDD" style="stroke:#181818;stroke-width:0.5;"/><path d="M608.9785,181 L608.9785,191 L618.9785,191 L608.9785,181" fill="#FEFFDD" style="stroke:#181818;stroke-width:0.5;"/><text fill="#000000" font-family="sans-serif" font-size="13" lengthAdjust="spacing" textLength="55.4658" x="315.5" y="198.0669">Provides</text><ellipse cx="321" cy="208.7656" fill="#000000" rx="2.5" ry="2.5"/><text fill="#000000" font-family="sans-serif" font-size="13" lengthAdjust="spacing" textLength="167.7432" x="327.5" y="213.1997">empty section conversion</text><ellipse cx="321" cy="223.8984" fill="#000000" rx="2.5" ry="2.5"/><text fill="#000000" font-family="sans-serif" font-size="13" lengthAdjust="spacing" textLength="207.1558" x="327.5" y="228.3325">empty record object conversion</text><ellipse cx="321" cy="239.0313" fill="#000000" rx="2.5" ry="2.5"/><text fill="#000000" font-family="sans-serif" font-size="13" lengthAdjust="spacing" textLength="236.4312" x="327.5" y="243.4653">map record type to handler function</text><ellipse cx="321" cy="254.1641" fill="#000000" rx="2.5" ry="2.5"/><text fill="#000000" font-family="sans-serif" font-size="13" lengthAdjust="spacing" textLength="276.4785" x="327.5" y="258.5981">policy for handling undefined record types</text><ellipse cx="321" cy="269.2969" fill="#000000" rx="2.5" ry="2.5"/><text fill="#000000" font-family="sans-serif" font-size="13" lengthAdjust="spacing" textLength="136.4937" x="327.5" y="273.731">text conversion tools</text><text fill="#000000" font-family="sans-serif" font-size="13" lengthAdjust="spacing" textLength="141.3687" x="332.0293" y="288.8638">* attribute translation</text><text fill="#000000" font-family="sans-serif" font-size="13" lengthAdjust="spacing" textLength="214.4365" x="332.0293" y="303.9966">* rendering into markdown or rst</text></g><!--class FormatConverter--><g class="entity" data-qualified-name="pyTRLCConverter.FormatConverter" data-source-line="34" id="ent0012"><rect fill="#F1F1F1" height="80.5938" rx="2.5" ry="2.5" style="stroke:#181818;stroke-width:0.5;" width="251.9482" x="22" y="404"/><ellipse cx="83.8208" cy="420" fill="#ADD1B2" rx="11" ry="11" style="stroke:#181818;stroke-width:1;"/><path d="M86.7896,425.6406 Q86.2114,425.9375 85.5708,426.0781 Q84.9302,426.2344 84.2271,426.2344 Q81.7271,426.2344 80.3989,424.5938 Q79.0864,422.9375 79.0864,419.8125 Q79.0864,416.6875 80.3989,415.0313 Q81.7271,413.375 84.2271,413.375 Q84.9302,413.375 85.5708,413.5313 Q86.2271,413.6875 86.7896,413.9844 L86.7896,416.7031 Q86.1646,416.125 85.5708,415.8594 Q84.9771,415.5781 84.3521,415.5781 Q83.0083,415.5781 82.3208,416.6563 Q81.6333,417.7188 81.6333,419.8125 Q81.6333,421.9063 82.3208,422.9844 Q83.0083,424.0469 84.3521,424.0469 Q84.9771,424.0469 85.5708,423.7813 Q86.1646,423.5 86.7896,422.9219 L86.7896,425.6406 Z " fill="#000000"/><text fill="#000000" font-family="sans-serif" font-size="14" lengthAdjust="spacing" textLength="119.8066" x="104.3208" y="424.8467">FormatConverter</text><line style="stroke:#181818;stroke-width:0.5;" x1="23" x2="272.9482" y1="436" y2="436"/><line style="stroke:#181818;stroke-width:0.5;" x1="23" x2="272.9482" y1="444" y2="444"/><g data-visibility-modifier="PUBLIC_METHOD"><ellipse cx="33" cy="457.6484" fill="#84BE84" rx="3" ry="3" style="stroke:#038048;stroke-width:1;"/></g><text fill="#000000" font-family="sans-serif" font-size="14" lengthAdjust="spacing" textLength="121.625" x="42" y="460.9951">convert_section()</text><g data-visibility-modifier="PUBLIC_METHOD"><ellipse cx="33" cy="473.9453" fill="#84BE84" rx="3" ry="3" style="stroke:#038048;stroke-width:1;"/></g><text fill="#000000" font-family="sans-serif" font-size="14" lengthAdjust="spacing" textLength="225.9482" x="42" y="477.292">convert_record_object_generic()</text></g><g class="entity" data-qualified-name="pyTRLCConverter.GMN14" data-source-line="39" id="ent0015"><path d="M309.5,409 L309.5,440.5 L274.23,444.5 L309.5,448.5 L309.5,479.5313 A0,0 0 0 0 309.5,479.5313 L654.4336,479.5313 A0,0 0 0 0 654.4336,479.5313 L654.4336,419 L644.4336,409 L309.5,409 A0,0 0 0 0 309.5,409" fill="#FEFFDD" style="stroke:#181818;stroke-width:0.5;"/><path d="M644.4336,409 L644.4336,419 L654.4336,419 L644.4336,409" fill="#FEFFDD" style="stroke:#181818;stroke-width:0.5;"/><text fill="#000000" font-family="sans-serif" font-size="13" lengthAdjust="spacing" textLength="323.9336" x="315.5" y="426.0669">Implements the conversion into a specific format.</text><ellipse cx="321" cy="436.7656" fill="#000000" rx="2.5" ry="2.5"/><text fill="#000000" font-family="sans-serif" font-size="13" lengthAdjust="spacing" textLength="232.1338" x="327.5" y="441.1997">Markdown, Restructured Text, docx</text><ellipse cx="321" cy="451.8984" fill="#000000" rx="2.5" ry="2.5"/><text fill="#000000" font-family="sans-serif" font-size="13" lengthAdjust="spacing" textLength="178.7437" x="327.5" y="456.3325">overwrite convert_section()</text><ellipse cx="321" cy="467.0313" fill="#000000" rx="2.5" ry="2.5"/><text fill="#000000" font-family="sans-serif" font-size="13" lengthAdjust="spacing" textLength="275.6152" x="327.5" y="471.4653">overwrite convert_record_object_generic()</text></g><!--class ProjectConverter--><g class="entity" data-qualified-name="ProjectConverter" data-source-line="46" id="ent0017"><rect fill="#F1F1F1" height="96.8906" rx="2.5" ry="2.5" style="stroke:#181818;stroke-width:0.5;" width="222.0547" x="37" y="545"/><ellipse cx="84.6875" cy="561" fill="#ADD1B2" rx="11" ry="11" style="stroke:#181818;stroke-width:1;"/><path d="M87.6563,566.6406 Q87.0781,566.9375 86.4375,567.0781 Q85.7969,567.2344 85.0938,567.2344 Q82.5938,567.2344 81.2656,565.5938 Q79.9531,563.9375 79.9531,560.8125 Q79.9531,557.6875 81.2656,556.0313 Q82.5938,554.375 85.0938,554.375 Q85.7969,554.375 86.4375,554.5313 Q87.0938,554.6875 87.6563,554.9844 L87.6563,557.7031 Q87.0313,557.125 86.4375,556.8594 Q85.8438,556.5781 85.2188,556.5781 Q83.875,556.5781 83.1875,557.6563 Q82.5,558.7188 82.5,560.8125 Q82.5,562.9063 83.1875,563.9844 Q83.875,565.0469 85.2188,565.0469 Q85.8438,565.0469 86.4375,564.7813 Q87.0313,564.5 87.6563,563.9219 L87.6563,566.6406 Z " fill="#000000"/><text fill="#000000" font-family="sans-serif" font-size="14" lengthAdjust="spacing" textLength="118.1797" x="105.1875" y="565.8467">ProjectConverter</text><line style="stroke:#181818;stroke-width:0.5;" x1="38" x2="258.0547" y1="577" y2="577"/><line style="stroke:#181818;stroke-width:0.5;" x1="38" x2="258.0547" y1="585" y2="585"/><g data-visibility-modifier="PUBLIC_METHOD"><ellipse cx="48" cy="598.6484" fill="#84BE84" rx="3" ry="3" style="stroke:#038048;stroke-width:1;"/></g><text fill="#000000" font-family="sans-serif" font-size="14" lengthAdjust="spacing" textLength="196.0547" x="57" y="601.9951">prjtype_x_records_handler()</text><g data-visibility-modifier="PUBLIC_METHOD"><ellipse cx="48" cy="614.9453" fill="#84BE84" rx="3" ry="3" style="stroke:#038048;stroke-width:1;"/></g><text fill="#000000" font-family="sans-serif" font-size="14" lengthAdjust="spacing" textLength="196.0547" x="57" y="618.292">prjtype_y_records_handler()</text><g data-visibility-modifier="PUBLIC_METHOD"><ellipse cx="48" cy="631.2422" fill="#84BE84" rx="3" ry="3" style="stroke:#038048;stroke-width:1;"/></g><text fill="#000000" font-family="sans-serif" font-size="14" lengthAdjust="spacing" textLength="24.2744" x="57" y="634.5889">...()</text></g><g class="entity" data-qualified-name="GMN19" data-source-line="53" id="ent0020"><path d="M294,558 L294,589.5 L259.21,593.5 L294,597.5 L294,628.5313 A0,0 0 0 0 294,628.5313 L586.1812,628.5313 A0,0 0 0 0 586.1812,628.5313 L586.1812,568 L576.1812,558 L294,558 A0,0 0 0 0 294,558" fill="#FEFFDD" style="stroke:#181818;stroke-width:0.5;"/><path d="M576.1812,558 L576.1812,568 L586.1812,568 L576.1812,558" fill="#FEFFDD" style="stroke:#181818;stroke-width:0.5;"/><text fill="#000000" font-family="sans-serif" font-size="13" lengthAdjust="spacing" textLength="266.1382" x="300" y="575.0669">Project specific converter responsible for</text><text fill="#000000" font-family="sans-serif" font-size="13" lengthAdjust="spacing" textLength="235.1553" x="300" y="590.1997">handling RSL defined records types.</text><ellipse cx="305.5" cy="600.8984" fill="#000000" rx="2.5" ry="2.5"/><text fill="#000000" font-family="sans-serif" font-size="13" lengthAdjust="spacing" textLength="259.1812" x="312" y="605.3325">provide project-specific record handlers</text><ellipse cx="305.5" cy="616.0313" fill="#000000" rx="2.5" ry="2.5"/><text fill="#000000" font-family="sans-serif" font-size="13" lengthAdjust="spacing" textLength="220.7207" x="312" y="620.4653">register handler in BaseConverter</text></g><!--reverse link AbstractConverter to BaseConverter--><g class="link" data-entity-1="ent0003" data-entity-2="ent0007" data-link-type="extension" data-source-line="13" id="lnk8"><path d="M148,107.1 C148,122.72 148,126.52 148,148.89" fill="none" id="AbstractConverter-backto-BaseConverter" style="stroke:#181818;stroke-width:1;stroke-dasharray:7,7;"/><polygon fill="none" points="148,89.1,142,107.1,154,107.1,148,89.1" style="stroke:#181818;stroke-width:1;"/></g><!--reverse link BaseConverter to FormatConverter--><g class="link" data-entity-1="ent0007" data-entity-2="ent0012" data-link-type="extension" data-source-line="35" id="lnk13"><path d="M148,362.06 C148,383.13 148,386.28 148,403.63" fill="none" id="BaseConverter-backto-FormatConverter" style="stroke:#181818;stroke-width:1;"/><polygon fill="none" points="148,344.06,142,362.06,154,362.06,148,344.06" style="stroke:#181818;stroke-width:1;"/></g><!--reverse link FormatConverter to ProjectConverter--><g class="link" data-entity-1="ent0012" data-entity-2="ent0017" data-link-type="extension" data-source-line="47" id="lnk18"><path d="M148,503.28 C148,521.65 148,525.6 148,544.84" fill="none" id="FormatConverter-backto-ProjectConverter" style="stroke:#181818;stroke-width:1;"/><polygon fill="none" points="148,485.28,142,503.28,154,503.28,148,485.28" style="stroke:#181818;stroke-width:1;"/></g><?plantuml-src dLJ1Rjim3BtdAtXRjpR-Xwt3W04TKAIz6ufCEsfjIP3aDaRHVnyjoRBik1qmNvAOB-JZuoCruy-iGT33u-7kzbR95pGE3RpjW1vsjCumxe2tp5hu7d-kOUyx_o6LGp2YEJbGzINOO-ZvYRMGQC6T48IaGCquGgqCiBO5Fi7jXEyjLd0SrXGB7qTP-Rg1mHVumIpEz3nj7maDBAEYqorsADt7dOtFlgIGj2rpocGl3PL6K_AwMRpaobIsrAeLV9W342FbYScgfRzLWhiKlhReidnNN-T8bAEqo9rGSYiKCwlZ4s7-2IWRb6W4pu3xSgolZVBn9L4RSUyR4rwecRBT6_KYAapZWs-0dNO3n1RYX2rzlO24sX2ORWCxfYUO6pI2Kn2fGjrBNo53XpbuStcKa0tqfFFem2hFazDrUCwBKmdLpl60OSuPSUn9ZiaSUU602HCTIvBD5J4tpvLwbK1aZ7KRzWqc_QLCnp8d4Xk2hStxzlyUMLbWQxGh3YdXxtbbnlNDHF8jCh0QkQW57oMd34Kcwv_O_mqSaBQjvwutD8H7wky6AiNF6LPHsbSZt5HYgxajr6Tz9gtfN0MbxuFbBwLUdvhrI8BurzeyZTufpsdlenLZnGGOFW90KHJqdHWjzLypsyNDydkHD4wtagncjP9M75j_IJqy6VxmS0TBozlW-J0TsfAmiX1Fm3uLY0iotOBTvEj6sB7gj7X2hcv1alel?></g></svg>