<svg xmlns="http://www.w3.org/2000/svg" xmlns:xlink="http://www.w3.org/1999/xlink" contentStyleType="text/css" height="815px" preserveAspectRatio="none" style="width:1577px;height:815px;background:#FFFFFF;" version="1.1" viewBox="0 0 1577 815" width="1577px" zoomAndPan="magnify"><defs/><g><!--cluster Built-in Converters--><g id="cluster_Built-in Converters"><path d="M8.5,709 L158.6875,709 A3.75,3.75 0 0 1 161.1875,711.5 L168.1875,731.2969 L893.5,731.2969 A2.5,2.5 0 0 1 896,733.7969 L896,805.5 A2.5,2.5 0 0 1 893.5,808 L8.5,808 A2.5,2.5 0 0 1 6,805.5 L6,711.5 A2.5,2.5 0 0 1 8.5,709 " fill="none" style="stroke:#000000;stroke-width:1.5;"/><line style="stroke:#000000;stroke-width:1.5;" x1="6" x2="168.1875" y1="731.2969" y2="731.2969"/><text fill="#000000" font-family="sans-serif" font-size="14" font-weight="bold" lengthAdjust="spacing" textLength="149.1875" x="10" y="723.9951">Built-in Converters</text></g><!--cluster Utilities--><g id="cluster_Utilities"><rect fill="none" height="273" rx="2.5" ry="2.5" style="stroke:#181818;stroke-width:1;" width="522" x="1049" y="7"/><text fill="#000000" font-family="sans-serif" font-size="14" font-weight="bold" lengthAdjust="spacing" textLength="61.7764" x="1279.1118" y="21.9951">Utilities</text></g><!--class markdownConverter--><g id="elem_markdownConverter"><rect codeLine="22" fill="#F1F1F1" height="48" id="markdownConverter" rx="2.5" ry="2.5" style="stroke:#181818;stroke-width:0.5;" width="174.0234" x="22" y="744"/><ellipse cx="37" cy="760" fill="#ADD1B2" rx="11" ry="11" style="stroke:#181818;stroke-width:1;"/><path d="M39.9688,765.6406 Q39.3906,765.9375 38.75,766.0781 Q38.1094,766.2344 37.4063,766.2344 Q34.9063,766.2344 33.5781,764.5938 Q32.2656,762.9375 32.2656,759.8125 Q32.2656,756.6875 33.5781,755.0313 Q34.9063,753.375 37.4063,753.375 Q38.1094,753.375 38.75,753.5313 Q39.4063,753.6875 39.9688,753.9844 L39.9688,756.7031 Q39.3438,756.125 38.75,755.8594 Q38.1563,755.5781 37.5313,755.5781 Q36.1875,755.5781 35.5,756.6563 Q34.8125,757.7188 34.8125,759.8125 Q34.8125,761.9063 35.5,762.9844 Q36.1875,764.0469 37.5313,764.0469 Q38.1563,764.0469 38.75,763.7813 Q39.3438,763.5 39.9688,762.9219 L39.9688,765.6406 Z " fill="#000000"/><text fill="#000000" font-family="sans-serif" font-size="14" lengthAdjust="spacing" textLength="142.0234" x="51" y="764.8467">MarkdownConverter</text><line style="stroke:#181818;stroke-width:0.5;" x1="23" x2="195.0234" y1="776" y2="776"/><line style="stroke:#181818;stroke-width:0.5;" x1="23" x2="195.0234" y1="784" y2="784"/></g><!--class rstConverter--><g id="elem_rstConverter"><rect codeLine="25" fill="#F1F1F1" height="48" id="rstConverter" rx="2.5" ry="2.5" style="stroke:#181818;stroke-width:0.5;" width="124.2373" x="231" y="744"/><ellipse cx="246" cy="760" fill="#ADD1B2" rx="11" ry="11" style="stroke:#181818;stroke-width:1;"/><path d="M248.9688,765.6406 Q248.3906,765.9375 247.75,766.0781 Q247.1094,766.2344 246.4063,766.2344 Q243.9063,766.2344 242.5781,764.5938 Q241.2656,762.9375 241.2656,759.8125 Q241.2656,756.6875 242.5781,755.0313 Q243.9063,753.375 246.4063,753.375 Q247.1094,753.375 247.75,753.5313 Q248.4063,753.6875 248.9688,753.9844 L248.9688,756.7031 Q248.3438,756.125 247.75,755.8594 Q247.1563,755.5781 246.5313,755.5781 Q245.1875,755.5781 244.5,756.6563 Q243.8125,757.7188 243.8125,759.8125 Q243.8125,761.9063 244.5,762.9844 Q245.1875,764.0469 246.5313,764.0469 Q247.1563,764.0469 247.75,763.7813 Q248.3438,763.5 248.9688,762.9219 L248.9688,765.6406 Z " fill="#000000"/><text fill="#000000" font-family="sans-serif" font-size="14" lengthAdjust="spacing" textLength="92.2373" x="260" y="764.8467">RstConverter</text><line style="stroke:#181818;stroke-width:0.5;" x1="232" x2="354.2373" y1="776" y2="776"/><line style="stroke:#181818;stroke-width:0.5;" x1="232" x2="354.2373" y1="784" y2="784"/></g><!--class docxConverter--><g id="elem_docxConverter"><rect codeLine="29" fill="#F1F1F1" height="48" id="docxConverter" rx="2.5" ry="2.5" style="stroke:#181818;stroke-width:0.5;" width="137.0547" x="390.5" y="744"/><ellipse cx="405.5" cy="760" fill="#ADD1B2" rx="11" ry="11" style="stroke:#181818;stroke-width:1;"/><path d="M408.4688,765.6406 Q407.8906,765.9375 407.25,766.0781 Q406.6094,766.2344 405.9063,766.2344 Q403.4063,766.2344 402.0781,764.5938 Q400.7656,762.9375 400.7656,759.8125 Q400.7656,756.6875 402.0781,755.0313 Q403.4063,753.375 405.9063,753.375 Q406.6094,753.375 407.25,753.5313 Q407.9063,753.6875 408.4688,753.9844 L408.4688,756.7031 Q407.8438,756.125 407.25,755.8594 Q406.6563,755.5781 406.0313,755.5781 Q404.6875,755.5781 404,756.6563 Q403.3125,757.7188 403.3125,759.8125 Q403.3125,761.9063 404,762.9844 Q404.6875,764.0469 406.0313,764.0469 Q406.6563,764.0469 407.25,763.7813 Q407.8438,763.5 408.4688,762.9219 L408.4688,765.6406 Z " fill="#000000"/><text fill="#000000" font-family="sans-serif" font-size="14" lengthAdjust="spacing" textLength="105.0547" x="419.5" y="764.8467">DocxConverter</text><line style="stroke:#181818;stroke-width:0.5;" x1="391.5" x2="526.5547" y1="776" y2="776"/><line style="stroke:#181818;stroke-width:0.5;" x1="391.5" x2="526.5547" y1="784" y2="784"/></g><!--class dumpConverter--><g id="elem_dumpConverter"><rect codeLine="32" fill="#F1F1F1" height="48" id="dumpConverter" rx="2.5" ry="2.5" style="stroke:#181818;stroke-width:0.5;" width="143.9043" x="563" y="744"/><ellipse cx="578" cy="760" fill="#ADD1B2" rx="11" ry="11" style="stroke:#181818;stroke-width:1;"/><path d="M580.9688,765.6406 Q580.3906,765.9375 579.75,766.0781 Q579.1094,766.2344 578.4063,766.2344 Q575.9063,766.2344 574.5781,764.5938 Q573.2656,762.9375 573.2656,759.8125 Q573.2656,756.6875 574.5781,755.0313 Q575.9063,753.375 578.4063,753.375 Q579.1094,753.375 579.75,753.5313 Q580.4063,753.6875 580.9688,753.9844 L580.9688,756.7031 Q580.3438,756.125 579.75,755.8594 Q579.1563,755.5781 578.5313,755.5781 Q577.1875,755.5781 576.5,756.6563 Q575.8125,757.7188 575.8125,759.8125 Q575.8125,761.9063 576.5,762.9844 Q577.1875,764.0469 578.5313,764.0469 Q579.1563,764.0469 579.75,763.7813 Q580.3438,763.5 580.9688,762.9219 L580.9688,765.6406 Z " fill="#000000"/><text fill="#000000" font-family="sans-serif" font-size="14" lengthAdjust="spacing" textLength="111.9043" x="592" y="764.8467">DumpConverter</text><line style="stroke:#181818;stroke-width:0.5;" x1="564" x2="705.9043" y1="776" y2="776"/><line style="stroke:#181818;stroke-width:0.5;" x1="564" x2="705.9043" y1="784" y2="784"/></g><!--class reqifConverter--><g id="elem_reqifConverter"><rect codeLine="35" fill="#F1F1F1" height="48" id="reqifConverter" rx="2.5" ry="2.5" style="stroke:#181818;stroke-width:0.5;" width="137.7725" x="742" y="744"/><ellipse cx="757" cy="760" fill="#ADD1B2" rx="11" ry="11" style="stroke:#181818;stroke-width:1;"/><path d="M759.9688,765.6406 Q759.3906,765.9375 758.75,766.0781 Q758.1094,766.2344 757.4063,766.2344 Q754.9063,766.2344 753.5781,764.5938 Q752.2656,762.9375 752.2656,759.8125 Q752.2656,756.6875 753.5781,755.0313 Q754.9063,753.375 757.4063,753.375 Q758.1094,753.375 758.75,753.5313 Q759.4063,753.6875 759.9688,753.9844 L759.9688,756.7031 Q759.3438,756.125 758.75,755.8594 Q758.1563,755.5781 757.5313,755.5781 Q756.1875,755.5781 755.5,756.6563 Q754.8125,757.7188 754.8125,759.8125 Q754.8125,761.9063 755.5,762.9844 Q756.1875,764.0469 757.5313,764.0469 Q758.1563,764.0469 758.75,763.7813 Q759.3438,763.5 759.9688,762.9219 L759.9688,765.6406 Z " fill="#000000"/><text fill="#000000" font-family="sans-serif" font-size="14" lengthAdjust="spacing" textLength="105.7725" x="771" y="764.8467">ReqifConverter</text><line style="stroke:#181818;stroke-width:0.5;" x1="743" x2="878.7725" y1="776" y2="776"/><line style="stroke:#181818;stroke-width:0.5;" x1="743" x2="878.7725" y1="784" y2="784"/></g><!--class logger--><g id="elem_logger"><rect codeLine="55" fill="#F1F1F1" height="56.2656" id="logger" rx="2.5" ry="2.5" style="stroke:#181818;stroke-width:0.5;" width="87.7832" x="1430" y="195.5"/><ellipse cx="1445" cy="215.6328" fill="#ADD1B2" rx="11" ry="11" style="stroke:#181818;stroke-width:1;"/><path d="M1447.9688,221.2734 Q1447.3906,221.5703 1446.75,221.7109 Q1446.1094,221.8672 1445.4063,221.8672 Q1442.9063,221.8672 1441.5781,220.2266 Q1440.2656,218.5703 1440.2656,215.4453 Q1440.2656,212.3203 1441.5781,210.6641 Q1442.9063,209.0078 1445.4063,209.0078 Q1446.1094,209.0078 1446.75,209.1641 Q1447.4063,209.3203 1447.9688,209.6172 L1447.9688,212.3359 Q1447.3438,211.7578 1446.75,211.4922 Q1446.1563,211.2109 1445.5313,211.2109 Q1444.1875,211.2109 1443.5,212.2891 Q1442.8125,213.3516 1442.8125,215.4453 Q1442.8125,217.5391 1443.5,218.6172 Q1444.1875,219.6797 1445.5313,219.6797 Q1446.1563,219.6797 1446.75,219.4141 Q1447.3438,219.1328 1447.9688,218.5547 L1447.9688,221.2734 Z " fill="#000000"/><text fill="#000000" font-family="sans-serif" font-size="12" font-style="italic" lengthAdjust="spacing" textLength="59.7832" x="1457" y="211.6387">&#171;module&#187;</text><text fill="#000000" font-family="sans-serif" font-size="14" lengthAdjust="spacing" textLength="44.5977" x="1464.5928" y="227.4639">logger</text><line style="stroke:#181818;stroke-width:0.5;" x1="1431" x2="1516.7832" y1="235.7656" y2="235.7656"/><line style="stroke:#181818;stroke-width:0.5;" x1="1431" x2="1516.7832" y1="243.7656" y2="243.7656"/></g><g id="elem_GMN25"><path d="M1393,42 L1393,97.3984 A0,0 0 0 0 1393,97.3984 L1470,97.3984 L1474,195.43 L1478,97.3984 L1555.1719,97.3984 A0,0 0 0 0 1555.1719,97.3984 L1555.1719,52 L1545.1719,42 L1393,42 A0,0 0 0 0 1393,42 " fill="#FEFFDD" style="stroke:#181818;stroke-width:0.5;"/><path d="M1545.1719,42 L1545.1719,52 L1555.1719,52 L1545.1719,42 " fill="#FEFFDD" style="stroke:#181818;stroke-width:0.5;"/><text fill="#000000" font-family="sans-serif" font-size="13" lengthAdjust="spacing" textLength="129.8223" x="1399" y="59.0669">Module for handling</text><text fill="#000000" font-family="sans-serif" font-size="13" lengthAdjust="spacing" textLength="132.9072" x="1403.1323" y="74.1997">verbose logging and</text><text fill="#000000" font-family="sans-serif" font-size="13" lengthAdjust="spacing" textLength="105.4473" x="1403.1323" y="89.3325">error messages.</text></g><!--class plantuml--><g id="elem_plantuml"><rect codeLine="64" fill="#F1F1F1" height="56.2656" id="plantuml" rx="2.5" ry="2.5" style="stroke:#181818;stroke-width:0.5;" width="94.1182" x="1235" y="195.5"/><ellipse cx="1250" cy="215.6328" fill="#ADD1B2" rx="11" ry="11" style="stroke:#181818;stroke-width:1;"/><path d="M1252.9688,221.2734 Q1252.3906,221.5703 1251.75,221.7109 Q1251.1094,221.8672 1250.4063,221.8672 Q1247.9063,221.8672 1246.5781,220.2266 Q1245.2656,218.5703 1245.2656,215.4453 Q1245.2656,212.3203 1246.5781,210.6641 Q1247.9063,209.0078 1250.4063,209.0078 Q1251.1094,209.0078 1251.75,209.1641 Q1252.4063,209.3203 1252.9688,209.6172 L1252.9688,212.3359 Q1252.3438,211.7578 1251.75,211.4922 Q1251.1563,211.2109 1250.5313,211.2109 Q1249.1875,211.2109 1248.5,212.2891 Q1247.8125,213.3516 1247.8125,215.4453 Q1247.8125,217.5391 1248.5,218.6172 Q1249.1875,219.6797 1250.5313,219.6797 Q1251.1563,219.6797 1251.75,219.4141 Q1252.3438,219.1328 1252.9688,218.5547 L1252.9688,221.2734 Z " fill="#000000"/><text fill="#000000" font-family="sans-serif" font-size="12" font-style="italic" lengthAdjust="spacing" textLength="59.7832" x="1265.1675" y="211.6387">&#171;module&#187;</text><text fill="#000000" font-family="sans-serif" font-size="14" lengthAdjust="spacing" textLength="62.1182" x="1264" y="227.4639">plantuml</text><line style="stroke:#181818;stroke-width:0.5;" x1="1236" x2="1328.1182" y1="235.7656" y2="235.7656"/><line style="stroke:#181818;stroke-width:0.5;" x1="1236" x2="1328.1182" y1="243.7656" y2="243.7656"/></g><g id="elem_GMN29"><path d="M1206.5,42 L1206.5,97.3984 A0,0 0 0 0 1206.5,97.3984 L1278,97.3984 L1282,195.43 L1286,97.3984 L1357.3223,97.3984 A0,0 0 0 0 1357.3223,97.3984 L1357.3223,52 L1347.3223,42 L1206.5,42 A0,0 0 0 0 1206.5,42 " fill="#FEFFDD" style="stroke:#181818;stroke-width:0.5;"/><path d="M1347.3223,42 L1347.3223,52 L1357.3223,52 L1347.3223,42 " fill="#FEFFDD" style="stroke:#181818;stroke-width:0.5;"/><text fill="#000000" font-family="sans-serif" font-size="13" lengthAdjust="spacing" textLength="129.8223" x="1212.5" y="59.0669">Module for handling</text><text fill="#000000" font-family="sans-serif" font-size="13" lengthAdjust="spacing" textLength="118.917" x="1212.5" y="74.1997">PlantUML diagram</text><text fill="#000000" font-family="sans-serif" font-size="13" lengthAdjust="spacing" textLength="74.8325" x="1212.5" y="89.3325">generation.</text></g><!--class Ret--><g id="elem_Ret"><rect codeLine="73" fill="#F1F1F1" height="80.5938" id="Ret" rx="2.5" ry="2.5" style="stroke:#181818;stroke-width:0.5;" width="61.0479" x="1087.5" y="183"/><ellipse cx="1104.848" cy="199" fill="#EB937F" rx="11" ry="11" style="stroke:#181818;stroke-width:1;"/><path d="M1108.9574,205 L1101.2386,205 L1101.2386,192.6094 L1108.9574,192.6094 L1108.9574,194.7656 L1103.6917,194.7656 L1103.6917,197.4375 L1108.4574,197.4375 L1108.4574,199.5938 L1103.6917,199.5938 L1103.6917,202.8438 L1108.9574,202.8438 L1108.9574,205 Z " fill="#000000"/><text fill="#000000" font-family="sans-serif" font-size="14" lengthAdjust="spacing" textLength="23.8301" x="1119.3698" y="203.8467">Ret</text><line style="stroke:#181818;stroke-width:0.5;" x1="1088.5" x2="1147.5479" y1="215" y2="215"/><text fill="#000000" font-family="sans-serif" font-size="14" lengthAdjust="spacing" textLength="20.2002" x="1093.5" y="231.9951">OK</text><text fill="#000000" font-family="sans-serif" font-size="14" lengthAdjust="spacing" textLength="49.0479" x="1093.5" y="248.292">ERROR</text><line style="stroke:#181818;stroke-width:0.5;" x1="1088.5" x2="1147.5479" y1="255.5938" y2="255.5938"/></g><g id="elem_GMN33"><path d="M1064.5,49.5 L1064.5,89.7656 A0,0 0 0 0 1064.5,89.7656 L1114,89.7656 L1118,182.95 L1122,89.7656 L1171.7075,89.7656 A0,0 0 0 0 1171.7075,89.7656 L1171.7075,59.5 L1161.7075,49.5 L1064.5,49.5 A0,0 0 0 0 1064.5,49.5 " fill="#FEFFDD" style="stroke:#181818;stroke-width:0.5;"/><path d="M1161.7075,49.5 L1161.7075,59.5 L1171.7075,59.5 L1161.7075,49.5 " fill="#FEFFDD" style="stroke:#181818;stroke-width:0.5;"/><text fill="#000000" font-family="sans-serif" font-size="13" lengthAdjust="spacing" textLength="86.2075" x="1070.5" y="66.5669">Return codes</text><text fill="#000000" font-family="sans-serif" font-size="13" lengthAdjust="spacing" textLength="86.0171" x="1070.5" y="81.6997">for functions.</text></g><!--class abstractConverter--><g id="elem_abstractConverter"><rect codeLine="2" fill="#F1F1F1" height="170.3438" id="abstractConverter" rx="2.5" ry="2.5" style="stroke:#181818;stroke-width:0.5;" width="192.6191" x="371.5" y="343"/><ellipse cx="400.9558" cy="363.1328" fill="#B4A7E5" rx="11" ry="11" style="stroke:#181818;stroke-width:1;"/><path d="M396.8777,358.8984 L396.8777,356.7422 L404.2683,356.7422 L404.2683,358.8984 L401.7996,358.8984 L401.7996,366.9766 L404.2683,366.9766 L404.2683,369.1328 L396.8777,369.1328 L396.8777,366.9766 L399.3464,366.9766 L399.3464,358.8984 L396.8777,358.8984 Z " fill="#000000"/><text fill="#000000" font-family="sans-serif" font-size="12" font-style="italic" lengthAdjust="spacing" textLength="64.3301" x="450.2507" y="359.1387">&#171;abstract&#187;</text><text fill="#000000" font-family="sans-serif" font-size="14" font-style="italic" lengthAdjust="spacing" textLength="128.4951" x="418.1682" y="374.9639">AbstractConverter</text><line style="stroke:#181818;stroke-width:0.5;" x1="372.5" x2="563.1191" y1="383.2656" y2="383.2656"/><line style="stroke:#181818;stroke-width:0.5;" x1="372.5" x2="563.1191" y1="391.2656" y2="391.2656"/><ellipse cx="382.5" cy="404.9141" fill="#84BE84" rx="3" ry="3" style="stroke:#038048;stroke-width:1;"/><text fill="#000000" font-family="sans-serif" font-size="14" lengthAdjust="spacing" text-decoration="underline" textLength="147.6221" x="391.5" y="408.2607">register(args_parser)</text><ellipse cx="382.5" cy="421.2109" fill="#84BE84" rx="3" ry="3" style="stroke:#038048;stroke-width:1;"/><text fill="#000000" font-family="sans-serif" font-size="14" font-style="italic" lengthAdjust="spacing" textLength="121.625" x="391.5" y="424.5576">convert_section()</text><ellipse cx="382.5" cy="437.5078" fill="#84BE84" rx="3" ry="3" style="stroke:#038048;stroke-width:1;"/><text fill="#000000" font-family="sans-serif" font-size="14" font-style="italic" lengthAdjust="spacing" textLength="166.6191" x="391.5" y="440.8545">convert_record_object()</text><ellipse cx="382.5" cy="453.8047" fill="#84BE84" rx="3" ry="3" style="stroke:#038048;stroke-width:1;"/><text fill="#000000" font-family="sans-serif" font-size="14" font-style="italic" lengthAdjust="spacing" textLength="76.5898" x="391.5" y="457.1514">enter_file()</text><ellipse cx="382.5" cy="470.1016" fill="#84BE84" rx="3" ry="3" style="stroke:#038048;stroke-width:1;"/><text fill="#000000" font-family="sans-serif" font-size="14" font-style="italic" lengthAdjust="spacing" textLength="77.2256" x="391.5" y="473.4482">leave_file()</text><ellipse cx="382.5" cy="486.3984" fill="#84BE84" rx="3" ry="3" style="stroke:#038048;stroke-width:1;"/><text fill="#000000" font-family="sans-serif" font-size="14" font-style="italic" lengthAdjust="spacing" textLength="50.0732" x="391.5" y="489.7451">begin()</text><ellipse cx="382.5" cy="502.6953" fill="#84BE84" rx="3" ry="3" style="stroke:#038048;stroke-width:1;"/><text fill="#000000" font-family="sans-serif" font-size="14" font-style="italic" lengthAdjust="spacing" textLength="48.6719" x="391.5" y="506.042">finish()</text></g><g id="elem_GMN3"><path d="M333,203.5 L333,243.7656 A0,0 0 0 0 333,243.7656 L464,243.7656 L468,342.91 L472,243.7656 L603.1963,243.7656 A0,0 0 0 0 603.1963,243.7656 L603.1963,213.5 L593.1963,203.5 L333,203.5 A0,0 0 0 0 333,203.5 " fill="#FEFFDD" style="stroke:#181818;stroke-width:0.5;"/><path d="M593.1963,203.5 L593.1963,213.5 L603.1963,213.5 L593.1963,203.5 " fill="#FEFFDD" style="stroke:#181818;stroke-width:0.5;"/><text fill="#000000" font-family="sans-serif" font-size="13" lengthAdjust="spacing" textLength="249.1963" x="339" y="220.5669">Interface for converting TRLC symbols</text><text fill="#000000" font-family="sans-serif" font-size="13" lengthAdjust="spacing" textLength="153.7402" x="339" y="235.6997">into destination format.</text></g><!--class baseConverter--><g id="elem_baseConverter"><rect codeLine="17" fill="#F1F1F1" height="56.2656" id="baseConverter" rx="2.5" ry="2.5" style="stroke:#181818;stroke-width:0.5;" width="135.8174" x="391" y="590"/><ellipse cx="406" cy="610.1328" fill="#ADD1B2" rx="11" ry="11" style="stroke:#181818;stroke-width:1;"/><path d="M408.9688,615.7734 Q408.3906,616.0703 407.75,616.2109 Q407.1094,616.3672 406.4063,616.3672 Q403.9063,616.3672 402.5781,614.7266 Q401.2656,613.0703 401.2656,609.9453 Q401.2656,606.8203 402.5781,605.1641 Q403.9063,603.5078 406.4063,603.5078 Q407.1094,603.5078 407.75,603.6641 Q408.4063,603.8203 408.9688,604.1172 L408.9688,606.8359 Q408.3438,606.2578 407.75,605.9922 Q407.1563,605.7109 406.5313,605.7109 Q405.1875,605.7109 404.5,606.7891 Q403.8125,607.8516 403.8125,609.9453 Q403.8125,612.0391 404.5,613.1172 Q405.1875,614.1797 406.5313,614.1797 Q407.1563,614.1797 407.75,613.9141 Q408.3438,613.6328 408.9688,613.0547 L408.9688,615.7734 Z " fill="#000000"/><text fill="#000000" font-family="sans-serif" font-size="12" font-style="italic" lengthAdjust="spacing" textLength="64.3301" x="439.7437" y="606.1387">&#171;abstract&#187;</text><text fill="#000000" font-family="sans-serif" font-size="14" lengthAdjust="spacing" textLength="103.8174" x="420" y="621.9639">BaseConverter</text><line style="stroke:#181818;stroke-width:0.5;" x1="392" x2="525.8174" y1="630.2656" y2="630.2656"/><line style="stroke:#181818;stroke-width:0.5;" x1="392" x2="525.8174" y1="638.2656" y2="638.2656"/></g><!--class version--><g id="elem_version"><rect codeLine="46" fill="#F1F1F1" height="56.2656" id="version" rx="2.5" ry="2.5" style="stroke:#181818;stroke-width:0.5;" width="87.7832" x="811" y="195.5"/><ellipse cx="826" cy="215.6328" fill="#ADD1B2" rx="11" ry="11" style="stroke:#181818;stroke-width:1;"/><path d="M828.9688,221.2734 Q828.3906,221.5703 827.75,221.7109 Q827.1094,221.8672 826.4063,221.8672 Q823.9063,221.8672 822.5781,220.2266 Q821.2656,218.5703 821.2656,215.4453 Q821.2656,212.3203 822.5781,210.6641 Q823.9063,209.0078 826.4063,209.0078 Q827.1094,209.0078 827.75,209.1641 Q828.4063,209.3203 828.9688,209.6172 L828.9688,212.3359 Q828.3438,211.7578 827.75,211.4922 Q827.1563,211.2109 826.5313,211.2109 Q825.1875,211.2109 824.5,212.2891 Q823.8125,213.3516 823.8125,215.4453 Q823.8125,217.5391 824.5,218.6172 Q825.1875,219.6797 826.5313,219.6797 Q827.1563,219.6797 827.75,219.4141 Q828.3438,219.1328 828.9688,218.5547 L828.9688,221.2734 Z " fill="#000000"/><text fill="#000000" font-family="sans-serif" font-size="12" font-style="italic" lengthAdjust="spacing" textLength="59.7832" x="838" y="211.6387">&#171;module&#187;</text><text fill="#000000" font-family="sans-serif" font-size="14" lengthAdjust="spacing" textLength="51.2764" x="842.2534" y="227.4639">version</text><line style="stroke:#181818;stroke-width:0.5;" x1="812" x2="897.7832" y1="235.7656" y2="235.7656"/><line style="stroke:#181818;stroke-width:0.5;" x1="812" x2="897.7832" y1="243.7656" y2="243.7656"/></g><g id="elem_GMN20"><path d="M743,57 L743,82.1328 A0,0 0 0 0 743,82.1328 L879.57,82.1328 L860.56,195.22 L887.57,82.1328 L1029.0908,82.1328 A0,0 0 0 0 1029.0908,82.1328 L1029.0908,67 L1019.0908,57 L743,57 A0,0 0 0 0 743,57 " fill="#FEFFDD" style="stroke:#181818;stroke-width:0.5;"/><path d="M1019.0908,57 L1019.0908,67 L1029.0908,67 L1019.0908,57 " fill="#FEFFDD" style="stroke:#181818;stroke-width:0.5;"/><text fill="#000000" font-family="sans-serif" font-size="13" lengthAdjust="spacing" textLength="265.0908" x="749" y="74.0669">Module for handling version information.</text></g><!--class main--><g id="elem_main"><rect codeLine="84" fill="#F1F1F1" height="72.5625" id="main" rx="2.5" ry="2.5" style="stroke:#181818;stroke-width:0.5;" width="103.7725" x="604" y="33"/><ellipse cx="626.1952" cy="53.1328" fill="#ADD1B2" rx="11" ry="11" style="stroke:#181818;stroke-width:1;"/><path d="M629.1639,58.7734 Q628.5858,59.0703 627.9452,59.2109 Q627.3045,59.3672 626.6014,59.3672 Q624.1014,59.3672 622.7733,57.7266 Q621.4608,56.0703 621.4608,52.9453 Q621.4608,49.8203 622.7733,48.1641 Q624.1014,46.5078 626.6014,46.5078 Q627.3045,46.5078 627.9452,46.6641 Q628.6014,46.8203 629.1639,47.1172 L629.1639,49.8359 Q628.5389,49.2578 627.9452,48.9922 Q627.3514,48.7109 626.7264,48.7109 Q625.3827,48.7109 624.6952,49.7891 Q624.0077,50.8516 624.0077,52.9453 Q624.0077,55.0391 624.6952,56.1172 Q625.3827,57.1797 626.7264,57.1797 Q627.3514,57.1797 627.9452,56.9141 Q628.5389,56.6328 629.1639,56.0547 L629.1639,58.7734 Z " fill="#000000"/><text fill="#000000" font-family="sans-serif" font-size="12" font-style="italic" lengthAdjust="spacing" textLength="59.7832" x="639.7941" y="49.1387">&#171;module&#187;</text><text fill="#000000" font-family="sans-serif" font-size="14" lengthAdjust="spacing" textLength="34.9795" x="652.1959" y="64.9639">main</text><line style="stroke:#181818;stroke-width:0.5;" x1="605" x2="706.7725" y1="73.2656" y2="73.2656"/><line style="stroke:#181818;stroke-width:0.5;" x1="605" x2="706.7725" y1="81.2656" y2="81.2656"/><ellipse cx="615" cy="94.9141" fill="#84BE84" rx="3" ry="3" style="stroke:#038048;stroke-width:1;"/><text fill="#000000" font-family="sans-serif" font-size="14" lengthAdjust="spacing" textLength="77.7725" x="624" y="98.2607">main() : int</text></g><!--class itemWalker--><g id="elem_itemWalker"><rect codeLine="88" fill="#F1F1F1" height="48" id="itemWalker" rx="2.5" ry="2.5" style="stroke:#181818;stroke-width:0.5;" width="112.6572" x="184.5" y="199.5"/><ellipse cx="199.5" cy="215.5" fill="#ADD1B2" rx="11" ry="11" style="stroke:#181818;stroke-width:1;"/><path d="M202.4688,221.1406 Q201.8906,221.4375 201.25,221.5781 Q200.6094,221.7344 199.9063,221.7344 Q197.4063,221.7344 196.0781,220.0938 Q194.7656,218.4375 194.7656,215.3125 Q194.7656,212.1875 196.0781,210.5313 Q197.4063,208.875 199.9063,208.875 Q200.6094,208.875 201.25,209.0313 Q201.9063,209.1875 202.4688,209.4844 L202.4688,212.2031 Q201.8438,211.625 201.25,211.3594 Q200.6563,211.0781 200.0313,211.0781 Q198.6875,211.0781 198,212.1563 Q197.3125,213.2188 197.3125,215.3125 Q197.3125,217.4063 198,218.4844 Q198.6875,219.5469 200.0313,219.5469 Q200.6563,219.5469 201.25,219.2813 Q201.8438,219 202.4688,218.4219 L202.4688,221.1406 Z " fill="#000000"/><text fill="#000000" font-family="sans-serif" font-size="14" lengthAdjust="spacing" textLength="80.6572" x="213.5" y="220.3467">ItemWalker</text><line style="stroke:#181818;stroke-width:0.5;" x1="185.5" x2="296.1572" y1="231.5" y2="231.5"/><line style="stroke:#181818;stroke-width:0.5;" x1="185.5" x2="296.1572" y1="239.5" y2="239.5"/></g><g id="elem_GMN38"><path d="M139,57 L139,82.1328 A0,0 0 0 0 139,82.1328 L237,82.1328 L241,199.46 L245,82.1328 L343.0791,82.1328 A0,0 0 0 0 343.0791,82.1328 L343.0791,67 L333.0791,57 L139,57 A0,0 0 0 0 139,57 " fill="#FEFFDD" style="stroke:#181818;stroke-width:0.5;"/><path d="M333.0791,57 L333.0791,67 L343.0791,67 L333.0791,57 " fill="#FEFFDD" style="stroke:#181818;stroke-width:0.5;"/><text fill="#000000" font-family="sans-serif" font-size="13" lengthAdjust="spacing" textLength="183.0791" x="145" y="74.0669">TRLC item list traverse logic</text></g><!--class prjSpecConverter--><g id="elem_prjSpecConverter"><rect codeLine="101" fill="#F1F1F1" height="48" id="prjSpecConverter" rx="2.5" ry="2.5" style="stroke:#181818;stroke-width:0.5;" width="209.1191" x="622.5" y="594"/><ellipse cx="637.5" cy="610" fill="#ADD1B2" rx="11" ry="11" style="stroke:#181818;stroke-width:1;"/><path d="M640.4688,615.6406 Q639.8906,615.9375 639.25,616.0781 Q638.6094,616.2344 637.9063,616.2344 Q635.4063,616.2344 634.0781,614.5938 Q632.7656,612.9375 632.7656,609.8125 Q632.7656,606.6875 634.0781,605.0313 Q635.4063,603.375 637.9063,603.375 Q638.6094,603.375 639.25,603.5313 Q639.9063,603.6875 640.4688,603.9844 L640.4688,606.7031 Q639.8438,606.125 639.25,605.8594 Q638.6563,605.5781 638.0313,605.5781 Q636.6875,605.5781 636,606.6563 Q635.3125,607.7188 635.3125,609.8125 Q635.3125,611.9063 636,612.9844 Q636.6875,614.0469 638.0313,614.0469 Q638.6563,614.0469 639.25,613.7813 Q639.8438,613.5 640.4688,612.9219 L640.4688,615.6406 Z " fill="#000000"/><text fill="#000000" font-family="sans-serif" font-size="14" lengthAdjust="spacing" textLength="177.1191" x="651.5" y="614.8467">ProjectSpecific Converter</text><line style="stroke:#181818;stroke-width:0.5;" x1="623.5" x2="830.6191" y1="626" y2="626"/><line style="stroke:#181818;stroke-width:0.5;" x1="623.5" x2="830.6191" y1="634" y2="634"/></g><g id="elem_GMN46"><path d="M866.5,605.5 L866.5,614 L831.71,618 L866.5,622 L866.5,630.6328 A0,0 0 0 0 866.5,630.6328 L1205.9238,630.6328 A0,0 0 0 0 1205.9238,630.6328 L1205.9238,615.5 L1195.9238,605.5 L866.5,605.5 A0,0 0 0 0 866.5,605.5 " fill="#FEFFDD" style="stroke:#181818;stroke-width:0.5;"/><path d="M1195.9238,605.5 L1195.9238,615.5 L1205.9238,615.5 L1195.9238,605.5 " fill="#FEFFDD" style="stroke:#181818;stroke-width:0.5;"/><text fill="#000000" font-family="sans-serif" font-size="13" lengthAdjust="spacing" textLength="318.4238" x="872.5" y="622.5669">May also subclass one of the "Built-in Converter"</text></g><!--class translator--><g id="elem_translator"><rect codeLine="111" fill="#F1F1F1" height="48" id="translator" rx="2.5" ry="2.5" style="stroke:#181818;stroke-width:0.5;" width="103.333" x="214.5" y="594"/><ellipse cx="229.5" cy="610" fill="#ADD1B2" rx="11" ry="11" style="stroke:#181818;stroke-width:1;"/><path d="M232.4688,615.6406 Q231.8906,615.9375 231.25,616.0781 Q230.6094,616.2344 229.9063,616.2344 Q227.4063,616.2344 226.0781,614.5938 Q224.7656,612.9375 224.7656,609.8125 Q224.7656,606.6875 226.0781,605.0313 Q227.4063,603.375 229.9063,603.375 Q230.6094,603.375 231.25,603.5313 Q231.9063,603.6875 232.4688,603.9844 L232.4688,606.7031 Q231.8438,606.125 231.25,605.8594 Q230.6563,605.5781 230.0313,605.5781 Q228.6875,605.5781 228,606.6563 Q227.3125,607.7188 227.3125,609.8125 Q227.3125,611.9063 228,612.9844 Q228.6875,614.0469 230.0313,614.0469 Q230.6563,614.0469 231.25,613.7813 Q231.8438,613.5 232.4688,612.9219 L232.4688,615.6406 Z " fill="#000000"/><text fill="#000000" font-family="sans-serif" font-size="14" lengthAdjust="spacing" textLength="71.333" x="243.5" y="614.8467">Translator</text><line style="stroke:#181818;stroke-width:0.5;" x1="215.5" x2="316.833" y1="626" y2="626"/><line style="stroke:#181818;stroke-width:0.5;" x1="215.5" x2="316.833" y1="634" y2="634"/></g><g id="elem_GMN52"><path d="M117.5,408 L117.5,448.2656 A0,0 0 0 0 117.5,448.2656 L226.95,448.2656 L261.19,593.8 L234.95,448.2656 L336.5532,448.2656 A0,0 0 0 0 336.5532,448.2656 L336.5532,418 L326.5532,408 L117.5,408 A0,0 0 0 0 117.5,408 " fill="#FEFFDD" style="stroke:#181818;stroke-width:0.5;"/><path d="M326.5532,408 L326.5532,418 L336.5532,418 L326.5532,408 " fill="#FEFFDD" style="stroke:#181818;stroke-width:0.5;"/><text fill="#000000" font-family="sans-serif" font-size="13" lengthAdjust="spacing" textLength="164.7407" x="123.5" y="425.0669">Loads translation file and</text><text fill="#000000" font-family="sans-serif" font-size="13" lengthAdjust="spacing" textLength="198.0532" x="123.5" y="440.1997">provides translation functions.</text></g><!--reverse link abstractConverter to baseConverter--><g id="link_abstractConverter_baseConverter"><path codeLine="39" d="M463.1092,531.0794 C461.7892,558.6494 461.28,569.39 460.31,589.63 " fill="none" id="abstractConverter-backto-baseConverter" style="stroke:#181818;stroke-width:1;stroke-dasharray:7.0,7.0;"/><polygon fill="none" points="463.97,513.1,457.116,530.7925,469.1023,531.3663,463.97,513.1" style="stroke:#181818;stroke-width:1;"/><text fill="#000000" font-family="sans-serif" font-size="13" lengthAdjust="spacing" textLength="59.2617" x="464" y="556.0669">&#171;realize&#187;</text></g><!--reverse link baseConverter to markdownConverter--><g id="link_baseConverter_markdownConverter"><path codeLine="40" d="M373.6686,641.7609 C323.2886,656.1109 270.94,673.47 213,701 C187.7,713.02 161.06,730.02 141.07,743.76 " fill="none" id="baseConverter-backto-markdownConverter" style="stroke:#181818;stroke-width:1;stroke-dasharray:7.0,7.0;"/><polygon fill="none" points="390.98,636.83,372.0249,635.9904,375.3122,647.5314,390.98,636.83" style="stroke:#181818;stroke-width:1;"/><text fill="#000000" font-family="sans-serif" font-size="13" lengthAdjust="spacing" textLength="59.2617" x="273" y="689.0669">&#171;realize&#187;</text></g><!--reverse link baseConverter to docxConverter--><g id="link_baseConverter_docxConverter"><path codeLine="41" d="M459,664.15 C459,692.18 459,717.47 459,743.92 " fill="none" id="baseConverter-backto-docxConverter" style="stroke:#181818;stroke-width:1;stroke-dasharray:7.0,7.0;"/><polygon fill="none" points="459,646.15,453,664.15,465,664.15,459,646.15" style="stroke:#181818;stroke-width:1;"/><text fill="#000000" font-family="sans-serif" font-size="13" lengthAdjust="spacing" textLength="59.2617" x="460" y="689.0669">&#171;realize&#187;</text></g><!--reverse link baseConverter to dumpConverter--><g id="link_baseConverter_dumpConverter"><path codeLine="42" d="M505.9567,657.6125 C517.3667,667.0225 516.33,666.22 528,676 C555.29,698.87 586.25,725.25 607.82,743.7 " fill="none" id="baseConverter-backto-dumpConverter" style="stroke:#181818;stroke-width:1;stroke-dasharray:7.0,7.0;"/><polygon fill="none" points="492.07,646.16,502.1391,662.2414,509.7742,652.9837,492.07,646.16" style="stroke:#181818;stroke-width:1;"/><text fill="#000000" font-family="sans-serif" font-size="13" lengthAdjust="spacing" textLength="59.2617" x="547" y="689.0669">&#171;realize&#187;</text></g><!--reverse link baseConverter to rstConverter--><g id="link_baseConverter_rstConverter"><path codeLine="43" d="M411.3939,657.549 C400.0539,666.869 401.31,666.04 390,676 C364.53,698.43 336.32,725.11 316.93,743.76 " fill="none" id="baseConverter-backto-rstConverter" style="stroke:#181818;stroke-width:1;stroke-dasharray:7.0,7.0;"/><polygon fill="none" points="425.3,646.12,407.5843,652.9136,415.2036,662.1843,425.3,646.12" style="stroke:#181818;stroke-width:1;"/><text fill="#000000" font-family="sans-serif" font-size="13" lengthAdjust="spacing" textLength="59.2617" x="391" y="689.0669">&#171;realize&#187;</text></g><!--reverse link baseConverter to reqifConverter--><g id="link_baseConverter_reqifConverter"><path codeLine="44" d="M544.6757,637.0451 C600.0057,650.0051 661.46,668.18 725,701 C747.24,712.49 769.58,729.85 785.92,743.89 " fill="none" id="baseConverter-backto-reqifConverter" style="stroke:#181818;stroke-width:1;stroke-dasharray:7.0,7.0;"/><polygon fill="none" points="527.15,632.94,543.3073,642.8869,546.044,631.2032,527.15,632.94" style="stroke:#181818;stroke-width:1;"/><text fill="#000000" font-family="sans-serif" font-size="13" lengthAdjust="spacing" textLength="59.2617" x="705" y="689.0669">&#171;realize&#187;</text></g><!--link main to itemWalker--><g id="link_main_itemWalker"><path codeLine="95" d="M603.85,84.68 C536.07,103.79 414.58,140.37 315,183 C303.75,187.81 297.2143,190.8967 286.3943,196.6667 " fill="none" id="main-to-itemWalker" style="stroke:#181818;stroke-width:1;stroke-dasharray:7.0,7.0;"/><polygon fill="#181818" points="281.1,199.49,290.9236,198.7846,285.5119,197.1373,287.1592,191.7256,281.1,199.49" style="stroke:#181818;stroke-width:1;"/><text fill="#000000" font-family="sans-serif" font-size="13" lengthAdjust="spacing" textLength="38.9175" x="436" y="149.0669">&#171;use&#187;</text></g><!--link itemWalker to abstractConverter--><g id="link_itemWalker_abstractConverter"><path codeLine="96" d="M267.04,247.73 C293.18,271.05 330.5628,304.3957 369.3228,338.9757 " fill="none" id="itemWalker-to-abstractConverter" style="stroke:#181818;stroke-width:1;stroke-dasharray:7.0,7.0;"/><polygon fill="#181818" points="373.8,342.97,369.7471,333.9937,370.069,339.6414,364.4213,339.9633,373.8,342.97" style="stroke:#181818;stroke-width:1;"/><text fill="#000000" font-family="sans-serif" font-size="13" lengthAdjust="spacing" textLength="38.9175" x="336" y="309.0669">&#171;use&#187;</text></g><!--reverse link main to abstractConverter--><g id="link_main_abstractConverter"><path codeLine="97" d="M657.0121,118.2999 C656.8321,163.3899 651.48,229.97 620,288 C606.19,313.46 585.9,336.72 564.62,356.63 " fill="none" id="main-backto-abstractConverter" style="stroke:#181818;stroke-width:1;"/><polygon fill="#181818" points="657.06,106.3,653.0361,112.284,657.0121,118.2999,661.036,112.3159,657.06,106.3" style="stroke:#181818;stroke-width:1;"/></g><!--link main to version--><g id="link_main_version"><path codeLine="98" d="M708.08,104.15 C722.83,114.08 738.75,125.2 753,136 C777.98,154.94 800.4738,173.9984 820.4138,191.5284 " fill="none" id="main-to-version" style="stroke:#181818;stroke-width:1;stroke-dasharray:7.0,7.0;"/><polygon fill="#181818" points="824.92,195.49,820.8017,186.5435,821.1648,192.1887,815.5196,192.5518,824.92,195.49" style="stroke:#181818;stroke-width:1;"/><text fill="#000000" font-family="sans-serif" font-size="13" lengthAdjust="spacing" textLength="38.9175" x="774" y="149.0669">&#171;use&#187;</text></g><!--reverse link baseConverter to prjSpecConverter--><g id="link_baseConverter_prjSpecConverter"><path codeLine="108" d="M545.32,618 C574.17,618 590.41,618 622.31,618 " fill="none" id="baseConverter-backto-prjSpecConverter" style="stroke:#181818;stroke-width:1;stroke-dasharray:7.0,7.0;"/><polygon fill="none" points="527.32,618,545.32,624,545.32,612,527.32,618" style="stroke:#181818;stroke-width:1;"/><text fill="#000000" font-family="sans-serif" font-size="13" lengthAdjust="spacing" textLength="59.2617" x="545.25" y="611.0669">&#171;realize&#187;</text></g><!--reverse link main to prjSpecConverter--><g id="link_main_prjSpecConverter"><path codeLine="109" d="M676.7196,117.4483 C680.4496,126.9383 679.63,126.13 682,136 C723.31,308.08 727.09,523.26 727.15,593.59 " fill="none" id="main-backto-prjSpecConverter" style="stroke:#181818;stroke-width:1;"/><polygon fill="none" points="672.33,106.28,670.8021,113.3274,676.7196,117.4483,678.2476,110.4009,672.33,106.28" style="stroke:#181818;stroke-width:1;"/><text fill="#000000" font-family="sans-serif" font-size="13" lengthAdjust="spacing" textLength="271.1846" x="712" y="309.0669">Dynamic loading "--project &lt;file&gt;" option</text></g><!--reverse link translator to baseConverter--><g id="link_translator_baseConverter"><path codeLine="118" d="M323.64,618 C348.03,618 366.42,618 390.81,618 " fill="none" id="translator-backto-baseConverter" style="stroke:#181818;stroke-width:1;"/><polygon fill="#181818" points="317.64,618,326.64,622,322.64,618,326.64,614,317.64,618" style="stroke:#181818;stroke-width:1;"/></g><!--SRC=[ZLNDRjim3BxxAOYSsXNE0nH1W7NTeLY35bcB7GF5fXsrikH9ShUkoxkFKlmZEUvIdsJo8_NnLrnQr0NB46QVjyPgbjalIhwW9l4Cc04sbi9YqScMItXBWBuBU3EMMPxjGMF93S7Ec2xDfcRQe3xlG9tX7hA3kut1p78bp_u3qPWfdM_KzecmKq1qCMmABd1AAv2zuBlQBT6TlBtWafiTQVP98fL5iAe6LHpdmvlUz6aibEwOSrd2m_hs2vZNQgk4yKWkhO8S3McPYzmPLCpE4vGvk8kI91FC69XTCODnBRQXP5m7ubcpx9cLLCghXWkRSWazsim8uWcqtbTCF-VgbunlgCRIji3xo7PjHasY0q5tJsnohRBViKqUIYQlkMwgUcGJIgQfuKzUZCX5ejwAx2Pw- -zy7gVvalAiaGd-1vVBP5G1XpvAsKcBAFBJw33ca-Ym4gV1KMPYUDU5f3FKfZwJxPbmbSeRWLtVXVFHOdoILnxbHsB7P2xSG7G-k3mqFft3tgTXjqoMPFLekU2Menarhb1bsLRsS8pf12qHqZf0lVWTPhtEKTmgWzx6KIO035hKcgmgD8P6pSozOk0V4Aq5axQfXAVQ_No8R0V-4Drx1tvStKBEMQbPrIjAbAZR11-JHDbKi4RRid3VtRV- -7Mzlbk_Hu-iUY2T6orfuz5AwuMEPz58lzd76ThtdLKnBjkbm-LnNYwy_EmSBjtE3EnkB5O_c7Xkcu3tlt4Z1dBdpYzY9mD1xnFGtBjEz4NcMT20YMSpdoy31suo6kEcOf1voD426P3UpQSqJITUZFwATXW6gpx8UwtSS_UznemNF8DufTNwoMd2fTQDeURbplec6c6I5Ni59em2qsmFjoY93cbtaq_6BCZAqVBGywCBultXOrJfCTLBk7wLhAAOX6AvcwzPcjQ7S67Xtkdb35JjUgVFneDcqWXcrI5ys__69G_ahkItv7y0-xUMlBjnzcgwyuLJsyQ8eMs7w0U_i4ZZvo7v1m00]--></g></svg>