<?plantuml 1.2026.1?><svg xmlns="http://www.w3.org/2000/svg" xmlns:xlink="http://www.w3.org/1999/xlink" contentStyleType="text/css" data-diagram-type="CLASS" height="569px" preserveAspectRatio="none" style="width:799px;height:569px;background:#FFFFFF;" version="1.1" viewBox="0 0 799 569" width="799px" zoomAndPan="magnify"><defs/><g><!--cluster Dependencies--><g class="cluster" data-qualified-name="Dependencies" data-source-line="14" id="ent0005"><path d="M8.5,286 L120.5088,286 A3.75,3.75 0 0 1 123.0088,288.5 L130.0088,308.2969 L786.5,308.2969 A2.5,2.5 0 0 1 789,310.7969 L789,559.5 A2.5,2.5 0 0 1 786.5,562 L8.5,562 A2.5,2.5 0 0 1 6,559.5 L6,288.5 A2.5,2.5 0 0 1 8.5,286" fill="none" style="stroke:#000000;stroke-width:1.5;"/><line style="stroke:#000000;stroke-width:1.5;" x1="6" x2="130.0088" y1="308.2969" y2="308.2969"/><text fill="#000000" font-family="sans-serif" font-size="14" font-weight="bold" lengthAdjust="spacing" textLength="111.0088" x="10" y="300.9951">Dependencies</text></g><!--class trlc--><g class="entity" data-qualified-name="Dependencies.trlc" data-source-line="16" id="ent0006"><rect fill="#F1F1F1" height="56.2656" rx="2.5" ry="2.5" style="stroke:#181818;stroke-width:0.5;" width="87.7832" x="685" y="325"/><ellipse cx="700" cy="345.1328" fill="#ADD8E6" rx="11" ry="11" style="stroke:#181818;stroke-width:1;"/><path d="M695.7188,338.7422 L698.6406,338.7422 L700.1094,344.1797 L701.5781,338.7422 L704.5156,338.7422 L704.5156,351.1328 L702.4063,351.1328 L702.4063,341.2109 L701.0938,346.6328 L699.1563,346.6328 L697.8281,341.2109 L697.8281,351.1328 L695.7188,351.1328 L695.7188,338.7422 Z " fill="#000000"/><text fill="#000000" font-family="sans-serif" font-size="12" font-style="italic" lengthAdjust="spacing" textLength="59.7832" x="712" y="341.1387">&#171;module&#187;</text><text fill="#000000" font-family="sans-serif" font-size="14" lengthAdjust="spacing" textLength="22.832" x="730.4756" y="356.9639">trlc</text><line style="stroke:#181818;stroke-width:0.5;" x1="686" x2="771.7832" y1="365.2656" y2="365.2656"/><line style="stroke:#181818;stroke-width:0.5;" x1="686" x2="771.7832" y1="373.2656" y2="373.2656"/></g><g class="entity" data-qualified-name="Dependencies.GMN7" data-source-line="20" id="ent0008"><path d="M621,445 L621,545.7969 A0,0 0 0 0 621,545.7969 L772.5615,545.7969 A0,0 0 0 0 772.5615,545.7969 L772.5615,455 L762.5615,445 L712.33,445 L722.83,381.09 L704.33,445 L621,445 A0,0 0 0 0 621,445" fill="#FEFFDD" style="stroke:#181818;stroke-width:0.5;"/><path d="M762.5615,445 L762.5615,455 L772.5615,455 L762.5615,445" fill="#FEFFDD" style="stroke:#181818;stroke-width:0.5;"/><text fill="#000000" font-family="sans-serif" font-size="13" lengthAdjust="spacing" textLength="130.3364" x="627" y="462.0669">Use TRLC ast items:</text><ellipse cx="632.5" cy="472.7656" fill="#000000" rx="2.5" ry="2.5"/><text fill="#000000" font-family="sans-serif" font-size="13" lengthAdjust="spacing" textLength="79.5171" x="639" y="477.1997">Implicit_Null</text><ellipse cx="632.5" cy="487.8984" fill="#000000" rx="2.5" ry="2.5"/><text fill="#000000" font-family="sans-serif" font-size="13" lengthAdjust="spacing" textLength="94.5674" x="639" y="492.3325">Record_Object</text><ellipse cx="632.5" cy="503.0313" fill="#000000" rx="2.5" ry="2.5"/><text fill="#000000" font-family="sans-serif" font-size="13" lengthAdjust="spacing" textLength="118.5615" x="639" y="507.4653">Record_Reference</text><ellipse cx="632.5" cy="518.1641" fill="#000000" rx="2.5" ry="2.5"/><text fill="#000000" font-family="sans-serif" font-size="13" lengthAdjust="spacing" textLength="86.1694" x="639" y="522.5981">String_Literal</text><ellipse cx="632.5" cy="533.2969" fill="#000000" rx="2.5" ry="2.5"/><text fill="#000000" font-family="sans-serif" font-size="13" lengthAdjust="spacing" textLength="70.8525" x="639" y="537.731">Expression</text></g><!--class docx--><g class="entity" data-qualified-name="Dependencies.docx" data-source-line="29" id="ent0010"><rect fill="#F1F1F1" height="56.2656" rx="2.5" ry="2.5" style="stroke:#181818;stroke-width:0.5;" width="87.7832" x="562" y="325"/><ellipse cx="577" cy="345.1328" fill="#ADD8E6" rx="11" ry="11" style="stroke:#181818;stroke-width:1;"/><path d="M572.7188,338.7422 L575.6406,338.7422 L577.1094,344.1797 L578.5781,338.7422 L581.5156,338.7422 L581.5156,351.1328 L579.4063,351.1328 L579.4063,341.2109 L578.0938,346.6328 L576.1563,346.6328 L574.8281,341.2109 L574.8281,351.1328 L572.7188,351.1328 L572.7188,338.7422 Z " fill="#000000"/><text fill="#000000" font-family="sans-serif" font-size="12" font-style="italic" lengthAdjust="spacing" textLength="59.7832" x="589" y="341.1387">&#171;module&#187;</text><text fill="#000000" font-family="sans-serif" font-size="14" lengthAdjust="spacing" textLength="33.4346" x="602.1743" y="356.9639">docx</text><line style="stroke:#181818;stroke-width:0.5;" x1="563" x2="648.7832" y1="365.2656" y2="365.2656"/><line style="stroke:#181818;stroke-width:0.5;" x1="563" x2="648.7832" y1="373.2656" y2="373.2656"/></g><g class="entity" data-qualified-name="Dependencies.GMN11" data-source-line="32" id="ent0012"><path d="M352,483 L352,508.1328 A0,0 0 0 0 352,508.1328 L585.6084,508.1328 A0,0 0 0 0 585.6084,508.1328 L585.6084,493 L575.6084,483 L484.34,483 L579.59,381.09 L476.34,483 L352,483 A0,0 0 0 0 352,483" fill="#FEFFDD" style="stroke:#181818;stroke-width:0.5;"/><path d="M575.6084,483 L575.6084,493 L585.6084,493 L575.6084,483" fill="#FEFFDD" style="stroke:#181818;stroke-width:0.5;"/><text fill="#000000" font-family="sans-serif" font-size="13" lengthAdjust="spacing" textLength="212.6084" x="358" y="500.0669">Library for generating .docx files</text></g><!--class Md2DocxRenderer--><g class="entity" data-qualified-name="Dependencies.Md2DocxRenderer" data-source-line="35" id="ent0014"><rect fill="#F1F1F1" height="64.2969" rx="2.5" ry="2.5" style="stroke:#181818;stroke-width:0.5;" width="172.8428" x="353.5" y="321"/><ellipse cx="373.3612" cy="337" fill="#ADD1B2" rx="11" ry="11" style="stroke:#181818;stroke-width:1;"/><path d="M376.33,342.6406 Q375.7519,342.9375 375.1112,343.0781 Q374.4706,343.2344 373.7675,343.2344 Q371.2675,343.2344 369.9394,341.5938 Q368.6269,339.9375 368.6269,336.8125 Q368.6269,333.6875 369.9394,332.0313 Q371.2675,330.375 373.7675,330.375 Q374.4706,330.375 375.1112,330.5313 Q375.7675,330.6875 376.33,330.9844 L376.33,333.7031 Q375.705,333.125 375.1112,332.8594 Q374.5175,332.5781 373.8925,332.5781 Q372.5487,332.5781 371.8612,333.6563 Q371.1737,334.7188 371.1737,336.8125 Q371.1737,338.9063 371.8612,339.9844 Q372.5487,341.0469 373.8925,341.0469 Q374.5175,341.0469 375.1112,340.7813 Q375.705,340.5 376.33,339.9219 L376.33,342.6406 Z " fill="#000000"/><text fill="#000000" font-family="sans-serif" font-size="14" lengthAdjust="spacing" textLength="130.04" x="388.4415" y="341.8467">Md2DocxRenderer</text><line style="stroke:#181818;stroke-width:0.5;" x1="354.5" x2="525.3428" y1="353" y2="353"/><line style="stroke:#181818;stroke-width:0.5;" x1="354.5" x2="525.3428" y1="361" y2="361"/><g data-visibility-modifier="PUBLIC_METHOD"><ellipse cx="364.5" cy="374.6484" fill="#84BE84" rx="3" ry="3" style="stroke:#038048;stroke-width:1;"/></g><text fill="#000000" font-family="sans-serif" font-size="14" lengthAdjust="spacing" textLength="146.8428" x="373.5" y="377.9951">render(ast: Any) : str</text></g><!--class Gfm2DocxRenderer--><g class="entity" data-qualified-name="Dependencies.Gfm2DocxRenderer" data-source-line="39" id="ent0015"><rect fill="#F1F1F1" height="64.2969" rx="2.5" ry="2.5" style="stroke:#181818;stroke-width:0.5;" width="172.8428" x="145.5" y="321"/><ellipse cx="161.5591" cy="337" fill="#ADD1B2" rx="11" ry="11" style="stroke:#181818;stroke-width:1;"/><path d="M164.5278,342.6406 Q163.9497,342.9375 163.3091,343.0781 Q162.6685,343.2344 161.9653,343.2344 Q159.4653,343.2344 158.1372,341.5938 Q156.8247,339.9375 156.8247,336.8125 Q156.8247,333.6875 158.1372,332.0313 Q159.4653,330.375 161.9653,330.375 Q162.6685,330.375 163.3091,330.5313 Q163.9653,330.6875 164.5278,330.9844 L164.5278,333.7031 Q163.9028,333.125 163.3091,332.8594 Q162.7153,332.5781 162.0903,332.5781 Q160.7466,332.5781 160.0591,333.6563 Q159.3716,334.7188 159.3716,336.8125 Q159.3716,338.9063 160.0591,339.9844 Q160.7466,341.0469 162.0903,341.0469 Q162.7153,341.0469 163.3091,340.7813 Q163.9028,340.5 164.5278,339.9219 L164.5278,342.6406 Z " fill="#000000"/><text fill="#000000" font-family="sans-serif" font-size="14" lengthAdjust="spacing" textLength="138.4893" x="175.7944" y="341.8467">Gfm2DocxRenderer</text><line style="stroke:#181818;stroke-width:0.5;" x1="146.5" x2="317.3428" y1="353" y2="353"/><line style="stroke:#181818;stroke-width:0.5;" x1="146.5" x2="317.3428" y1="361" y2="361"/><g data-visibility-modifier="PUBLIC_METHOD"><ellipse cx="156.5" cy="374.6484" fill="#84BE84" rx="3" ry="3" style="stroke:#038048;stroke-width:1;"/></g><text fill="#000000" font-family="sans-serif" font-size="14" lengthAdjust="spacing" textLength="146.8428" x="165.5" y="377.9951">render(ast: Any) : str</text></g><!--class marko--><g class="entity" data-qualified-name="Dependencies.marko" data-source-line="43" id="ent0016"><rect fill="#F1F1F1" height="56.2656" rx="2.5" ry="2.5" style="stroke:#181818;stroke-width:0.5;" width="87.7832" x="22" y="325"/><ellipse cx="37" cy="345.1328" fill="#ADD8E6" rx="11" ry="11" style="stroke:#181818;stroke-width:1;"/><path d="M32.7188,338.7422 L35.6406,338.7422 L37.1094,344.1797 L38.5781,338.7422 L41.5156,338.7422 L41.5156,351.1328 L39.4063,351.1328 L39.4063,341.2109 L38.0938,346.6328 L36.1563,346.6328 L34.8281,341.2109 L34.8281,351.1328 L32.7188,351.1328 L32.7188,338.7422 Z " fill="#000000"/><text fill="#000000" font-family="sans-serif" font-size="12" font-style="italic" lengthAdjust="spacing" textLength="59.7832" x="49" y="341.1387">&#171;module&#187;</text><text fill="#000000" font-family="sans-serif" font-size="14" lengthAdjust="spacing" textLength="44.6455" x="56.5688" y="356.9639">marko</text><line style="stroke:#181818;stroke-width:0.5;" x1="23" x2="108.7832" y1="365.2656" y2="365.2656"/><line style="stroke:#181818;stroke-width:0.5;" x1="23" x2="108.7832" y1="373.2656" y2="373.2656"/></g><g class="entity" data-qualified-name="Dependencies.GMN17" data-source-line="46" id="ent0018"><path d="M22,483 L22,508.1328 A0,0 0 0 0 22,508.1328 L155.5313,508.1328 A0,0 0 0 0 155.5313,508.1328 L155.5313,493 L145.5313,483 L91.1,483 L70.43,381.09 L83.1,483 L22,483 A0,0 0 0 0 22,483" fill="#FEFFDD" style="stroke:#181818;stroke-width:0.5;"/><path d="M145.5313,483 L145.5313,493 L155.5313,493 L145.5313,483" fill="#FEFFDD" style="stroke:#181818;stroke-width:0.5;"/><text fill="#000000" font-family="sans-serif" font-size="13" lengthAdjust="spacing" textLength="112.5313" x="28" y="500.0669">Markdown Parser</text></g><!--class BaseConverter--><g class="entity" data-qualified-name="BaseConverter" data-source-line="2" id="ent0002"><rect fill="#F1F1F1" height="48" rx="2.5" ry="2.5" style="stroke:#181818;stroke-width:0.5;" width="135.8174" x="372" y="7"/><ellipse cx="387" cy="23" fill="#ADD1B2" rx="11" ry="11" style="stroke:#181818;stroke-width:1;"/><path d="M389.9688,28.6406 Q389.3906,28.9375 388.75,29.0781 Q388.1094,29.2344 387.4063,29.2344 Q384.9063,29.2344 383.5781,27.5938 Q382.2656,25.9375 382.2656,22.8125 Q382.2656,19.6875 383.5781,18.0313 Q384.9063,16.375 387.4063,16.375 Q388.1094,16.375 388.75,16.5313 Q389.4063,16.6875 389.9688,16.9844 L389.9688,19.7031 Q389.3438,19.125 388.75,18.8594 Q388.1563,18.5781 387.5313,18.5781 Q386.1875,18.5781 385.5,19.6563 Q384.8125,20.7188 384.8125,22.8125 Q384.8125,24.9063 385.5,25.9844 Q386.1875,27.0469 387.5313,27.0469 Q388.1563,27.0469 388.75,26.7813 Q389.3438,26.5 389.9688,25.9219 L389.9688,28.6406 Z " fill="#000000"/><text fill="#000000" font-family="sans-serif" font-size="14" lengthAdjust="spacing" textLength="103.8174" x="401" y="27.8467">BaseConverter</text><line style="stroke:#181818;stroke-width:0.5;" x1="373" x2="506.8174" y1="39" y2="39"/><line style="stroke:#181818;stroke-width:0.5;" x1="373" x2="506.8174" y1="47" y2="47"/></g><!--class DocxConverter--><g class="entity" data-qualified-name="DocxConverter" data-source-line="5" id="ent0003"><rect fill="#F1F1F1" height="145.7813" rx="2.5" ry="2.5" style="stroke:#181818;stroke-width:0.5;" width="704.7129" x="87.5" y="115"/><ellipse cx="383.0791" cy="131" fill="#ADD1B2" rx="11" ry="11" style="stroke:#181818;stroke-width:1;"/><path d="M386.0479,136.6406 Q385.4697,136.9375 384.8291,137.0781 Q384.1885,137.2344 383.4854,137.2344 Q380.9854,137.2344 379.6572,135.5938 Q378.3447,133.9375 378.3447,130.8125 Q378.3447,127.6875 379.6572,126.0313 Q380.9854,124.375 383.4854,124.375 Q384.1885,124.375 384.8291,124.5313 Q385.4854,124.6875 386.0479,124.9844 L386.0479,127.7031 Q385.4229,127.125 384.8291,126.8594 Q384.2354,126.5781 383.6104,126.5781 Q382.2666,126.5781 381.5791,127.6563 Q380.8916,128.7188 380.8916,130.8125 Q380.8916,132.9063 381.5791,133.9844 Q382.2666,135.0469 383.6104,135.0469 Q384.2354,135.0469 384.8291,134.7813 Q385.4229,134.5 386.0479,133.9219 L386.0479,136.6406 Z " fill="#000000"/><text fill="#000000" font-family="sans-serif" font-size="14" lengthAdjust="spacing" textLength="105.0547" x="403.5791" y="135.8467">DocxConverter</text><line style="stroke:#181818;stroke-width:0.5;" x1="88.5" x2="791.2129" y1="147" y2="147"/><line style="stroke:#181818;stroke-width:0.5;" x1="88.5" x2="791.2129" y1="155" y2="155"/><g data-visibility-modifier="PUBLIC_METHOD"><ellipse cx="98.5" cy="168.6484" fill="#84BE84" rx="3" ry="3" style="stroke:#038048;stroke-width:1;"/></g><text fill="#000000" font-family="sans-serif" font-size="14" lengthAdjust="spacing" textLength="168" x="107.5" y="171.9951">get_subcommand() : str</text><g data-visibility-modifier="PUBLIC_METHOD"><ellipse cx="98.5" cy="184.9453" fill="#84BE84" rx="3" ry="3" style="stroke:#038048;stroke-width:1;"/></g><text fill="#000000" font-family="sans-serif" font-size="14" lengthAdjust="spacing" textLength="150.9102" x="107.5" y="188.292">get_description() : str</text><g data-visibility-modifier="PUBLIC_METHOD"><ellipse cx="98.5" cy="201.2422" fill="#84BE84" rx="3" ry="3" style="stroke:#038048;stroke-width:1;"/></g><text fill="#000000" font-family="sans-serif" font-size="14" lengthAdjust="spacing" textLength="233.666" x="107.5" y="204.5889">register(args_parser: Any) : None</text><g data-visibility-modifier="PUBLIC_METHOD"><ellipse cx="98.5" cy="217.5391" fill="#84BE84" rx="3" ry="3" style="stroke:#038048;stroke-width:1;"/></g><text fill="#000000" font-family="sans-serif" font-size="14" lengthAdjust="spacing" textLength="306.8105" x="107.5" y="220.8857">convert_section(section: str, level: int) : Ret</text><g data-visibility-modifier="PUBLIC_METHOD"><ellipse cx="98.5" cy="233.8359" fill="#84BE84" rx="3" ry="3" style="stroke:#038048;stroke-width:1;"/></g><text fill="#000000" font-family="sans-serif" font-size="14" lengthAdjust="spacing" textLength="678.7129" x="107.5" y="237.1826">convert_record_object_generic(record: Record_Object, level: int, translation: Optional[dict]) : Ret</text><g data-visibility-modifier="PUBLIC_METHOD"><ellipse cx="98.5" cy="250.1328" fill="#84BE84" rx="3" ry="3" style="stroke:#038048;stroke-width:1;"/></g><text fill="#000000" font-family="sans-serif" font-size="14" lengthAdjust="spacing" textLength="86.1191" x="107.5" y="253.4795">finish() : Ret</text></g><!--reverse link BaseConverter to DocxConverter--><g class="link" data-entity-1="ent0002" data-entity-2="ent0003" data-link-type="extension" data-source-line="6" id="lnk4"><path d="M440,73.21 C440,89.17 440,93.3 440,114.88" fill="none" id="BaseConverter-backto-DocxConverter" style="stroke:#181818;stroke-width:1;"/><polygon fill="none" points="440,55.21,434,73.21,446,73.21,440,55.21" style="stroke:#181818;stroke-width:1;"/></g><!--link DocxConverter to trlc--><g class="link" data-entity-1="ent0003" data-entity-2="ent0006" data-link-type="dependency" data-source-line="50" id="lnk20"><path codeLine="50" d="M642.01,261.06 C651.03,266.38 659.74,272.02 668,278 C685.4,290.6 697.2791,304.3958 708.2291,319.8358" fill="none" id="DocxConverter-to-trlc" style="stroke:#181818;stroke-width:1;stroke-dasharray:7,7;"/><polygon fill="#181818" points="711.7,324.73,709.7564,315.0748,708.8076,320.6515,703.2309,319.7027,711.7,324.73" style="stroke:#181818;stroke-width:1;"/></g><!--link DocxConverter to docx--><g class="link" data-entity-1="ent0003" data-entity-2="ent0010" data-link-type="dependency" data-source-line="51" id="lnk21"><path codeLine="51" d="M526.43,261 C532.48,266.64 538.4,272.34 544,278 C558.5,292.65 569.6243,305.6308 581.1743,320.0208" fill="none" id="DocxConverter-to-docx" style="stroke:#181818;stroke-width:1;stroke-dasharray:7,7;"/><polygon fill="#181818" points="584.93,324.7,582.4159,315.1774,581.8003,320.8007,576.177,320.185,584.93,324.7" style="stroke:#181818;stroke-width:1;"/></g><!--link DocxConverter to Md2DocxRenderer--><g class="link" data-entity-1="ent0003" data-entity-2="ent0014" data-link-type="dependency" data-source-line="52" id="lnk22"><path codeLine="52" d="M440,261.44 C440,282.19 440,297.73 440,314.59" fill="none" id="DocxConverter-to-Md2DocxRenderer" style="stroke:#181818;stroke-width:1;stroke-dasharray:7,7;"/><polygon fill="#181818" points="440,320.59,444,311.59,440,315.59,436,311.59,440,320.59" style="stroke:#181818;stroke-width:1;"/></g><!--link DocxConverter to Gfm2DocxRenderer--><g class="link" data-entity-1="ent0003" data-entity-2="ent0015" data-link-type="dependency" data-source-line="53" id="lnk23"><path codeLine="53" d="M347.86,261.21 C321.13,282.15 298.062,300.2283 276.402,317.2083" fill="none" id="DocxConverter-to-Gfm2DocxRenderer" style="stroke:#181818;stroke-width:1;stroke-dasharray:7,7;"/><polygon fill="#181818" points="271.68,320.91,281.2308,318.5054,275.615,317.8252,276.2952,312.2094,271.68,320.91" style="stroke:#181818;stroke-width:1;"/></g><!--link DocxConverter to marko--><g class="link" data-entity-1="ent0003" data-entity-2="ent0016" data-link-type="dependency" data-source-line="54" id="lnk24"><path codeLine="54" d="M157.13,261.02 C147.08,266.29 137.33,271.94 128,278 C109.58,289.95 97.2166,304.1317 86.1766,319.9317" fill="none" id="DocxConverter-to-marko" style="stroke:#181818;stroke-width:1;stroke-dasharray:7,7;"/><polygon fill="#181818" points="82.74,324.85,91.1738,319.7636,85.6038,320.7514,84.616,315.1815,82.74,324.85" style="stroke:#181818;stroke-width:1;"/></g><?plantuml-src fLF1Rjim3BtdAuYUt3N8OSUW2B2smp0WQOTiEnM58SkqgrMM35BfKWpvzybKwzX9jXscY-7to4VoYT9MCSELOhpsxXaf8C6loMuoqKBSUBtT4xWDwChZS8ZdeiQGywRGlccKAxDpc0C7sdCbiYRJ1kFTc2Ii3KUXJ57DUQk8aURmmRrqKRVUOGhJgM3Eg4NZzIj2Kx3uZ7OEneKkQurXd4IeFPMvBtx4hBn6XsHqbj0kNDWxOOTQKmYa75kLAjr9zyhUbqQ7Xr6XoZZ3ZzaR5WribNvIDSBP3RRHDNJQ89z5joGXsHl8QhYyp5OmjQP-38NTu3aqljnON2oIiRkKu7n0A7m8lW5VIQRWtVdE2D_MosjG7C04R7ZUS-_WSzDQeqt8RpVM3l3HrCVu6Ykas3KEgA-1ZAlpPQn1QgZrSTiICaTt18ppIiEJuR1btAL_3tjYrYwnhxKq1IbwWSeJo3t6kt4rp4IzCXRve8Dz0wloVRVFw-usg5zSkJuW0RDeOBzwRmkw6sfygfh_5saKFVa_Mm5_yK9I-vAh-5Vwdmw-oAiPJnvBZf_lRBP8UtCCYyN7y85Z9o8E_JWHabh-3G00?></g></svg>