<svg xmlns="http://www.w3.org/2000/svg" xmlns:xlink="http://www.w3.org/1999/xlink" contentStyleType="text/css" height="477px" preserveAspectRatio="none" style="width:718px;height:477px;background:#FFFFFF;" version="1.1" viewBox="0 0 718 477" width="718px" zoomAndPan="magnify"><defs/><g><!--cluster Dependencies--><g id="cluster_Dependencies"><path d="M209,318 L321.0088,318 A3.75,3.75 0 0 1 323.5088,320.5 L330.5088,340.2969 L676,340.2969 A2.5,2.5 0 0 1 678.5,342.7969 L678.5,467.5 A2.5,2.5 0 0 1 676,470 L209,470 A2.5,2.5 0 0 1 206.5,467.5 L206.5,320.5 A2.5,2.5 0 0 1 209,318 " fill="none" style="stroke:#000000;stroke-width:1.5;"/><line style="stroke:#000000;stroke-width:1.5;" x1="206.5" x2="330.5088" y1="340.2969" y2="340.2969"/><text fill="#000000" font-family="sans-serif" font-size="14" font-weight="bold" lengthAdjust="spacing" textLength="111.0088" x="210.5" y="332.9951">Dependencies</text></g><!--class trlc--><g id="elem_trlc"><rect codeLine="18" fill="#F1F1F1" height="56.2656" id="trlc" rx="2.5" ry="2.5" style="stroke:#181818;stroke-width:0.5;" width="87.7832" x="387.5" y="375.5"/><ellipse cx="402.5" cy="395.6328" fill="#ADD8E6" rx="11" ry="11" style="stroke:#181818;stroke-width:1;"/><path d="M398.2188,389.2422 L401.1406,389.2422 L402.6094,394.6797 L404.0781,389.2422 L407.0156,389.2422 L407.0156,401.6328 L404.9063,401.6328 L404.9063,391.7109 L403.5938,397.1328 L401.6563,397.1328 L400.3281,391.7109 L400.3281,401.6328 L398.2188,401.6328 L398.2188,389.2422 Z " fill="#000000"/><text fill="#000000" font-family="sans-serif" font-size="12" font-style="italic" lengthAdjust="spacing" textLength="59.7832" x="414.5" y="391.6387">&#171;module&#187;</text><text fill="#000000" font-family="sans-serif" font-size="14" lengthAdjust="spacing" textLength="22.832" x="432.9756" y="407.4639">trlc</text><line style="stroke:#181818;stroke-width:0.5;" x1="388.5" x2="474.2832" y1="415.7656" y2="415.7656"/><line style="stroke:#181818;stroke-width:0.5;" x1="388.5" x2="474.2832" y1="423.7656" y2="423.7656"/></g><g id="elem_GMN7"><path d="M510.5,353 L510.5,399.5 L475.7,403.5 L510.5,407.5 L510.5,453.7969 A0,0 0 0 0 510.5,453.7969 L662.0615,453.7969 A0,0 0 0 0 662.0615,453.7969 L662.0615,363 L652.0615,353 L510.5,353 A0,0 0 0 0 510.5,353 " fill="#FEFFDD" style="stroke:#181818;stroke-width:0.5;"/><path d="M652.0615,353 L652.0615,363 L662.0615,363 L652.0615,353 " fill="#FEFFDD" style="stroke:#181818;stroke-width:0.5;"/><text fill="#000000" font-family="sans-serif" font-size="13" lengthAdjust="spacing" textLength="130.3364" x="516.5" y="370.0669">Use TRLC ast items:</text><ellipse cx="522" cy="380.7656" fill="#000000" rx="2.5" ry="2.5" style="stroke:#000000;stroke-width:0;"/><text fill="#000000" font-family="sans-serif" font-size="13" lengthAdjust="spacing" textLength="79.5171" x="528.5" y="385.1997">Implicit_Null</text><ellipse cx="522" cy="395.8984" fill="#000000" rx="2.5" ry="2.5" style="stroke:#000000;stroke-width:0;"/><text fill="#000000" font-family="sans-serif" font-size="13" lengthAdjust="spacing" textLength="94.5674" x="528.5" y="400.3325">Record_Object</text><ellipse cx="522" cy="411.0313" fill="#000000" rx="2.5" ry="2.5" style="stroke:#000000;stroke-width:0;"/><text fill="#000000" font-family="sans-serif" font-size="13" lengthAdjust="spacing" textLength="118.5615" x="528.5" y="415.4653">Record_Reference</text><ellipse cx="522" cy="426.1641" fill="#000000" rx="2.5" ry="2.5" style="stroke:#000000;stroke-width:0;"/><text fill="#000000" font-family="sans-serif" font-size="13" lengthAdjust="spacing" textLength="86.1694" x="528.5" y="430.5981">String_Literal</text><ellipse cx="522" cy="441.2969" fill="#000000" rx="2.5" ry="2.5" style="stroke:#000000;stroke-width:0;"/><text fill="#000000" font-family="sans-serif" font-size="13" lengthAdjust="spacing" textLength="70.8525" x="528.5" y="445.731">Expression</text></g><!--class TrlcAstWalker--><g id="elem_TrlcAstWalker"><rect codeLine="30" fill="#F1F1F1" height="48" id="TrlcAstWalker" rx="2.5" ry="2.5" style="stroke:#181818;stroke-width:0.5;" width="129.043" x="223" y="379.5"/><ellipse cx="238" cy="395.5" fill="#ADD1B2" rx="11" ry="11" style="stroke:#181818;stroke-width:1;"/><path d="M240.9688,401.1406 Q240.3906,401.4375 239.75,401.5781 Q239.1094,401.7344 238.4063,401.7344 Q235.9063,401.7344 234.5781,400.0938 Q233.2656,398.4375 233.2656,395.3125 Q233.2656,392.1875 234.5781,390.5313 Q235.9063,388.875 238.4063,388.875 Q239.1094,388.875 239.75,389.0313 Q240.4063,389.1875 240.9688,389.4844 L240.9688,392.2031 Q240.3438,391.625 239.75,391.3594 Q239.1563,391.0781 238.5313,391.0781 Q237.1875,391.0781 236.5,392.1563 Q235.8125,393.2188 235.8125,395.3125 Q235.8125,397.4063 236.5,398.4844 Q237.1875,399.5469 238.5313,399.5469 Q239.1563,399.5469 239.75,399.2813 Q240.3438,399 240.9688,398.4219 L240.9688,401.1406 Z " fill="#000000"/><text fill="#000000" font-family="sans-serif" font-size="14" lengthAdjust="spacing" textLength="97.043" x="252" y="400.3467">TrlcAstWalker</text><line style="stroke:#181818;stroke-width:0.5;" x1="224" x2="351.043" y1="411.5" y2="411.5"/><line style="stroke:#181818;stroke-width:0.5;" x1="224" x2="351.043" y1="419.5" y2="419.5"/></g><!--class BaseConverter--><g id="elem_BaseConverter"><rect codeLine="2" fill="#F1F1F1" height="48" id="BaseConverter" rx="2.5" ry="2.5" style="stroke:#181818;stroke-width:0.5;" width="135.8174" x="291.5" y="7"/><ellipse cx="306.5" cy="23" fill="#ADD1B2" rx="11" ry="11" style="stroke:#181818;stroke-width:1;"/><path d="M309.4688,28.6406 Q308.8906,28.9375 308.25,29.0781 Q307.6094,29.2344 306.9063,29.2344 Q304.4063,29.2344 303.0781,27.5938 Q301.7656,25.9375 301.7656,22.8125 Q301.7656,19.6875 303.0781,18.0313 Q304.4063,16.375 306.9063,16.375 Q307.6094,16.375 308.25,16.5313 Q308.9063,16.6875 309.4688,16.9844 L309.4688,19.7031 Q308.8438,19.125 308.25,18.8594 Q307.6563,18.5781 307.0313,18.5781 Q305.6875,18.5781 305,19.6563 Q304.3125,20.7188 304.3125,22.8125 Q304.3125,24.9063 305,25.9844 Q305.6875,27.0469 307.0313,27.0469 Q307.6563,27.0469 308.25,26.7813 Q308.8438,26.5 309.4688,25.9219 L309.4688,28.6406 Z " fill="#000000"/><text fill="#000000" font-family="sans-serif" font-size="14" lengthAdjust="spacing" textLength="103.8174" x="320.5" y="27.8467">BaseConverter</text><line style="stroke:#181818;stroke-width:0.5;" x1="292.5" x2="426.3174" y1="39" y2="39"/><line style="stroke:#181818;stroke-width:0.5;" x1="292.5" x2="426.3174" y1="47" y2="47"/></g><!--class MarkdownConverter--><g id="elem_MarkdownConverter"><rect codeLine="4" fill="#F1F1F1" height="178.375" id="MarkdownConverter" rx="2.5" ry="2.5" style="stroke:#181818;stroke-width:0.5;" width="704.7129" x="7" y="115"/><ellipse cx="284.0947" cy="131" fill="#ADD1B2" rx="11" ry="11" style="stroke:#181818;stroke-width:1;"/><path d="M287.0635,136.6406 Q286.4854,136.9375 285.8447,137.0781 Q285.2041,137.2344 284.501,137.2344 Q282.001,137.2344 280.6729,135.5938 Q279.3604,133.9375 279.3604,130.8125 Q279.3604,127.6875 280.6729,126.0313 Q282.001,124.375 284.501,124.375 Q285.2041,124.375 285.8447,124.5313 Q286.501,124.6875 287.0635,124.9844 L287.0635,127.7031 Q286.4385,127.125 285.8447,126.8594 Q285.251,126.5781 284.626,126.5781 Q283.2822,126.5781 282.5947,127.6563 Q281.9072,128.7188 281.9072,130.8125 Q281.9072,132.9063 282.5947,133.9844 Q283.2822,135.0469 284.626,135.0469 Q285.251,135.0469 285.8447,134.7813 Q286.4385,134.5 287.0635,133.9219 L287.0635,136.6406 Z " fill="#000000"/><text fill="#000000" font-family="sans-serif" font-size="14" lengthAdjust="spacing" textLength="142.0234" x="304.5947" y="135.8467">MarkdownConverter</text><line style="stroke:#181818;stroke-width:0.5;" x1="8" x2="710.7129" y1="147" y2="147"/><line style="stroke:#181818;stroke-width:0.5;" x1="8" x2="710.7129" y1="155" y2="155"/><ellipse cx="18" cy="168.6484" fill="#84BE84" rx="3" ry="3" style="stroke:#038048;stroke-width:1;"/><text fill="#000000" font-family="sans-serif" font-size="14" lengthAdjust="spacing" textLength="168" x="27" y="171.9951">get_subcommand() : str</text><ellipse cx="18" cy="184.9453" fill="#84BE84" rx="3" ry="3" style="stroke:#038048;stroke-width:1;"/><text fill="#000000" font-family="sans-serif" font-size="14" lengthAdjust="spacing" textLength="150.9102" x="27" y="188.292">get_description() : str</text><ellipse cx="18" cy="201.2422" fill="#84BE84" rx="3" ry="3" style="stroke:#038048;stroke-width:1;"/><text fill="#000000" font-family="sans-serif" font-size="14" lengthAdjust="spacing" textLength="233.666" x="27" y="204.5889">register(args_parser: Any) : None</text><ellipse cx="18" cy="217.5391" fill="#84BE84" rx="3" ry="3" style="stroke:#038048;stroke-width:1;"/><text fill="#000000" font-family="sans-serif" font-size="14" lengthAdjust="spacing" textLength="87.5205" x="27" y="220.8857">begin() : Ret</text><ellipse cx="18" cy="233.8359" fill="#84BE84" rx="3" ry="3" style="stroke:#038048;stroke-width:1;"/><text fill="#000000" font-family="sans-serif" font-size="14" lengthAdjust="spacing" textLength="209.7676" x="27" y="237.1826">enter_file(file_name: str) : Ret</text><ellipse cx="18" cy="250.1328" fill="#84BE84" rx="3" ry="3" style="stroke:#038048;stroke-width:1;"/><text fill="#000000" font-family="sans-serif" font-size="14" lengthAdjust="spacing" textLength="210.4033" x="27" y="253.4795">leave_file(file_name: str) : Ret</text><ellipse cx="18" cy="266.4297" fill="#84BE84" rx="3" ry="3" style="stroke:#038048;stroke-width:1;"/><text fill="#000000" font-family="sans-serif" font-size="14" lengthAdjust="spacing" textLength="306.8105" x="27" y="269.7764">convert_section(section: str, level: int) : Ret</text><ellipse cx="18" cy="282.7266" fill="#84BE84" rx="3" ry="3" style="stroke:#038048;stroke-width:1;"/><text fill="#000000" font-family="sans-serif" font-size="14" lengthAdjust="spacing" textLength="678.7129" x="27" y="286.0732">convert_record_object_generic(record: Record_Object, level: int, translation: Optional[dict]) : Ret</text></g><!--reverse link BaseConverter to MarkdownConverter--><g id="link_BaseConverter_MarkdownConverter"><path d="M359.5,73.06 C359.5,88.74 359.5,92.58 359.5,114.67 " fill="none" id="BaseConverter-backto-MarkdownConverter" style="stroke:#181818;stroke-width:1;"/><polygon fill="none" points="359.5,55.06,353.5,73.06,365.5,73.06,359.5,55.06" style="stroke:#181818;stroke-width:1;"/></g><!--link MarkdownConverter to trlc--><g id="link_MarkdownConverter_trlc"><path codeLine="34" d="M391.6,293.06 C402.48,322.89 411.773,348.4036 419.583,369.8036 " fill="none" id="MarkdownConverter-to-trlc" style="stroke:#181818;stroke-width:1;stroke-dasharray:7.0,7.0;"/><polygon fill="#181818" points="421.64,375.44,422.3121,365.6141,419.9258,370.743,414.7969,368.3568,421.64,375.44" style="stroke:#181818;stroke-width:1;"/></g><!--link MarkdownConverter to TrlcAstWalker--><g id="link_MarkdownConverter_TrlcAstWalker"><path codeLine="35" d="M327.4,293.06 C315.85,324.75 305.8047,352.2728 298.0047,373.6728 " fill="none" id="MarkdownConverter-to-TrlcAstWalker" style="stroke:#181818;stroke-width:1;stroke-dasharray:7.0,7.0;"/><polygon fill="#181818" points="295.95,379.31,302.7902,372.224,297.6622,374.6123,295.2739,369.4844,295.95,379.31" style="stroke:#181818;stroke-width:1;"/></g><!--SRC=[XLB9QYCn4BttLnG-TIOc7s228SiS1hA09qCE8GXP_TnHh9QQAjcJ8VZVHorbQUD0T93WBRNAE2r2vrfm4VmM7C7qMkqga_5hpUic_FMV75uYV7Fee7IEMqGbcwK9NQTzKn_HZ2Jo9zT03Di-sk3tIKPh9GMgDRUYUiq2dj6P_pUeRe97aIsJh3WNY0M2JpQriWxrS2clE-J0Uoe7lSMtAbFwKGAJItnxit1A3bku6LaVlpGnJE16XULpSgaM7cnDNT11djdRp8vZJIcozk9qoNIRXwFTGsDDV7nFjAkggjTchLlGv19zsW2yiP19cdmkewnh4jcP2PsUrjSqTRPzYaktmH5reTaupETbJRjYyI62U11HMBrPCp6SFmAwMrnTa9P8DgAJsGVtWtvrlRF6HdMpSMw4xtLvY2-m0gV2CQ9-HxQ-LLSf1-jnh9ylFKCaJIE3gULSyRZTkrJocSHxxTOVVt0t3ElmsvwSpDzR_9hSYrNz1m00]--></g></svg>