<svg xmlns="http://www.w3.org/2000/svg" xmlns:xlink="http://www.w3.org/1999/xlink" contentStyleType="text/css" height="601px" preserveAspectRatio="none" style="width:718px;height:601px;background:#FFFFFF;" version="1.1" viewBox="0 0 718 601" width="718px" zoomAndPan="magnify"><defs/><g><!--cluster Dependencies--><g id="cluster_Dependencies"><path d="M31,318 L143.0088,318 A3.75,3.75 0 0 1 145.5088,320.5 L152.5088,340.2969 L689,340.2969 A2.5,2.5 0 0 1 691.5,342.7969 L691.5,591.5 A2.5,2.5 0 0 1 689,594 L31,594 A2.5,2.5 0 0 1 28.5,591.5 L28.5,320.5 A2.5,2.5 0 0 1 31,318 " fill="none" style="stroke:#000000;stroke-width:1.5;"/><line style="stroke:#000000;stroke-width:1.5;" x1="28.5" x2="152.5088" y1="340.2969" y2="340.2969"/><text fill="#000000" font-family="sans-serif" font-size="14" font-weight="bold" lengthAdjust="spacing" textLength="111.0088" x="32.5" y="332.9951">Dependencies</text></g><!--class trlc--><g id="elem_trlc"><rect codeLine="19" fill="#F1F1F1" height="56.2656" id="trlc" rx="2.5" ry="2.5" style="stroke:#181818;stroke-width:0.5;" width="87.7832" x="587.5" y="357"/><ellipse cx="602.5" cy="377.1328" fill="#ADD8E6" rx="11" ry="11" style="stroke:#181818;stroke-width:1;"/><path d="M598.2188,370.7422 L601.1406,370.7422 L602.6094,376.1797 L604.0781,370.7422 L607.0156,370.7422 L607.0156,383.1328 L604.9063,383.1328 L604.9063,373.2109 L603.5938,378.6328 L601.6563,378.6328 L600.3281,373.2109 L600.3281,383.1328 L598.2188,383.1328 L598.2188,370.7422 Z " fill="#000000"/><text fill="#000000" font-family="sans-serif" font-size="12" font-style="italic" lengthAdjust="spacing" textLength="59.7832" x="614.5" y="373.1387">&#171;module&#187;</text><text fill="#000000" font-family="sans-serif" font-size="14" lengthAdjust="spacing" textLength="22.832" x="632.9756" y="388.9639">trlc</text><line style="stroke:#181818;stroke-width:0.5;" x1="588.5" x2="674.2832" y1="397.2656" y2="397.2656"/><line style="stroke:#181818;stroke-width:0.5;" x1="588.5" x2="674.2832" y1="405.2656" y2="405.2656"/></g><g id="elem_GMN7"><path d="M523.5,477 L523.5,577.7969 A0,0 0 0 0 523.5,577.7969 L675.0615,577.7969 A0,0 0 0 0 675.0615,577.7969 L675.0615,487 L665.0615,477 L614.83,477 L625.33,413.09 L606.83,477 L523.5,477 A0,0 0 0 0 523.5,477 " fill="#FEFFDD" style="stroke:#181818;stroke-width:0.5;"/><path d="M665.0615,477 L665.0615,487 L675.0615,487 L665.0615,477 " fill="#FEFFDD" style="stroke:#181818;stroke-width:0.5;"/><text fill="#000000" font-family="sans-serif" font-size="13" lengthAdjust="spacing" textLength="130.3364" x="529.5" y="494.0669">Use TRLC ast items:</text><ellipse cx="535" cy="504.7656" fill="#000000" rx="2.5" ry="2.5" style="stroke:#000000;stroke-width:0;"/><text fill="#000000" font-family="sans-serif" font-size="13" lengthAdjust="spacing" textLength="79.5171" x="541.5" y="509.1997">Implicit_Null</text><ellipse cx="535" cy="519.8984" fill="#000000" rx="2.5" ry="2.5" style="stroke:#000000;stroke-width:0;"/><text fill="#000000" font-family="sans-serif" font-size="13" lengthAdjust="spacing" textLength="94.5674" x="541.5" y="524.3325">Record_Object</text><ellipse cx="535" cy="535.0313" fill="#000000" rx="2.5" ry="2.5" style="stroke:#000000;stroke-width:0;"/><text fill="#000000" font-family="sans-serif" font-size="13" lengthAdjust="spacing" textLength="118.5615" x="541.5" y="539.4653">Record_Reference</text><ellipse cx="535" cy="550.1641" fill="#000000" rx="2.5" ry="2.5" style="stroke:#000000;stroke-width:0;"/><text fill="#000000" font-family="sans-serif" font-size="13" lengthAdjust="spacing" textLength="86.1694" x="541.5" y="554.5981">String_Literal</text><ellipse cx="535" cy="565.2969" fill="#000000" rx="2.5" ry="2.5" style="stroke:#000000;stroke-width:0;"/><text fill="#000000" font-family="sans-serif" font-size="13" lengthAdjust="spacing" textLength="70.8525" x="541.5" y="569.731">Expression</text></g><!--class TrlcAstWalker--><g id="elem_TrlcAstWalker"><rect codeLine="31" fill="#F1F1F1" height="64.2969" id="TrlcAstWalker" rx="2.5" ry="2.5" style="stroke:#181818;stroke-width:0.5;" width="176.3564" x="376.5" y="353"/><ellipse cx="412.7911" cy="369" fill="#ADD1B2" rx="11" ry="11" style="stroke:#181818;stroke-width:1;"/><path d="M415.7598,374.6406 Q415.1817,374.9375 414.5411,375.0781 Q413.9004,375.2344 413.1973,375.2344 Q410.6973,375.2344 409.3692,373.5938 Q408.0567,371.9375 408.0567,368.8125 Q408.0567,365.6875 409.3692,364.0313 Q410.6973,362.375 413.1973,362.375 Q413.9004,362.375 414.5411,362.5313 Q415.1973,362.6875 415.7598,362.9844 L415.7598,365.7031 Q415.1348,365.125 414.5411,364.8594 Q413.9473,364.5781 413.3223,364.5781 Q411.9786,364.5781 411.2911,365.6563 Q410.6036,366.7188 410.6036,368.8125 Q410.6036,370.9063 411.2911,371.9844 Q411.9786,373.0469 413.3223,373.0469 Q413.9473,373.0469 414.5411,372.7813 Q415.1348,372.5 415.7598,371.9219 L415.7598,374.6406 Z " fill="#000000"/><text fill="#000000" font-family="sans-serif" font-size="14" lengthAdjust="spacing" textLength="97.043" x="431.5224" y="373.8467">TrlcAstWalker</text><line style="stroke:#181818;stroke-width:0.5;" x1="377.5" x2="551.8564" y1="385" y2="385"/><line style="stroke:#181818;stroke-width:0.5;" x1="377.5" x2="551.8564" y1="393" y2="393"/><ellipse cx="387.5" cy="406.6484" fill="#84BE84" rx="3" ry="3" style="stroke:#038048;stroke-width:1;"/><text fill="#000000" font-family="sans-serif" font-size="14" lengthAdjust="spacing" textLength="150.3564" x="396.5" y="409.9951">walk(ast: Any) : None</text></g><!--class RSTRenderer--><g id="elem_RSTRenderer"><rect codeLine="35" fill="#F1F1F1" height="64.2969" id="RSTRenderer" rx="2.5" ry="2.5" style="stroke:#181818;stroke-width:0.5;" width="172.8428" x="168" y="353"/><ellipse cx="204.9771" cy="369" fill="#ADD1B2" rx="11" ry="11" style="stroke:#181818;stroke-width:1;"/><path d="M207.9458,374.6406 Q207.3677,374.9375 206.7271,375.0781 Q206.0864,375.2344 205.3833,375.2344 Q202.8833,375.2344 201.5552,373.5938 Q200.2427,371.9375 200.2427,368.8125 Q200.2427,365.6875 201.5552,364.0313 Q202.8833,362.375 205.3833,362.375 Q206.0864,362.375 206.7271,362.5313 Q207.3833,362.6875 207.9458,362.9844 L207.9458,365.7031 Q207.3208,365.125 206.7271,364.8594 Q206.1333,364.5781 205.5083,364.5781 Q204.1646,364.5781 203.4771,365.6563 Q202.7896,366.7188 202.7896,368.8125 Q202.7896,370.9063 203.4771,371.9844 Q204.1646,373.0469 205.5083,373.0469 Q206.1333,373.0469 206.7271,372.7813 Q207.3208,372.5 207.9458,371.9219 L207.9458,374.6406 Z " fill="#000000"/><text fill="#000000" font-family="sans-serif" font-size="14" lengthAdjust="spacing" textLength="92.0049" x="223.8608" y="373.8467">RSTRenderer</text><line style="stroke:#181818;stroke-width:0.5;" x1="169" x2="339.8428" y1="385" y2="385"/><line style="stroke:#181818;stroke-width:0.5;" x1="169" x2="339.8428" y1="393" y2="393"/><ellipse cx="179" cy="406.6484" fill="#84BE84" rx="3" ry="3" style="stroke:#038048;stroke-width:1;"/><text fill="#000000" font-family="sans-serif" font-size="14" lengthAdjust="spacing" textLength="146.8428" x="188" y="409.9951">render(ast: Any) : str</text></g><!--class marko--><g id="elem_marko"><rect codeLine="39" fill="#F1F1F1" height="56.2656" id="marko" rx="2.5" ry="2.5" style="stroke:#181818;stroke-width:0.5;" width="87.7832" x="44.5" y="357"/><ellipse cx="59.5" cy="377.1328" fill="#ADD8E6" rx="11" ry="11" style="stroke:#181818;stroke-width:1;"/><path d="M55.2188,370.7422 L58.1406,370.7422 L59.6094,376.1797 L61.0781,370.7422 L64.0156,370.7422 L64.0156,383.1328 L61.9063,383.1328 L61.9063,373.2109 L60.5938,378.6328 L58.6563,378.6328 L57.3281,373.2109 L57.3281,383.1328 L55.2188,383.1328 L55.2188,370.7422 Z " fill="#000000"/><text fill="#000000" font-family="sans-serif" font-size="12" font-style="italic" lengthAdjust="spacing" textLength="59.7832" x="71.5" y="373.1387">&#171;module&#187;</text><text fill="#000000" font-family="sans-serif" font-size="14" lengthAdjust="spacing" textLength="44.6455" x="79.0688" y="388.9639">marko</text><line style="stroke:#181818;stroke-width:0.5;" x1="45.5" x2="131.2832" y1="397.2656" y2="397.2656"/><line style="stroke:#181818;stroke-width:0.5;" x1="45.5" x2="131.2832" y1="405.2656" y2="405.2656"/></g><g id="elem_GMN13"><path d="M44.5,515 L44.5,540.1328 A0,0 0 0 0 44.5,540.1328 L178.0313,540.1328 A0,0 0 0 0 178.0313,540.1328 L178.0313,525 L168.0313,515 L113.6,515 L92.93,413.09 L105.6,515 L44.5,515 A0,0 0 0 0 44.5,515 " fill="#FEFFDD" style="stroke:#181818;stroke-width:0.5;"/><path d="M168.0313,515 L168.0313,525 L178.0313,525 L168.0313,515 " fill="#FEFFDD" style="stroke:#181818;stroke-width:0.5;"/><text fill="#000000" font-family="sans-serif" font-size="13" lengthAdjust="spacing" textLength="112.5313" x="50.5" y="532.0669">Markdown Parser</text></g><!--class BaseConverter--><g id="elem_BaseConverter"><rect codeLine="2" fill="#F1F1F1" height="48" id="BaseConverter" rx="2.5" ry="2.5" style="stroke:#181818;stroke-width:0.5;" width="135.8174" x="291.5" y="7"/><ellipse cx="306.5" cy="23" fill="#ADD1B2" rx="11" ry="11" style="stroke:#181818;stroke-width:1;"/><path d="M309.4688,28.6406 Q308.8906,28.9375 308.25,29.0781 Q307.6094,29.2344 306.9063,29.2344 Q304.4063,29.2344 303.0781,27.5938 Q301.7656,25.9375 301.7656,22.8125 Q301.7656,19.6875 303.0781,18.0313 Q304.4063,16.375 306.9063,16.375 Q307.6094,16.375 308.25,16.5313 Q308.9063,16.6875 309.4688,16.9844 L309.4688,19.7031 Q308.8438,19.125 308.25,18.8594 Q307.6563,18.5781 307.0313,18.5781 Q305.6875,18.5781 305,19.6563 Q304.3125,20.7188 304.3125,22.8125 Q304.3125,24.9063 305,25.9844 Q305.6875,27.0469 307.0313,27.0469 Q307.6563,27.0469 308.25,26.7813 Q308.8438,26.5 309.4688,25.9219 L309.4688,28.6406 Z " fill="#000000"/><text fill="#000000" font-family="sans-serif" font-size="14" lengthAdjust="spacing" textLength="103.8174" x="320.5" y="27.8467">BaseConverter</text><line style="stroke:#181818;stroke-width:0.5;" x1="292.5" x2="426.3174" y1="39" y2="39"/><line style="stroke:#181818;stroke-width:0.5;" x1="292.5" x2="426.3174" y1="47" y2="47"/></g><!--class RstConverter--><g id="elem_RstConverter"><rect codeLine="5" fill="#F1F1F1" height="178.375" id="RstConverter" rx="2.5" ry="2.5" style="stroke:#181818;stroke-width:0.5;" width="704.7129" x="7" y="115"/><ellipse cx="308.9878" cy="131" fill="#ADD1B2" rx="11" ry="11" style="stroke:#181818;stroke-width:1;"/><path d="M311.9565,136.6406 Q311.3784,136.9375 310.7378,137.0781 Q310.0972,137.2344 309.394,137.2344 Q306.894,137.2344 305.5659,135.5938 Q304.2534,133.9375 304.2534,130.8125 Q304.2534,127.6875 305.5659,126.0313 Q306.894,124.375 309.394,124.375 Q310.0972,124.375 310.7378,124.5313 Q311.394,124.6875 311.9565,124.9844 L311.9565,127.7031 Q311.3315,127.125 310.7378,126.8594 Q310.144,126.5781 309.519,126.5781 Q308.1753,126.5781 307.4878,127.6563 Q306.8003,128.7188 306.8003,130.8125 Q306.8003,132.9063 307.4878,133.9844 Q308.1753,135.0469 309.519,135.0469 Q310.144,135.0469 310.7378,134.7813 Q311.3315,134.5 311.9565,133.9219 L311.9565,136.6406 Z " fill="#000000"/><text fill="#000000" font-family="sans-serif" font-size="14" lengthAdjust="spacing" textLength="92.2373" x="329.4878" y="135.8467">RstConverter</text><line style="stroke:#181818;stroke-width:0.5;" x1="8" x2="710.7129" y1="147" y2="147"/><line style="stroke:#181818;stroke-width:0.5;" x1="8" x2="710.7129" y1="155" y2="155"/><ellipse cx="18" cy="168.6484" fill="#84BE84" rx="3" ry="3" style="stroke:#038048;stroke-width:1;"/><text fill="#000000" font-family="sans-serif" font-size="14" lengthAdjust="spacing" textLength="168" x="27" y="171.9951">get_subcommand() : str</text><ellipse cx="18" cy="184.9453" fill="#84BE84" rx="3" ry="3" style="stroke:#038048;stroke-width:1;"/><text fill="#000000" font-family="sans-serif" font-size="14" lengthAdjust="spacing" textLength="150.9102" x="27" y="188.292">get_description() : str</text><ellipse cx="18" cy="201.2422" fill="#84BE84" rx="3" ry="3" style="stroke:#038048;stroke-width:1;"/><text fill="#000000" font-family="sans-serif" font-size="14" lengthAdjust="spacing" textLength="233.666" x="27" y="204.5889">register(args_parser: Any) : None</text><ellipse cx="18" cy="217.5391" fill="#84BE84" rx="3" ry="3" style="stroke:#038048;stroke-width:1;"/><text fill="#000000" font-family="sans-serif" font-size="14" lengthAdjust="spacing" textLength="87.5205" x="27" y="220.8857">begin() : Ret</text><ellipse cx="18" cy="233.8359" fill="#84BE84" rx="3" ry="3" style="stroke:#038048;stroke-width:1;"/><text fill="#000000" font-family="sans-serif" font-size="14" lengthAdjust="spacing" textLength="209.7676" x="27" y="237.1826">enter_file(file_name: str) : Ret</text><ellipse cx="18" cy="250.1328" fill="#84BE84" rx="3" ry="3" style="stroke:#038048;stroke-width:1;"/><text fill="#000000" font-family="sans-serif" font-size="14" lengthAdjust="spacing" textLength="210.4033" x="27" y="253.4795">leave_file(file_name: str) : Ret</text><ellipse cx="18" cy="266.4297" fill="#84BE84" rx="3" ry="3" style="stroke:#038048;stroke-width:1;"/><text fill="#000000" font-family="sans-serif" font-size="14" lengthAdjust="spacing" textLength="306.8105" x="27" y="269.7764">convert_section(section: str, level: int) : Ret</text><ellipse cx="18" cy="282.7266" fill="#84BE84" rx="3" ry="3" style="stroke:#038048;stroke-width:1;"/><text fill="#000000" font-family="sans-serif" font-size="14" lengthAdjust="spacing" textLength="678.7129" x="27" y="286.0732">convert_record_object_generic(record: Record_Object, level: int, translation: Optional[dict]) : Ret</text></g><!--reverse link BaseConverter to RstConverter--><g id="link_BaseConverter_RstConverter"><path d="M359.5,73.06 C359.5,88.74 359.5,92.58 359.5,114.67 " fill="none" id="BaseConverter-backto-RstConverter" style="stroke:#181818;stroke-width:1;"/><polygon fill="none" points="359.5,55.06,353.5,73.06,365.5,73.06,359.5,55.06" style="stroke:#181818;stroke-width:1;"/></g><!--link RstConverter to trlc--><g id="link_RstConverter_trlc"><path codeLine="47" d="M547.39,293.06 C555.39,298.49 563.13,304.14 570.5,310 C587.18,323.26 598.8941,336.9126 609.9741,352.1026 " fill="none" id="RstConverter-to-trlc" style="stroke:#181818;stroke-width:1;stroke-dasharray:7.0,7.0;"/><polygon fill="#181818" points="613.51,356.95,611.4378,347.3216,610.5635,352.9105,604.9746,352.0361,613.51,356.95" style="stroke:#181818;stroke-width:1;"/></g><!--link RstConverter to TrlcAstWalker--><g id="link_RstConverter_TrlcAstWalker"><path codeLine="48" d="M411.23,293.19 C423.76,314.54 433.3043,330.8247 443.0943,347.5147 " fill="none" id="RstConverter-to-TrlcAstWalker" style="stroke:#181818;stroke-width:1;stroke-dasharray:7.0,7.0;"/><polygon fill="#181818" points="446.13,352.69,445.0266,342.9031,443.6002,348.3772,438.1261,346.9508,446.13,352.69" style="stroke:#181818;stroke-width:1;"/></g><!--link RstConverter to RSTRenderer--><g id="link_RstConverter_RSTRenderer"><path codeLine="49" d="M307.77,293.19 C295.24,314.54 285.6957,330.8247 275.9057,347.5147 " fill="none" id="RstConverter-to-RSTRenderer" style="stroke:#181818;stroke-width:1;stroke-dasharray:7.0,7.0;"/><polygon fill="#181818" points="272.87,352.69,280.8739,346.9508,275.3998,348.3772,273.9734,342.9031,272.87,352.69" style="stroke:#181818;stroke-width:1;"/></g><!--link RstConverter to marko--><g id="link_RstConverter_marko"><path codeLine="50" d="M173.72,293.03 C165.69,298.48 157.9,304.14 150.5,310 C133.68,323.31 121.7627,336.9971 110.4627,352.1771 " fill="none" id="RstConverter-to-marko" style="stroke:#181818;stroke-width:1;stroke-dasharray:7.0,7.0;"/><polygon fill="#181818" points="106.88,356.99,115.4627,352.1591,109.8656,352.9792,109.0455,347.3822,106.88,356.99" style="stroke:#181818;stroke-width:1;"/></g><!--SRC=[XLDBJzmm4BxdLuou4CgA7x12Ar7WWCIZ2blrK5MHuym6iuuTpSmkLDN-zpeskoI4gZaaolSOpylQAcRugXWllTiY2HByoNPPfYDHiBpZ-2hewgaQmdFQe9IygRHlM-Ng_0Jcm4BlN8sioNHYl1kJX8tX42XNr73PAMAaELoutxtgtZjCiYh8ahD0IH2wO2jNncBUlqgdMeo1HogBQel_LUbKJyceOufltoYSWSKjsZaO9v-Q2BMdklJLSt2L3Jeae_E4zlB8FaHs66i6GignLUcaXzWSPN_MHikl_K5X5CTmXIlZC0w0WW9gxC8aq6c3d7LAhrM3S7GrG8_2N6AIQOv2LiFvUNu7CskQ9wdi1a-WzVN6ucAHHhXB1kS5eV8YlWM_Yiw8zyztHbWMjvUWMC08jZm_S5_WfksiqKRA-usr0tpKW2bUu0efP8q3wb78kAQy3MUG6iQwVkq8cKEZ8XZgZGaFQrs6Z2zOVYYxFgnd71Uy12WFgK_NQpSCK3mkYxwHzC5E4Hm5s6_noDygMlj_TnlsxVwasz5wEF8k_DN-nS6tU2l65SV5A31j3p-PZhFHRJqxMwJXJT1HWwRqeFmfcHBy2m00]--></g></svg>