<?plantuml 1.2026.1?><svg xmlns="http://www.w3.org/2000/svg" xmlns:xlink="http://www.w3.org/1999/xlink" contentStyleType="text/css" data-diagram-type="CLASS" height="243px" preserveAspectRatio="none" style="width:411px;height:243px;background:#FFFFFF;" version="1.1" viewBox="0 0 411 243" width="411px" zoomAndPan="magnify"><defs/><g><!--cluster Dependencies--><g class="cluster" data-qualified-name="Dependencies" data-source-line="10" id="ent0003"><path d="M69,129 L181.0088,129 A3.75,3.75 0 0 1 183.5088,131.5 L190.5088,151.2969 L334,151.2969 A2.5,2.5 0 0 1 336.5,153.7969 L336.5,233.5 A2.5,2.5 0 0 1 334,236 L69,236 A2.5,2.5 0 0 1 66.5,233.5 L66.5,131.5 A2.5,2.5 0 0 1 69,129" fill="none" style="stroke:#000000;stroke-width:1.5;"/><line style="stroke:#000000;stroke-width:1.5;" x1="66.5" x2="190.5088" y1="151.2969" y2="151.2969"/><text fill="#000000" font-family="sans-serif" font-size="14" font-weight="bold" lengthAdjust="spacing" textLength="111.0088" x="70.5" y="143.9951">Dependencies</text></g><!--class requests--><g class="entity" data-qualified-name="Dependencies.requests" data-source-line="11" id="ent0004"><rect fill="#F1F1F1" height="56.2656" rx="2.5" ry="2.5" style="stroke:#181818;stroke-width:0.5;" width="92.8193" x="228" y="164"/><ellipse cx="243" cy="184.1328" fill="#ADD8E6" rx="11" ry="11" style="stroke:#181818;stroke-width:1;"/><path d="M238.7188,177.7422 L241.6406,177.7422 L243.1094,183.1797 L244.5781,177.7422 L247.5156,177.7422 L247.5156,190.1328 L245.4063,190.1328 L245.4063,180.2109 L244.0938,185.6328 L242.1563,185.6328 L240.8281,180.2109 L240.8281,190.1328 L238.7188,190.1328 L238.7188,177.7422 Z " fill="#000000"/><text fill="#000000" font-family="sans-serif" font-size="12" font-style="italic" lengthAdjust="spacing" textLength="59.7832" x="257.5181" y="180.1387">&#171;module&#187;</text><text fill="#000000" font-family="sans-serif" font-size="14" lengthAdjust="spacing" textLength="60.8193" x="257" y="195.9639">requests</text><line style="stroke:#181818;stroke-width:0.5;" x1="229" x2="319.8193" y1="204.2656" y2="204.2656"/><line style="stroke:#181818;stroke-width:0.5;" x1="229" x2="319.8193" y1="212.2656" y2="212.2656"/></g><!--class subprocess--><g class="entity" data-qualified-name="Dependencies.subprocess" data-source-line="12" id="ent0005"><rect fill="#F1F1F1" height="56.2656" rx="2.5" ry="2.5" style="stroke:#181818;stroke-width:0.5;" width="111.1602" x="82" y="164"/><ellipse cx="97" cy="184.1328" fill="#ADD8E6" rx="11" ry="11" style="stroke:#181818;stroke-width:1;"/><path d="M92.7188,177.7422 L95.6406,177.7422 L97.1094,183.1797 L98.5781,177.7422 L101.5156,177.7422 L101.5156,190.1328 L99.4063,190.1328 L99.4063,180.2109 L98.0938,185.6328 L96.1563,185.6328 L94.8281,180.2109 L94.8281,190.1328 L92.7188,190.1328 L92.7188,177.7422 Z " fill="#000000"/><text fill="#000000" font-family="sans-serif" font-size="12" font-style="italic" lengthAdjust="spacing" textLength="59.7832" x="120.6885" y="180.1387">&#171;module&#187;</text><text fill="#000000" font-family="sans-serif" font-size="14" lengthAdjust="spacing" textLength="79.1602" x="111" y="195.9639">subprocess</text><line style="stroke:#181818;stroke-width:0.5;" x1="83" x2="192.1602" y1="204.2656" y2="204.2656"/><line style="stroke:#181818;stroke-width:0.5;" x1="83" x2="192.1602" y1="212.2656" y2="212.2656"/></g><!--class PlantUML--><g class="entity" data-qualified-name="PlantUML" data-source-line="2" id="ent0002"><rect fill="#F1F1F1" height="96.8906" rx="2.5" ry="2.5" style="stroke:#181818;stroke-width:0.5;" width="397.2119" x="7" y="7"/><ellipse cx="168.6563" cy="23" fill="#ADD1B2" rx="11" ry="11" style="stroke:#181818;stroke-width:1;"/><path d="M171.625,28.6406 Q171.0469,28.9375 170.4063,29.0781 Q169.7656,29.2344 169.0625,29.2344 Q166.5625,29.2344 165.2344,27.5938 Q163.9219,25.9375 163.9219,22.8125 Q163.9219,19.6875 165.2344,18.0313 Q166.5625,16.375 169.0625,16.375 Q169.7656,16.375 170.4063,16.5313 Q171.0625,16.6875 171.625,16.9844 L171.625,19.7031 Q171,19.125 170.4063,18.8594 Q169.8125,18.5781 169.1875,18.5781 Q167.8438,18.5781 167.1563,19.6563 Q166.4688,20.7188 166.4688,22.8125 Q166.4688,24.9063 167.1563,25.9844 Q167.8438,27.0469 169.1875,27.0469 Q169.8125,27.0469 170.4063,26.7813 Q171,26.5 171.625,25.9219 L171.625,28.6406 Z " fill="#000000"/><text fill="#000000" font-family="sans-serif" font-size="14" lengthAdjust="spacing" textLength="65.3994" x="189.1563" y="27.8467">PlantUML</text><line style="stroke:#181818;stroke-width:0.5;" x1="8" x2="403.2119" y1="39" y2="39"/><line style="stroke:#181818;stroke-width:0.5;" x1="8" x2="403.2119" y1="47" y2="47"/><g data-visibility-modifier="PUBLIC_METHOD"><ellipse cx="18" cy="60.6484" fill="#84BE84" rx="3" ry="3" style="stroke:#038048;stroke-width:1;"/></g><text fill="#000000" font-family="sans-serif" font-size="14" lengthAdjust="spacing" textLength="111.207" x="27" y="63.9951">__init__() : None</text><g data-visibility-modifier="PUBLIC_METHOD"><ellipse cx="18" cy="76.9453" fill="#84BE84" rx="3" ry="3" style="stroke:#038048;stroke-width:1;"/></g><text fill="#000000" font-family="sans-serif" font-size="14" lengthAdjust="spacing" textLength="205.5225" x="27" y="80.292">set_server_url(url: str) : None</text><g data-visibility-modifier="PUBLIC_METHOD"><ellipse cx="18" cy="93.2422" fill="#84BE84" rx="3" ry="3" style="stroke:#038048;stroke-width:1;"/></g><text fill="#000000" font-family="sans-serif" font-size="14" lengthAdjust="spacing" textLength="371.2119" x="27" y="96.5889">generate_image(source: str, output_path: str) : None</text></g><!--link PlantUML to requests--><g class="link" data-entity-1="ent0002" data-entity-2="ent0004" data-link-type="dependency" data-source-line="16" id="lnk6"><path codeLine="16" d="M230.02,104.3 C240.25,124.23 249.0105,141.3219 257.7605,158.3719" fill="none" id="PlantUML-to-requests" style="stroke:#181818;stroke-width:1;stroke-dasharray:7,7;"/><polygon fill="#181818" points="260.5,163.71,259.9495,153.8765,258.2171,159.2616,252.832,157.5292,260.5,163.71" style="stroke:#181818;stroke-width:1;"/></g><!--link PlantUML to subprocess--><g class="link" data-entity-1="ent0002" data-entity-2="ent0005" data-link-type="dependency" data-source-line="17" id="lnk7"><path codeLine="17" d="M181.33,104.3 C171.26,124.23 162.6271,141.3054 154.0071,158.3554" fill="none" id="PlantUML-to-subprocess" style="stroke:#181818;stroke-width:1;stroke-dasharray:7,7;"/><polygon fill="#181818" points="151.3,163.71,158.9304,157.4829,153.5559,159.2479,151.791,153.8734,151.3,163.71" style="stroke:#181818;stroke-width:1;"/></g><?plantuml-src XL11QiCm4Bph5KikSMZ80qBmASUcb4BEGf6djgWYgRkhKWZ-UzsqfF6f2tiPPcPdraSdGi_H9JqU7kbYQ9e7QqCAQcspeYqzvOGVMA1Mm1zWMpasqsv9bEUa7Wdi53QSNOz6ScMFAszDkMgfQelJOQuSZJ5BskCr910-5PnSf0u5gKFo0MAAys-J8ItsT-ZYDx6_rc2yLuWAxNRDWTOnz8EUOiMAphch4MrBb_6EB_LKE7l8FuhnEzmBejEGamoXYBbzRBDfRtVdw9-x-G80?></g></svg>