<svg xmlns="http://www.w3.org/2000/svg" xmlns:xlink="http://www.w3.org/1999/xlink" contentStyleType="text/css" height="424px" preserveAspectRatio="none" style="width:718px;height:424px;background:#FFFFFF;" version="1.1" viewBox="0 0 718 424" width="718px" zoomAndPan="magnify"><defs/><g><!--class BaseConverter--><g id="elem_BaseConverter"><rect codeLine="2" fill="#F1F1F1" height="48" id="BaseConverter" rx="2.5" ry="2.5" style="stroke:#181818;stroke-width:0.5;" width="135.8174" x="291.5" y="7"/><ellipse cx="306.5" cy="23" fill="#ADD1B2" rx="11" ry="11" style="stroke:#181818;stroke-width:1;"/><path d="M309.4688,28.6406 Q308.8906,28.9375 308.25,29.0781 Q307.6094,29.2344 306.9063,29.2344 Q304.4063,29.2344 303.0781,27.5938 Q301.7656,25.9375 301.7656,22.8125 Q301.7656,19.6875 303.0781,18.0313 Q304.4063,16.375 306.9063,16.375 Q307.6094,16.375 308.25,16.5313 Q308.9063,16.6875 309.4688,16.9844 L309.4688,19.7031 Q308.8438,19.125 308.25,18.8594 Q307.6563,18.5781 307.0313,18.5781 Q305.6875,18.5781 305,19.6563 Q304.3125,20.7188 304.3125,22.8125 Q304.3125,24.9063 305,25.9844 Q305.6875,27.0469 307.0313,27.0469 Q307.6563,27.0469 308.25,26.7813 Q308.8438,26.5 309.4688,25.9219 L309.4688,28.6406 Z " fill="#000000"/><text fill="#000000" font-family="sans-serif" font-size="14" lengthAdjust="spacing" textLength="103.8174" x="320.5" y="27.8467">BaseConverter</text><line style="stroke:#181818;stroke-width:0.5;" x1="292.5" x2="426.3174" y1="39" y2="39"/><line style="stroke:#181818;stroke-width:0.5;" x1="292.5" x2="426.3174" y1="47" y2="47"/></g><!--class DumpConverter--><g id="elem_DumpConverter"><rect codeLine="5" fill="#F1F1F1" height="162.0781" id="DumpConverter" rx="2.5" ry="2.5" style="stroke:#181818;stroke-width:0.5;" width="704.7129" x="7" y="115"/><ellipse cx="299.1543" cy="131" fill="#ADD1B2" rx="11" ry="11" style="stroke:#181818;stroke-width:1;"/><path d="M302.123,136.6406 Q301.5449,136.9375 300.9043,137.0781 Q300.2637,137.2344 299.5605,137.2344 Q297.0605,137.2344 295.7324,135.5938 Q294.4199,133.9375 294.4199,130.8125 Q294.4199,127.6875 295.7324,126.0313 Q297.0605,124.375 299.5605,124.375 Q300.2637,124.375 300.9043,124.5313 Q301.5605,124.6875 302.123,124.9844 L302.123,127.7031 Q301.498,127.125 300.9043,126.8594 Q300.3105,126.5781 299.6855,126.5781 Q298.3418,126.5781 297.6543,127.6563 Q296.9668,128.7188 296.9668,130.8125 Q296.9668,132.9063 297.6543,133.9844 Q298.3418,135.0469 299.6855,135.0469 Q300.3105,135.0469 300.9043,134.7813 Q301.498,134.5 302.123,133.9219 L302.123,136.6406 Z " fill="#000000"/><text fill="#000000" font-family="sans-serif" font-size="14" lengthAdjust="spacing" textLength="111.9043" x="319.6543" y="135.8467">DumpConverter</text><line style="stroke:#181818;stroke-width:0.5;" x1="8" x2="710.7129" y1="147" y2="147"/><line style="stroke:#181818;stroke-width:0.5;" x1="8" x2="710.7129" y1="155" y2="155"/><ellipse cx="18" cy="168.6484" fill="#84BE84" rx="3" ry="3" style="stroke:#038048;stroke-width:1;"/><text fill="#000000" font-family="sans-serif" font-size="14" lengthAdjust="spacing" textLength="168" x="27" y="171.9951">get_subcommand() : str</text><ellipse cx="18" cy="184.9453" fill="#84BE84" rx="3" ry="3" style="stroke:#038048;stroke-width:1;"/><text fill="#000000" font-family="sans-serif" font-size="14" lengthAdjust="spacing" textLength="150.9102" x="27" y="188.292">get_description() : str</text><ellipse cx="18" cy="201.2422" fill="#84BE84" rx="3" ry="3" style="stroke:#038048;stroke-width:1;"/><text fill="#000000" font-family="sans-serif" font-size="14" lengthAdjust="spacing" textLength="209.7676" x="27" y="204.5889">enter_file(file_name: str) : Ret</text><ellipse cx="18" cy="217.5391" fill="#84BE84" rx="3" ry="3" style="stroke:#038048;stroke-width:1;"/><text fill="#000000" font-family="sans-serif" font-size="14" lengthAdjust="spacing" textLength="210.4033" x="27" y="220.8857">leave_file(file_name: str) : Ret</text><ellipse cx="18" cy="233.8359" fill="#84BE84" rx="3" ry="3" style="stroke:#038048;stroke-width:1;"/><text fill="#000000" font-family="sans-serif" font-size="14" lengthAdjust="spacing" textLength="306.8105" x="27" y="237.1826">convert_section(section: str, level: int) : Ret</text><ellipse cx="18" cy="250.1328" fill="#84BE84" rx="3" ry="3" style="stroke:#038048;stroke-width:1;"/><text fill="#000000" font-family="sans-serif" font-size="14" lengthAdjust="spacing" textLength="678.7129" x="27" y="253.4795">convert_record_object_generic(record: Record_Object, level: int, translation: Optional[dict]) : Ret</text><ellipse cx="18" cy="266.4297" fill="#84BE84" rx="3" ry="3" style="stroke:#038048;stroke-width:1;"/><text fill="#000000" font-family="sans-serif" font-size="14" lengthAdjust="spacing" textLength="86.1191" x="27" y="269.7764">finish() : Ret</text></g><!--class Record_Object--><g id="elem_Record_Object"><rect codeLine="15" fill="#F1F1F1" height="80.5938" id="Record_Object" rx="2.5" ry="2.5" style="stroke:#181818;stroke-width:0.5;" width="181.4082" x="269" y="337"/><ellipse cx="305.4049" cy="353" fill="#ADD1B2" rx="11" ry="11" style="stroke:#181818;stroke-width:1;"/><path d="M308.3736,358.6406 Q307.7955,358.9375 307.1549,359.0781 Q306.5143,359.2344 305.8111,359.2344 Q303.3111,359.2344 301.983,357.5938 Q300.6705,355.9375 300.6705,352.8125 Q300.6705,349.6875 301.983,348.0313 Q303.3111,346.375 305.8111,346.375 Q306.5143,346.375 307.1549,346.5313 Q307.8111,346.6875 308.3736,346.9844 L308.3736,349.7031 Q307.7486,349.125 307.1549,348.8594 Q306.5611,348.5781 305.9361,348.5781 Q304.5924,348.5781 303.9049,349.6563 Q303.2174,350.7188 303.2174,352.8125 Q303.2174,354.9063 303.9049,355.9844 Q304.5924,357.0469 305.9361,357.0469 Q306.5611,357.0469 307.1549,356.7813 Q307.7486,356.5 308.3736,355.9219 L308.3736,358.6406 Z " fill="#000000"/><text fill="#000000" font-family="sans-serif" font-size="14" lengthAdjust="spacing" textLength="101.8418" x="324.1615" y="357.8467">Record_Object</text><line style="stroke:#181818;stroke-width:0.5;" x1="270" x2="449.4082" y1="369" y2="369"/><ellipse cx="280" cy="382.6484" fill="none" rx="3" ry="3" style="stroke:#038048;stroke-width:1;"/><text fill="#000000" font-family="sans-serif" font-size="14" lengthAdjust="spacing" textLength="71.8594" x="289" y="385.9951">name : str</text><line style="stroke:#181818;stroke-width:0.5;" x1="270" x2="449.4082" y1="393.2969" y2="393.2969"/><ellipse cx="280" cy="406.9453" fill="#84BE84" rx="3" ry="3" style="stroke:#038048;stroke-width:1;"/><text fill="#000000" font-family="sans-serif" font-size="14" lengthAdjust="spacing" textLength="155.4082" x="289" y="410.292">dump(indent: int) : str</text></g><!--reverse link BaseConverter to DumpConverter--><g id="link_BaseConverter_DumpConverter"><path d="M359.5,73.01 C359.5,88.8 359.5,92.8 359.5,114.68 " fill="none" id="BaseConverter-backto-DumpConverter" style="stroke:#181818;stroke-width:1;"/><polygon fill="none" points="359.5,55.01,353.5,73.01,365.5,73.01,359.5,55.01" style="stroke:#181818;stroke-width:1;"/></g><!--link DumpConverter to Record_Object--><g id="link_DumpConverter_Record_Object"><path codeLine="20" d="M359.5,277.04 C359.5,297.79 359.5,313.25 359.5,330.9 " fill="none" id="DumpConverter-to-Record_Object" style="stroke:#181818;stroke-width:1;stroke-dasharray:7.0,7.0;"/><polygon fill="#181818" points="359.5,336.9,363.5,327.9,359.5,331.9,355.5,327.9,359.5,336.9" style="stroke:#181818;stroke-width:1;"/></g><!--SRC=[XP7DQaCX48NtzobcQMZ80sIHHTjzeDiInEX9Ql6EGIUNGkcxLxtDZxHG5mhpdJdZpDXWSgP7a_4KUK8I9FeSleR1Dl1y7aytW0y1kzzoAkVX2D7vlBTn70qxjQ0rPKatvf1jyYVnaNi8BYxwu0DKlJIR4GrNrGjaLWMO2V-gxFmhdM5ReP-t2PSKC26ioRFycPHWOt8wxjzBbZw2aRnLSxJA6zqsUk-r94c6Sp1pfMrhqOHNvwtika87ppw_gKliEkNE-Z9FgXtUpubSMORoxCh0harKMdpwFQrMczvp-0O0]--></g></svg>