<?plantuml 1.2026.1?><svg xmlns="http://www.w3.org/2000/svg" xmlns:xlink="http://www.w3.org/1999/xlink" contentStyleType="text/css" data-diagram-type="CLASS" height="569px" preserveAspectRatio="none" style="width:718px;height:569px;background:#FFFFFF;" version="1.1" viewBox="0 0 718 569" width="718px" zoomAndPan="magnify"><defs/><g><!--cluster Dependencies--><g class="cluster" data-qualified-name="Dependencies" data-source-line="14" id="ent0005"><path d="M38,286 L150.0088,286 A3.75,3.75 0 0 1 152.5088,288.5 L159.5088,308.2969 L655,308.2969 A2.5,2.5 0 0 1 657.5,310.7969 L657.5,559.5 A2.5,2.5 0 0 1 655,562 L38,562 A2.5,2.5 0 0 1 35.5,559.5 L35.5,288.5 A2.5,2.5 0 0 1 38,286" fill="none" style="stroke:#000000;stroke-width:1.5;"/><line style="stroke:#000000;stroke-width:1.5;" x1="35.5" x2="159.5088" y1="308.2969" y2="308.2969"/><text fill="#000000" font-family="sans-serif" font-size="14" font-weight="bold" lengthAdjust="spacing" textLength="111.0088" x="39.5" y="300.9951">Dependencies</text></g><!--class trlc--><g class="entity" data-qualified-name="Dependencies.trlc" data-source-line="16" id="ent0006"><rect fill="#F1F1F1" height="56.2656" rx="2.5" ry="2.5" style="stroke:#181818;stroke-width:0.5;" width="87.7832" x="521.5" y="325"/><ellipse cx="536.5" cy="345.1328" fill="#ADD8E6" rx="11" ry="11" style="stroke:#181818;stroke-width:1;"/><path d="M532.2188,338.7422 L535.1406,338.7422 L536.6094,344.1797 L538.0781,338.7422 L541.0156,338.7422 L541.0156,351.1328 L538.9063,351.1328 L538.9063,341.2109 L537.5938,346.6328 L535.6563,346.6328 L534.3281,341.2109 L534.3281,351.1328 L532.2188,351.1328 L532.2188,338.7422 Z " fill="#000000"/><text fill="#000000" font-family="sans-serif" font-size="12" font-style="italic" lengthAdjust="spacing" textLength="59.7832" x="548.5" y="341.1387">&#171;module&#187;</text><text fill="#000000" font-family="sans-serif" font-size="14" lengthAdjust="spacing" textLength="22.832" x="566.9756" y="356.9639">trlc</text><line style="stroke:#181818;stroke-width:0.5;" x1="522.5" x2="608.2832" y1="365.2656" y2="365.2656"/><line style="stroke:#181818;stroke-width:0.5;" x1="522.5" x2="608.2832" y1="373.2656" y2="373.2656"/></g><g class="entity" data-qualified-name="Dependencies.GMN7" data-source-line="20" id="ent0008"><path d="M489.5,445 L489.5,545.7969 A0,0 0 0 0 489.5,545.7969 L641.0615,545.7969 A0,0 0 0 0 641.0615,545.7969 L641.0615,455 L631.0615,445 L569.5,445 L565.5,381.09 L561.5,445 L489.5,445 A0,0 0 0 0 489.5,445" fill="#FEFFDD" style="stroke:#181818;stroke-width:0.5;"/><path d="M631.0615,445 L631.0615,455 L641.0615,455 L631.0615,445" fill="#FEFFDD" style="stroke:#181818;stroke-width:0.5;"/><text fill="#000000" font-family="sans-serif" font-size="13" lengthAdjust="spacing" textLength="130.3364" x="495.5" y="462.0669">Use TRLC ast items:</text><ellipse cx="501" cy="472.7656" fill="#000000" rx="2.5" ry="2.5"/><text fill="#000000" font-family="sans-serif" font-size="13" lengthAdjust="spacing" textLength="79.5171" x="507.5" y="477.1997">Implicit_Null</text><ellipse cx="501" cy="487.8984" fill="#000000" rx="2.5" ry="2.5"/><text fill="#000000" font-family="sans-serif" font-size="13" lengthAdjust="spacing" textLength="94.5674" x="507.5" y="492.3325">Record_Object</text><ellipse cx="501" cy="503.0313" fill="#000000" rx="2.5" ry="2.5"/><text fill="#000000" font-family="sans-serif" font-size="13" lengthAdjust="spacing" textLength="118.5615" x="507.5" y="507.4653">Record_Reference</text><ellipse cx="501" cy="518.1641" fill="#000000" rx="2.5" ry="2.5"/><text fill="#000000" font-family="sans-serif" font-size="13" lengthAdjust="spacing" textLength="86.1694" x="507.5" y="522.5981">String_Literal</text><ellipse cx="501" cy="533.2969" fill="#000000" rx="2.5" ry="2.5"/><text fill="#000000" font-family="sans-serif" font-size="13" lengthAdjust="spacing" textLength="70.8525" x="507.5" y="537.731">Expression</text></g><!--class docx--><g class="entity" data-qualified-name="Dependencies.docx" data-source-line="29" id="ent0010"><rect fill="#F1F1F1" height="56.2656" rx="2.5" ry="2.5" style="stroke:#181818;stroke-width:0.5;" width="87.7832" x="398.5" y="325"/><ellipse cx="413.5" cy="345.1328" fill="#ADD8E6" rx="11" ry="11" style="stroke:#181818;stroke-width:1;"/><path d="M409.2188,338.7422 L412.1406,338.7422 L413.6094,344.1797 L415.0781,338.7422 L418.0156,338.7422 L418.0156,351.1328 L415.9063,351.1328 L415.9063,341.2109 L414.5938,346.6328 L412.6563,346.6328 L411.3281,341.2109 L411.3281,351.1328 L409.2188,351.1328 L409.2188,338.7422 Z " fill="#000000"/><text fill="#000000" font-family="sans-serif" font-size="12" font-style="italic" lengthAdjust="spacing" textLength="59.7832" x="425.5" y="341.1387">&#171;module&#187;</text><text fill="#000000" font-family="sans-serif" font-size="14" lengthAdjust="spacing" textLength="33.4346" x="438.6743" y="356.9639">docx</text><line style="stroke:#181818;stroke-width:0.5;" x1="399.5" x2="485.2832" y1="365.2656" y2="365.2656"/><line style="stroke:#181818;stroke-width:0.5;" x1="399.5" x2="485.2832" y1="373.2656" y2="373.2656"/></g><g class="entity" data-qualified-name="Dependencies.GMN11" data-source-line="32" id="ent0012"><path d="M220.5,483 L220.5,508.1328 A0,0 0 0 0 220.5,508.1328 L454.1084,508.1328 A0,0 0 0 0 454.1084,508.1328 L454.1084,493 L444.1084,483 L350.19,483 L422.25,381.09 L342.19,483 L220.5,483 A0,0 0 0 0 220.5,483" fill="#FEFFDD" style="stroke:#181818;stroke-width:0.5;"/><path d="M444.1084,483 L444.1084,493 L454.1084,493 L444.1084,483" fill="#FEFFDD" style="stroke:#181818;stroke-width:0.5;"/><text fill="#000000" font-family="sans-serif" font-size="13" lengthAdjust="spacing" textLength="212.6084" x="226.5" y="500.0669">Library for generating .docx files</text></g><!--class DocxRenderer--><g class="entity" data-qualified-name="Dependencies.DocxRenderer" data-source-line="35" id="ent0014"><rect fill="#F1F1F1" height="64.2969" rx="2.5" ry="2.5" style="stroke:#181818;stroke-width:0.5;" width="172.8428" x="190" y="321"/><ellipse cx="223.3041" cy="337" fill="#ADD1B2" rx="11" ry="11" style="stroke:#181818;stroke-width:1;"/><path d="M226.2729,342.6406 Q225.6947,342.9375 225.0541,343.0781 Q224.4135,343.2344 223.7104,343.2344 Q221.2104,343.2344 219.8822,341.5938 Q218.5697,339.9375 218.5697,336.8125 Q218.5697,333.6875 219.8822,332.0313 Q221.2104,330.375 223.7104,330.375 Q224.4135,330.375 225.0541,330.5313 Q225.7104,330.6875 226.2729,330.9844 L226.2729,333.7031 Q225.6479,333.125 225.0541,332.8594 Q224.4604,332.5781 223.8354,332.5781 Q222.4916,332.5781 221.8041,333.6563 Q221.1166,334.7188 221.1166,336.8125 Q221.1166,338.9063 221.8041,339.9844 Q222.4916,341.0469 223.8354,341.0469 Q224.4604,341.0469 225.0541,340.7813 Q225.6479,340.5 226.2729,339.9219 L226.2729,342.6406 Z " fill="#000000"/><text fill="#000000" font-family="sans-serif" font-size="14" lengthAdjust="spacing" textLength="100.167" x="241.3717" y="341.8467">DocxRenderer</text><line style="stroke:#181818;stroke-width:0.5;" x1="191" x2="361.8428" y1="353" y2="353"/><line style="stroke:#181818;stroke-width:0.5;" x1="191" x2="361.8428" y1="361" y2="361"/><g data-visibility-modifier="PUBLIC_METHOD"><ellipse cx="201" cy="374.6484" fill="#84BE84" rx="3" ry="3" style="stroke:#038048;stroke-width:1;"/></g><text fill="#000000" font-family="sans-serif" font-size="14" lengthAdjust="spacing" textLength="146.8428" x="210" y="377.9951">render(ast: Any) : str</text></g><!--class marko--><g class="entity" data-qualified-name="Dependencies.marko" data-source-line="39" id="ent0015"><rect fill="#F1F1F1" height="56.2656" rx="2.5" ry="2.5" style="stroke:#181818;stroke-width:0.5;" width="87.7832" x="66.5" y="325"/><ellipse cx="81.5" cy="345.1328" fill="#ADD8E6" rx="11" ry="11" style="stroke:#181818;stroke-width:1;"/><path d="M77.2188,338.7422 L80.1406,338.7422 L81.6094,344.1797 L83.0781,338.7422 L86.0156,338.7422 L86.0156,351.1328 L83.9063,351.1328 L83.9063,341.2109 L82.5938,346.6328 L80.6563,346.6328 L79.3281,341.2109 L79.3281,351.1328 L77.2188,351.1328 L77.2188,338.7422 Z " fill="#000000"/><text fill="#000000" font-family="sans-serif" font-size="12" font-style="italic" lengthAdjust="spacing" textLength="59.7832" x="93.5" y="341.1387">&#171;module&#187;</text><text fill="#000000" font-family="sans-serif" font-size="14" lengthAdjust="spacing" textLength="44.6455" x="101.0688" y="356.9639">marko</text><line style="stroke:#181818;stroke-width:0.5;" x1="67.5" x2="153.2832" y1="365.2656" y2="365.2656"/><line style="stroke:#181818;stroke-width:0.5;" x1="67.5" x2="153.2832" y1="373.2656" y2="373.2656"/></g><g class="entity" data-qualified-name="Dependencies.GMN16" data-source-line="42" id="ent0017"><path d="M51.5,483 L51.5,508.1328 A0,0 0 0 0 51.5,508.1328 L185.0313,508.1328 A0,0 0 0 0 185.0313,508.1328 L185.0313,493 L175.0313,483 L121.84,483 L112.04,381.09 L113.84,483 L51.5,483 A0,0 0 0 0 51.5,483" fill="#FEFFDD" style="stroke:#181818;stroke-width:0.5;"/><path d="M175.0313,483 L175.0313,493 L185.0313,493 L175.0313,483" fill="#FEFFDD" style="stroke:#181818;stroke-width:0.5;"/><text fill="#000000" font-family="sans-serif" font-size="13" lengthAdjust="spacing" textLength="112.5313" x="57.5" y="500.0669">Markdown Parser</text></g><!--class BaseConverter--><g class="entity" data-qualified-name="BaseConverter" data-source-line="2" id="ent0002"><rect fill="#F1F1F1" height="48" rx="2.5" ry="2.5" style="stroke:#181818;stroke-width:0.5;" width="135.8174" x="291.5" y="7"/><ellipse cx="306.5" cy="23" fill="#ADD1B2" rx="11" ry="11" style="stroke:#181818;stroke-width:1;"/><path d="M309.4688,28.6406 Q308.8906,28.9375 308.25,29.0781 Q307.6094,29.2344 306.9063,29.2344 Q304.4063,29.2344 303.0781,27.5938 Q301.7656,25.9375 301.7656,22.8125 Q301.7656,19.6875 303.0781,18.0313 Q304.4063,16.375 306.9063,16.375 Q307.6094,16.375 308.25,16.5313 Q308.9063,16.6875 309.4688,16.9844 L309.4688,19.7031 Q308.8438,19.125 308.25,18.8594 Q307.6563,18.5781 307.0313,18.5781 Q305.6875,18.5781 305,19.6563 Q304.3125,20.7188 304.3125,22.8125 Q304.3125,24.9063 305,25.9844 Q305.6875,27.0469 307.0313,27.0469 Q307.6563,27.0469 308.25,26.7813 Q308.8438,26.5 309.4688,25.9219 L309.4688,28.6406 Z " fill="#000000"/><text fill="#000000" font-family="sans-serif" font-size="14" lengthAdjust="spacing" textLength="103.8174" x="320.5" y="27.8467">BaseConverter</text><line style="stroke:#181818;stroke-width:0.5;" x1="292.5" x2="426.3174" y1="39" y2="39"/><line style="stroke:#181818;stroke-width:0.5;" x1="292.5" x2="426.3174" y1="47" y2="47"/></g><!--class DocxConverter--><g class="entity" data-qualified-name="DocxConverter" data-source-line="5" id="ent0003"><rect fill="#F1F1F1" height="145.7813" rx="2.5" ry="2.5" style="stroke:#181818;stroke-width:0.5;" width="704.7129" x="7" y="115"/><ellipse cx="302.5791" cy="131" fill="#ADD1B2" rx="11" ry="11" style="stroke:#181818;stroke-width:1;"/><path d="M305.5479,136.6406 Q304.9697,136.9375 304.3291,137.0781 Q303.6885,137.2344 302.9854,137.2344 Q300.4854,137.2344 299.1572,135.5938 Q297.8447,133.9375 297.8447,130.8125 Q297.8447,127.6875 299.1572,126.0313 Q300.4854,124.375 302.9854,124.375 Q303.6885,124.375 304.3291,124.5313 Q304.9854,124.6875 305.5479,124.9844 L305.5479,127.7031 Q304.9229,127.125 304.3291,126.8594 Q303.7354,126.5781 303.1104,126.5781 Q301.7666,126.5781 301.0791,127.6563 Q300.3916,128.7188 300.3916,130.8125 Q300.3916,132.9063 301.0791,133.9844 Q301.7666,135.0469 303.1104,135.0469 Q303.7354,135.0469 304.3291,134.7813 Q304.9229,134.5 305.5479,133.9219 L305.5479,136.6406 Z " fill="#000000"/><text fill="#000000" font-family="sans-serif" font-size="14" lengthAdjust="spacing" textLength="105.0547" x="323.0791" y="135.8467">DocxConverter</text><line style="stroke:#181818;stroke-width:0.5;" x1="8" x2="710.7129" y1="147" y2="147"/><line style="stroke:#181818;stroke-width:0.5;" x1="8" x2="710.7129" y1="155" y2="155"/><g data-visibility-modifier="PUBLIC_METHOD"><ellipse cx="18" cy="168.6484" fill="#84BE84" rx="3" ry="3" style="stroke:#038048;stroke-width:1;"/></g><text fill="#000000" font-family="sans-serif" font-size="14" lengthAdjust="spacing" textLength="168" x="27" y="171.9951">get_subcommand() : str</text><g data-visibility-modifier="PUBLIC_METHOD"><ellipse cx="18" cy="184.9453" fill="#84BE84" rx="3" ry="3" style="stroke:#038048;stroke-width:1;"/></g><text fill="#000000" font-family="sans-serif" font-size="14" lengthAdjust="spacing" textLength="150.9102" x="27" y="188.292">get_description() : str</text><g data-visibility-modifier="PUBLIC_METHOD"><ellipse cx="18" cy="201.2422" fill="#84BE84" rx="3" ry="3" style="stroke:#038048;stroke-width:1;"/></g><text fill="#000000" font-family="sans-serif" font-size="14" lengthAdjust="spacing" textLength="233.666" x="27" y="204.5889">register(args_parser: Any) : None</text><g data-visibility-modifier="PUBLIC_METHOD"><ellipse cx="18" cy="217.5391" fill="#84BE84" rx="3" ry="3" style="stroke:#038048;stroke-width:1;"/></g><text fill="#000000" font-family="sans-serif" font-size="14" lengthAdjust="spacing" textLength="306.8105" x="27" y="220.8857">convert_section(section: str, level: int) : Ret</text><g data-visibility-modifier="PUBLIC_METHOD"><ellipse cx="18" cy="233.8359" fill="#84BE84" rx="3" ry="3" style="stroke:#038048;stroke-width:1;"/></g><text fill="#000000" font-family="sans-serif" font-size="14" lengthAdjust="spacing" textLength="678.7129" x="27" y="237.1826">convert_record_object_generic(record: Record_Object, level: int, translation: Optional[dict]) : Ret</text><g data-visibility-modifier="PUBLIC_METHOD"><ellipse cx="18" cy="250.1328" fill="#84BE84" rx="3" ry="3" style="stroke:#038048;stroke-width:1;"/></g><text fill="#000000" font-family="sans-serif" font-size="14" lengthAdjust="spacing" textLength="86.1191" x="27" y="253.4795">finish() : Ret</text></g><!--reverse link BaseConverter to DocxConverter--><g class="link" data-entity-1="ent0002" data-entity-2="ent0003" data-link-type="extension" data-source-line="6" id="lnk4"><path d="M359.5,73.21 C359.5,89.17 359.5,93.3 359.5,114.88" fill="none" id="BaseConverter-backto-DocxConverter" style="stroke:#181818;stroke-width:1;"/><polygon fill="none" points="359.5,55.21,353.5,73.21,365.5,73.21,359.5,55.21" style="stroke:#181818;stroke-width:1;"/></g><!--link DocxConverter to trlc--><g class="link" data-entity-1="ent0003" data-entity-2="ent0006" data-link-type="dependency" data-source-line="46" id="lnk19"><path codeLine="46" d="M483.36,261.02 C490.7,266.51 497.81,272.18 504.5,278 C520.33,291.77 531.7443,305.1143 542.9243,319.9843" fill="none" id="DocxConverter-to-trlc" style="stroke:#181818;stroke-width:1;stroke-dasharray:7,7;"/><polygon fill="#181818" points="546.53,324.78,544.3186,315.1826,543.5253,320.7836,537.9243,319.9902,546.53,324.78" style="stroke:#181818;stroke-width:1;"/></g><!--link DocxConverter to docx--><g class="link" data-entity-1="ent0003" data-entity-2="ent0010" data-link-type="dependency" data-source-line="47" id="lnk20"><path codeLine="47" d="M396.39,261.44 C407.82,283.89 416.9962,301.9239 425.8462,319.2939" fill="none" id="DocxConverter-to-docx" style="stroke:#181818;stroke-width:1;stroke-dasharray:7,7;"/><polygon fill="#181818" points="428.57,324.64,428.0483,314.805,426.3001,320.1849,420.9202,318.4367,428.57,324.64" style="stroke:#181818;stroke-width:1;"/></g><!--link DocxConverter to DocxRenderer--><g class="link" data-entity-1="ent0003" data-entity-2="ent0014" data-link-type="dependency" data-source-line="48" id="lnk21"><path codeLine="48" d="M322.61,261.44 C312.05,282.19 303.8038,298.3839 295.2138,315.2439" fill="none" id="DocxConverter-to-DocxRenderer" style="stroke:#181818;stroke-width:1;stroke-dasharray:7,7;"/><polygon fill="#181818" points="292.49,320.59,300.1398,314.3867,294.7598,316.1349,293.0116,310.755,292.49,320.59" style="stroke:#181818;stroke-width:1;"/></g><!--link DocxConverter to marko--><g class="link" data-entity-1="ent0003" data-entity-2="ent0015" data-link-type="dependency" data-source-line="49" id="lnk22"><path codeLine="49" d="M196.26,261.27 C188.01,266.59 180.03,272.17 172.5,278 C155.54,291.13 143.6085,304.8065 132.3485,320.0265" fill="none" id="DocxConverter-to-marko" style="stroke:#181818;stroke-width:1;stroke-dasharray:7,7;"/><polygon fill="#181818" points="128.78,324.85,137.3484,319.9938,131.7537,320.8304,130.9171,315.2358,128.78,324.85" style="stroke:#181818;stroke-width:1;"/></g><?plantuml-src XLDDJzj04BtdLumucJRA3uXGf1Ou80MeqdAgAckz7fk5zQurCw51AF-zwt5nR0AjBvRVcpSVRyRM6sRuQXZFOtX24YHucUrdCwl4HRIx0u4xmL0UXqDwFjSeEMyB6vl6X38xXIMmq84haIsvLbmCKvAmTfmIPOPgpbj3ZBI4B-6vYxg90VimsnVC6Qtc-FlMH7Fm-8H-2Iv8fzgWJ4M4DbAPn-8XgV8Q0vApMOzsuShUAZlEDGSX4zYRljAjTc_ypz9P-JKfLBdW-3vxnPA1hR6FfaOukS0skOR1EkIJv9OAUdk5l8Mpi-mQvjxLzrBuBPv24ykjnzMgDtRV2q8KX2AAn0PYfKh5k-UE4NvirkTWMC09DhmSk4zmrRJUMIVvpTRx4JwP-XZVO8MKkiOHzLt8XJfVfnfanhakToqXSt97mJIlDZmR3rkcM_h_iE_CsWc7McjNaA5dg2A1xZ7j9jImqEoLyyXlEZWqq1tpfbi53LUhkmDIC4lk3NVtUftxSOB6q6FyU0Junmmg7KfUfwyo_WxmJQzzsd4gEVtj5ejLl-zZMAqvXiUJlaFtpVm1?></g></svg>