<svg xmlns="http://www.w3.org/2000/svg" xmlns:xlink="http://www.w3.org/1999/xlink" contentStyleType="text/css" height="538px" preserveAspectRatio="none" style="width:828px;height:538px;background:#FFFFFF;" version="1.1" viewBox="0 0 828 538" width="828px" zoomAndPan="magnify"><defs/><g><!--cluster Dependencies--><g id="cluster_Dependencies"><path d="M228,424.5 L340.0088,424.5 A3.75,3.75 0 0 1 342.5088,427 L349.5088,446.7969 L819,446.7969 A2.5,2.5 0 0 1 821.5,449.2969 L821.5,529 A2.5,2.5 0 0 1 819,531.5 L228,531.5 A2.5,2.5 0 0 1 225.5,529 L225.5,427 A2.5,2.5 0 0 1 228,424.5 " fill="none" style="stroke:#000000;stroke-width:1.5;"/><line style="stroke:#000000;stroke-width:1.5;" x1="225.5" x2="349.5088" y1="446.7969" y2="446.7969"/><text fill="#000000" font-family="sans-serif" font-size="14" font-weight="bold" lengthAdjust="spacing" textLength="111.0088" x="229.5" y="439.4951">Dependencies</text></g><!--class argparse--><g id="elem_argparse"><rect codeLine="24" fill="#F1F1F1" height="56.2656" id="argparse" rx="2.5" ry="2.5" style="stroke:#181818;stroke-width:0.5;" width="94.3506" x="241.5" y="459.5"/><ellipse cx="256.5" cy="479.6328" fill="#ADD8E6" rx="11" ry="11" style="stroke:#181818;stroke-width:1;"/><path d="M252.2188,473.2422 L255.1406,473.2422 L256.6094,478.6797 L258.0781,473.2422 L261.0156,473.2422 L261.0156,485.6328 L258.9063,485.6328 L258.9063,475.7109 L257.5938,481.1328 L255.6563,481.1328 L254.3281,475.7109 L254.3281,485.6328 L252.2188,485.6328 L252.2188,473.2422 Z " fill="#000000"/><text fill="#000000" font-family="sans-serif" font-size="12" font-style="italic" lengthAdjust="spacing" textLength="59.7832" x="271.7837" y="475.6387">&#171;module&#187;</text><text fill="#000000" font-family="sans-serif" font-size="14" lengthAdjust="spacing" textLength="62.3506" x="270.5" y="491.4639">argparse</text><line style="stroke:#181818;stroke-width:0.5;" x1="242.5" x2="334.8506" y1="499.7656" y2="499.7656"/><line style="stroke:#181818;stroke-width:0.5;" x1="242.5" x2="334.8506" y1="507.7656" y2="507.7656"/></g><!--class Record_Object--><g id="elem_Record_Object"><rect codeLine="27" fill="#F1F1F1" height="48" id="Record_Object" rx="2.5" ry="2.5" style="stroke:#181818;stroke-width:0.5;" width="133.8418" x="370.5" y="463.5"/><ellipse cx="385.5" cy="479.5" fill="#ADD1B2" rx="11" ry="11" style="stroke:#181818;stroke-width:1;"/><path d="M388.4688,485.1406 Q387.8906,485.4375 387.25,485.5781 Q386.6094,485.7344 385.9063,485.7344 Q383.4063,485.7344 382.0781,484.0938 Q380.7656,482.4375 380.7656,479.3125 Q380.7656,476.1875 382.0781,474.5313 Q383.4063,472.875 385.9063,472.875 Q386.6094,472.875 387.25,473.0313 Q387.9063,473.1875 388.4688,473.4844 L388.4688,476.2031 Q387.8438,475.625 387.25,475.3594 Q386.6563,475.0781 386.0313,475.0781 Q384.6875,475.0781 384,476.1563 Q383.3125,477.2188 383.3125,479.3125 Q383.3125,481.4063 384,482.4844 Q384.6875,483.5469 386.0313,483.5469 Q386.6563,483.5469 387.25,483.2813 Q387.8438,483 388.4688,482.4219 L388.4688,485.1406 Z " fill="#000000"/><text fill="#000000" font-family="sans-serif" font-size="14" lengthAdjust="spacing" textLength="101.8418" x="399.5" y="484.3467">Record_Object</text><line style="stroke:#181818;stroke-width:0.5;" x1="371.5" x2="503.3418" y1="495.5" y2="495.5"/><line style="stroke:#181818;stroke-width:0.5;" x1="371.5" x2="503.3418" y1="503.5" y2="503.5"/></g><!--class Translator--><g id="elem_Translator"><rect codeLine="30" fill="#F1F1F1" height="48" id="Translator" rx="2.5" ry="2.5" style="stroke:#181818;stroke-width:0.5;" width="103.333" x="540" y="463.5"/><ellipse cx="555" cy="479.5" fill="#ADD1B2" rx="11" ry="11" style="stroke:#181818;stroke-width:1;"/><path d="M557.9688,485.1406 Q557.3906,485.4375 556.75,485.5781 Q556.1094,485.7344 555.4063,485.7344 Q552.9063,485.7344 551.5781,484.0938 Q550.2656,482.4375 550.2656,479.3125 Q550.2656,476.1875 551.5781,474.5313 Q552.9063,472.875 555.4063,472.875 Q556.1094,472.875 556.75,473.0313 Q557.4063,473.1875 557.9688,473.4844 L557.9688,476.2031 Q557.3438,475.625 556.75,475.3594 Q556.1563,475.0781 555.5313,475.0781 Q554.1875,475.0781 553.5,476.1563 Q552.8125,477.2188 552.8125,479.3125 Q552.8125,481.4063 553.5,482.4844 Q554.1875,483.5469 555.5313,483.5469 Q556.1563,483.5469 556.75,483.2813 Q557.3438,483 557.9688,482.4219 L557.9688,485.1406 Z " fill="#000000"/><text fill="#000000" font-family="sans-serif" font-size="14" lengthAdjust="spacing" textLength="71.333" x="569" y="484.3467">Translator</text><line style="stroke:#181818;stroke-width:0.5;" x1="541" x2="642.333" y1="495.5" y2="495.5"/><line style="stroke:#181818;stroke-width:0.5;" x1="541" x2="642.333" y1="503.5" y2="503.5"/></g><!--class RenderConfig--><g id="elem_RenderConfig"><rect codeLine="34" fill="#F1F1F1" height="48" id="RenderConfig" rx="2.5" ry="2.5" style="stroke:#181818;stroke-width:0.5;" width="127.3887" x="678" y="463.5"/><ellipse cx="693" cy="479.5" fill="#ADD1B2" rx="11" ry="11" style="stroke:#181818;stroke-width:1;"/><path d="M695.9688,485.1406 Q695.3906,485.4375 694.75,485.5781 Q694.1094,485.7344 693.4063,485.7344 Q690.9063,485.7344 689.5781,484.0938 Q688.2656,482.4375 688.2656,479.3125 Q688.2656,476.1875 689.5781,474.5313 Q690.9063,472.875 693.4063,472.875 Q694.1094,472.875 694.75,473.0313 Q695.4063,473.1875 695.9688,473.4844 L695.9688,476.2031 Q695.3438,475.625 694.75,475.3594 Q694.1563,475.0781 693.5313,475.0781 Q692.1875,475.0781 691.5,476.1563 Q690.8125,477.2188 690.8125,479.3125 Q690.8125,481.4063 691.5,482.4844 Q692.1875,483.5469 693.5313,483.5469 Q694.1563,483.5469 694.75,483.2813 Q695.3438,483 695.9688,482.4219 L695.9688,485.1406 Z " fill="#000000"/><text fill="#000000" font-family="sans-serif" font-size="14" lengthAdjust="spacing" textLength="95.3887" x="707" y="484.3467">RenderConfig</text><line style="stroke:#181818;stroke-width:0.5;" x1="679" x2="804.3887" y1="495.5" y2="495.5"/><line style="stroke:#181818;stroke-width:0.5;" x1="679" x2="804.3887" y1="503.5" y2="503.5"/></g><!--class AbstractConverter--><g id="elem_AbstractConverter"><rect codeLine="2" fill="#F1F1F1" height="48" id="AbstractConverter" rx="2.5" ry="2.5" style="stroke:#181818;stroke-width:0.5;" width="160.4951" x="357.5" y="7"/><ellipse cx="372.5" cy="23" fill="#A9DCDF" rx="11" ry="11" style="stroke:#181818;stroke-width:1;"/><path d="M372.6094,18.3438 L371.4531,23.4219 L373.7813,23.4219 L372.6094,18.3438 Z M371.125,16.1094 L374.1094,16.1094 L377.4688,28.5 L375.0156,28.5 L374.25,25.4375 L370.9688,25.4375 L370.2188,28.5 L367.7813,28.5 L371.125,16.1094 Z " fill="#000000"/><text fill="#000000" font-family="sans-serif" font-size="14" font-style="italic" lengthAdjust="spacing" textLength="128.4951" x="386.5" y="27.8467">AbstractConverter</text><line style="stroke:#181818;stroke-width:0.5;" x1="358.5" x2="516.9951" y1="39" y2="39"/><line style="stroke:#181818;stroke-width:0.5;" x1="358.5" x2="516.9951" y1="47" y2="47"/></g><!--class BaseConverter--><g id="elem_BaseConverter"><rect codeLine="5" fill="#F1F1F1" height="210.9688" id="BaseConverter" rx="2.5" ry="2.5" style="stroke:#181818;stroke-width:0.5;" width="704.7129" x="85" y="115"/><ellipse cx="381.1978" cy="131" fill="#ADD1B2" rx="11" ry="11" style="stroke:#181818;stroke-width:1;"/><path d="M384.1665,136.6406 Q383.5884,136.9375 382.9478,137.0781 Q382.3071,137.2344 381.604,137.2344 Q379.104,137.2344 377.7759,135.5938 Q376.4634,133.9375 376.4634,130.8125 Q376.4634,127.6875 377.7759,126.0313 Q379.104,124.375 381.604,124.375 Q382.3071,124.375 382.9478,124.5313 Q383.604,124.6875 384.1665,124.9844 L384.1665,127.7031 Q383.5415,127.125 382.9478,126.8594 Q382.354,126.5781 381.729,126.5781 Q380.3853,126.5781 379.6978,127.6563 Q379.0103,128.7188 379.0103,130.8125 Q379.0103,132.9063 379.6978,133.9844 Q380.3853,135.0469 381.729,135.0469 Q382.354,135.0469 382.9478,134.7813 Q383.5415,134.5 384.1665,133.9219 L384.1665,136.6406 Z " fill="#000000"/><text fill="#000000" font-family="sans-serif" font-size="14" lengthAdjust="spacing" textLength="103.8174" x="401.6978" y="135.8467">BaseConverter</text><line style="stroke:#181818;stroke-width:0.5;" x1="86" x2="788.7129" y1="147" y2="147"/><line style="stroke:#181818;stroke-width:0.5;" x1="86" x2="788.7129" y1="155" y2="155"/><ellipse cx="96" cy="168.6484" fill="#84BE84" rx="3" ry="3" style="stroke:#038048;stroke-width:1;"/><text fill="#000000" font-family="sans-serif" font-size="14" lengthAdjust="spacing" textLength="127.4834" x="105" y="171.9951">__init__(args: Any)</text><ellipse cx="96" cy="184.9453" fill="#84BE84" rx="3" ry="3" style="stroke:#038048;stroke-width:1;"/><text fill="#000000" font-family="sans-serif" font-size="14" lengthAdjust="spacing" textLength="233.666" x="105" y="188.292">register(args_parser: Any) : None</text><ellipse cx="96" cy="201.2422" fill="#84BE84" rx="3" ry="3" style="stroke:#038048;stroke-width:1;"/><text fill="#000000" font-family="sans-serif" font-size="14" lengthAdjust="spacing" textLength="344.0391" x="105" y="204.5889">set_render_cfg(render_cfg: RenderConfig) : None</text><ellipse cx="96" cy="217.5391" fill="#84BE84" rx="3" ry="3" style="stroke:#038048;stroke-width:1;"/><text fill="#000000" font-family="sans-serif" font-size="14" lengthAdjust="spacing" textLength="87.5205" x="105" y="220.8857">begin() : Ret</text><ellipse cx="96" cy="233.8359" fill="#84BE84" rx="3" ry="3" style="stroke:#038048;stroke-width:1;"/><text fill="#000000" font-family="sans-serif" font-size="14" lengthAdjust="spacing" textLength="209.7676" x="105" y="237.1826">enter_file(file_name: str) : Ret</text><ellipse cx="96" cy="250.1328" fill="#84BE84" rx="3" ry="3" style="stroke:#038048;stroke-width:1;"/><text fill="#000000" font-family="sans-serif" font-size="14" lengthAdjust="spacing" textLength="210.4033" x="105" y="253.4795">leave_file(file_name: str) : Ret</text><ellipse cx="96" cy="266.4297" fill="#84BE84" rx="3" ry="3" style="stroke:#038048;stroke-width:1;"/><text fill="#000000" font-family="sans-serif" font-size="14" lengthAdjust="spacing" textLength="306.8105" x="105" y="269.7764">convert_section(section: str, level: int) : Ret</text><ellipse cx="96" cy="282.7266" fill="#84BE84" rx="3" ry="3" style="stroke:#038048;stroke-width:1;"/><text fill="#000000" font-family="sans-serif" font-size="14" lengthAdjust="spacing" textLength="429.96" x="105" y="286.0732">convert_record_object(record: Record_Object, level: int) : Ret</text><ellipse cx="96" cy="299.0234" fill="#84BE84" rx="3" ry="3" style="stroke:#038048;stroke-width:1;"/><text fill="#000000" font-family="sans-serif" font-size="14" lengthAdjust="spacing" textLength="86.1191" x="105" y="302.3701">finish() : Ret</text><ellipse cx="96" cy="315.3203" fill="#84BE84" rx="3" ry="3" style="stroke:#038048;stroke-width:1;"/><text fill="#000000" font-family="sans-serif" font-size="14" lengthAdjust="spacing" textLength="678.7129" x="105" y="318.667">convert_record_object_generic(record: Record_Object, level: int, translation: Optional[dict]) : Ret</text></g><!--class RecordsPolicy--><g id="elem_RecordsPolicy"><rect codeLine="18" fill="#F1F1F1" height="80.5938" id="RecordsPolicy" rx="2.5" ry="2.5" style="stroke:#181818;stroke-width:0.5;" width="199.1406" x="7" y="447"/><ellipse cx="53.6655" cy="463" fill="#EB937F" rx="11" ry="11" style="stroke:#181818;stroke-width:1;"/><path d="M57.7749,469 L50.0562,469 L50.0562,456.6094 L57.7749,456.6094 L57.7749,458.7656 L52.5093,458.7656 L52.5093,461.4375 L57.2749,461.4375 L57.2749,463.5938 L52.5093,463.5938 L52.5093,466.8438 L57.7749,466.8438 L57.7749,469 Z " fill="#000000"/><text fill="#000000" font-family="sans-serif" font-size="14" lengthAdjust="spacing" textLength="97.3096" x="74.1655" y="467.8467">RecordsPolicy</text><line style="stroke:#181818;stroke-width:0.5;" x1="8" x2="205.1406" y1="479" y2="479"/><text fill="#000000" font-family="sans-serif" font-size="14" lengthAdjust="spacing" textLength="167.0225" x="13" y="495.9951">RECORD_CONVERT_ALL</text><text fill="#000000" font-family="sans-serif" font-size="14" lengthAdjust="spacing" textLength="187.1406" x="13" y="512.292">RECORD_SKIP_UNDEFINED</text><line style="stroke:#181818;stroke-width:0.5;" x1="8" x2="205.1406" y1="519.5938" y2="519.5938"/></g><!--reverse link AbstractConverter to BaseConverter--><g id="link_AbstractConverter_BaseConverter"><path d="M437.5,73.37 C437.5,88.88 437.5,92.45 437.5,114.86 " fill="none" id="AbstractConverter-backto-BaseConverter" style="stroke:#181818;stroke-width:1;"/><polygon fill="none" points="437.5,55.37,431.5,73.37,443.5,73.37,437.5,55.37" style="stroke:#181818;stroke-width:1;"/></g><!--link BaseConverter to RecordsPolicy--><g id="link_BaseConverter_RecordsPolicy"><path codeLine="39" d="M306.68,326.24 C253.73,368.62 200.5135,411.2297 160.6635,443.1397 " fill="none" id="BaseConverter-to-RecordsPolicy" style="stroke:#181818;stroke-width:1;stroke-dasharray:7.0,7.0;"/><polygon fill="#181818" points="155.98,446.89,165.5055,444.3868,159.8829,443.7647,160.505,438.1422,155.98,446.89" style="stroke:#181818;stroke-width:1;"/></g><!--link BaseConverter to Translator--><g id="link_BaseConverter_Translator"><path codeLine="40" d="M498.36,326.24 C527.71,376.73 557.3051,427.6625 575.0951,458.2725 " fill="none" id="BaseConverter-to-Translator" style="stroke:#181818;stroke-width:1;stroke-dasharray:7.0,7.0;"/><polygon fill="#181818" points="578.11,463.46,577.046,453.6688,575.5976,459.1371,570.1293,457.6886,578.11,463.46" style="stroke:#181818;stroke-width:1;"/></g><!--link BaseConverter to RenderConfig--><g id="link_BaseConverter_RenderConfig"><path codeLine="41" d="M557.65,326.24 C615.57,376.73 675.4269,428.9077 710.5469,459.5177 " fill="none" id="BaseConverter-to-RenderConfig" style="stroke:#181818;stroke-width:1;stroke-dasharray:7.0,7.0;"/><polygon fill="#181818" points="715.07,463.46,710.9135,454.5312,711.3007,460.1748,705.6572,460.562,715.07,463.46" style="stroke:#181818;stroke-width:1;"/></g><!--link BaseConverter to Record_Object--><g id="link_BaseConverter_Record_Object"><path codeLine="42" d="M437.5,326.24 C437.5,376.73 437.5,426.85 437.5,457.46 " fill="none" id="BaseConverter-to-Record_Object" style="stroke:#181818;stroke-width:1;stroke-dasharray:7.0,7.0;"/><polygon fill="#181818" points="437.5,463.46,441.5,454.46,437.5,458.46,433.5,454.46,437.5,463.46" style="stroke:#181818;stroke-width:1;"/></g><!--link BaseConverter to argparse--><g id="link_BaseConverter_argparse"><path codeLine="43" d="M378.61,326.24 C351.44,374.56 324.3097,422.7995 306.6897,454.1495 " fill="none" id="BaseConverter-to-argparse" style="stroke:#181818;stroke-width:1;stroke-dasharray:7.0,7.0;"/><polygon fill="#181818" points="303.75,459.38,311.6466,453.4941,306.1998,455.0213,304.6726,449.5745,303.75,459.38" style="stroke:#181818;stroke-width:1;"/></g><!--SRC=[XLDVQy8m47_lfpZsiih43r14SBO3cLFft5x6234zQxQObYJAPFZTbpPnNQ7EFZJ9tUzFxtAbQsqKPGQOe5h3s1ydXJoWCgZWEpW5085BtrEDJGg_3CgicmJskIE4Isu82QdATGHZUUovXCASQmki4wIaIgDoUOXWNaXqC8s6A6k1Yh1D7ZRR2D9wRnqtF6-JrbPRXbKiHUD2AAqNsN21OVKYakum0llHBPH0Ui2hAEQA91gPuOKC_Le3-o3mW282BaqdII4hL4QAzOTbXUvKmUheeevUrDZONkfjU5sNv2XHSNPTlm_stgGMr5MmAAkLYhUCC_D-DZe50ShzpglePI4uE_eRJfF98et9P35_JT8L6SzcVyFFZzCbUPd7oSDqdiILK4dP9yqHRc8igmkKZAE-yM9knEn4rFC0C1o6Jz0NFD-QjTXZ3tP5jXSu6dcyrMjehHgx02jVQL5DPnU_cQTVkaNSsephZzxoKWVjFs0mo0QZTcSw4Otv1O76_1y7Nrqdujosu0S0]--></g></svg>