<svg xmlns="http://www.w3.org/2000/svg" xmlns:xlink="http://www.w3.org/1999/xlink" contentStyleType="text/css" height="275px" preserveAspectRatio="none" style="width:535px;height:275px;background:#FFFFFF;" version="1.1" viewBox="0 0 535 275" width="535px" zoomAndPan="magnify"><defs/><g><!--cluster Dependencies--><g id="cluster_Dependencies"><path d="M8.5,161 L120.5088,161 A3.75,3.75 0 0 1 123.0088,163.5 L130.0088,183.2969 L525.5,183.2969 A2.5,2.5 0 0 1 528,185.7969 L528,265.5 A2.5,2.5 0 0 1 525.5,268 L8.5,268 A2.5,2.5 0 0 1 6,265.5 L6,163.5 A2.5,2.5 0 0 1 8.5,161 " fill="none" style="stroke:#000000;stroke-width:1.5;"/><line style="stroke:#000000;stroke-width:1.5;" x1="6" x2="130.0088" y1="183.2969" y2="183.2969"/><text fill="#000000" font-family="sans-serif" font-size="14" font-weight="bold" lengthAdjust="spacing" textLength="111.0088" x="10" y="175.9951">Dependencies</text></g><!--class trlc--><g id="elem_trlc"><rect codeLine="11" fill="#F1F1F1" height="56.2656" id="trlc" rx="2.5" ry="2.5" style="stroke:#181818;stroke-width:0.5;" width="87.7832" x="424" y="196"/><ellipse cx="439" cy="216.1328" fill="#ADD8E6" rx="11" ry="11" style="stroke:#181818;stroke-width:1;"/><path d="M434.7188,209.7422 L437.6406,209.7422 L439.1094,215.1797 L440.5781,209.7422 L443.5156,209.7422 L443.5156,222.1328 L441.4063,222.1328 L441.4063,212.2109 L440.0938,217.6328 L438.1563,217.6328 L436.8281,212.2109 L436.8281,222.1328 L434.7188,222.1328 L434.7188,209.7422 Z " fill="#000000"/><text fill="#000000" font-family="sans-serif" font-size="12" font-style="italic" lengthAdjust="spacing" textLength="59.7832" x="451" y="212.1387">&#171;module&#187;</text><text fill="#000000" font-family="sans-serif" font-size="14" lengthAdjust="spacing" textLength="22.832" x="469.4756" y="227.9639">trlc</text><line style="stroke:#181818;stroke-width:0.5;" x1="425" x2="510.7832" y1="236.2656" y2="236.2656"/><line style="stroke:#181818;stroke-width:0.5;" x1="425" x2="510.7832" y1="244.2656" y2="244.2656"/></g><g id="elem_GMN5"><path d="M217,204 L217,244.2656 A0,0 0 0 0 217,244.2656 L389.0298,244.2656 A0,0 0 0 0 389.0298,244.2656 L389.0298,228 L423.9,224 L389.0298,220 L389.0298,214 L379.0298,204 L217,204 A0,0 0 0 0 217,204 " fill="#FEFFDD" style="stroke:#181818;stroke-width:0.5;"/><path d="M379.0298,204 L379.0298,214 L389.0298,214 L379.0298,204 " fill="#FEFFDD" style="stroke:#181818;stroke-width:0.5;"/><text fill="#000000" font-family="sans-serif" font-size="13" lengthAdjust="spacing" textLength="134.6338" x="223" y="221.0669">Module for obtaining</text><text fill="#000000" font-family="sans-serif" font-size="13" lengthAdjust="spacing" textLength="151.0298" x="223" y="236.1997">the TRLC symbol table.</text></g><!--class AbstractConverter--><g id="elem_AbstractConverter"><rect codeLine="19" fill="#F1F1F1" height="48" id="AbstractConverter" rx="2.5" ry="2.5" style="stroke:#181818;stroke-width:0.5;" width="160.4951" x="22" y="200"/><ellipse cx="37" cy="216" fill="#A9DCDF" rx="11" ry="11" style="stroke:#181818;stroke-width:1;"/><path d="M37.1094,211.3438 L35.9531,216.4219 L38.2813,216.4219 L37.1094,211.3438 Z M35.625,209.1094 L38.6094,209.1094 L41.9688,221.5 L39.5156,221.5 L38.75,218.4375 L35.4688,218.4375 L34.7188,221.5 L32.2813,221.5 L35.625,209.1094 Z " fill="#000000"/><text fill="#000000" font-family="sans-serif" font-size="14" font-style="italic" lengthAdjust="spacing" textLength="128.4951" x="51" y="220.8467">AbstractConverter</text><line style="stroke:#181818;stroke-width:0.5;" x1="23" x2="181.4951" y1="232" y2="232"/><line style="stroke:#181818;stroke-width:0.5;" x1="23" x2="181.4951" y1="240" y2="240"/></g><!--class ItemWalker--><g id="elem_ItemWalker"><rect codeLine="2" fill="#F1F1F1" height="129.4844" id="ItemWalker" rx="2.5" ry="2.5" style="stroke:#181818;stroke-width:0.5;" width="417.8359" x="76" y="7"/><ellipse cx="240.3394" cy="23" fill="#ADD1B2" rx="11" ry="11" style="stroke:#181818;stroke-width:1;"/><path d="M243.3081,28.6406 Q242.73,28.9375 242.0894,29.0781 Q241.4487,29.2344 240.7456,29.2344 Q238.2456,29.2344 236.9175,27.5938 Q235.605,25.9375 235.605,22.8125 Q235.605,19.6875 236.9175,18.0313 Q238.2456,16.375 240.7456,16.375 Q241.4487,16.375 242.0894,16.5313 Q242.7456,16.6875 243.3081,16.9844 L243.3081,19.7031 Q242.6831,19.125 242.0894,18.8594 Q241.4956,18.5781 240.8706,18.5781 Q239.5269,18.5781 238.8394,19.6563 Q238.1519,20.7188 238.1519,22.8125 Q238.1519,24.9063 238.8394,25.9844 Q239.5269,27.0469 240.8706,27.0469 Q241.4956,27.0469 242.0894,26.7813 Q242.6831,26.5 243.3081,25.9219 L243.3081,28.6406 Z " fill="#000000"/><text fill="#000000" font-family="sans-serif" font-size="14" lengthAdjust="spacing" textLength="80.6572" x="260.8394" y="27.8467">ItemWalker</text><line style="stroke:#181818;stroke-width:0.5;" x1="77" x2="492.8359" y1="39" y2="39"/><line style="stroke:#181818;stroke-width:0.5;" x1="77" x2="492.8359" y1="47" y2="47"/><ellipse cx="87" cy="60.6484" fill="#84BE84" rx="3" ry="3" style="stroke:#038048;stroke-width:1;"/><text fill="#000000" font-family="sans-serif" font-size="14" lengthAdjust="spacing" textLength="391.8359" x="96" y="63.9951">__init__(args: Any, converter: AbstractConverter) : None</text><ellipse cx="87" cy="76.9453" fill="#84BE84" rx="3" ry="3" style="stroke:#038048;stroke-width:1;"/><text fill="#000000" font-family="sans-serif" font-size="14" lengthAdjust="spacing" textLength="345.1055" x="96" y="80.292">walk_symbols(symbol_table: Symbol_Table) : Ret</text><rect fill="#F24D5C" height="6" style="stroke:#C82930;stroke-width:1;" width="6" x="84" y="90.2422"/><text fill="#000000" font-family="sans-serif" font-size="14" lengthAdjust="spacing" textLength="315.4443" x="96" y="96.5889">_walk_file(file_name: str, item_list: Any) : Ret</text><rect fill="#F24D5C" height="6" style="stroke:#C82930;stroke-width:1;" width="6" x="84" y="106.5391"/><text fill="#000000" font-family="sans-serif" font-size="14" lengthAdjust="spacing" textLength="222.2432" x="96" y="112.8857">_walk_items(item_list: list) : Ret</text><rect fill="#F24D5C" height="6" style="stroke:#C82930;stroke-width:1;" width="6" x="84" y="122.8359"/><text fill="#000000" font-family="sans-serif" font-size="14" lengthAdjust="spacing" textLength="190.3809" x="96" y="129.1826">_visit_item(item: Any) : Ret</text></g><!--link ItemWalker to AbstractConverter--><g id="link_ItemWalker_AbstractConverter"><path codeLine="24" d="M207.66,136.11 C180.15,158.73 155.5238,178.9784 134.7838,196.0384 " fill="none" id="ItemWalker-to-AbstractConverter" style="stroke:#181818;stroke-width:1;stroke-dasharray:7.0,7.0;"/><polygon fill="#181818" points="130.15,199.85,139.6417,197.2218,134.0115,196.6737,134.5596,191.0434,130.15,199.85" style="stroke:#181818;stroke-width:1;"/></g><!--link ItemWalker to trlc--><g id="link_ItemWalker_trlc"><path codeLine="25" d="M386.15,136.06 C393.38,141.56 400.41,147.24 407,153 C421.68,165.84 432.318,177.5302 443.458,191.1902 " fill="none" id="ItemWalker-to-trlc" style="stroke:#181818;stroke-width:1;stroke-dasharray:7.0,7.0;"/><polygon fill="#181818" points="447.25,195.84,444.6619,186.3373,444.09,191.9652,438.4621,191.3933,447.25,195.84" style="stroke:#181818;stroke-width:1;"/></g><!--SRC=[RP51QiCm44NtFiMGbKlT7204GqatWQQBDD2ba9Mn8o9BGPgaXDAxTpHsswIfC18ZlJ_- -Z9EfmHBmlvDkpr6-2Y0nxrIrbjIgjInIpDuzESAJF0dZ8IHwoPHr8OMtrjtC8ENu75GltClbSvz4rmgXrMHRXpEu7MeDhdAeZMIQ1wKY5hhiCoJyhfdd7zJWMLxojb4OkGVLGPIUO7b-PexsSJtoOXmLvq-Y-AWpLvt29CdFA3VeZSMqsHCmqX859s1-RnSGULijwF67Va6VTWU7TRrY7AhlFX020vRWj2AK7RpM0aFROWG6jASikz-3cc7i5a_Bs3832IpgHopAUawzDTZ_hSFyUk3lujtdKxhM_Wl84w_0000]--></g></svg>