<svg xmlns="http://www.w3.org/2000/svg" xmlns:xlink="http://www.w3.org/1999/xlink" contentStyleType="text/css" height="407px" preserveAspectRatio="none" style="width:927px;height:407px;background:#FFFFFF;" version="1.1" viewBox="0 0 927 407" width="927px" zoomAndPan="magnify"><defs/><g><!--cluster fileSystemSrc--><g id="cluster_fileSystemSrc"><path d="M6,16 C6,6 183.5,6 183.5,6 C183.5,6 361,6 361,16 L361,380 C361,390 183.5,390 183.5,390 C183.5,390 6,390 6,380 L6,16 " fill="none" style="stroke:#181818;stroke-width:1;"/><path d="M6,16 C6,26 183.5,26 183.5,26 C183.5,26 361,26 361,16 " fill="none" style="stroke:#181818;stroke-width:1;"/><text fill="#000000" font-family="sans-serif" font-size="14" font-weight="bold" lengthAdjust="spacing" textLength="85.2236" x="140.8882" y="40.9951">Filesystem</text></g><!--cluster fileSystemDst--><g id="cluster_fileSystemDst"><path d="M734,158 C734,148 822,148 822,148 C822,148 910,148 910,158 L910,240 C910,250 822,250 822,250 C822,250 734,250 734,240 L734,158 " fill="none" style="stroke:#181818;stroke-width:1;"/><path d="M734,158 C734,168 822,168 822,168 C822,168 910,168 910,158 " fill="none" style="stroke:#181818;stroke-width:1;"/><text fill="#000000" font-family="sans-serif" font-size="14" font-weight="bold" lengthAdjust="spacing" textLength="85.2236" x="779.3882" y="182.9951">Filesystem</text></g><!--cluster system--><g id="cluster_system"><rect fill="none" height="115" rx="2.5" ry="2.5" style="stroke:#181818;stroke-width:1;" width="195" x="450" y="149"/><text fill="#000000" font-family="sans-serif" font-size="14" font-weight="bold" lengthAdjust="spacing" textLength="58.3174" x="518.3413" y="163.9951">System</text></g><!--entity rlsFiles--><g id="elem_rlsFiles"><path d="M22,59 L22,106.5938 A2.5,2.5 0 0 0 24.5,109.0938 L342.3389,109.0938 A2.5,2.5 0 0 0 344.8389,106.5938 L344.8389,66.5 L334.8389,56.5 L24.5,56.5 A2.5,2.5 0 0 0 22,59 " fill="#F1F1F1" style="stroke:#181818;stroke-width:0.5;"/><path d="M334.8389,56.5 L334.8389,64 A2.5,2.5 0 0 0 337.3389,66.5 L344.8389,66.5 " fill="#F1F1F1" style="stroke:#181818;stroke-width:0.5;"/><text fill="#000000" font-family="sans-serif" font-size="14" lengthAdjust="spacing" textLength="302.8389" x="32" y="79.4951">Requirement Specification Language file(s)</text><text fill="#000000" font-family="sans-serif" font-size="14" lengthAdjust="spacing" textLength="39.3135" x="32" y="95.792">(*.rsl)</text></g><!--entity srcFiles--><g id="elem_srcFiles"><path d="M127.5,147 L127.5,194.5938 A2.5,2.5 0 0 0 130,197.0938 L237.3809,197.0938 A2.5,2.5 0 0 0 239.8809,194.5938 L239.8809,154.5 L229.8809,144.5 L130,144.5 A2.5,2.5 0 0 0 127.5,147 " fill="#F1F1F1" style="stroke:#181818;stroke-width:0.5;"/><path d="M229.8809,144.5 L229.8809,152 A2.5,2.5 0 0 0 232.3809,154.5 L239.8809,154.5 " fill="#F1F1F1" style="stroke:#181818;stroke-width:0.5;"/><text fill="#000000" font-family="sans-serif" font-size="14" lengthAdjust="spacing" textLength="92.3809" x="137.5" y="167.4951">Source file(s)</text><text fill="#000000" font-family="sans-serif" font-size="14" lengthAdjust="spacing" textLength="45.2061" x="137.5" y="183.792">(*.trlc)</text></g><!--entity translationFile--><g id="elem_translationFile"><path d="M121.5,235 L121.5,282.5938 A2.5,2.5 0 0 0 124,285.0938 L243.1113,285.0938 A2.5,2.5 0 0 0 245.6113,282.5938 L245.6113,242.5 L235.6113,232.5 L124,232.5 A2.5,2.5 0 0 0 121.5,235 " fill="#F1F1F1" style="stroke:#181818;stroke-width:0.5;"/><path d="M235.6113,232.5 L235.6113,240 A2.5,2.5 0 0 0 238.1113,242.5 L245.6113,242.5 " fill="#F1F1F1" style="stroke:#181818;stroke-width:0.5;"/><text fill="#000000" font-family="sans-serif" font-size="14" lengthAdjust="spacing" textLength="104.1113" x="131.5" y="255.4951">Translation file</text><text fill="#000000" font-family="sans-serif" font-size="14" lengthAdjust="spacing" textLength="50.9961" x="131.5" y="271.792">(*.json)</text></g><!--entity projectSpecificConversionFile--><g id="elem_projectSpecificConversionFile"><path d="M35,323 L35,370.5938 A2.5,2.5 0 0 0 37.5,373.0938 L329.3213,373.0938 A2.5,2.5 0 0 0 331.8213,370.5938 L331.8213,330.5 L321.8213,320.5 L37.5,320.5 A2.5,2.5 0 0 0 35,323 " fill="#F1F1F1" style="stroke:#181818;stroke-width:0.5;"/><path d="M321.8213,320.5 L321.8213,328 A2.5,2.5 0 0 0 324.3213,330.5 L331.8213,330.5 " fill="#F1F1F1" style="stroke:#181818;stroke-width:0.5;"/><text fill="#000000" font-family="sans-serif" font-size="14" lengthAdjust="spacing" textLength="276.8213" x="45" y="343.4951">Project specific conversion file (PRJSCF)</text><text fill="#000000" font-family="sans-serif" font-size="14" lengthAdjust="spacing" textLength="39.5459" x="45" y="359.792">(*.py)</text></g><!--entity dstFiles--><g id="elem_dstFiles"><path d="M750,200.5 L750,231.7969 A2.5,2.5 0 0 0 752.5,234.2969 L891.8252,234.2969 A2.5,2.5 0 0 0 894.3252,231.7969 L894.3252,208 L884.3252,198 L752.5,198 A2.5,2.5 0 0 0 750,200.5 " fill="#F1F1F1" style="stroke:#181818;stroke-width:0.5;"/><path d="M884.3252,198 L884.3252,205.5 A2.5,2.5 0 0 0 886.8252,208 L894.3252,208 " fill="#F1F1F1" style="stroke:#181818;stroke-width:0.5;"/><text fill="#000000" font-family="sans-serif" font-size="14" lengthAdjust="spacing" textLength="124.3252" x="760" y="220.9951">Destination file(s)</text></g><!--entity tool--><g id="elem_tool"><rect fill="#F1F1F1" height="62.5938" rx="2.5" ry="2.5" style="stroke:#181818;stroke-width:0.5;" width="162.7529" x="466" y="184.5"/><rect fill="#F1F1F1" height="10" style="stroke:#181818;stroke-width:0.5;" width="15" x="608.7529" y="189.5"/><rect fill="#F1F1F1" height="2" style="stroke:#181818;stroke-width:0.5;" width="4" x="606.7529" y="191.5"/><rect fill="#F1F1F1" height="2" style="stroke:#181818;stroke-width:0.5;" width="4" x="606.7529" y="195.5"/><text fill="#000000" font-family="sans-serif" font-size="14" font-style="italic" lengthAdjust="spacing" textLength="43.791" x="520.481" y="217.4951">&#171;tool&#187;</text><text fill="#000000" font-family="sans-serif" font-size="14" lengthAdjust="spacing" textLength="122.7529" x="481" y="233.792">pyTRLCConverter</text></g><!--link rlsFiles to tool--><g id="link_rlsFiles_tool"><path d="M339,109.71 C339,141.06 339,188.83 339,188.83 C339,188.83 401.51,188.83 459.99,188.83 " fill="none" id="rlsFiles-to-tool" style="stroke:#181818;stroke-width:1;stroke-dasharray:7.0,7.0;"/><polygon fill="#181818" points="465.99,188.83,456.99,184.83,460.99,188.83,456.99,192.83,465.99,188.83" style="stroke:#181818;stroke-width:1;"/><text fill="#000000" font-family="sans-serif" font-size="13" lengthAdjust="spacing" textLength="42.6816" x="363.93" y="201.8969">&#171;flow&#187;</text></g><!--link srcFiles to tool--><g id="link_srcFiles_tool"><path d="M239.58,193.17 C300,193.17 390.75,193.17 459.67,193.17 " fill="none" id="srcFiles-to-tool" style="stroke:#181818;stroke-width:1;stroke-dasharray:7.0,7.0;"/><polygon fill="#181818" points="465.67,193.17,456.67,189.17,460.67,193.17,456.67,197.17,465.67,193.17" style="stroke:#181818;stroke-width:1;"/><text fill="#000000" font-family="sans-serif" font-size="13" lengthAdjust="spacing" textLength="42.6816" x="309.62" y="206.2369">&#171;flow&#187;</text></g><!--link translationFile to tool--><g id="link_translationFile_tool"><path d="M245.66,237.5 C306.37,237.5 393.11,237.5 459.77,237.5 " fill="none" id="translationFile-to-tool" style="stroke:#181818;stroke-width:1;stroke-dasharray:7.0,7.0;"/><polygon fill="#181818" points="465.77,237.5,456.77,233.5,460.77,237.5,456.77,241.5,465.77,237.5" style="stroke:#181818;stroke-width:1;"/><text fill="#000000" font-family="sans-serif" font-size="13" lengthAdjust="spacing" textLength="42.6816" x="369.6656" y="250.5669">&#171;flow&#187;</text><text fill="#000000" font-family="sans-serif" font-size="13" lengthAdjust="spacing" textLength="68.5928" x="356.71" y="265.6997">&#171;optional&#187;</text></g><!--link projectSpecificConversionFile to tool--><g id="link_projectSpecificConversionFile_tool"><path d="M289,320.36 C289,289.4 289,242.5 289,242.5 C289,242.5 383.98,242.5 459.71,242.5 " fill="none" id="projectSpecificConversionFile-to-tool" style="stroke:#181818;stroke-width:1;stroke-dasharray:7.0,7.0;"/><polygon fill="#181818" points="465.71,242.5,456.71,238.5,460.71,242.5,456.71,246.5,465.71,242.5" style="stroke:#181818;stroke-width:1;"/><text fill="#000000" font-family="sans-serif" font-size="13" lengthAdjust="spacing" textLength="42.6816" x="282.3756" y="255.5669">&#171;flow&#187;</text><text fill="#000000" font-family="sans-serif" font-size="13" lengthAdjust="spacing" textLength="68.5928" x="269.42" y="270.6997">&#171;optional&#187;</text></g><!--link tool to dstFiles--><g id="link_tool_dstFiles"><path d="M629.12,216 C667.36,216 706.54,216 743.56,216 " fill="none" id="tool-to-dstFiles" style="stroke:#181818;stroke-width:1;stroke-dasharray:7.0,7.0;"/><polygon fill="#181818" points="749.56,216,740.56,212,744.56,216,740.56,220,749.56,216" style="stroke:#181818;stroke-width:1;"/><text fill="#000000" font-family="sans-serif" font-size="13" lengthAdjust="spacing" textLength="42.6816" x="646.34" y="229.0669">&#171;flow&#187;</text></g><!--SRC=[ZP7BRi8m44Nt-OfHLj15Fg2AiW6ngBf0X2KRrqp0rB5Tpz0gglhlzOEKXr15Ll7utZCprnex1hRWrMxFi5KU9Ijh2dfNnWalUj3A80yEmNhUswBO2XPlWX3AXT980p7s9GY2BXpRT6ozXEy2mXThKAxmunZ8FHg6rg5KdP8Yje5NONP7iSCadD1qOoPFbISzJKIlAVMuGBNswEMrdBsMMKzUtkhNNXZIkLci9CU1hCaEFbz7vuLnwUqXP05qcXUaDP_eQGJ1PBbwQMUBF8CRCizbrxZaxC-Jw3yFfJSdlaflZiJAd5S8UoV7bZXl6x3nsKAKAQ4pC-C3BD6axPqryGrADwnNhxCy7QCleQxPMjqqAPFmbvYdzA6ggYPLduEkq_QhQOenwhkNDwdUqsnCNLiN5IAqBVxDxG5_4M-pRepbOfvV]--></g></svg>