<svg xmlns="http://www.w3.org/2000/svg" xmlns:xlink="http://www.w3.org/1999/xlink" contentStyleType="text/css" height="986px" preserveAspectRatio="none" style="width:754px;height:986px;background:#FFFFFF;" version="1.1" viewBox="0 0 754 986" width="754px" zoomAndPan="magnify"><defs/><g><rect fill="#FFFFFF" height="881.3906" style="stroke:#181818;stroke-width:1;" width="10" x="60.4248" y="52.2969"/><rect fill="#FFFFFF" height="514.9297" style="stroke:#181818;stroke-width:1;" width="10" x="446.417" y="389.625"/><rect fill="#FFFFFF" height="14" style="stroke:#181818;stroke-width:1;" width="10" x="615.2559" y="105.5625"/><rect fill="#FFFFFF" height="14" style="stroke:#181818;stroke-width:1;" width="10" x="615.2559" y="179.8281"/><rect fill="#FFFFFF" height="14" style="stroke:#181818;stroke-width:1;" width="10" x="615.2559" y="222.9609"/><rect fill="#FFFFFF" height="29.1328" style="stroke:#181818;stroke-width:1;" width="10" x="615.2559" y="331.3594"/><rect fill="#FFFFFF" height="29.1328" style="stroke:#181818;stroke-width:1;" width="10" x="615.2559" y="418.7578"/><rect fill="#FFFFFF" height="29.1328" style="stroke:#181818;stroke-width:1;" width="10" x="615.2559" y="477.0234"/><rect fill="#FFFFFF" height="14" style="stroke:#181818;stroke-width:1;" width="10" x="615.2559" y="559.4219"/><rect fill="#FFFFFF" height="29.1328" style="stroke:#181818;stroke-width:1;" width="10" x="615.2559" y="650.8203"/><rect fill="#FFFFFF" height="29.1328" style="stroke:#181818;stroke-width:1;" width="10" x="615.2559" y="723.8906"/><rect fill="#FFFFFF" height="14" style="stroke:#181818;stroke-width:1;" width="10" x="615.2559" y="796.1563"/><rect fill="#FFFFFF" height="29.1328" style="stroke:#181818;stroke-width:1;" width="10" x="615.2559" y="846.2891"/><rect fill="#FFFFFF" height="29.1328" style="stroke:#181818;stroke-width:1;" width="10" x="718.2725" y="273.0938"/><rect fill="none" height="60.2656" style="stroke:#000000;stroke-width:1.5;" width="667.4102" x="30.9351" y="67.2969"/><rect fill="none" height="103.3984" style="stroke:#000000;stroke-width:1.5;" width="667.4102" x="30.9351" y="141.5625"/><rect fill="none" height="297" style="stroke:#000000;stroke-width:1.5;" width="344.2568" x="374.0884" y="521.1563"/><rect fill="none" height="179.6016" style="stroke:#000000;stroke-width:1.5;" width="324.2568" x="384.0884" y="588.4219"/><rect fill="none" height="148.4688" style="stroke:#000000;stroke-width:1.5;" width="304.2568" x="394.0884" y="612.5547"/><line style="stroke:#181818;stroke-width:0.5;stroke-dasharray:5.0,5.0;" x1="64.9351" x2="64.9351" y1="36.2969" y2="951.6875"/><line style="stroke:#181818;stroke-width:0.5;stroke-dasharray:5.0,5.0;" x1="451.0884" x2="451.0884" y1="36.2969" y2="951.6875"/><line style="stroke:#181818;stroke-width:0.5;stroke-dasharray:5.0,5.0;" x1="620.1665" x2="620.1665" y1="36.2969" y2="951.6875"/><line style="stroke:#181818;stroke-width:0.5;stroke-dasharray:5.0,5.0;" x1="722.3452" x2="722.3452" y1="36.2969" y2="951.6875"/><rect fill="#E2E2F0" height="30.2969" rx="2.5" ry="2.5" style="stroke:#181818;stroke-width:0.5;" width="48.9795" x="40.9351" y="5"/><text fill="#000000" font-family="sans-serif" font-size="14" lengthAdjust="spacing" textLength="34.9795" x="47.9351" y="24.9951">main</text><rect fill="#E2E2F0" height="30.2969" rx="2.5" ry="2.5" style="stroke:#181818;stroke-width:0.5;" width="48.9795" x="40.9351" y="950.6875"/><text fill="#000000" font-family="sans-serif" font-size="14" lengthAdjust="spacing" textLength="34.9795" x="47.9351" y="970.6826">main</text><rect fill="#E2E2F0" height="30.2969" rx="2.5" ry="2.5" style="stroke:#181818;stroke-width:0.5;" width="94.6572" x="404.0884" y="5"/><text fill="#000000" font-family="sans-serif" font-size="14" lengthAdjust="spacing" textLength="80.6572" x="411.0884" y="24.9951">ItemWalker</text><rect fill="#E2E2F0" height="30.2969" rx="2.5" ry="2.5" style="stroke:#181818;stroke-width:0.5;" width="94.6572" x="404.0884" y="950.6875"/><text fill="#000000" font-family="sans-serif" font-size="14" lengthAdjust="spacing" textLength="80.6572" x="411.0884" y="970.6826">ItemWalker</text><rect fill="#E2E2F0" height="30.2969" rx="2.5" ry="2.5" style="stroke:#181818;stroke-width:0.5;" width="136.1787" x="552.1665" y="5"/><text fill="#000000" font-family="sans-serif" font-size="14" lengthAdjust="spacing" textLength="122.1787" x="559.1665" y="24.9951">Format converter</text><rect fill="#E2E2F0" height="30.2969" rx="2.5" ry="2.5" style="stroke:#181818;stroke-width:0.5;" width="136.1787" x="552.1665" y="950.6875"/><text fill="#000000" font-family="sans-serif" font-size="14" lengthAdjust="spacing" textLength="122.1787" x="559.1665" y="970.6826">Format converter</text><rect fill="#E2E2F0" height="30.2969" rx="2.5" ry="2.5" style="stroke:#181818;stroke-width:0.5;" width="49.8545" x="698.3452" y="5"/><text fill="#000000" font-family="sans-serif" font-size="14" lengthAdjust="spacing" textLength="35.8545" x="705.3452" y="24.9951">TRLC</text><rect fill="#E2E2F0" height="30.2969" rx="2.5" ry="2.5" style="stroke:#181818;stroke-width:0.5;" width="49.8545" x="698.3452" y="950.6875"/><text fill="#000000" font-family="sans-serif" font-size="14" lengthAdjust="spacing" textLength="35.8545" x="705.3452" y="970.6826">TRLC</text><rect fill="#FFFFFF" height="881.3906" style="stroke:#181818;stroke-width:1;" width="10" x="60.4248" y="52.2969"/><rect fill="#FFFFFF" height="514.9297" style="stroke:#181818;stroke-width:1;" width="10" x="446.417" y="389.625"/><rect fill="#FFFFFF" height="14" style="stroke:#181818;stroke-width:1;" width="10" x="615.2559" y="105.5625"/><rect fill="#FFFFFF" height="14" style="stroke:#181818;stroke-width:1;" width="10" x="615.2559" y="179.8281"/><rect fill="#FFFFFF" height="14" style="stroke:#181818;stroke-width:1;" width="10" x="615.2559" y="222.9609"/><rect fill="#FFFFFF" height="29.1328" style="stroke:#181818;stroke-width:1;" width="10" x="615.2559" y="331.3594"/><rect fill="#FFFFFF" height="29.1328" style="stroke:#181818;stroke-width:1;" width="10" x="615.2559" y="418.7578"/><rect fill="#FFFFFF" height="29.1328" style="stroke:#181818;stroke-width:1;" width="10" x="615.2559" y="477.0234"/><rect fill="#FFFFFF" height="14" style="stroke:#181818;stroke-width:1;" width="10" x="615.2559" y="559.4219"/><rect fill="#FFFFFF" height="29.1328" style="stroke:#181818;stroke-width:1;" width="10" x="615.2559" y="650.8203"/><rect fill="#FFFFFF" height="29.1328" style="stroke:#181818;stroke-width:1;" width="10" x="615.2559" y="723.8906"/><rect fill="#FFFFFF" height="14" style="stroke:#181818;stroke-width:1;" width="10" x="615.2559" y="796.1563"/><rect fill="#FFFFFF" height="29.1328" style="stroke:#181818;stroke-width:1;" width="10" x="615.2559" y="846.2891"/><rect fill="#FFFFFF" height="29.1328" style="stroke:#181818;stroke-width:1;" width="10" x="718.2725" y="273.0938"/><polygon fill="#181818" points="48.4248,48.2969,58.4248,52.2969,48.4248,56.2969,52.4248,52.2969" style="stroke:#181818;stroke-width:1;"/><line style="stroke:#181818;stroke-width:1;" x1="0" x2="54.4248" y1="52.2969" y2="52.2969"/><path d="M30.9351,67.2969 L107.5591,67.2969 L107.5591,74.4297 L97.5591,84.4297 L30.9351,84.4297 L30.9351,67.2969 " fill="#EEEEEE" style="stroke:#000000;stroke-width:1.5;"/><rect fill="none" height="60.2656" style="stroke:#000000;stroke-width:1.5;" width="667.4102" x="30.9351" y="67.2969"/><text fill="#000000" font-family="sans-serif" font-size="13" font-weight="bold" lengthAdjust="spacing" textLength="31.624" x="45.9351" y="80.3638">loop</text><text fill="#000000" font-family="sans-serif" font-size="11" font-weight="bold" lengthAdjust="spacing" textLength="272.1641" x="122.5591" y="79.5073">[every converter in built-in converter table]</text><polygon fill="#181818" points="603.2559,101.5625,613.2559,105.5625,603.2559,109.5625,607.2559,105.5625" style="stroke:#181818;stroke-width:1;"/><line style="stroke:#181818;stroke-width:1;" x1="70.4248" x2="609.2559" y1="105.5625" y2="105.5625"/><text fill="#000000" font-family="sans-serif" font-size="13" lengthAdjust="spacing" textLength="307.3027" x="77.4248" y="100.4966">register command specific program arguments</text><polygon fill="#181818" points="81.4248,115.5625,71.4248,119.5625,81.4248,123.5625,77.4248,119.5625" style="stroke:#181818;stroke-width:1;"/><line style="stroke:#181818;stroke-width:1;stroke-dasharray:2.0,2.0;" x1="75.4248" x2="619.2559" y1="119.5625" y2="119.5625"/><path d="M30.9351,141.5625 L95.3779,141.5625 L95.3779,148.6953 L85.3779,158.6953 L30.9351,158.6953 L30.9351,141.5625 " fill="#EEEEEE" style="stroke:#000000;stroke-width:1.5;"/><rect fill="none" height="103.3984" style="stroke:#000000;stroke-width:1.5;" width="667.4102" x="30.9351" y="141.5625"/><text fill="#000000" font-family="sans-serif" font-size="13" font-weight="bold" lengthAdjust="spacing" textLength="19.4429" x="45.9351" y="154.6294">alt</text><text fill="#000000" font-family="sans-serif" font-size="11" font-weight="bold" lengthAdjust="spacing" textLength="254.4609" x="110.3779" y="153.7729">["project specific converter is available"]</text><polygon fill="#181818" points="603.2559,175.8281,613.2559,179.8281,603.2559,183.8281,607.2559,179.8281" style="stroke:#181818;stroke-width:1;"/><line style="stroke:#181818;stroke-width:1;" x1="70.4248" x2="609.2559" y1="179.8281" y2="179.8281"/><text fill="#000000" font-family="sans-serif" font-size="13" lengthAdjust="spacing" textLength="147.583" x="77.4248" y="174.7622">load converter module</text><polygon fill="#181818" points="81.4248,189.8281,71.4248,193.8281,81.4248,197.8281,77.4248,193.8281" style="stroke:#181818;stroke-width:1;"/><line style="stroke:#181818;stroke-width:1;stroke-dasharray:2.0,2.0;" x1="75.4248" x2="619.2559" y1="193.8281" y2="193.8281"/><polygon fill="#181818" points="603.2559,218.9609,613.2559,222.9609,603.2559,226.9609,607.2559,222.9609" style="stroke:#181818;stroke-width:1;"/><line style="stroke:#181818;stroke-width:1;" x1="70.4248" x2="609.2559" y1="222.9609" y2="222.9609"/><text fill="#000000" font-family="sans-serif" font-size="13" lengthAdjust="spacing" textLength="307.3027" x="77.4248" y="217.895">register command specific program arguments</text><polygon fill="#181818" points="81.4248,232.9609,71.4248,236.9609,81.4248,240.9609,77.4248,236.9609" style="stroke:#181818;stroke-width:1;"/><line style="stroke:#181818;stroke-width:1;stroke-dasharray:2.0,2.0;" x1="75.4248" x2="619.2559" y1="236.9609" y2="236.9609"/><polygon fill="#181818" points="706.2725,269.0938,716.2725,273.0938,706.2725,277.0938,710.2725,273.0938" style="stroke:#181818;stroke-width:1;"/><line style="stroke:#181818;stroke-width:1;" x1="70.4248" x2="712.2725" y1="273.0938" y2="273.0938"/><text fill="#000000" font-family="sans-serif" font-size="13" lengthAdjust="spacing" textLength="278.167" x="77.4248" y="268.0278">get TRLC symbols using sources argument</text><polygon fill="#181818" points="81.4248,298.2266,71.4248,302.2266,81.4248,306.2266,77.4248,302.2266" style="stroke:#181818;stroke-width:1;"/><line style="stroke:#181818;stroke-width:1;stroke-dasharray:2.0,2.0;" x1="75.4248" x2="722.2725" y1="302.2266" y2="302.2266"/><text fill="#000000" font-family="sans-serif" font-size="13" lengthAdjust="spacing" textLength="91.146" x="87.4248" y="297.1606">TRLC symbols</text><polygon fill="#181818" points="603.2559,327.3594,613.2559,331.3594,603.2559,335.3594,607.2559,331.3594" style="stroke:#181818;stroke-width:1;"/><line style="stroke:#181818;stroke-width:1;" x1="70.4248" x2="609.2559" y1="331.3594" y2="331.3594"/><text fill="#000000" font-family="sans-serif" font-size="13" lengthAdjust="spacing" textLength="311.0796" x="77.4248" y="326.2935">Create converter based on command argument</text><polygon fill="#181818" points="81.4248,356.4922,71.4248,360.4922,81.4248,364.4922,77.4248,360.4922" style="stroke:#181818;stroke-width:1;"/><line style="stroke:#181818;stroke-width:1;stroke-dasharray:2.0,2.0;" x1="75.4248" x2="619.2559" y1="360.4922" y2="360.4922"/><text fill="#000000" font-family="sans-serif" font-size="13" lengthAdjust="spacing" textLength="62.8164" x="87.4248" y="355.4263">converter</text><polygon fill="#181818" points="434.417,385.625,444.417,389.625,434.417,393.625,438.417,389.625" style="stroke:#181818;stroke-width:1;"/><line style="stroke:#181818;stroke-width:1;" x1="70.4248" x2="440.417" y1="389.625" y2="389.625"/><text fill="#000000" font-family="sans-serif" font-size="13" lengthAdjust="spacing" textLength="356.9922" x="77.4248" y="384.5591">walk symbols using converter and program arguments</text><polygon fill="#181818" points="603.2559,414.7578,613.2559,418.7578,603.2559,422.7578,607.2559,418.7578" style="stroke:#181818;stroke-width:1;"/><line style="stroke:#181818;stroke-width:1;" x1="456.417" x2="609.2559" y1="418.7578" y2="418.7578"/><text fill="#000000" font-family="sans-serif" font-size="13" lengthAdjust="spacing" textLength="126.9785" x="463.417" y="413.6919">init with arguments</text><polygon fill="#181818" points="467.417,443.8906,457.417,447.8906,467.417,451.8906,463.417,447.8906" style="stroke:#181818;stroke-width:1;"/><line style="stroke:#181818;stroke-width:1;stroke-dasharray:2.0,2.0;" x1="461.417" x2="619.2559" y1="447.8906" y2="447.8906"/><text fill="#000000" font-family="sans-serif" font-size="13" lengthAdjust="spacing" textLength="40.752" x="473.417" y="442.8247">Result</text><polygon fill="#181818" points="603.2559,473.0234,613.2559,477.0234,603.2559,481.0234,607.2559,477.0234" style="stroke:#181818;stroke-width:1;"/><line style="stroke:#181818;stroke-width:1;" x1="456.417" x2="609.2559" y1="477.0234" y2="477.0234"/><text fill="#000000" font-family="sans-serif" font-size="13" lengthAdjust="spacing" textLength="36.353" x="463.417" y="471.9575">begin</text><polygon fill="#181818" points="467.417,502.1563,457.417,506.1563,467.417,510.1563,463.417,506.1563" style="stroke:#181818;stroke-width:1;"/><line style="stroke:#181818;stroke-width:1;stroke-dasharray:2.0,2.0;" x1="461.417" x2="619.2559" y1="506.1563" y2="506.1563"/><text fill="#000000" font-family="sans-serif" font-size="13" lengthAdjust="spacing" textLength="40.752" x="473.417" y="501.0903">Result</text><path d="M374.0884,521.1563 L450.7124,521.1563 L450.7124,528.2891 L440.7124,538.2891 L374.0884,538.2891 L374.0884,521.1563 " fill="#EEEEEE" style="stroke:#000000;stroke-width:1.5;"/><rect fill="none" height="297" style="stroke:#000000;stroke-width:1.5;" width="344.2568" x="374.0884" y="521.1563"/><text fill="#000000" font-family="sans-serif" font-size="13" font-weight="bold" lengthAdjust="spacing" textLength="31.624" x="389.0884" y="534.2231">loop</text><text fill="#000000" font-family="sans-serif" font-size="11" font-weight="bold" lengthAdjust="spacing" textLength="145.2505" x="465.7124" y="533.3667">[every TRLC document]</text><polygon fill="#181818" points="603.2559,555.4219,613.2559,559.4219,603.2559,563.4219,607.2559,559.4219" style="stroke:#181818;stroke-width:1;"/><line style="stroke:#181818;stroke-width:1;" x1="456.417" x2="609.2559" y1="559.4219" y2="559.4219"/><text fill="#000000" font-family="sans-serif" font-size="13" lengthAdjust="spacing" textLength="58.6079" x="463.417" y="554.356">enter file</text><polygon fill="#181818" points="467.417,569.4219,457.417,573.4219,467.417,577.4219,463.417,573.4219" style="stroke:#181818;stroke-width:1;"/><line style="stroke:#181818;stroke-width:1;stroke-dasharray:2.0,2.0;" x1="461.417" x2="619.2559" y1="573.4219" y2="573.4219"/><path d="M384.0884,588.4219 L460.7124,588.4219 L460.7124,595.5547 L450.7124,605.5547 L384.0884,605.5547 L384.0884,588.4219 " fill="#EEEEEE" style="stroke:#000000;stroke-width:1.5;"/><rect fill="none" height="179.6016" style="stroke:#000000;stroke-width:1.5;" width="324.2568" x="384.0884" y="588.4219"/><text fill="#000000" font-family="sans-serif" font-size="13" font-weight="bold" lengthAdjust="spacing" textLength="31.624" x="399.0884" y="601.4888">loop</text><text fill="#000000" font-family="sans-serif" font-size="11" font-weight="bold" lengthAdjust="spacing" textLength="192.4624" x="475.7124" y="600.6323">[every item in TRLC document]</text><path d="M394.0884,612.5547 L458.5313,612.5547 L458.5313,619.6875 L448.5313,629.6875 L394.0884,629.6875 L394.0884,612.5547 " fill="#EEEEEE" style="stroke:#000000;stroke-width:1.5;"/><rect fill="none" height="148.4688" style="stroke:#000000;stroke-width:1.5;" width="304.2568" x="394.0884" y="612.5547"/><text fill="#000000" font-family="sans-serif" font-size="13" font-weight="bold" lengthAdjust="spacing" textLength="19.4429" x="409.0884" y="625.6216">alt</text><text fill="#000000" font-family="sans-serif" font-size="11" font-weight="bold" lengthAdjust="spacing" textLength="112.5029" x="473.5313" y="624.7651">[Item is a section]</text><polygon fill="#181818" points="603.2559,646.8203,613.2559,650.8203,603.2559,654.8203,607.2559,650.8203" style="stroke:#181818;stroke-width:1;"/><line style="stroke:#181818;stroke-width:1;" x1="456.417" x2="609.2559" y1="650.8203" y2="650.8203"/><text fill="#000000" font-family="sans-serif" font-size="13" lengthAdjust="spacing" textLength="100.4263" x="463.417" y="645.7544">convert section</text><polygon fill="#181818" points="467.417,675.9531,457.417,679.9531,467.417,683.9531,463.417,679.9531" style="stroke:#181818;stroke-width:1;"/><line style="stroke:#181818;stroke-width:1;stroke-dasharray:2.0,2.0;" x1="461.417" x2="619.2559" y1="679.9531" y2="679.9531"/><text fill="#000000" font-family="sans-serif" font-size="13" lengthAdjust="spacing" textLength="40.752" x="473.417" y="674.8872">Result</text><line style="stroke:#000000;stroke-width:1;stroke-dasharray:2.0,2.0;" x1="394.0884" x2="698.3452" y1="688.9531" y2="688.9531"/><text fill="#000000" font-family="sans-serif" font-size="11" font-weight="bold" lengthAdjust="spacing" textLength="150.0898" x="399.0884" y="699.1636">[Item is a record object]</text><polygon fill="#181818" points="603.2559,719.8906,613.2559,723.8906,603.2559,727.8906,607.2559,723.8906" style="stroke:#181818;stroke-width:1;"/><line style="stroke:#181818;stroke-width:1;" x1="456.417" x2="609.2559" y1="723.8906" y2="723.8906"/><text fill="#000000" font-family="sans-serif" font-size="13" lengthAdjust="spacing" textLength="139.8389" x="463.417" y="718.8247">convert record object</text><polygon fill="#181818" points="467.417,749.0234,457.417,753.0234,467.417,757.0234,463.417,753.0234" style="stroke:#181818;stroke-width:1;"/><line style="stroke:#181818;stroke-width:1;stroke-dasharray:2.0,2.0;" x1="461.417" x2="619.2559" y1="753.0234" y2="753.0234"/><text fill="#000000" font-family="sans-serif" font-size="13" lengthAdjust="spacing" textLength="40.752" x="473.417" y="747.9575">Result</text><polygon fill="#181818" points="603.2559,792.1563,613.2559,796.1563,603.2559,800.1563,607.2559,796.1563" style="stroke:#181818;stroke-width:1;"/><line style="stroke:#181818;stroke-width:1;" x1="456.417" x2="609.2559" y1="796.1563" y2="796.1563"/><text fill="#000000" font-family="sans-serif" font-size="13" lengthAdjust="spacing" textLength="59.1982" x="463.417" y="791.0903">leave file</text><polygon fill="#181818" points="467.417,806.1563,457.417,810.1563,467.417,814.1563,463.417,810.1563" style="stroke:#181818;stroke-width:1;"/><line style="stroke:#181818;stroke-width:1;stroke-dasharray:2.0,2.0;" x1="461.417" x2="619.2559" y1="810.1563" y2="810.1563"/><polygon fill="#181818" points="603.2559,842.2891,613.2559,846.2891,603.2559,850.2891,607.2559,846.2891" style="stroke:#181818;stroke-width:1;"/><line style="stroke:#181818;stroke-width:1;" x1="456.417" x2="609.2559" y1="846.2891" y2="846.2891"/><text fill="#000000" font-family="sans-serif" font-size="13" lengthAdjust="spacing" textLength="35.0518" x="463.417" y="841.2231">finish</text><polygon fill="#181818" points="467.417,871.4219,457.417,875.4219,467.417,879.4219,463.417,875.4219" style="stroke:#181818;stroke-width:1;"/><line style="stroke:#181818;stroke-width:1;stroke-dasharray:2.0,2.0;" x1="461.417" x2="619.2559" y1="875.4219" y2="875.4219"/><text fill="#000000" font-family="sans-serif" font-size="13" lengthAdjust="spacing" textLength="40.752" x="473.417" y="870.356">Result</text><polygon fill="#181818" points="81.4248,900.5547,71.4248,904.5547,81.4248,908.5547,77.4248,904.5547" style="stroke:#181818;stroke-width:1;"/><line style="stroke:#181818;stroke-width:1;stroke-dasharray:2.0,2.0;" x1="75.4248" x2="450.417" y1="904.5547" y2="904.5547"/><text fill="#000000" font-family="sans-serif" font-size="13" lengthAdjust="spacing" textLength="41.4248" x="87.4248" y="899.4888">Status</text><polygon fill="#181818" points="11,929.6875,1,933.6875,11,937.6875,7,933.6875" style="stroke:#181818;stroke-width:1;"/><line style="stroke:#181818;stroke-width:1;stroke-dasharray:2.0,2.0;" x1="5" x2="64.4248" y1="933.6875" y2="933.6875"/><text fill="#000000" font-family="sans-serif" font-size="13" lengthAdjust="spacing" textLength="41.4248" x="17" y="928.6216">Status</text><!--SRC=[nLJBRkCm3BpxAuZSymD1iPS01Ghqr2wmPrfcNBLw61ATe7zVoevjEN7ZffVrnG95pWnVQZ2mLhf1nx2ngDq6C48w54r-zSHa_w7veD0vdBhZtENH1uiCohiZ1Jux7ZhZVh3D8_w-FEyxBmv65GMsx56nFY8JU5SKsp-zaWBaCzutG0BpEL60Tb2ssl1M3fELiJJK1QKlGO10NKZPGQ1Qn-IllBNeAeWDANtG2fhWwu0MCDIj9STn3lQmtLubbYx9LRrMD9ATWBoJuWaranq1ZwXDqhbP5seyLbcqzLLxcTztalvJ0GRArDWTrCIGUWtnqvRUH6YZTZL4tmP5SIGfPlXzQ1usXxxAPXye3SvKfn8ZLJ98OthBH5T08yASi9_vNVU_o6JYJ3HNnOCUg0TOrAwTPZXfVhke-3baKUOBnTRmAdGfJNPtWMMRrfM_ycegsmgRkCdDGMVp-Jtjw98nQdbeqbelCm_BzTHvoUX0b1NJtiqyLZIUkxKMUgjEkJkPI9cWGCe76RioBVzlPFq8uCVYP2ENpZTq6C8ZtTN20VW6w44cFBxTDORZWWwBzyh8hRm2oPOkHyiN]--></g></svg>