<?plantuml 1.2026.1?><svg xmlns="http://www.w3.org/2000/svg" xmlns:xlink="http://www.w3.org/1999/xlink" contentStyleType="text/css" data-diagram-type="CLASS" height="292px" preserveAspectRatio="none" style="width:379px;height:292px;background:#FFFFFF;" version="1.1" viewBox="0 0 379 292" width="379px" zoomAndPan="magnify"><defs/><g><!--cluster Dependencies--><g class="cluster" data-qualified-name="Dependencies" data-source-line="11" id="ent0003"><path d="M8.5,178 L120.5088,178 A3.75,3.75 0 0 1 123.0088,180.5 L130.0088,200.2969 L369.5,200.2969 A2.5,2.5 0 0 1 372,202.7969 L372,282.5 A2.5,2.5 0 0 1 369.5,285 L8.5,285 A2.5,2.5 0 0 1 6,282.5 L6,180.5 A2.5,2.5 0 0 1 8.5,178" fill="none" style="stroke:#000000;stroke-width:1.5;"/><line style="stroke:#000000;stroke-width:1.5;" x1="6" x2="130.0088" y1="200.2969" y2="200.2969"/><text fill="#000000" font-family="sans-serif" font-size="14" font-weight="bold" lengthAdjust="spacing" textLength="111.0088" x="10" y="192.9951">Dependencies</text></g><!--class sys--><g class="entity" data-qualified-name="Dependencies.sys" data-source-line="12" id="ent0004"><rect fill="#F1F1F1" height="56.2656" rx="2.5" ry="2.5" style="stroke:#181818;stroke-width:0.5;" width="87.7832" x="268" y="213"/><ellipse cx="283" cy="233.1328" fill="#ADD8E6" rx="11" ry="11" style="stroke:#181818;stroke-width:1;"/><path d="M278.7188,226.7422 L281.6406,226.7422 L283.1094,232.1797 L284.5781,226.7422 L287.5156,226.7422 L287.5156,239.1328 L285.4063,239.1328 L285.4063,229.2109 L284.0938,234.6328 L282.1563,234.6328 L280.8281,229.2109 L280.8281,239.1328 L278.7188,239.1328 L278.7188,226.7422 Z " fill="#000000"/><text fill="#000000" font-family="sans-serif" font-size="12" font-style="italic" lengthAdjust="spacing" textLength="59.7832" x="295" y="229.1387">&#171;module&#187;</text><text fill="#000000" font-family="sans-serif" font-size="14" lengthAdjust="spacing" textLength="22.873" x="313.4551" y="244.9639">sys</text><line style="stroke:#181818;stroke-width:0.5;" x1="269" x2="354.7832" y1="253.2656" y2="253.2656"/><line style="stroke:#181818;stroke-width:0.5;" x1="269" x2="354.7832" y1="261.2656" y2="261.2656"/></g><!--class os--><g class="entity" data-qualified-name="Dependencies.os" data-source-line="13" id="ent0005"><rect fill="#F1F1F1" height="56.2656" rx="2.5" ry="2.5" style="stroke:#181818;stroke-width:0.5;" width="87.7832" x="145" y="213"/><ellipse cx="160" cy="233.1328" fill="#ADD8E6" rx="11" ry="11" style="stroke:#181818;stroke-width:1;"/><path d="M155.7188,226.7422 L158.6406,226.7422 L160.1094,232.1797 L161.5781,226.7422 L164.5156,226.7422 L164.5156,239.1328 L162.4063,239.1328 L162.4063,229.2109 L161.0938,234.6328 L159.1563,234.6328 L157.8281,229.2109 L157.8281,239.1328 L155.7188,239.1328 L155.7188,226.7422 Z " fill="#000000"/><text fill="#000000" font-family="sans-serif" font-size="12" font-style="italic" lengthAdjust="spacing" textLength="59.7832" x="172" y="229.1387">&#171;module&#187;</text><text fill="#000000" font-family="sans-serif" font-size="14" lengthAdjust="spacing" textLength="15.8594" x="193.9619" y="244.9639">os</text><line style="stroke:#181818;stroke-width:0.5;" x1="146" x2="231.7832" y1="253.2656" y2="253.2656"/><line style="stroke:#181818;stroke-width:0.5;" x1="146" x2="231.7832" y1="261.2656" y2="261.2656"/></g><!--class toml--><g class="entity" data-qualified-name="Dependencies.toml" data-source-line="14" id="ent0006"><rect fill="#F1F1F1" height="56.2656" rx="2.5" ry="2.5" style="stroke:#181818;stroke-width:0.5;" width="87.7832" x="22" y="213"/><ellipse cx="37" cy="233.1328" fill="#ADD8E6" rx="11" ry="11" style="stroke:#181818;stroke-width:1;"/><path d="M32.7188,226.7422 L35.6406,226.7422 L37.1094,232.1797 L38.5781,226.7422 L41.5156,226.7422 L41.5156,239.1328 L39.4063,239.1328 L39.4063,229.2109 L38.0938,234.6328 L36.1563,234.6328 L34.8281,229.2109 L34.8281,239.1328 L32.7188,239.1328 L32.7188,226.7422 Z " fill="#000000"/><text fill="#000000" font-family="sans-serif" font-size="12" font-style="italic" lengthAdjust="spacing" textLength="59.7832" x="49" y="229.1387">&#171;module&#187;</text><text fill="#000000" font-family="sans-serif" font-size="14" lengthAdjust="spacing" textLength="31.582" x="63.1006" y="244.9639">toml</text><line style="stroke:#181818;stroke-width:0.5;" x1="23" x2="108.7832" y1="253.2656" y2="253.2656"/><line style="stroke:#181818;stroke-width:0.5;" x1="23" x2="108.7832" y1="261.2656" y2="261.2656"/></g><!--class Version--><g class="entity" data-qualified-name="Version" data-source-line="2" id="ent0002"><rect fill="#F1F1F1" height="145.7813" rx="2.5" ry="2.5" style="stroke:#181818;stroke-width:0.5;" width="288.7256" x="44.5" y="7"/><ellipse cx="158.3286" cy="23" fill="#ADD1B2" rx="11" ry="11" style="stroke:#181818;stroke-width:1;"/><path d="M161.2974,28.6406 Q160.7192,28.9375 160.0786,29.0781 Q159.438,29.2344 158.7349,29.2344 Q156.2349,29.2344 154.9067,27.5938 Q153.5942,25.9375 153.5942,22.8125 Q153.5942,19.6875 154.9067,18.0313 Q156.2349,16.375 158.7349,16.375 Q159.438,16.375 160.0786,16.5313 Q160.7349,16.6875 161.2974,16.9844 L161.2974,19.7031 Q160.6724,19.125 160.0786,18.8594 Q159.4849,18.5781 158.8599,18.5781 Q157.5161,18.5781 156.8286,19.6563 Q156.1411,20.7188 156.1411,22.8125 Q156.1411,24.9063 156.8286,25.9844 Q157.5161,27.0469 158.8599,27.0469 Q159.4849,27.0469 160.0786,26.7813 Q160.6724,26.5 161.2974,25.9219 L161.2974,28.6406 Z " fill="#000000"/><text fill="#000000" font-family="sans-serif" font-size="14" lengthAdjust="spacing" textLength="52.5684" x="178.8286" y="27.8467">Version</text><line style="stroke:#181818;stroke-width:0.5;" x1="45.5" x2="332.2256" y1="39" y2="39"/><g data-visibility-modifier="PUBLIC_FIELD"><ellipse cx="55.5" cy="52.6484" fill="none" rx="3" ry="3" style="stroke:#038048;stroke-width:1;"/></g><text fill="#000000" font-family="sans-serif" font-size="14" lengthAdjust="spacing" textLength="111.4326" x="64.5" y="55.9951">__version__ : str</text><g data-visibility-modifier="PUBLIC_FIELD"><ellipse cx="55.5" cy="68.9453" fill="none" rx="3" ry="3" style="stroke:#038048;stroke-width:1;"/></g><text fill="#000000" font-family="sans-serif" font-size="14" lengthAdjust="spacing" textLength="106.292" x="64.5" y="72.292">__author__ : str</text><g data-visibility-modifier="PUBLIC_FIELD"><ellipse cx="55.5" cy="85.2422" fill="none" rx="3" ry="3" style="stroke:#038048;stroke-width:1;"/></g><text fill="#000000" font-family="sans-serif" font-size="14" lengthAdjust="spacing" textLength="98.7656" x="64.5" y="88.5889">__email__ : str</text><g data-visibility-modifier="PUBLIC_FIELD"><ellipse cx="55.5" cy="101.5391" fill="none" rx="3" ry="3" style="stroke:#038048;stroke-width:1;"/></g><text fill="#000000" font-family="sans-serif" font-size="14" lengthAdjust="spacing" textLength="131.2568" x="64.5" y="104.8857">__repository__ : str</text><g data-visibility-modifier="PUBLIC_FIELD"><ellipse cx="55.5" cy="117.8359" fill="none" rx="3" ry="3" style="stroke:#038048;stroke-width:1;"/></g><text fill="#000000" font-family="sans-serif" font-size="14" lengthAdjust="spacing" textLength="109.0264" x="64.5" y="121.1826">__license__ : str</text><line style="stroke:#181818;stroke-width:0.5;" x1="45.5" x2="332.2256" y1="128.4844" y2="128.4844"/><g data-visibility-modifier="PUBLIC_METHOD"><ellipse cx="55.5" cy="142.1328" fill="#84BE84" rx="3" ry="3" style="stroke:#038048;stroke-width:1;"/></g><text fill="#000000" font-family="sans-serif" font-size="14" lengthAdjust="spacing" textLength="262.7256" x="64.5" y="145.4795">resource_path(relative_path: str) : str</text></g><!--link Version to toml--><g class="link" data-entity-1="ent0002" data-entity-2="ent0006" data-link-type="dependency" data-source-line="17" id="lnk7"><path codeLine="17" d="M133.26,153.06 C116.86,174.26 103.5813,191.4243 90.8013,207.9443" fill="none" id="Version-to-toml" style="stroke:#181818;stroke-width:1;stroke-dasharray:7,7;"/><polygon fill="#181818" points="87.13,212.69,95.8007,208.019,90.1894,208.7353,89.4732,203.1239,87.13,212.69" style="stroke:#181818;stroke-width:1;"/></g><!--link Version to sys--><g class="link" data-entity-1="ent0002" data-entity-2="ent0004" data-link-type="dependency" data-source-line="18" id="lnk8"><path codeLine="18" d="M244.74,153.06 C261.14,174.26 274.4187,191.4243 287.1987,207.9443" fill="none" id="Version-to-sys" style="stroke:#181818;stroke-width:1;stroke-dasharray:7,7;"/><polygon fill="#181818" points="290.87,212.69,288.5268,203.1239,287.8106,208.7353,282.1993,208.019,290.87,212.69" style="stroke:#181818;stroke-width:1;"/></g><!--link Version to os--><g class="link" data-entity-1="ent0002" data-entity-2="ent0005" data-link-type="dependency" data-source-line="19" id="lnk9"><path codeLine="19" d="M189,153.06 C189,174.26 189,190.17 189,206.69" fill="none" id="Version-to-os" style="stroke:#181818;stroke-width:1;stroke-dasharray:7,7;"/><polygon fill="#181818" points="189,212.69,193,203.69,189,207.69,185,203.69,189,212.69" style="stroke:#181818;stroke-width:1;"/></g><?plantuml-src ZP3F2eCm38VlFaNmf6pu04CyxRhhhgMhGSjgKvfM4F7T9_w1wM4ijtpv0hz46SaCJ_IioSAOm5mN8VeL204tuE1tB6DeoPyfTbARC_JeY7KWFvmdHYkqZ4ViaIbwXSB9q6OUZGowNxl5oZTvIX8drLis2EaT7TeQhTB8wPPTBVVmm52MsGEkHZTjU9c8ENHKHuDL1UFqfTBVPg3E_7RdSFidYw9Q5WvWZdNeYPCF?></g></svg>