<?plantuml 1.2026.1?><svg xmlns="http://www.w3.org/2000/svg" xmlns:xlink="http://www.w3.org/1999/xlink" contentStyleType="text/css" data-diagram-type="CLASS" height="477px" preserveAspectRatio="none" style="width:829px;height:477px;background:#FFFFFF;" version="1.1" viewBox="0 0 829 477" width="829px" zoomAndPan="magnify"><defs/><g><!--cluster Dependencies--><g class="cluster" data-qualified-name="Dependencies" data-source-line="16" id="ent0005"><path d="M107,318 L219.0088,318 A3.75,3.75 0 0 1 221.5088,320.5 L228.5088,340.2969 L820,340.2969 A2.5,2.5 0 0 1 822.5,342.7969 L822.5,467.5 A2.5,2.5 0 0 1 820,470 L107,470 A2.5,2.5 0 0 1 104.5,467.5 L104.5,320.5 A2.5,2.5 0 0 1 107,318" fill="none" style="stroke:#000000;stroke-width:1.5;"/><line style="stroke:#000000;stroke-width:1.5;" x1="104.5" x2="228.5088" y1="340.2969" y2="340.2969"/><text fill="#000000" font-family="sans-serif" font-size="14" font-weight="bold" lengthAdjust="spacing" textLength="111.0088" x="108.5" y="332.9951">Dependencies</text></g><!--class trlc--><g class="entity" data-qualified-name="Dependencies.trlc" data-source-line="18" id="ent0006"><rect fill="#F1F1F1" height="56.2656" rx="2.5" ry="2.5" style="stroke:#181818;stroke-width:0.5;" width="87.7832" x="531.5" y="375.5"/><ellipse cx="546.5" cy="395.6328" fill="#ADD8E6" rx="11" ry="11" style="stroke:#181818;stroke-width:1;"/><path d="M542.2188,389.2422 L545.1406,389.2422 L546.6094,394.6797 L548.0781,389.2422 L551.0156,389.2422 L551.0156,401.6328 L548.9063,401.6328 L548.9063,391.7109 L547.5938,397.1328 L545.6563,397.1328 L544.3281,391.7109 L544.3281,401.6328 L542.2188,401.6328 L542.2188,389.2422 Z " fill="#000000"/><text fill="#000000" font-family="sans-serif" font-size="12" font-style="italic" lengthAdjust="spacing" textLength="59.7832" x="558.5" y="391.6387">&#171;module&#187;</text><text fill="#000000" font-family="sans-serif" font-size="14" lengthAdjust="spacing" textLength="22.832" x="576.9756" y="407.4639">trlc</text><line style="stroke:#181818;stroke-width:0.5;" x1="532.5" x2="618.2832" y1="415.7656" y2="415.7656"/><line style="stroke:#181818;stroke-width:0.5;" x1="532.5" x2="618.2832" y1="423.7656" y2="423.7656"/></g><g class="entity" data-qualified-name="Dependencies.GMN7" data-source-line="22" id="ent0008"><path d="M654.5,353 L654.5,399.5 L619.7,403.5 L654.5,407.5 L654.5,453.7969 A0,0 0 0 0 654.5,453.7969 L806.0615,453.7969 A0,0 0 0 0 806.0615,453.7969 L806.0615,363 L796.0615,353 L654.5,353 A0,0 0 0 0 654.5,353" fill="#FEFFDD" style="stroke:#181818;stroke-width:0.5;"/><path d="M796.0615,353 L796.0615,363 L806.0615,363 L796.0615,353" fill="#FEFFDD" style="stroke:#181818;stroke-width:0.5;"/><text fill="#000000" font-family="sans-serif" font-size="13" lengthAdjust="spacing" textLength="130.3364" x="660.5" y="370.0669">Use TRLC ast items:</text><ellipse cx="666" cy="380.7656" fill="#000000" rx="2.5" ry="2.5"/><text fill="#000000" font-family="sans-serif" font-size="13" lengthAdjust="spacing" textLength="79.5171" x="672.5" y="385.1997">Implicit_Null</text><ellipse cx="666" cy="395.8984" fill="#000000" rx="2.5" ry="2.5"/><text fill="#000000" font-family="sans-serif" font-size="13" lengthAdjust="spacing" textLength="94.5674" x="672.5" y="400.3325">Record_Object</text><ellipse cx="666" cy="411.0313" fill="#000000" rx="2.5" ry="2.5"/><text fill="#000000" font-family="sans-serif" font-size="13" lengthAdjust="spacing" textLength="118.5615" x="672.5" y="415.4653">Record_Reference</text><ellipse cx="666" cy="426.1641" fill="#000000" rx="2.5" ry="2.5"/><text fill="#000000" font-family="sans-serif" font-size="13" lengthAdjust="spacing" textLength="86.1694" x="672.5" y="430.5981">String_Literal</text><ellipse cx="666" cy="441.2969" fill="#000000" rx="2.5" ry="2.5"/><text fill="#000000" font-family="sans-serif" font-size="13" lengthAdjust="spacing" textLength="70.8525" x="672.5" y="445.731">Expression</text></g><!--class TrlcAstWalker--><g class="entity" data-qualified-name="Dependencies.TrlcAstWalker" data-source-line="30" id="ent0010"><rect fill="#F1F1F1" height="48" rx="2.5" ry="2.5" style="stroke:#181818;stroke-width:0.5;" width="129.043" x="367" y="379.5"/><ellipse cx="382" cy="395.5" fill="#ADD1B2" rx="11" ry="11" style="stroke:#181818;stroke-width:1;"/><path d="M384.9688,401.1406 Q384.3906,401.4375 383.75,401.5781 Q383.1094,401.7344 382.4063,401.7344 Q379.9063,401.7344 378.5781,400.0938 Q377.2656,398.4375 377.2656,395.3125 Q377.2656,392.1875 378.5781,390.5313 Q379.9063,388.875 382.4063,388.875 Q383.1094,388.875 383.75,389.0313 Q384.4063,389.1875 384.9688,389.4844 L384.9688,392.2031 Q384.3438,391.625 383.75,391.3594 Q383.1563,391.0781 382.5313,391.0781 Q381.1875,391.0781 380.5,392.1563 Q379.8125,393.2188 379.8125,395.3125 Q379.8125,397.4063 380.5,398.4844 Q381.1875,399.5469 382.5313,399.5469 Q383.1563,399.5469 383.75,399.2813 Q384.3438,399 384.9688,398.4219 L384.9688,401.1406 Z " fill="#000000"/><text fill="#000000" font-family="sans-serif" font-size="14" lengthAdjust="spacing" textLength="97.043" x="396" y="400.3467">TrlcAstWalker</text><line style="stroke:#181818;stroke-width:0.5;" x1="368" x2="495.043" y1="411.5" y2="411.5"/><line style="stroke:#181818;stroke-width:0.5;" x1="368" x2="495.043" y1="419.5" y2="419.5"/></g><!--class marko--><g class="entity" data-qualified-name="Dependencies.marko" data-source-line="33" id="ent0011"><rect fill="#F1F1F1" height="56.2656" rx="2.5" ry="2.5" style="stroke:#181818;stroke-width:0.5;" width="87.7832" x="243.5" y="375.5"/><ellipse cx="258.5" cy="395.6328" fill="#ADD8E6" rx="11" ry="11" style="stroke:#181818;stroke-width:1;"/><path d="M254.2188,389.2422 L257.1406,389.2422 L258.6094,394.6797 L260.0781,389.2422 L263.0156,389.2422 L263.0156,401.6328 L260.9063,401.6328 L260.9063,391.7109 L259.5938,397.1328 L257.6563,397.1328 L256.3281,391.7109 L256.3281,401.6328 L254.2188,401.6328 L254.2188,389.2422 Z " fill="#000000"/><text fill="#000000" font-family="sans-serif" font-size="12" font-style="italic" lengthAdjust="spacing" textLength="59.7832" x="270.5" y="391.6387">&#171;module&#187;</text><text fill="#000000" font-family="sans-serif" font-size="14" lengthAdjust="spacing" textLength="44.6455" x="278.0688" y="407.4639">marko</text><line style="stroke:#181818;stroke-width:0.5;" x1="244.5" x2="330.2832" y1="415.7656" y2="415.7656"/><line style="stroke:#181818;stroke-width:0.5;" x1="244.5" x2="330.2832" y1="423.7656" y2="423.7656"/></g><!--class reqif--><g class="entity" data-qualified-name="Dependencies.reqif" data-source-line="36" id="ent0012"><rect fill="#F1F1F1" height="56.2656" rx="2.5" ry="2.5" style="stroke:#181818;stroke-width:0.5;" width="87.7832" x="120.5" y="375.5"/><ellipse cx="135.5" cy="395.6328" fill="#ADD8E6" rx="11" ry="11" style="stroke:#181818;stroke-width:1;"/><path d="M131.2188,389.2422 L134.1406,389.2422 L135.6094,394.6797 L137.0781,389.2422 L140.0156,389.2422 L140.0156,401.6328 L137.9063,401.6328 L137.9063,391.7109 L136.5938,397.1328 L134.6563,397.1328 L133.3281,391.7109 L133.3281,401.6328 L131.2188,401.6328 L131.2188,389.2422 Z " fill="#000000"/><text fill="#000000" font-family="sans-serif" font-size="12" font-style="italic" lengthAdjust="spacing" textLength="59.7832" x="147.5" y="391.6387">&#171;module&#187;</text><text fill="#000000" font-family="sans-serif" font-size="14" lengthAdjust="spacing" textLength="32.0742" x="161.3545" y="407.4639">reqif</text><line style="stroke:#181818;stroke-width:0.5;" x1="121.5" x2="207.2832" y1="415.7656" y2="415.7656"/><line style="stroke:#181818;stroke-width:0.5;" x1="121.5" x2="207.2832" y1="423.7656" y2="423.7656"/></g><!--class BaseConverter--><g class="entity" data-qualified-name="BaseConverter" data-source-line="2" id="ent0002"><rect fill="#F1F1F1" height="48" rx="2.5" ry="2.5" style="stroke:#181818;stroke-width:0.5;" width="135.8174" x="291.5" y="7"/><ellipse cx="306.5" cy="23" fill="#ADD1B2" rx="11" ry="11" style="stroke:#181818;stroke-width:1;"/><path d="M309.4688,28.6406 Q308.8906,28.9375 308.25,29.0781 Q307.6094,29.2344 306.9063,29.2344 Q304.4063,29.2344 303.0781,27.5938 Q301.7656,25.9375 301.7656,22.8125 Q301.7656,19.6875 303.0781,18.0313 Q304.4063,16.375 306.9063,16.375 Q307.6094,16.375 308.25,16.5313 Q308.9063,16.6875 309.4688,16.9844 L309.4688,19.7031 Q308.8438,19.125 308.25,18.8594 Q307.6563,18.5781 307.0313,18.5781 Q305.6875,18.5781 305,19.6563 Q304.3125,20.7188 304.3125,22.8125 Q304.3125,24.9063 305,25.9844 Q305.6875,27.0469 307.0313,27.0469 Q307.6563,27.0469 308.25,26.7813 Q308.8438,26.5 309.4688,25.9219 L309.4688,28.6406 Z " fill="#000000"/><text fill="#000000" font-family="sans-serif" font-size="14" lengthAdjust="spacing" textLength="103.8174" x="320.5" y="27.8467">BaseConverter</text><line style="stroke:#181818;stroke-width:0.5;" x1="292.5" x2="426.3174" y1="39" y2="39"/><line style="stroke:#181818;stroke-width:0.5;" x1="292.5" x2="426.3174" y1="47" y2="47"/></g><!--class ReqifConverter--><g class="entity" data-qualified-name="ReqifConverter" data-source-line="4" id="ent0003"><rect fill="#F1F1F1" height="178.375" rx="2.5" ry="2.5" style="stroke:#181818;stroke-width:0.5;" width="704.7129" x="7" y="115"/><ellipse cx="302.2202" cy="131" fill="#ADD1B2" rx="11" ry="11" style="stroke:#181818;stroke-width:1;"/><path d="M305.189,136.6406 Q304.6108,136.9375 303.9702,137.0781 Q303.3296,137.2344 302.6265,137.2344 Q300.1265,137.2344 298.7983,135.5938 Q297.4858,133.9375 297.4858,130.8125 Q297.4858,127.6875 298.7983,126.0313 Q300.1265,124.375 302.6265,124.375 Q303.3296,124.375 303.9702,124.5313 Q304.6265,124.6875 305.189,124.9844 L305.189,127.7031 Q304.564,127.125 303.9702,126.8594 Q303.3765,126.5781 302.7515,126.5781 Q301.4077,126.5781 300.7202,127.6563 Q300.0327,128.7188 300.0327,130.8125 Q300.0327,132.9063 300.7202,133.9844 Q301.4077,135.0469 302.7515,135.0469 Q303.3765,135.0469 303.9702,134.7813 Q304.564,134.5 305.189,133.9219 L305.189,136.6406 Z " fill="#000000"/><text fill="#000000" font-family="sans-serif" font-size="14" lengthAdjust="spacing" textLength="105.7725" x="322.7202" y="135.8467">ReqifConverter</text><line style="stroke:#181818;stroke-width:0.5;" x1="8" x2="710.7129" y1="147" y2="147"/><line style="stroke:#181818;stroke-width:0.5;" x1="8" x2="710.7129" y1="155" y2="155"/><g data-visibility-modifier="PUBLIC_METHOD"><ellipse cx="18" cy="168.6484" fill="#84BE84" rx="3" ry="3" style="stroke:#038048;stroke-width:1;"/></g><text fill="#000000" font-family="sans-serif" font-size="14" lengthAdjust="spacing" textLength="168" x="27" y="171.9951">get_subcommand() : str</text><g data-visibility-modifier="PUBLIC_METHOD"><ellipse cx="18" cy="184.9453" fill="#84BE84" rx="3" ry="3" style="stroke:#038048;stroke-width:1;"/></g><text fill="#000000" font-family="sans-serif" font-size="14" lengthAdjust="spacing" textLength="150.9102" x="27" y="188.292">get_description() : str</text><g data-visibility-modifier="PUBLIC_METHOD"><ellipse cx="18" cy="201.2422" fill="#84BE84" rx="3" ry="3" style="stroke:#038048;stroke-width:1;"/></g><text fill="#000000" font-family="sans-serif" font-size="14" lengthAdjust="spacing" textLength="233.666" x="27" y="204.5889">register(args_parser: Any) : None</text><g data-visibility-modifier="PUBLIC_METHOD"><ellipse cx="18" cy="217.5391" fill="#84BE84" rx="3" ry="3" style="stroke:#038048;stroke-width:1;"/></g><text fill="#000000" font-family="sans-serif" font-size="14" lengthAdjust="spacing" textLength="87.5205" x="27" y="220.8857">begin() : Ret</text><g data-visibility-modifier="PUBLIC_METHOD"><ellipse cx="18" cy="233.8359" fill="#84BE84" rx="3" ry="3" style="stroke:#038048;stroke-width:1;"/></g><text fill="#000000" font-family="sans-serif" font-size="14" lengthAdjust="spacing" textLength="209.7676" x="27" y="237.1826">enter_file(file_name: str) : Ret</text><g data-visibility-modifier="PUBLIC_METHOD"><ellipse cx="18" cy="250.1328" fill="#84BE84" rx="3" ry="3" style="stroke:#038048;stroke-width:1;"/></g><text fill="#000000" font-family="sans-serif" font-size="14" lengthAdjust="spacing" textLength="210.4033" x="27" y="253.4795">leave_file(file_name: str) : Ret</text><g data-visibility-modifier="PUBLIC_METHOD"><ellipse cx="18" cy="266.4297" fill="#84BE84" rx="3" ry="3" style="stroke:#038048;stroke-width:1;"/></g><text fill="#000000" font-family="sans-serif" font-size="14" lengthAdjust="spacing" textLength="306.8105" x="27" y="269.7764">convert_section(section: str, level: int) : Ret</text><g data-visibility-modifier="PUBLIC_METHOD"><ellipse cx="18" cy="282.7266" fill="#84BE84" rx="3" ry="3" style="stroke:#038048;stroke-width:1;"/></g><text fill="#000000" font-family="sans-serif" font-size="14" lengthAdjust="spacing" textLength="678.7129" x="27" y="286.0732">convert_record_object_generic(record: Record_Object, level: int, translation: Optional[dict]) : Ret</text></g><!--reverse link BaseConverter to ReqifConverter--><g class="link" data-entity-1="ent0002" data-entity-2="ent0003" data-link-type="extension" data-source-line="5" id="lnk4"><path d="M359.5,73.06 C359.5,88.74 359.5,92.58 359.5,114.67" fill="none" id="BaseConverter-backto-ReqifConverter" style="stroke:#181818;stroke-width:1;"/><polygon fill="none" points="359.5,55.06,353.5,73.06,365.5,73.06,359.5,55.06" style="stroke:#181818;stroke-width:1;"/></g><!--link ReqifConverter to trlc--><g class="link" data-entity-1="ent0003" data-entity-2="ent0006" data-link-type="dependency" data-source-line="40" id="lnk13"><path codeLine="40" d="M495.46,293.16 C501.75,298.63 507.8,304.26 513.5,310 C532.83,329.49 546.8069,350.6199 558.0769,370.1999" fill="none" id="ReqifConverter-to-trlc" style="stroke:#181818;stroke-width:1;stroke-dasharray:7,7;"/><polygon fill="#181818" points="561.07,375.4,560.0471,365.6044,558.5757,371.0666,553.1136,369.5952,561.07,375.4" style="stroke:#181818;stroke-width:1;"/></g><!--link ReqifConverter to TrlcAstWalker--><g class="link" data-entity-1="ent0003" data-entity-2="ent0010" data-link-type="dependency" data-source-line="41" id="lnk14"><path codeLine="41" d="M391.6,293.06 C403.15,324.75 413.1953,352.2728 420.9953,373.6728" fill="none" id="ReqifConverter-to-TrlcAstWalker" style="stroke:#181818;stroke-width:1;stroke-dasharray:7,7;"/><polygon fill="#181818" points="423.05,379.31,423.7261,369.4844,421.3378,374.6123,416.2098,372.224,423.05,379.31" style="stroke:#181818;stroke-width:1;"/></g><!--link ReqifConverter to marko--><g class="link" data-entity-1="ent0003" data-entity-2="ent0011" data-link-type="dependency" data-source-line="42" id="lnk15"><path codeLine="42" d="M327.4,293.06 C316.52,322.89 307.227,348.4036 299.417,369.8036" fill="none" id="ReqifConverter-to-marko" style="stroke:#181818;stroke-width:1;stroke-dasharray:7,7;"/><polygon fill="#181818" points="297.36,375.44,304.2031,368.3568,299.0742,370.743,296.6879,365.6141,297.36,375.44" style="stroke:#181818;stroke-width:1;"/></g><!--link ReqifConverter to reqif--><g class="link" data-entity-1="ent0003" data-entity-2="ent0012" data-link-type="dependency" data-source-line="43" id="lnk16"><path codeLine="43" d="M243.24,293.06 C237.42,298.61 231.79,304.28 226.5,310 C207.99,330.01 194.1195,350.8786 182.6495,370.2286" fill="none" id="ReqifConverter-to-reqif" style="stroke:#181818;stroke-width:1;stroke-dasharray:7,7;"/><polygon fill="#181818" points="179.59,375.39,187.6201,369.6876,182.1396,371.0889,180.7383,365.6083,179.59,375.39" style="stroke:#181818;stroke-width:1;"/></g><?plantuml-src ZLDTRzGm47pFhrZTKmgd_e1JTL8fF22LLZgAU438yZbpmPnZXrtVgGZTVyUn-v7G2F238-tCxCxkEiPf4NgZ1LV17y4HJB-gKsLoV8CVTlSCu3x2Do_fbCxh5b79OMj2rsdVr6Uq8edyZ3KGmxQFDlWfo6Yjf4IrvbPKhrd0AxhqFmVMJV0ej6sY5UK6iOJWaqpjh4CzNChh3ZdnXEMWZ_WdovH-bC1aYm_VJ5oImn5kHTR7MH7316vKs7vFAjN2WwsfItIWP_Gse-DSIugilJXTAjtcuMZtfR4cVdqiTAgggjTchrlGuYtwj05uOo6BDFbie-ng4TcP1LrSr1zewMpxBMxT0MVKXURWi5wNDPsAn8S8ue54OVSWpS1mFWdeRdDzHLeYsOXELa_OAthVzSuQ6zNDmRbHVDBbo_W6Et0oZX7qCRBrhRfEDLYFSxsxxnaYQHevc5hEZiVjtYNBbn8_QxT_UeEdoJmwpVlmbu7CYdXuyVyZIh8__expy_NZ96UGYTzPQV4x2nLNrMy0?></g></svg>