<?plantuml 1.2026.1?><svg xmlns="http://www.w3.org/2000/svg" xmlns:xlink="http://www.w3.org/1999/xlink" contentStyleType="text/css" data-diagram-type="CLASS" height="468px" preserveAspectRatio="none" style="width:971px;height:468px;background:#FFFFFF;" version="1.1" viewBox="0 0 971 468" width="971px" zoomAndPan="magnify"><defs/><g><!--cluster pytrlc_deps--><g class="cluster" data-qualified-name="pytrlc_deps" data-source-line="2" id="ent0002"><path d="M8.5,6 L262.5322,6 A3.75,3.75 0 0 1 265.0322,8.5 L272.0322,28.2969 L876.5,28.2969 A2.5,2.5 0 0 1 879,30.7969 L879,297.5 A2.5,2.5 0 0 1 876.5,300 L8.5,300 A2.5,2.5 0 0 1 6,297.5 L6,8.5 A2.5,2.5 0 0 1 8.5,6" fill="none" style="stroke:#000000;stroke-width:1.5;"/><line style="stroke:#000000;stroke-width:1.5;" x1="6" x2="272.0322" y1="28.2969" y2="28.2969"/><text fill="#000000" font-family="sans-serif" font-size="14" font-weight="bold" lengthAdjust="spacing" textLength="253.0322" x="10" y="20.9951">pyTRLCConverter Dependencies</text></g><!--cluster proj_deps--><g class="cluster" data-qualified-name="proj_deps" data-source-line="33" id="ent0012"><path d="M311.5,341 L484.4512,341 A3.75,3.75 0 0 1 486.9512,343.5 L493.9512,363.2969 L917.5,363.2969 A2.5,2.5 0 0 1 920,365.7969 L920,458.5 A2.5,2.5 0 0 1 917.5,461 L311.5,461 A2.5,2.5 0 0 1 309,458.5 L309,343.5 A2.5,2.5 0 0 1 311.5,341" fill="none" style="stroke:#000000;stroke-width:1.5;"/><line style="stroke:#000000;stroke-width:1.5;" x1="309" x2="493.9512" y1="363.2969" y2="363.2969"/><text fill="#000000" font-family="sans-serif" font-size="14" font-weight="bold" lengthAdjust="spacing" textLength="171.9512" x="313" y="355.9951">Project Dependencies</text></g><!--class main--><g class="entity" data-qualified-name="pytrlc_deps.main" data-source-line="3" id="ent0003"><rect fill="#F1F1F1" height="56.2656" rx="2.5" ry="2.5" style="stroke:#181818;stroke-width:0.5;" width="68.8457" x="468.5" y="63.5"/><ellipse cx="483.5" cy="83.6328" fill="#DA70D6" rx="11" ry="11" style="stroke:#181818;stroke-width:1;"/><path d="M487.7344,79.3984 L482.4531,79.3984 L482.4531,82.0703 L487.25,82.0703 L487.25,84.2266 L482.4531,84.2266 L482.4531,89.6328 L480.0156,89.6328 L480.0156,77.2422 L487.7344,77.2422 L487.7344,79.3984 Z " fill="#000000"/><text fill="#000000" font-family="sans-serif" font-size="12" font-style="italic" lengthAdjust="spacing" textLength="40.8457" x="495.5" y="79.6387">&#171;func&#187;</text><text fill="#000000" font-family="sans-serif" font-size="14" lengthAdjust="spacing" textLength="34.9795" x="498.4331" y="95.4639">main</text><line style="stroke:#181818;stroke-width:0.5;" x1="469.5" x2="536.3457" y1="103.7656" y2="103.7656"/><line style="stroke:#181818;stroke-width:0.5;" x1="469.5" x2="536.3457" y1="111.7656" y2="111.7656"/></g><g class="entity" data-qualified-name="pytrlc_deps.GMN4" data-source-line="7" id="ent0005"><path d="M573,41 L573,87.5 L537.6,91.5 L573,95.5 L573,141.7969 A0,0 0 0 0 573,141.7969 L845.0972,141.7969 A0,0 0 0 0 845.0972,141.7969 L845.0972,51 L835.0972,41 L573,41 A0,0 0 0 0 573,41" fill="#FEFFDD" style="stroke:#181818;stroke-width:0.5;"/><path d="M835.0972,41 L835.0972,51 L845.0972,51 L835.0972,41" fill="#FEFFDD" style="stroke:#181818;stroke-width:0.5;"/><text fill="#000000" font-family="sans-serif" font-size="13" lengthAdjust="spacing" textLength="237.8721" x="579" y="58.0669">The main function is responsible for:</text><ellipse cx="584.5" cy="68.7656" fill="#000000" rx="2.5" ry="2.5"/><text fill="#000000" font-family="sans-serif" font-size="13" lengthAdjust="spacing" textLength="219.9019" x="591" y="73.1997">Parsing command-line arguments</text><ellipse cx="584.5" cy="83.8984" fill="#000000" rx="2.5" ry="2.5"/><text fill="#000000" font-family="sans-serif" font-size="13" lengthAdjust="spacing" textLength="189.249" x="591" y="88.3325">Loading of configuration files</text><ellipse cx="584.5" cy="99.0313" fill="#000000" rx="2.5" ry="2.5"/><text fill="#000000" font-family="sans-serif" font-size="13" lengthAdjust="spacing" textLength="239.0972" x="591" y="103.4653">Initializing the appropriate converter</text><ellipse cx="584.5" cy="114.1641" fill="#000000" rx="2.5" ry="2.5"/><text fill="#000000" font-family="sans-serif" font-size="13" lengthAdjust="spacing" textLength="154.7241" x="591" y="118.5981">Processing of TRLC files</text><text fill="#000000" font-family="sans-serif" font-size="13" lengthAdjust="spacing" textLength="4.1323" x="579" y="133.731">&#160;</text></g><!--class RenderConfig--><g class="entity" data-qualified-name="pytrlc_deps.RenderConfig" data-source-line="15" id="ent0007"><rect fill="#F1F1F1" height="48" rx="2.5" ry="2.5" style="stroke:#181818;stroke-width:0.5;" width="127.3887" x="22.5" y="219.5"/><ellipse cx="37.5" cy="235.5" fill="#ADD1B2" rx="11" ry="11" style="stroke:#181818;stroke-width:1;"/><path d="M40.4688,241.1406 Q39.8906,241.4375 39.25,241.5781 Q38.6094,241.7344 37.9063,241.7344 Q35.4063,241.7344 34.0781,240.0938 Q32.7656,238.4375 32.7656,235.3125 Q32.7656,232.1875 34.0781,230.5313 Q35.4063,228.875 37.9063,228.875 Q38.6094,228.875 39.25,229.0313 Q39.9063,229.1875 40.4688,229.4844 L40.4688,232.2031 Q39.8438,231.625 39.25,231.3594 Q38.6563,231.0781 38.0313,231.0781 Q36.6875,231.0781 36,232.1563 Q35.3125,233.2188 35.3125,235.3125 Q35.3125,237.4063 36,238.4844 Q36.6875,239.5469 38.0313,239.5469 Q38.6563,239.5469 39.25,239.2813 Q39.8438,239 40.4688,238.4219 L40.4688,241.1406 Z " fill="#000000"/><text fill="#000000" font-family="sans-serif" font-size="14" lengthAdjust="spacing" textLength="95.3887" x="51.5" y="240.3467">RenderConfig</text><line style="stroke:#181818;stroke-width:0.5;" x1="23.5" x2="148.8887" y1="251.5" y2="251.5"/><line style="stroke:#181818;stroke-width:0.5;" x1="23.5" x2="148.8887" y1="259.5" y2="259.5"/></g><!--class ItemWalker--><g class="entity" data-qualified-name="pytrlc_deps.ItemWalker" data-source-line="18" id="ent0008"><rect fill="#F1F1F1" height="80.5938" rx="2.5" ry="2.5" style="stroke:#181818;stroke-width:0.5;" width="205.8467" x="185" y="203"/><ellipse cx="243.3447" cy="219" fill="#ADD1B2" rx="11" ry="11" style="stroke:#181818;stroke-width:1;"/><path d="M246.3135,224.6406 Q245.7354,224.9375 245.0947,225.0781 Q244.4541,225.2344 243.751,225.2344 Q241.251,225.2344 239.9229,223.5938 Q238.6104,221.9375 238.6104,218.8125 Q238.6104,215.6875 239.9229,214.0313 Q241.251,212.375 243.751,212.375 Q244.4541,212.375 245.0947,212.5313 Q245.751,212.6875 246.3135,212.9844 L246.3135,215.7031 Q245.6885,215.125 245.0947,214.8594 Q244.501,214.5781 243.876,214.5781 Q242.5322,214.5781 241.8447,215.6563 Q241.1572,216.7188 241.1572,218.8125 Q241.1572,220.9063 241.8447,221.9844 Q242.5322,223.0469 243.876,223.0469 Q244.501,223.0469 245.0947,222.7813 Q245.6885,222.5 246.3135,221.9219 L246.3135,224.6406 Z " fill="#000000"/><text fill="#000000" font-family="sans-serif" font-size="14" lengthAdjust="spacing" textLength="80.6572" x="263.8447" y="223.8467">ItemWalker</text><line style="stroke:#181818;stroke-width:0.5;" x1="186" x2="389.8467" y1="235" y2="235"/><g data-visibility-modifier="PUBLIC_FIELD"><ellipse cx="196" cy="256.7969" fill="none" rx="3" ry="3" style="stroke:#038048;stroke-width:1;"/></g><text fill="#000000" font-family="sans-serif" font-size="14" lengthAdjust="spacing" textLength="179.8467" x="205" y="251.9951">Traverses the TRLC items</text><text fill="#000000" font-family="sans-serif" font-size="14" lengthAdjust="spacing" textLength="166.1133" x="205" y="268.292">and calls the converter.</text><line style="stroke:#181818;stroke-width:0.5;" x1="186" x2="389.8467" y1="275.5938" y2="275.5938"/></g><!--class Translator--><g class="entity" data-qualified-name="pytrlc_deps.Translator" data-source-line="22" id="ent0009"><rect fill="#F1F1F1" height="48" rx="2.5" ry="2.5" style="stroke:#181818;stroke-width:0.5;" width="103.333" x="426.5" y="219.5"/><ellipse cx="441.5" cy="235.5" fill="#ADD1B2" rx="11" ry="11" style="stroke:#181818;stroke-width:1;"/><path d="M444.4688,241.1406 Q443.8906,241.4375 443.25,241.5781 Q442.6094,241.7344 441.9063,241.7344 Q439.4063,241.7344 438.0781,240.0938 Q436.7656,238.4375 436.7656,235.3125 Q436.7656,232.1875 438.0781,230.5313 Q439.4063,228.875 441.9063,228.875 Q442.6094,228.875 443.25,229.0313 Q443.9063,229.1875 444.4688,229.4844 L444.4688,232.2031 Q443.8438,231.625 443.25,231.3594 Q442.6563,231.0781 442.0313,231.0781 Q440.6875,231.0781 440,232.1563 Q439.3125,233.2188 439.3125,235.3125 Q439.3125,237.4063 440,238.4844 Q440.6875,239.5469 442.0313,239.5469 Q442.6563,239.5469 443.25,239.2813 Q443.8438,239 444.4688,238.4219 L444.4688,241.1406 Z " fill="#000000"/><text fill="#000000" font-family="sans-serif" font-size="14" lengthAdjust="spacing" textLength="71.333" x="455.5" y="240.3467">Translator</text><line style="stroke:#181818;stroke-width:0.5;" x1="427.5" x2="528.833" y1="251.5" y2="251.5"/><line style="stroke:#181818;stroke-width:0.5;" x1="427.5" x2="528.833" y1="259.5" y2="259.5"/></g><!--class argparse--><g class="entity" data-qualified-name="pytrlc_deps.argparse" data-source-line="29" id="ent0011"><rect fill="#F1F1F1" height="56.2656" rx="2.5" ry="2.5" style="stroke:#181818;stroke-width:0.5;" width="94.3506" x="565" y="215.5"/><ellipse cx="580" cy="235.6328" fill="#ADD8E6" rx="11" ry="11" style="stroke:#181818;stroke-width:1;"/><path d="M575.7188,229.2422 L578.6406,229.2422 L580.1094,234.6797 L581.5781,229.2422 L584.5156,229.2422 L584.5156,241.6328 L582.4063,241.6328 L582.4063,231.7109 L581.0938,237.1328 L579.1563,237.1328 L577.8281,231.7109 L577.8281,241.6328 L575.7188,241.6328 L575.7188,229.2422 Z " fill="#000000"/><text fill="#000000" font-family="sans-serif" font-size="12" font-style="italic" lengthAdjust="spacing" textLength="59.7832" x="595.2837" y="231.6387">&#171;module&#187;</text><text fill="#000000" font-family="sans-serif" font-size="14" lengthAdjust="spacing" textLength="62.3506" x="594" y="247.4639">argparse</text><line style="stroke:#181818;stroke-width:0.5;" x1="566" x2="658.3506" y1="255.7656" y2="255.7656"/><line style="stroke:#181818;stroke-width:0.5;" x1="566" x2="658.3506" y1="263.7656" y2="263.7656"/></g><path d="M697,217 L847.1875,217 A3.75,3.75 0 0 1 849.6875,219.5 L856.6875,239.2969 L861.1875,239.2969 A2.5,2.5 0 0 1 863.6875,241.7969 L863.6875,267.0938 A2.5,2.5 0 0 1 861.1875,269.5938 L697,269.5938 A2.5,2.5 0 0 1 694.5,267.0938 L694.5,219.5 A2.5,2.5 0 0 1 697,217" fill="#F1F1F1" style="stroke:#181818;stroke-width:0.5;"/><line style="stroke:#181818;stroke-width:0.5;" x1="694.5" x2="856.6875" y1="239.2969" y2="239.2969"/><text fill="#000000" font-family="sans-serif" font-size="14" font-weight="bold" lengthAdjust="spacing" textLength="149.1875" x="698.5" y="231.9951">Built-in Converters</text><!--class ProjectConverter--><g class="entity" data-qualified-name="proj_deps.ProjectConverter" data-source-line="36" id="ent0013"><rect fill="#F1F1F1" height="48" rx="2.5" ry="2.5" style="stroke:#181818;stroke-width:0.5;" width="150.1797" x="727" y="386.5"/><ellipse cx="742" cy="402.5" fill="#ADD1B2" rx="11" ry="11" style="stroke:#181818;stroke-width:1;"/><path d="M744.9688,408.1406 Q744.3906,408.4375 743.75,408.5781 Q743.1094,408.7344 742.4063,408.7344 Q739.9063,408.7344 738.5781,407.0938 Q737.2656,405.4375 737.2656,402.3125 Q737.2656,399.1875 738.5781,397.5313 Q739.9063,395.875 742.4063,395.875 Q743.1094,395.875 743.75,396.0313 Q744.4063,396.1875 744.9688,396.4844 L744.9688,399.2031 Q744.3438,398.625 743.75,398.3594 Q743.1563,398.0781 742.5313,398.0781 Q741.1875,398.0781 740.5,399.1563 Q739.8125,400.2188 739.8125,402.3125 Q739.8125,404.4063 740.5,405.4844 Q741.1875,406.5469 742.5313,406.5469 Q743.1563,406.5469 743.75,406.2813 Q744.3438,406 744.9688,405.4219 L744.9688,408.1406 Z " fill="#000000"/><text fill="#000000" font-family="sans-serif" font-size="14" lengthAdjust="spacing" textLength="118.1797" x="756" y="407.3467">ProjectConverter</text><line style="stroke:#181818;stroke-width:0.5;" x1="728" x2="876.1797" y1="418.5" y2="418.5"/><line style="stroke:#181818;stroke-width:0.5;" x1="728" x2="876.1797" y1="426.5" y2="426.5"/></g><!--entity renderconfig--><g class="entity" data-qualified-name="proj_deps.renderconfig" data-source-line="39" id="ent0014"><path d="M582.5,386.5 L582.5,434.0938 A2.5,2.5 0 0 0 585,436.5938 L689.3389,436.5938 A2.5,2.5 0 0 0 691.8389,434.0938 L691.8389,394 L681.8389,384 L585,384 A2.5,2.5 0 0 0 582.5,386.5" fill="#F1F1F1" style="stroke:#181818;stroke-width:0.5;"/><path d="M681.8389,384 L681.8389,391.5 A2.5,2.5 0 0 0 684.3389,394 L691.8389,394" fill="#F1F1F1" style="stroke:#181818;stroke-width:0.5;"/><text fill="#000000" font-family="sans-serif" font-size="14" font-style="italic" lengthAdjust="spacing" textLength="45.9033" x="614.2178" y="406.9951">&#171;json&#187;</text><text fill="#000000" font-family="sans-serif" font-size="14" lengthAdjust="spacing" textLength="89.3389" x="592.5" y="423.292">renderconfig</text></g><!--entity translations--><g class="entity" data-qualified-name="proj_deps.translations" data-source-line="42" id="ent0015"><path d="M444.5,386.5 L444.5,434.0938 A2.5,2.5 0 0 0 447,436.5938 L544.5713,436.5938 A2.5,2.5 0 0 0 547.0713,434.0938 L547.0713,394 L537.0713,384 L447,384 A2.5,2.5 0 0 0 444.5,386.5" fill="#F1F1F1" style="stroke:#181818;stroke-width:0.5;"/><path d="M537.0713,384 L537.0713,391.5 A2.5,2.5 0 0 0 539.5713,394 L547.0713,394" fill="#F1F1F1" style="stroke:#181818;stroke-width:0.5;"/><text fill="#000000" font-family="sans-serif" font-size="14" font-style="italic" lengthAdjust="spacing" textLength="45.9033" x="472.834" y="406.9951">&#171;json&#187;</text><text fill="#000000" font-family="sans-serif" font-size="14" lengthAdjust="spacing" textLength="82.5713" x="454.5" y="423.292">translations</text></g><!--entity trlc files--><g class="entity" data-qualified-name="proj_deps.trlc files" data-source-line="45" id="ent0016"><path d="M333,395 L333,426.2969 A2.5,2.5 0 0 0 335.5,428.7969 L406.3975,428.7969 A2.5,2.5 0 0 0 408.8975,426.2969 L408.8975,402.5 L398.8975,392.5 L335.5,392.5 A2.5,2.5 0 0 0 333,395" fill="#F1F1F1" style="stroke:#181818;stroke-width:0.5;"/><path d="M398.8975,392.5 L398.8975,400 A2.5,2.5 0 0 0 401.3975,402.5 L408.8975,402.5" fill="#F1F1F1" style="stroke:#181818;stroke-width:0.5;"/><text fill="#000000" font-family="sans-serif" font-size="14" lengthAdjust="spacing" textLength="55.8975" x="343" y="415.4951">trlc files</text></g><!--link ProjectConverter to int_converters--><g class="link" data-entity-1="ent0013" data-entity-2="ent0010" data-link-type="extension" data-source-line="51" id="lnk17"><path codeLine="51" d="M798.77,386.3 C794.5,355.72 789.5183,319.9172 785.0783,288.1072" fill="none" id="ProjectConverter-to-int_converters" style="stroke:#181818;stroke-width:1;"/><polygon fill="none" points="782.59,270.28,779.1359,288.9366,791.0207,287.2777,782.59,270.28" style="stroke:#181818;stroke-width:1;"/></g><!--link main to ItemWalker--><g class="link" data-entity-1="ent0003" data-entity-2="ent0008" data-link-type="dependency" data-source-line="53" id="lnk18"><path codeLine="53" d="M468.46,116.6 C435.1,139.87 388.9209,172.0871 349.6009,199.5171" fill="none" id="main-to-ItemWalker" style="stroke:#181818;stroke-width:1;stroke-dasharray:7,7;"/><polygon fill="#181818" points="344.68,202.95,354.35,201.0813,348.7808,200.0893,349.7728,194.5201,344.68,202.95" style="stroke:#181818;stroke-width:1;"/></g><!--link main to Translator--><g class="link" data-entity-1="ent0003" data-entity-2="ent0009" data-link-type="dependency" data-source-line="54" id="lnk19"><path codeLine="54" d="M498.47,119.66 C493.72,148.2 487.3064,186.6716 482.8264,213.5516" fill="none" id="main-to-Translator" style="stroke:#181818;stroke-width:1;stroke-dasharray:7,7;"/><polygon fill="#181818" points="481.84,219.47,487.2652,211.2501,482.662,214.538,479.374,209.9349,481.84,219.47" style="stroke:#181818;stroke-width:1;"/></g><!--link main to RenderConfig--><g class="link" data-entity-1="ent0003" data-entity-2="ent0007" data-link-type="dependency" data-source-line="55" id="lnk20"><path codeLine="55" d="M468.23,102.34 C406.77,120.09 275.33,159.66 168,203 C155.84,207.91 148.3487,211.1927 136.4787,216.8927" fill="none" id="main-to-RenderConfig" style="stroke:#181818;stroke-width:1;stroke-dasharray:7,7;"/><polygon fill="#181818" points="131.07,219.49,140.9146,219.1999,135.5773,217.3256,137.4516,211.9883,131.07,219.49" style="stroke:#181818;stroke-width:1;"/></g><!--link main to argparse--><g class="link" data-entity-1="ent0003" data-entity-2="ent0011" data-link-type="dependency" data-source-line="56" id="lnk21"><path codeLine="56" d="M522.74,119.66 C542.43,146.76 568.9937,183.3156 588.6937,210.4356" fill="none" id="main-to-argparse" style="stroke:#181818;stroke-width:1;stroke-dasharray:7,7;"/><polygon fill="#181818" points="592.22,215.29,590.1669,205.6575,589.2814,211.2446,583.6943,210.3592,592.22,215.29" style="stroke:#181818;stroke-width:1;"/></g><!--link main to int_converters--><g class="link" data-entity-1="ent0003" data-entity-2="ent0010" data-link-type="dependency" data-source-line="57" id="lnk22"><path codeLine="57" d="M528.51,119.51 C536.8,127.38 546.36,135.58 556,142 C583.62,160.38 655.0606,191.4645 710.8506,214.6845" fill="none" id="main-to-int_converters" style="stroke:#181818;stroke-width:1;stroke-dasharray:7,7;"/><polygon fill="#181818" points="716.39,216.99,709.6179,209.8388,711.7739,215.0687,706.5439,217.2247,716.39,216.99" style="stroke:#181818;stroke-width:1;"/></g><!--link main to proj_deps--><g class="link" data-entity-1="ent0003" data-entity-2="ent0012" data-link-type="dependency" data-source-line="58" id="lnk23"><path codeLine="58" d="M526.33,119.68 C534.85,128.04 545.1,136.49 556,142 C687.14,208.35 778.99,97.2 881,203 C912.705,235.885 920.71,286.4225 920.6637,329.27 C920.658,334.6259 920.5264,339.8617 920.2996,344.9278 C920.2429,346.1944 920.1802,347.4503 920.1121,348.6949 C920.078,349.3171 920.3995,366.2441 920.3628,366.8606" fill="none" id="main-to-proj_deps" style="stroke:#181818;stroke-width:1;stroke-dasharray:7,7;"/><polygon fill="#181818" points="920.0058,372.8499,924.5342,364.1039,920.3033,367.8588,916.5484,363.6279,920.0058,372.8499" style="stroke:#181818;stroke-width:1;"/><text fill="#000000" font-family="sans-serif" font-size="13" lengthAdjust="spacing" textLength="43.6909" x="920" y="248.0669">&#171;load&#187;</text></g><?plantuml-src XLFTQjum3BtFKuZSh5sRF40fkTXN2eKEHlbW5zqehgFaS-lOnd86NTTtd-BysFs1Xf20V7Ga7Hqx8Hz5Zr2wf_tDzMvdpH_q0JrSe4FJef4AgGH1u9w2r_AkHKVmN00_KWiY68GoS7uEHvUdrik3Qe-X6uri6k1t1i9B4V_61WIl-aC0syN4-PYV_G5dfYatA6j04NWaPmsfUutGMN-seR_23-59cHwa7GPXsaehWo1yFmve0cN0QolQ2SW5fJMTwaSl8d-dDER0AwE24bhzdT21sn7EUUky4joqN7N9M_1M8j52FgctS4OCYnVdBJAfRYP5_Iws0OisBpdWAk3mK-X7rdzHxWJsNd1fGefDnJAAOVJByDmWXTRpoTPY_PwNEGnf4Up4knnFNxTk_zkeTAXO_iq0yzAL2NSRCQNaZ9j5TxmCP0ySVOTJFQttNezu38DjHurDimxAQLj15ky1PVZ0PdomcYmlioGaWxwIRn8UIX_rdTTSSZyFPCrcmbV8i0Z2Hg3Fa5hEUotJ-8puaXgjnrksFG_nkyvlIV6kvQhwrxoHj2YYw-kwoPQVOcbnAPQxA4NNDQJ8cq9Bl6gIn6SykURxqJJ5Vm00?></g></svg>