<?plantuml 1.2026.1?><svg xmlns="http://www.w3.org/2000/svg" xmlns:xlink="http://www.w3.org/1999/xlink" contentStyleType="text/css" data-diagram-type="CLASS" height="669px" preserveAspectRatio="none" style="width:973px;height:669px;background:#FFFFFF;" version="1.1" viewBox="0 0 973 669" width="973px" zoomAndPan="magnify"><defs/><g><!--cluster Dependencies--><g class="cluster" data-qualified-name="Dependencies" data-source-line="14" id="ent0005"><path d="M8.5,286 L120.5088,286 A3.75,3.75 0 0 1 123.0088,288.5 L130.0088,308.2969 L963.5,308.2969 A2.5,2.5 0 0 1 966,310.7969 L966,659.5 A2.5,2.5 0 0 1 963.5,662 L8.5,662 A2.5,2.5 0 0 1 6,659.5 L6,288.5 A2.5,2.5 0 0 1 8.5,286" fill="none" style="stroke:#000000;stroke-width:1.5;"/><line style="stroke:#000000;stroke-width:1.5;" x1="6" x2="130.0088" y1="308.2969" y2="308.2969"/><text fill="#000000" font-family="sans-serif" font-size="14" font-weight="bold" lengthAdjust="spacing" textLength="111.0088" x="10" y="300.9951">Dependencies</text></g><!--class trlc--><g class="entity" data-qualified-name="Dependencies.trlc" data-source-line="16" id="ent0006"><rect fill="#F1F1F1" height="56.2656" rx="2.5" ry="2.5" style="stroke:#181818;stroke-width:0.5;" width="87.7832" x="489" y="325"/><ellipse cx="504" cy="345.1328" fill="#ADD8E6" rx="11" ry="11" style="stroke:#181818;stroke-width:1;"/><path d="M499.7188,338.7422 L502.6406,338.7422 L504.1094,344.1797 L505.5781,338.7422 L508.5156,338.7422 L508.5156,351.1328 L506.4063,351.1328 L506.4063,341.2109 L505.0938,346.6328 L503.1563,346.6328 L501.8281,341.2109 L501.8281,351.1328 L499.7188,351.1328 L499.7188,338.7422 Z " fill="#000000"/><text fill="#000000" font-family="sans-serif" font-size="12" font-style="italic" lengthAdjust="spacing" textLength="59.7832" x="516" y="341.1387">&#171;module&#187;</text><text fill="#000000" font-family="sans-serif" font-size="14" lengthAdjust="spacing" textLength="22.832" x="534.4756" y="356.9639">trlc</text><line style="stroke:#181818;stroke-width:0.5;" x1="490" x2="575.7832" y1="365.2656" y2="365.2656"/><line style="stroke:#181818;stroke-width:0.5;" x1="490" x2="575.7832" y1="373.2656" y2="373.2656"/></g><g class="entity" data-qualified-name="Dependencies.GMN7" data-source-line="20" id="ent0008"><path d="M460,445 L460,545.7969 A0,0 0 0 0 460,545.7969 L611.5615,545.7969 A0,0 0 0 0 611.5615,545.7969 L611.5615,455 L601.5615,445 L538.94,445 L533.58,381.09 L530.94,445 L460,445 A0,0 0 0 0 460,445" fill="#FEFFDD" style="stroke:#181818;stroke-width:0.5;"/><path d="M601.5615,445 L601.5615,455 L611.5615,455 L601.5615,445" fill="#FEFFDD" style="stroke:#181818;stroke-width:0.5;"/><text fill="#000000" font-family="sans-serif" font-size="13" lengthAdjust="spacing" textLength="130.3364" x="466" y="462.0669">Use TRLC ast items:</text><ellipse cx="471.5" cy="472.7656" fill="#000000" rx="2.5" ry="2.5"/><text fill="#000000" font-family="sans-serif" font-size="13" lengthAdjust="spacing" textLength="79.5171" x="478" y="477.1997">Implicit_Null</text><ellipse cx="471.5" cy="487.8984" fill="#000000" rx="2.5" ry="2.5"/><text fill="#000000" font-family="sans-serif" font-size="13" lengthAdjust="spacing" textLength="94.5674" x="478" y="492.3325">Record_Object</text><ellipse cx="471.5" cy="503.0313" fill="#000000" rx="2.5" ry="2.5"/><text fill="#000000" font-family="sans-serif" font-size="13" lengthAdjust="spacing" textLength="118.5615" x="478" y="507.4653">Record_Reference</text><ellipse cx="471.5" cy="518.1641" fill="#000000" rx="2.5" ry="2.5"/><text fill="#000000" font-family="sans-serif" font-size="13" lengthAdjust="spacing" textLength="86.1694" x="478" y="522.5981">String_Literal</text><ellipse cx="471.5" cy="533.2969" fill="#000000" rx="2.5" ry="2.5"/><text fill="#000000" font-family="sans-serif" font-size="13" lengthAdjust="spacing" textLength="70.8525" x="478" y="537.731">Expression</text></g><!--class docx--><g class="entity" data-qualified-name="Dependencies.docx" data-source-line="29" id="ent0010"><rect fill="#F1F1F1" height="56.2656" rx="2.5" ry="2.5" style="stroke:#181818;stroke-width:0.5;" width="87.7832" x="317" y="325"/><ellipse cx="332" cy="345.1328" fill="#ADD8E6" rx="11" ry="11" style="stroke:#181818;stroke-width:1;"/><path d="M327.7188,338.7422 L330.6406,338.7422 L332.1094,344.1797 L333.5781,338.7422 L336.5156,338.7422 L336.5156,351.1328 L334.4063,351.1328 L334.4063,341.2109 L333.0938,346.6328 L331.1563,346.6328 L329.8281,341.2109 L329.8281,351.1328 L327.7188,351.1328 L327.7188,338.7422 Z " fill="#000000"/><text fill="#000000" font-family="sans-serif" font-size="12" font-style="italic" lengthAdjust="spacing" textLength="59.7832" x="344" y="341.1387">&#171;module&#187;</text><text fill="#000000" font-family="sans-serif" font-size="14" lengthAdjust="spacing" textLength="33.4346" x="357.1743" y="356.9639">docx</text><line style="stroke:#181818;stroke-width:0.5;" x1="318" x2="403.7832" y1="365.2656" y2="365.2656"/><line style="stroke:#181818;stroke-width:0.5;" x1="318" x2="403.7832" y1="373.2656" y2="373.2656"/></g><g class="entity" data-qualified-name="Dependencies.GMN11" data-source-line="32" id="ent0012"><path d="M191,483 L191,508.1328 A0,0 0 0 0 191,508.1328 L424.6084,508.1328 A0,0 0 0 0 424.6084,508.1328 L424.6084,493 L414.6084,483 L316.39,483 L350.78,381.09 L308.39,483 L191,483 A0,0 0 0 0 191,483" fill="#FEFFDD" style="stroke:#181818;stroke-width:0.5;"/><path d="M414.6084,483 L414.6084,493 L424.6084,493 L414.6084,483" fill="#FEFFDD" style="stroke:#181818;stroke-width:0.5;"/><text fill="#000000" font-family="sans-serif" font-size="13" lengthAdjust="spacing" textLength="212.6084" x="197" y="500.0669">Library for generating .docx files</text></g><!--class Md2DocxRenderer--><g class="entity" data-qualified-name="Dependencies.Md2DocxRenderer" data-source-line="35" id="ent0014"><rect fill="#F1F1F1" height="64.2969" rx="2.5" ry="2.5" style="stroke:#181818;stroke-width:0.5;" width="172.8428" x="612.5" y="321"/><ellipse cx="632.3612" cy="337" fill="#ADD1B2" rx="11" ry="11" style="stroke:#181818;stroke-width:1;"/><path d="M635.33,342.6406 Q634.7519,342.9375 634.1112,343.0781 Q633.4706,343.2344 632.7675,343.2344 Q630.2675,343.2344 628.9394,341.5938 Q627.6269,339.9375 627.6269,336.8125 Q627.6269,333.6875 628.9394,332.0313 Q630.2675,330.375 632.7675,330.375 Q633.4706,330.375 634.1112,330.5313 Q634.7675,330.6875 635.33,330.9844 L635.33,333.7031 Q634.705,333.125 634.1112,332.8594 Q633.5175,332.5781 632.8925,332.5781 Q631.5487,332.5781 630.8612,333.6563 Q630.1737,334.7188 630.1737,336.8125 Q630.1737,338.9063 630.8612,339.9844 Q631.5487,341.0469 632.8925,341.0469 Q633.5175,341.0469 634.1112,340.7813 Q634.705,340.5 635.33,339.9219 L635.33,342.6406 Z " fill="#000000"/><text fill="#000000" font-family="sans-serif" font-size="14" lengthAdjust="spacing" textLength="130.04" x="647.4415" y="341.8467">Md2DocxRenderer</text><line style="stroke:#181818;stroke-width:0.5;" x1="613.5" x2="784.3428" y1="353" y2="353"/><line style="stroke:#181818;stroke-width:0.5;" x1="613.5" x2="784.3428" y1="361" y2="361"/><g data-visibility-modifier="PUBLIC_METHOD"><ellipse cx="623.5" cy="374.6484" fill="#84BE84" rx="3" ry="3" style="stroke:#038048;stroke-width:1;"/></g><text fill="#000000" font-family="sans-serif" font-size="14" lengthAdjust="spacing" textLength="146.8428" x="632.5" y="377.9951">render(ast: Any) : str</text></g><!--class Gfm2DocxRenderer--><g class="entity" data-qualified-name="Dependencies.Gfm2DocxRenderer" data-source-line="39" id="ent0015"><rect fill="#F1F1F1" height="48" rx="2.5" ry="2.5" style="stroke:#181818;stroke-width:0.5;" width="170.4893" x="780" y="471.5"/><ellipse cx="795" cy="487.5" fill="#ADD1B2" rx="11" ry="11" style="stroke:#181818;stroke-width:1;"/><path d="M797.9688,493.1406 Q797.3906,493.4375 796.75,493.5781 Q796.1094,493.7344 795.4063,493.7344 Q792.9063,493.7344 791.5781,492.0938 Q790.2656,490.4375 790.2656,487.3125 Q790.2656,484.1875 791.5781,482.5313 Q792.9063,480.875 795.4063,480.875 Q796.1094,480.875 796.75,481.0313 Q797.4063,481.1875 797.9688,481.4844 L797.9688,484.2031 Q797.3438,483.625 796.75,483.3594 Q796.1563,483.0781 795.5313,483.0781 Q794.1875,483.0781 793.5,484.1563 Q792.8125,485.2188 792.8125,487.3125 Q792.8125,489.4063 793.5,490.4844 Q794.1875,491.5469 795.5313,491.5469 Q796.1563,491.5469 796.75,491.2813 Q797.3438,491 797.9688,490.4219 L797.9688,493.1406 Z " fill="#000000"/><text fill="#000000" font-family="sans-serif" font-size="14" lengthAdjust="spacing" textLength="138.4893" x="809" y="492.3467">Gfm2DocxRenderer</text><line style="stroke:#181818;stroke-width:0.5;" x1="781" x2="949.4893" y1="503.5" y2="503.5"/><line style="stroke:#181818;stroke-width:0.5;" x1="781" x2="949.4893" y1="511.5" y2="511.5"/></g><!--class marko--><g class="entity" data-qualified-name="Dependencies.marko" data-source-line="42" id="ent0017"><rect fill="#F1F1F1" height="56.2656" rx="2.5" ry="2.5" style="stroke:#181818;stroke-width:0.5;" width="87.7832" x="97" y="325"/><ellipse cx="112" cy="345.1328" fill="#ADD8E6" rx="11" ry="11" style="stroke:#181818;stroke-width:1;"/><path d="M107.7188,338.7422 L110.6406,338.7422 L112.1094,344.1797 L113.5781,338.7422 L116.5156,338.7422 L116.5156,351.1328 L114.4063,351.1328 L114.4063,341.2109 L113.0938,346.6328 L111.1563,346.6328 L109.8281,341.2109 L109.8281,351.1328 L107.7188,351.1328 L107.7188,338.7422 Z " fill="#000000"/><text fill="#000000" font-family="sans-serif" font-size="12" font-style="italic" lengthAdjust="spacing" textLength="59.7832" x="124" y="341.1387">&#171;module&#187;</text><text fill="#000000" font-family="sans-serif" font-size="14" lengthAdjust="spacing" textLength="44.6455" x="131.5688" y="356.9639">marko</text><line style="stroke:#181818;stroke-width:0.5;" x1="98" x2="183.7832" y1="365.2656" y2="365.2656"/><line style="stroke:#181818;stroke-width:0.5;" x1="98" x2="183.7832" y1="373.2656" y2="373.2656"/></g><g class="entity" data-qualified-name="Dependencies.GMN18" data-source-line="45" id="ent0019"><path d="M22,483 L22,508.1328 A0,0 0 0 0 22,508.1328 L155.5313,508.1328 A0,0 0 0 0 155.5313,508.1328 L155.5313,493 L145.5313,483 L97.31,483 L130.97,381.09 L89.31,483 L22,483 A0,0 0 0 0 22,483" fill="#FEFFDD" style="stroke:#181818;stroke-width:0.5;"/><path d="M145.5313,483 L145.5313,493 L155.5313,493 L145.5313,483" fill="#FEFFDD" style="stroke:#181818;stroke-width:0.5;"/><text fill="#000000" font-family="sans-serif" font-size="13" lengthAdjust="spacing" textLength="112.5313" x="28" y="500.0669">Markdown Parser</text></g><!--class PlantUML--><g class="entity" data-qualified-name="Dependencies.PlantUML" data-source-line="48" id="ent0021"><rect fill="#F1F1F1" height="48" rx="2.5" ry="2.5" style="stroke:#181818;stroke-width:0.5;" width="97.3994" x="647.5" y="471.5"/><ellipse cx="662.5" cy="487.5" fill="#ADD1B2" rx="11" ry="11" style="stroke:#181818;stroke-width:1;"/><path d="M665.4688,493.1406 Q664.8906,493.4375 664.25,493.5781 Q663.6094,493.7344 662.9063,493.7344 Q660.4063,493.7344 659.0781,492.0938 Q657.7656,490.4375 657.7656,487.3125 Q657.7656,484.1875 659.0781,482.5313 Q660.4063,480.875 662.9063,480.875 Q663.6094,480.875 664.25,481.0313 Q664.9063,481.1875 665.4688,481.4844 L665.4688,484.2031 Q664.8438,483.625 664.25,483.3594 Q663.6563,483.0781 663.0313,483.0781 Q661.6875,483.0781 661,484.1563 Q660.3125,485.2188 660.3125,487.3125 Q660.3125,489.4063 661,490.4844 Q661.6875,491.5469 663.0313,491.5469 Q663.6563,491.5469 664.25,491.2813 Q664.8438,491 665.4688,490.4219 L665.4688,493.1406 Z " fill="#000000"/><text fill="#000000" font-family="sans-serif" font-size="14" lengthAdjust="spacing" textLength="65.3994" x="676.5" y="492.3467">PlantUML</text><line style="stroke:#181818;stroke-width:0.5;" x1="648.5" x2="743.8994" y1="503.5" y2="503.5"/><line style="stroke:#181818;stroke-width:0.5;" x1="648.5" x2="743.8994" y1="511.5" y2="511.5"/></g><g class="entity" data-qualified-name="Dependencies.GMN22" data-source-line="51" id="ent0023"><path d="M588.5,606 L588.5,646.2656 A0,0 0 0 0 588.5,646.2656 L803.3955,646.2656 A0,0 0 0 0 803.3955,646.2656 L803.3955,616 L793.3955,606 L700,606 L696,519.77 L692,606 L588.5,606 A0,0 0 0 0 588.5,606" fill="#FEFFDD" style="stroke:#181818;stroke-width:0.5;"/><path d="M793.3955,606 L793.3955,616 L803.3955,616 L793.3955,606" fill="#FEFFDD" style="stroke:#181818;stroke-width:0.5;"/><text fill="#000000" font-family="sans-serif" font-size="13" lengthAdjust="spacing" textLength="193.8955" x="594.5" y="623.0669">Renders inline ```plantuml```</text><text fill="#000000" font-family="sans-serif" font-size="13" lengthAdjust="spacing" textLength="178.1787" x="594.5" y="638.1997">fenced code blocks to PNG.</text></g><!--class BaseConverter--><g class="entity" data-qualified-name="BaseConverter" data-source-line="2" id="ent0002"><rect fill="#F1F1F1" height="48" rx="2.5" ry="2.5" style="stroke:#181818;stroke-width:0.5;" width="135.8174" x="465" y="7"/><ellipse cx="480" cy="23" fill="#ADD1B2" rx="11" ry="11" style="stroke:#181818;stroke-width:1;"/><path d="M482.9688,28.6406 Q482.3906,28.9375 481.75,29.0781 Q481.1094,29.2344 480.4063,29.2344 Q477.9063,29.2344 476.5781,27.5938 Q475.2656,25.9375 475.2656,22.8125 Q475.2656,19.6875 476.5781,18.0313 Q477.9063,16.375 480.4063,16.375 Q481.1094,16.375 481.75,16.5313 Q482.4063,16.6875 482.9688,16.9844 L482.9688,19.7031 Q482.3438,19.125 481.75,18.8594 Q481.1563,18.5781 480.5313,18.5781 Q479.1875,18.5781 478.5,19.6563 Q477.8125,20.7188 477.8125,22.8125 Q477.8125,24.9063 478.5,25.9844 Q479.1875,27.0469 480.5313,27.0469 Q481.1563,27.0469 481.75,26.7813 Q482.3438,26.5 482.9688,25.9219 L482.9688,28.6406 Z " fill="#000000"/><text fill="#000000" font-family="sans-serif" font-size="14" lengthAdjust="spacing" textLength="103.8174" x="494" y="27.8467">BaseConverter</text><line style="stroke:#181818;stroke-width:0.5;" x1="466" x2="599.8174" y1="39" y2="39"/><line style="stroke:#181818;stroke-width:0.5;" x1="466" x2="599.8174" y1="47" y2="47"/></g><!--class DocxConverter--><g class="entity" data-qualified-name="DocxConverter" data-source-line="5" id="ent0003"><rect fill="#F1F1F1" height="145.7813" rx="2.5" ry="2.5" style="stroke:#181818;stroke-width:0.5;" width="704.7129" x="180.5" y="115"/><ellipse cx="476.0791" cy="131" fill="#ADD1B2" rx="11" ry="11" style="stroke:#181818;stroke-width:1;"/><path d="M479.0479,136.6406 Q478.4697,136.9375 477.8291,137.0781 Q477.1885,137.2344 476.4854,137.2344 Q473.9854,137.2344 472.6572,135.5938 Q471.3447,133.9375 471.3447,130.8125 Q471.3447,127.6875 472.6572,126.0313 Q473.9854,124.375 476.4854,124.375 Q477.1885,124.375 477.8291,124.5313 Q478.4854,124.6875 479.0479,124.9844 L479.0479,127.7031 Q478.4229,127.125 477.8291,126.8594 Q477.2354,126.5781 476.6104,126.5781 Q475.2666,126.5781 474.5791,127.6563 Q473.8916,128.7188 473.8916,130.8125 Q473.8916,132.9063 474.5791,133.9844 Q475.2666,135.0469 476.6104,135.0469 Q477.2354,135.0469 477.8291,134.7813 Q478.4229,134.5 479.0479,133.9219 L479.0479,136.6406 Z " fill="#000000"/><text fill="#000000" font-family="sans-serif" font-size="14" lengthAdjust="spacing" textLength="105.0547" x="496.5791" y="135.8467">DocxConverter</text><line style="stroke:#181818;stroke-width:0.5;" x1="181.5" x2="884.2129" y1="147" y2="147"/><line style="stroke:#181818;stroke-width:0.5;" x1="181.5" x2="884.2129" y1="155" y2="155"/><g data-visibility-modifier="PUBLIC_METHOD"><ellipse cx="191.5" cy="168.6484" fill="#84BE84" rx="3" ry="3" style="stroke:#038048;stroke-width:1;"/></g><text fill="#000000" font-family="sans-serif" font-size="14" lengthAdjust="spacing" textLength="168" x="200.5" y="171.9951">get_subcommand() : str</text><g data-visibility-modifier="PUBLIC_METHOD"><ellipse cx="191.5" cy="184.9453" fill="#84BE84" rx="3" ry="3" style="stroke:#038048;stroke-width:1;"/></g><text fill="#000000" font-family="sans-serif" font-size="14" lengthAdjust="spacing" textLength="150.9102" x="200.5" y="188.292">get_description() : str</text><g data-visibility-modifier="PUBLIC_METHOD"><ellipse cx="191.5" cy="201.2422" fill="#84BE84" rx="3" ry="3" style="stroke:#038048;stroke-width:1;"/></g><text fill="#000000" font-family="sans-serif" font-size="14" lengthAdjust="spacing" textLength="233.666" x="200.5" y="204.5889">register(args_parser: Any) : None</text><g data-visibility-modifier="PUBLIC_METHOD"><ellipse cx="191.5" cy="217.5391" fill="#84BE84" rx="3" ry="3" style="stroke:#038048;stroke-width:1;"/></g><text fill="#000000" font-family="sans-serif" font-size="14" lengthAdjust="spacing" textLength="306.8105" x="200.5" y="220.8857">convert_section(section: str, level: int) : Ret</text><g data-visibility-modifier="PUBLIC_METHOD"><ellipse cx="191.5" cy="233.8359" fill="#84BE84" rx="3" ry="3" style="stroke:#038048;stroke-width:1;"/></g><text fill="#000000" font-family="sans-serif" font-size="14" lengthAdjust="spacing" textLength="678.7129" x="200.5" y="237.1826">convert_record_object_generic(record: Record_Object, level: int, translation: Optional[dict]) : Ret</text><g data-visibility-modifier="PUBLIC_METHOD"><ellipse cx="191.5" cy="250.1328" fill="#84BE84" rx="3" ry="3" style="stroke:#038048;stroke-width:1;"/></g><text fill="#000000" font-family="sans-serif" font-size="14" lengthAdjust="spacing" textLength="86.1191" x="200.5" y="253.4795">finish() : Ret</text></g><!--reverse link BaseConverter to DocxConverter--><g class="link" data-entity-1="ent0002" data-entity-2="ent0003" data-link-type="extension" data-source-line="6" id="lnk4"><path d="M533,73.21 C533,89.17 533,93.3 533,114.88" fill="none" id="BaseConverter-backto-DocxConverter" style="stroke:#181818;stroke-width:1;"/><polygon fill="none" points="533,55.21,527,73.21,539,73.21,533,55.21" style="stroke:#181818;stroke-width:1;"/></g><!--reverse link Md2DocxRenderer to Gfm2DocxRenderer--><g class="link" data-entity-1="ent0014" data-entity-2="ent0015" data-link-type="extension" id="lnk16"><path d="M749.5796,396.8086 C780.4296,422.9186 810.02,447.97 837.81,471.48" fill="none" id="Md2DocxRenderer-backto-Gfm2DocxRenderer" style="stroke:#181818;stroke-width:1;"/><polygon fill="none" points="735.84,385.18,745.7034,401.3884,753.4558,392.2287,735.84,385.18" style="stroke:#181818;stroke-width:1;"/></g><!--link DocxConverter to trlc--><g class="link" data-entity-1="ent0003" data-entity-2="ent0006" data-link-type="dependency" data-source-line="56" id="lnk25"><path codeLine="56" d="M533,261.44 C533,283.89 533,301.27 533,318.64" fill="none" id="DocxConverter-to-trlc" style="stroke:#181818;stroke-width:1;stroke-dasharray:7,7;"/><polygon fill="#181818" points="533,324.64,537,315.64,533,319.64,529,315.64,533,324.64" style="stroke:#181818;stroke-width:1;"/></g><!--link DocxConverter to docx--><g class="link" data-entity-1="ent0003" data-entity-2="ent0010" data-link-type="dependency" data-source-line="57" id="lnk26"><path codeLine="57" d="M456.81,261.21 C432.91,283.86 412.3357,303.3535 393.8957,320.8235" fill="none" id="DocxConverter-to-docx" style="stroke:#181818;stroke-width:1;stroke-dasharray:7,7;"/><polygon fill="#181818" points="389.54,324.95,398.8245,321.664,393.1697,321.5112,393.3225,315.8564,389.54,324.95" style="stroke:#181818;stroke-width:1;"/></g><!--link DocxConverter to Md2DocxRenderer--><g class="link" data-entity-1="ent0003" data-entity-2="ent0014" data-link-type="dependency" data-source-line="58" id="lnk27"><path codeLine="58" d="M606.78,261.44 C627.9,282.19 645.5577,299.5274 662.7377,316.3874" fill="none" id="DocxConverter-to-Md2DocxRenderer" style="stroke:#181818;stroke-width:1;stroke-dasharray:7,7;"/><polygon fill="#181818" points="667.02,320.59,663.3982,311.4313,663.4514,317.0879,657.7948,317.141,667.02,320.59" style="stroke:#181818;stroke-width:1;"/></g><!--link DocxConverter to Gfm2DocxRenderer--><g class="link" data-entity-1="ent0003" data-entity-2="ent0015" data-link-type="dependency" data-source-line="59" id="lnk28"><path codeLine="59" d="M784.38,261.06 C790.95,266.31 797.19,271.95 803,278 C855.16,332.26 863.7726,421.3321 864.9226,465.1621" fill="none" id="DocxConverter-to-Gfm2DocxRenderer" style="stroke:#181818;stroke-width:1;stroke-dasharray:7,7;"/><polygon fill="#181818" points="865.08,471.16,868.8426,462.0582,864.9489,466.1617,860.8453,462.268,865.08,471.16" style="stroke:#181818;stroke-width:1;"/></g><!--link DocxConverter to marko--><g class="link" data-entity-1="ent0003" data-entity-2="ent0017" data-link-type="dependency" data-source-line="60" id="lnk29"><path codeLine="60" d="M340.04,261.08 C326.1,266.69 312.31,272.36 299,278 C260.09,294.48 222.0705,312.3656 190.6105,327.5956" fill="none" id="DocxConverter-to-marko" style="stroke:#181818;stroke-width:1;stroke-dasharray:7,7;"/><polygon fill="#181818" points="185.21,330.21,195.0536,329.8887,189.7104,328.0313,191.5678,322.6881,185.21,330.21" style="stroke:#181818;stroke-width:1;"/></g><!--link Md2DocxRenderer to PlantUML--><g class="link" data-entity-1="ent0014" data-entity-2="ent0021" data-link-type="dependency" data-source-line="61" id="lnk30"><path codeLine="61" d="M698.33,385.18 C697.78,411.21 697.1275,441.7414 696.6275,465.2614" fill="none" id="Md2DocxRenderer-to-PlantUML" style="stroke:#181818;stroke-width:1;stroke-dasharray:7,7;"/><polygon fill="#181818" points="696.5,471.26,700.6904,462.347,696.6063,466.2611,692.6922,462.177,696.5,471.26" style="stroke:#181818;stroke-width:1;"/></g><?plantuml-src XLHDRzf04BtpAqOvEItYq2EAaDgaYYe1GRGvLPLPxuwTBUjTQtQT4bNyz-v7C3QGr1VWpPitCs_6SCMiXI_CugtHpqWE2VwEzgCHZu4xmtV70EuSQd5E1_zyhD3bjYsugMkcHNODKx2EZZ61bfDid3Hw62IifFL26QFAvWqZYpI5p_ebi9P6OwBnL32toAF6wsSK6eF2PrHJaDg5h3MwOH8XDoHoK_psMNc56adoBA617gCFCThN6eCZfgrYgT93x9wfdq9ozsjGg9HQsgViW7a36yQth4AukiF6kuQQIxHNtgsOaEnrf3ZSt6GB62jPFRb2jNWDjH6jmjai6RjF2TeuXC8uPsemPSoCU7WUBSAFzVmMc7KW7TPssiK-mBUwKP9BbozRfNhuOEfpV8qbakyQUw7lZgIkyhclGQolzNNN45hhtOcWdpSsFEeFA_mj_N_O2xE6nAxMN1R4w0LAGn3tw7UZAvX4zL8gj2ST71jOY4_XdjTX6zGTRbmVK0GpRs1tUeS3tVSrxijwA79u9owB3t9hHblpjWFmZWKnjMjtuNy9yqV3AhuiRmwyKaoxnyNyFUK3fnDF4rX__afgXCrcqmHAMol_jMELuJ84S2Eyc39ywu_Pm6fvFnbsumqO_eTC9hDqlETmtFCvVEBi1SRfKYvGae6dImgHpe1_?></g></svg>