<?plantuml 1.2026.1?><svg xmlns="http://www.w3.org/2000/svg" xmlns:xlink="http://www.w3.org/1999/xlink" contentStyleType="text/css" data-diagram-type="CLASS" height="718px" preserveAspectRatio="none" style="width:759px;height:718px;background:#FFFFFF;" version="1.1" viewBox="0 0 759 718" width="759px" zoomAndPan="magnify"><defs/><g><!--cluster Dependencies--><g class="cluster" data-qualified-name="Dependencies" data-source-line="18" id="ent0005"><path d="M8.5,335 L120.5088,335 A3.75,3.75 0 0 1 123.0088,337.5 L130.0088,357.2969 L682.5,357.2969 A2.5,2.5 0 0 1 685,359.7969 L685,708.5 A2.5,2.5 0 0 1 682.5,711 L8.5,711 A2.5,2.5 0 0 1 6,708.5 L6,337.5 A2.5,2.5 0 0 1 8.5,335" fill="none" style="stroke:#000000;stroke-width:1.5;"/><line style="stroke:#000000;stroke-width:1.5;" x1="6" x2="130.0088" y1="357.2969" y2="357.2969"/><text fill="#000000" font-family="sans-serif" font-size="14" font-weight="bold" lengthAdjust="spacing" textLength="111.0088" x="10" y="349.9951">Dependencies</text></g><!--class trlc--><g class="entity" data-qualified-name="Dependencies.trlc" data-source-line="20" id="ent0006"><rect fill="#F1F1F1" height="56.2656" rx="2.5" ry="2.5" style="stroke:#181818;stroke-width:0.5;" width="87.7832" x="233" y="374"/><ellipse cx="248" cy="394.1328" fill="#ADD8E6" rx="11" ry="11" style="stroke:#181818;stroke-width:1;"/><path d="M243.7188,387.7422 L246.6406,387.7422 L248.1094,393.1797 L249.5781,387.7422 L252.5156,387.7422 L252.5156,400.1328 L250.4063,400.1328 L250.4063,390.2109 L249.0938,395.6328 L247.1563,395.6328 L245.8281,390.2109 L245.8281,400.1328 L243.7188,400.1328 L243.7188,387.7422 Z " fill="#000000"/><text fill="#000000" font-family="sans-serif" font-size="12" font-style="italic" lengthAdjust="spacing" textLength="59.7832" x="260" y="390.1387">&#171;module&#187;</text><text fill="#000000" font-family="sans-serif" font-size="14" lengthAdjust="spacing" textLength="22.832" x="278.4756" y="405.9639">trlc</text><line style="stroke:#181818;stroke-width:0.5;" x1="234" x2="319.7832" y1="414.2656" y2="414.2656"/><line style="stroke:#181818;stroke-width:0.5;" x1="234" x2="319.7832" y1="422.2656" y2="422.2656"/></g><g class="entity" data-qualified-name="Dependencies.GMN7" data-source-line="24" id="ent0008"><path d="M22,494 L22,594.7969 A0,0 0 0 0 22,594.7969 L173.5615,594.7969 A0,0 0 0 0 173.5615,594.7969 L173.5615,504 L163.5615,494 L165.39,494 L242.49,430.09 L157.39,494 L22,494 A0,0 0 0 0 22,494" fill="#FEFFDD" style="stroke:#181818;stroke-width:0.5;"/><path d="M163.5615,494 L163.5615,504 L173.5615,504 L163.5615,494" fill="#FEFFDD" style="stroke:#181818;stroke-width:0.5;"/><text fill="#000000" font-family="sans-serif" font-size="13" lengthAdjust="spacing" textLength="130.3364" x="28" y="511.0669">Use TRLC ast items:</text><ellipse cx="33.5" cy="521.7656" fill="#000000" rx="2.5" ry="2.5"/><text fill="#000000" font-family="sans-serif" font-size="13" lengthAdjust="spacing" textLength="79.5171" x="40" y="526.1997">Implicit_Null</text><ellipse cx="33.5" cy="536.8984" fill="#000000" rx="2.5" ry="2.5"/><text fill="#000000" font-family="sans-serif" font-size="13" lengthAdjust="spacing" textLength="94.5674" x="40" y="541.3325">Record_Object</text><ellipse cx="33.5" cy="552.0313" fill="#000000" rx="2.5" ry="2.5"/><text fill="#000000" font-family="sans-serif" font-size="13" lengthAdjust="spacing" textLength="118.5615" x="40" y="556.4653">Record_Reference</text><ellipse cx="33.5" cy="567.1641" fill="#000000" rx="2.5" ry="2.5"/><text fill="#000000" font-family="sans-serif" font-size="13" lengthAdjust="spacing" textLength="86.1694" x="40" y="571.5981">String_Literal</text><ellipse cx="33.5" cy="582.2969" fill="#000000" rx="2.5" ry="2.5"/><text fill="#000000" font-family="sans-serif" font-size="13" lengthAdjust="spacing" textLength="70.8525" x="40" y="586.731">Expression</text></g><!--class TrlcAstWalker--><g class="entity" data-qualified-name="Dependencies.TrlcAstWalker" data-source-line="32" id="ent0010"><rect fill="#F1F1F1" height="64.2969" rx="2.5" ry="2.5" style="stroke:#181818;stroke-width:0.5;" width="176.3564" x="22" y="370"/><ellipse cx="58.2911" cy="386" fill="#ADD1B2" rx="11" ry="11" style="stroke:#181818;stroke-width:1;"/><path d="M61.2598,391.6406 Q60.6817,391.9375 60.0411,392.0781 Q59.4004,392.2344 58.6973,392.2344 Q56.1973,392.2344 54.8692,390.5938 Q53.5567,388.9375 53.5567,385.8125 Q53.5567,382.6875 54.8692,381.0313 Q56.1973,379.375 58.6973,379.375 Q59.4004,379.375 60.0411,379.5313 Q60.6973,379.6875 61.2598,379.9844 L61.2598,382.7031 Q60.6348,382.125 60.0411,381.8594 Q59.4473,381.5781 58.8223,381.5781 Q57.4786,381.5781 56.7911,382.6563 Q56.1036,383.7188 56.1036,385.8125 Q56.1036,387.9063 56.7911,388.9844 Q57.4786,390.0469 58.8223,390.0469 Q59.4473,390.0469 60.0411,389.7813 Q60.6348,389.5 61.2598,388.9219 L61.2598,391.6406 Z " fill="#000000"/><text fill="#000000" font-family="sans-serif" font-size="14" lengthAdjust="spacing" textLength="97.043" x="77.0224" y="390.8467">TrlcAstWalker</text><line style="stroke:#181818;stroke-width:0.5;" x1="23" x2="197.3564" y1="402" y2="402"/><line style="stroke:#181818;stroke-width:0.5;" x1="23" x2="197.3564" y1="410" y2="410"/><g data-visibility-modifier="PUBLIC_METHOD"><ellipse cx="33" cy="423.6484" fill="#84BE84" rx="3" ry="3" style="stroke:#038048;stroke-width:1;"/></g><text fill="#000000" font-family="sans-serif" font-size="14" lengthAdjust="spacing" textLength="150.3564" x="42" y="426.9951">walk(ast: Any) : None</text></g><!--class Md2RstRenderer--><g class="entity" data-qualified-name="Dependencies.Md2RstRenderer" data-source-line="36" id="ent0011"><rect fill="#F1F1F1" height="64.2969" rx="2.5" ry="2.5" style="stroke:#181818;stroke-width:0.5;" width="172.8428" x="479.5" y="370"/><ellipse cx="505.1291" cy="386" fill="#ADD1B2" rx="11" ry="11" style="stroke:#181818;stroke-width:1;"/><path d="M508.0978,391.6406 Q507.5197,391.9375 506.8791,392.0781 Q506.2384,392.2344 505.5353,392.2344 Q503.0353,392.2344 501.7072,390.5938 Q500.3947,388.9375 500.3947,385.8125 Q500.3947,382.6875 501.7072,381.0313 Q503.0353,379.375 505.5353,379.375 Q506.2384,379.375 506.8791,379.5313 Q507.5353,379.6875 508.0978,379.9844 L508.0978,382.7031 Q507.4728,382.125 506.8791,381.8594 Q506.2853,381.5781 505.6603,381.5781 Q504.3166,381.5781 503.6291,382.6563 Q502.9416,383.7188 502.9416,385.8125 Q502.9416,387.9063 503.6291,388.9844 Q504.3166,390.0469 505.6603,390.0469 Q506.2853,390.0469 506.8791,389.7813 Q507.4728,389.5 508.0978,388.9219 L508.0978,391.6406 Z " fill="#000000"/><text fill="#000000" font-family="sans-serif" font-size="14" lengthAdjust="spacing" textLength="117.2227" x="521.4911" y="390.8467">Md2RstRenderer</text><line style="stroke:#181818;stroke-width:0.5;" x1="480.5" x2="651.3428" y1="402" y2="402"/><line style="stroke:#181818;stroke-width:0.5;" x1="480.5" x2="651.3428" y1="410" y2="410"/><g data-visibility-modifier="PUBLIC_METHOD"><ellipse cx="490.5" cy="423.6484" fill="#84BE84" rx="3" ry="3" style="stroke:#038048;stroke-width:1;"/></g><text fill="#000000" font-family="sans-serif" font-size="14" lengthAdjust="spacing" textLength="146.8428" x="499.5" y="426.9951">render(ast: Any) : str</text></g><!--class Gfm2RstRenderer--><g class="entity" data-qualified-name="Dependencies.Gfm2RstRenderer" data-source-line="40" id="ent0012"><rect fill="#F1F1F1" height="48" rx="2.5" ry="2.5" style="stroke:#181818;stroke-width:0.5;" width="157.6719" x="511" y="520.5"/><ellipse cx="526" cy="536.5" fill="#ADD1B2" rx="11" ry="11" style="stroke:#181818;stroke-width:1;"/><path d="M528.9688,542.1406 Q528.3906,542.4375 527.75,542.5781 Q527.1094,542.7344 526.4063,542.7344 Q523.9063,542.7344 522.5781,541.0938 Q521.2656,539.4375 521.2656,536.3125 Q521.2656,533.1875 522.5781,531.5313 Q523.9063,529.875 526.4063,529.875 Q527.1094,529.875 527.75,530.0313 Q528.4063,530.1875 528.9688,530.4844 L528.9688,533.2031 Q528.3438,532.625 527.75,532.3594 Q527.1563,532.0781 526.5313,532.0781 Q525.1875,532.0781 524.5,533.1563 Q523.8125,534.2188 523.8125,536.3125 Q523.8125,538.4063 524.5,539.4844 Q525.1875,540.5469 526.5313,540.5469 Q527.1563,540.5469 527.75,540.2813 Q528.3438,540 528.9688,539.4219 L528.9688,542.1406 Z " fill="#000000"/><text fill="#000000" font-family="sans-serif" font-size="14" lengthAdjust="spacing" textLength="125.6719" x="540" y="541.3467">Gfm2RstRenderer</text><line style="stroke:#181818;stroke-width:0.5;" x1="512" x2="667.6719" y1="552.5" y2="552.5"/><line style="stroke:#181818;stroke-width:0.5;" x1="512" x2="667.6719" y1="560.5" y2="560.5"/></g><!--class marko--><g class="entity" data-qualified-name="Dependencies.marko" data-source-line="43" id="ent0014"><rect fill="#F1F1F1" height="56.2656" rx="2.5" ry="2.5" style="stroke:#181818;stroke-width:0.5;" width="87.7832" x="356" y="374"/><ellipse cx="371" cy="394.1328" fill="#ADD8E6" rx="11" ry="11" style="stroke:#181818;stroke-width:1;"/><path d="M366.7188,387.7422 L369.6406,387.7422 L371.1094,393.1797 L372.5781,387.7422 L375.5156,387.7422 L375.5156,400.1328 L373.4063,400.1328 L373.4063,390.2109 L372.0938,395.6328 L370.1563,395.6328 L368.8281,390.2109 L368.8281,400.1328 L366.7188,400.1328 L366.7188,387.7422 Z " fill="#000000"/><text fill="#000000" font-family="sans-serif" font-size="12" font-style="italic" lengthAdjust="spacing" textLength="59.7832" x="383" y="390.1387">&#171;module&#187;</text><text fill="#000000" font-family="sans-serif" font-size="14" lengthAdjust="spacing" textLength="44.6455" x="390.5688" y="405.9639">marko</text><line style="stroke:#181818;stroke-width:0.5;" x1="357" x2="442.7832" y1="414.2656" y2="414.2656"/><line style="stroke:#181818;stroke-width:0.5;" x1="357" x2="442.7832" y1="422.2656" y2="422.2656"/></g><g class="entity" data-qualified-name="Dependencies.GMN15" data-source-line="46" id="ent0016"><path d="M209,532 L209,557.1328 A0,0 0 0 0 209,557.1328 L342.5313,557.1328 A0,0 0 0 0 342.5313,557.1328 L342.5313,542 L332.5313,532 L290.27,532 L376.09,430.09 L282.27,532 L209,532 A0,0 0 0 0 209,532" fill="#FEFFDD" style="stroke:#181818;stroke-width:0.5;"/><path d="M332.5313,532 L332.5313,542 L342.5313,542 L332.5313,532" fill="#FEFFDD" style="stroke:#181818;stroke-width:0.5;"/><text fill="#000000" font-family="sans-serif" font-size="13" lengthAdjust="spacing" textLength="112.5313" x="215" y="549.0669">Markdown Parser</text></g><!--class PlantUML--><g class="entity" data-qualified-name="Dependencies.PlantUML" data-source-line="49" id="ent0018"><rect fill="#F1F1F1" height="48" rx="2.5" ry="2.5" style="stroke:#181818;stroke-width:0.5;" width="97.3994" x="378.5" y="520.5"/><ellipse cx="393.5" cy="536.5" fill="#ADD1B2" rx="11" ry="11" style="stroke:#181818;stroke-width:1;"/><path d="M396.4688,542.1406 Q395.8906,542.4375 395.25,542.5781 Q394.6094,542.7344 393.9063,542.7344 Q391.4063,542.7344 390.0781,541.0938 Q388.7656,539.4375 388.7656,536.3125 Q388.7656,533.1875 390.0781,531.5313 Q391.4063,529.875 393.9063,529.875 Q394.6094,529.875 395.25,530.0313 Q395.9063,530.1875 396.4688,530.4844 L396.4688,533.2031 Q395.8438,532.625 395.25,532.3594 Q394.6563,532.0781 394.0313,532.0781 Q392.6875,532.0781 392,533.1563 Q391.3125,534.2188 391.3125,536.3125 Q391.3125,538.4063 392,539.4844 Q392.6875,540.5469 394.0313,540.5469 Q394.6563,540.5469 395.25,540.2813 Q395.8438,540 396.4688,539.4219 L396.4688,542.1406 Z " fill="#000000"/><text fill="#000000" font-family="sans-serif" font-size="14" lengthAdjust="spacing" textLength="65.3994" x="407.5" y="541.3467">PlantUML</text><line style="stroke:#181818;stroke-width:0.5;" x1="379.5" x2="474.8994" y1="552.5" y2="552.5"/><line style="stroke:#181818;stroke-width:0.5;" x1="379.5" x2="474.8994" y1="560.5" y2="560.5"/></g><g class="entity" data-qualified-name="Dependencies.GMN19" data-source-line="52" id="ent0020"><path d="M319.5,655 L319.5,695.2656 A0,0 0 0 0 319.5,695.2656 L534.3955,695.2656 A0,0 0 0 0 534.3955,695.2656 L534.3955,665 L524.3955,655 L431,655 L427,568.77 L423,655 L319.5,655 A0,0 0 0 0 319.5,655" fill="#FEFFDD" style="stroke:#181818;stroke-width:0.5;"/><path d="M524.3955,655 L524.3955,665 L534.3955,665 L524.3955,655" fill="#FEFFDD" style="stroke:#181818;stroke-width:0.5;"/><text fill="#000000" font-family="sans-serif" font-size="13" lengthAdjust="spacing" textLength="193.8955" x="325.5" y="672.0669">Renders inline ```plantuml```</text><text fill="#000000" font-family="sans-serif" font-size="13" lengthAdjust="spacing" textLength="177.7598" x="325.5" y="687.1997">fenced code blocks to SVG.</text></g><!--class BaseConverter--><g class="entity" data-qualified-name="BaseConverter" data-source-line="2" id="ent0002"><rect fill="#F1F1F1" height="48" rx="2.5" ry="2.5" style="stroke:#181818;stroke-width:0.5;" width="135.8174" x="332" y="7"/><ellipse cx="347" cy="23" fill="#ADD1B2" rx="11" ry="11" style="stroke:#181818;stroke-width:1;"/><path d="M349.9688,28.6406 Q349.3906,28.9375 348.75,29.0781 Q348.1094,29.2344 347.4063,29.2344 Q344.9063,29.2344 343.5781,27.5938 Q342.2656,25.9375 342.2656,22.8125 Q342.2656,19.6875 343.5781,18.0313 Q344.9063,16.375 347.4063,16.375 Q348.1094,16.375 348.75,16.5313 Q349.4063,16.6875 349.9688,16.9844 L349.9688,19.7031 Q349.3438,19.125 348.75,18.8594 Q348.1563,18.5781 347.5313,18.5781 Q346.1875,18.5781 345.5,19.6563 Q344.8125,20.7188 344.8125,22.8125 Q344.8125,24.9063 345.5,25.9844 Q346.1875,27.0469 347.5313,27.0469 Q348.1563,27.0469 348.75,26.7813 Q349.3438,26.5 349.9688,25.9219 L349.9688,28.6406 Z " fill="#000000"/><text fill="#000000" font-family="sans-serif" font-size="14" lengthAdjust="spacing" textLength="103.8174" x="361" y="27.8467">BaseConverter</text><line style="stroke:#181818;stroke-width:0.5;" x1="333" x2="466.8174" y1="39" y2="39"/><line style="stroke:#181818;stroke-width:0.5;" x1="333" x2="466.8174" y1="47" y2="47"/></g><!--class RstConverter--><g class="entity" data-qualified-name="RstConverter" data-source-line="5" id="ent0003"><rect fill="#F1F1F1" height="194.6719" rx="2.5" ry="2.5" style="stroke:#181818;stroke-width:0.5;" width="704.7129" x="47.5" y="115"/><ellipse cx="349.4878" cy="131" fill="#ADD1B2" rx="11" ry="11" style="stroke:#181818;stroke-width:1;"/><path d="M352.4565,136.6406 Q351.8784,136.9375 351.2378,137.0781 Q350.5972,137.2344 349.894,137.2344 Q347.394,137.2344 346.0659,135.5938 Q344.7534,133.9375 344.7534,130.8125 Q344.7534,127.6875 346.0659,126.0313 Q347.394,124.375 349.894,124.375 Q350.5972,124.375 351.2378,124.5313 Q351.894,124.6875 352.4565,124.9844 L352.4565,127.7031 Q351.8315,127.125 351.2378,126.8594 Q350.644,126.5781 350.019,126.5781 Q348.6753,126.5781 347.9878,127.6563 Q347.3003,128.7188 347.3003,130.8125 Q347.3003,132.9063 347.9878,133.9844 Q348.6753,135.0469 350.019,135.0469 Q350.644,135.0469 351.2378,134.7813 Q351.8315,134.5 352.4565,133.9219 L352.4565,136.6406 Z " fill="#000000"/><text fill="#000000" font-family="sans-serif" font-size="14" lengthAdjust="spacing" textLength="92.2373" x="369.9878" y="135.8467">RstConverter</text><line style="stroke:#181818;stroke-width:0.5;" x1="48.5" x2="751.2129" y1="147" y2="147"/><line style="stroke:#181818;stroke-width:0.5;" x1="48.5" x2="751.2129" y1="155" y2="155"/><g data-visibility-modifier="PUBLIC_METHOD"><ellipse cx="58.5" cy="168.6484" fill="#84BE84" rx="3" ry="3" style="stroke:#038048;stroke-width:1;"/></g><text fill="#000000" font-family="sans-serif" font-size="14" lengthAdjust="spacing" textLength="168" x="67.5" y="171.9951">get_subcommand() : str</text><g data-visibility-modifier="PUBLIC_METHOD"><ellipse cx="58.5" cy="184.9453" fill="#84BE84" rx="3" ry="3" style="stroke:#038048;stroke-width:1;"/></g><text fill="#000000" font-family="sans-serif" font-size="14" lengthAdjust="spacing" textLength="150.9102" x="67.5" y="188.292">get_description() : str</text><g data-visibility-modifier="PUBLIC_METHOD"><ellipse cx="58.5" cy="201.2422" fill="#84BE84" rx="3" ry="3" style="stroke:#038048;stroke-width:1;"/></g><text fill="#000000" font-family="sans-serif" font-size="14" lengthAdjust="spacing" textLength="233.666" x="67.5" y="204.5889">register(args_parser: Any) : None</text><g data-visibility-modifier="PUBLIC_METHOD"><ellipse cx="58.5" cy="217.5391" fill="#84BE84" rx="3" ry="3" style="stroke:#038048;stroke-width:1;"/></g><text fill="#000000" font-family="sans-serif" font-size="14" lengthAdjust="spacing" textLength="87.5205" x="67.5" y="220.8857">begin() : Ret</text><g data-visibility-modifier="PUBLIC_METHOD"><ellipse cx="58.5" cy="233.8359" fill="#84BE84" rx="3" ry="3" style="stroke:#038048;stroke-width:1;"/></g><text fill="#000000" font-family="sans-serif" font-size="14" lengthAdjust="spacing" textLength="209.7676" x="67.5" y="237.1826">enter_file(file_name: str) : Ret</text><g data-visibility-modifier="PUBLIC_METHOD"><ellipse cx="58.5" cy="250.1328" fill="#84BE84" rx="3" ry="3" style="stroke:#038048;stroke-width:1;"/></g><text fill="#000000" font-family="sans-serif" font-size="14" lengthAdjust="spacing" textLength="210.4033" x="67.5" y="253.4795">leave_file(file_name: str) : Ret</text><g data-visibility-modifier="PUBLIC_METHOD"><ellipse cx="58.5" cy="266.4297" fill="#84BE84" rx="3" ry="3" style="stroke:#038048;stroke-width:1;"/></g><text fill="#000000" font-family="sans-serif" font-size="14" lengthAdjust="spacing" textLength="306.8105" x="67.5" y="269.7764">convert_section(section: str, level: int) : Ret</text><g data-visibility-modifier="PUBLIC_METHOD"><ellipse cx="58.5" cy="282.7266" fill="#84BE84" rx="3" ry="3" style="stroke:#038048;stroke-width:1;"/></g><text fill="#000000" font-family="sans-serif" font-size="14" lengthAdjust="spacing" textLength="678.7129" x="67.5" y="286.0732">convert_record_object_generic(record: Record_Object, level: int, translation: Optional[dict]) : Ret</text><g data-visibility-modifier="PUBLIC_METHOD"><ellipse cx="58.5" cy="299.0234" fill="#84BE84" rx="3" ry="3" style="stroke:#038048;stroke-width:1;"/></g><text fill="#000000" font-family="sans-serif" font-size="14" lengthAdjust="spacing" textLength="86.1191" x="67.5" y="302.3701">finish() : Ret</text></g><!--reverse link BaseConverter to RstConverter--><g class="link" data-entity-1="ent0002" data-entity-2="ent0003" data-link-type="extension" data-source-line="6" id="lnk4"><path d="M400,73.1 C400,88.72 400,92.52 400,114.89" fill="none" id="BaseConverter-backto-RstConverter" style="stroke:#181818;stroke-width:1;"/><polygon fill="none" points="400,55.1,394,73.1,406,73.1,400,55.1" style="stroke:#181818;stroke-width:1;"/></g><!--reverse link Md2RstRenderer to Gfm2RstRenderer--><g class="link" data-entity-1="ent0011" data-entity-2="ent0012" data-link-type="extension" id="lnk13"><path d="M574.3566,451.9237 C578.7966,477.9537 582.01,496.74 586.03,520.26" fill="none" id="Md2RstRenderer-backto-Gfm2RstRenderer" style="stroke:#181818;stroke-width:1;"/><polygon fill="none" points="571.33,434.18,568.442,452.9326,580.2712,450.9149,571.33,434.18" style="stroke:#181818;stroke-width:1;"/></g><!--link RstConverter to trlc--><g class="link" data-entity-1="ent0003" data-entity-2="ent0006" data-link-type="dependency" data-source-line="58" id="lnk22"><path codeLine="58" d="M336.52,310.27 C321.25,333.55 309.4328,351.5743 298.2528,368.6043" fill="none" id="RstConverter-to-trlc" style="stroke:#181818;stroke-width:1;stroke-dasharray:7,7;"/><polygon fill="#181818" points="294.96,373.62,303.243,368.2916,297.704,369.4402,296.5553,363.9012,294.96,373.62" style="stroke:#181818;stroke-width:1;"/></g><!--link RstConverter to TrlcAstWalker--><g class="link" data-entity-1="ent0003" data-entity-2="ent0010" data-link-type="dependency" data-source-line="59" id="lnk23"><path codeLine="59" d="M241.14,310.05 C232.26,315.73 223.5,321.41 215,327 C194.23,340.67 176.514,352.9848 157.624,366.4648" fill="none" id="RstConverter-to-TrlcAstWalker" style="stroke:#181818;stroke-width:1;stroke-dasharray:7,7;"/><polygon fill="#181818" points="152.74,369.95,162.3894,367.9781,156.81,367.0456,157.7425,361.4662,152.74,369.95" style="stroke:#181818;stroke-width:1;"/></g><!--link RstConverter to Md2RstRenderer--><g class="link" data-entity-1="ent0003" data-entity-2="ent0011" data-link-type="dependency" data-source-line="60" id="lnk24"><path codeLine="60" d="M485.67,310.27 C504.86,331.94 519.8736,348.8969 534.5736,365.5069" fill="none" id="RstConverter-to-Md2RstRenderer" style="stroke:#181818;stroke-width:1;stroke-dasharray:7,7;"/><polygon fill="#181818" points="538.55,370,535.5807,360.6094,535.2363,366.2557,529.5899,365.9113,538.55,370" style="stroke:#181818;stroke-width:1;"/></g><!--link RstConverter to Gfm2RstRenderer--><g class="link" data-entity-1="ent0003" data-entity-2="ent0012" data-link-type="dependency" data-source-line="61" id="lnk25"><path codeLine="61" d="M657.1,310.12 C661.74,315.45 666.06,321.07 670,327 C696.32,366.61 684.76,388.79 670,434 C658.97,467.8 637.23,495.4487 617.88,516.0287" fill="none" id="RstConverter-to-Gfm2RstRenderer" style="stroke:#181818;stroke-width:1;stroke-dasharray:7,7;"/><polygon fill="#181818" points="613.77,520.4,622.8492,516.5831,617.195,516.7573,617.0208,511.1031,613.77,520.4" style="stroke:#181818;stroke-width:1;"/></g><!--link RstConverter to marko--><g class="link" data-entity-1="ent0003" data-entity-2="ent0014" data-link-type="dependency" data-source-line="62" id="lnk26"><path codeLine="62" d="M400,310.27 C400,333.55 400,350.59 400,367.62" fill="none" id="RstConverter-to-marko" style="stroke:#181818;stroke-width:1;stroke-dasharray:7,7;"/><polygon fill="#181818" points="400,373.62,404,364.62,400,368.62,396,364.62,400,373.62" style="stroke:#181818;stroke-width:1;"/></g><!--link Md2RstRenderer to PlantUML--><g class="link" data-entity-1="ent0011" data-entity-2="ent0018" data-link-type="dependency" data-source-line="63" id="lnk27"><path codeLine="63" d="M535.15,434.18 C509.4,460.21 477.4799,492.4748 454.2099,515.9948" fill="none" id="Md2RstRenderer-to-PlantUML" style="stroke:#181818;stroke-width:1;stroke-dasharray:7,7;"/><polygon fill="#181818" points="449.99,520.26,459.1634,516.6754,453.5066,516.7056,453.4764,511.0489,449.99,520.26" style="stroke:#181818;stroke-width:1;"/></g><?plantuml-src XLHDRzim3BtdLn2zpDs277OCYW1TEnG3ahPms-qm38uYqOuMMJ8a9UqmvB-FbXRNYjFDXtmyFZwHV9IvOix19-RmokWTMeyMVe_sen4FWTpvLnnVF6enP0Cz7ohqXTkkkAbhfaLs3bDmthx613fkPUEbqMdGOYKT2MNCLgvec7Left2fVxMiMwCnqbP4Yvav-WYXfhIYb0gpzgFGhCOWdB0KiXt-byLZFuL37ahy-ns8Or2uGpK5gVt998lSM56OrK_AAYhKQ2NF8jhIG_GkHFjQO_2MQQTOFEak38Ufxq9o_oCvg9HQkdNNFTdp3gwHK0ocMCe2WGsvWvfBTAE6yGsh4CwkU-WPUHNqehVUAWuN5za2nafMQxzIMpo7seYjmjaishgF2TfuX9NntjHWof0PyFPvSWYF-VmAcFCWFTPksiNUmvUwKP9BNznkbUhXoL26U8ubMgeQUw47RwMkYZcTOLbVw_DBOz4v6bu0gTzGSB_NHwhuqlblJ6swbGsJXMU2CYfzk7Bxli12VAIxaBUpj4SADe29nc6v4ucRiauq3jVff7IIMJExCMzRrQMSi2gaTiKkw9ympnhkmpLxSrptYcd_j9Z_I_d0wSHZ1uusMxMBkLmkcvQohHNzx5Xbwwe0RWI9ASCtj8W67hxUJD9gmexd62-7Myl6ZPANqMGoYtiuG1ElX-5qtCFuaKr3GXpfaMjje9l87m00?></g></svg>