<?plantuml 1.2026.1?><svg xmlns="http://www.w3.org/2000/svg" xmlns:xlink="http://www.w3.org/1999/xlink" contentStyleType="text/css" data-diagram-type="CLASS" height="259px" preserveAspectRatio="none" style="width:519px;height:259px;background:#FFFFFF;" version="1.1" viewBox="0 0 519 259" width="519px" zoomAndPan="magnify"><defs/><g><!--cluster Dependencies--><g class="cluster" data-qualified-name="Dependencies" data-source-line="11" id="ent0003"><path d="M123,145 L235.0088,145 A3.75,3.75 0 0 1 237.5088,147.5 L244.5088,167.2969 L388,167.2969 A2.5,2.5 0 0 1 390.5,169.7969 L390.5,249.5 A2.5,2.5 0 0 1 388,252 L123,252 A2.5,2.5 0 0 1 120.5,249.5 L120.5,147.5 A2.5,2.5 0 0 1 123,145" fill="none" style="stroke:#000000;stroke-width:1.5;"/><line style="stroke:#000000;stroke-width:1.5;" x1="120.5" x2="244.5088" y1="167.2969" y2="167.2969"/><text fill="#000000" font-family="sans-serif" font-size="14" font-weight="bold" lengthAdjust="spacing" textLength="111.0088" x="124.5" y="159.9951">Dependencies</text></g><!--class requests--><g class="entity" data-qualified-name="Dependencies.requests" data-source-line="12" id="ent0004"><rect fill="#F1F1F1" height="56.2656" rx="2.5" ry="2.5" style="stroke:#181818;stroke-width:0.5;" width="92.8193" x="282" y="180"/><ellipse cx="297" cy="200.1328" fill="#ADD8E6" rx="11" ry="11" style="stroke:#181818;stroke-width:1;"/><path d="M292.7188,193.7422 L295.6406,193.7422 L297.1094,199.1797 L298.5781,193.7422 L301.5156,193.7422 L301.5156,206.1328 L299.4063,206.1328 L299.4063,196.2109 L298.0938,201.6328 L296.1563,201.6328 L294.8281,196.2109 L294.8281,206.1328 L292.7188,206.1328 L292.7188,193.7422 Z " fill="#000000"/><text fill="#000000" font-family="sans-serif" font-size="12" font-style="italic" lengthAdjust="spacing" textLength="59.7832" x="311.5181" y="196.1387">&#171;module&#187;</text><text fill="#000000" font-family="sans-serif" font-size="14" lengthAdjust="spacing" textLength="60.8193" x="311" y="211.9639">requests</text><line style="stroke:#181818;stroke-width:0.5;" x1="283" x2="373.8193" y1="220.2656" y2="220.2656"/><line style="stroke:#181818;stroke-width:0.5;" x1="283" x2="373.8193" y1="228.2656" y2="228.2656"/></g><!--class subprocess--><g class="entity" data-qualified-name="Dependencies.subprocess" data-source-line="13" id="ent0005"><rect fill="#F1F1F1" height="56.2656" rx="2.5" ry="2.5" style="stroke:#181818;stroke-width:0.5;" width="111.1602" x="136" y="180"/><ellipse cx="151" cy="200.1328" fill="#ADD8E6" rx="11" ry="11" style="stroke:#181818;stroke-width:1;"/><path d="M146.7188,193.7422 L149.6406,193.7422 L151.1094,199.1797 L152.5781,193.7422 L155.5156,193.7422 L155.5156,206.1328 L153.4063,206.1328 L153.4063,196.2109 L152.0938,201.6328 L150.1563,201.6328 L148.8281,196.2109 L148.8281,206.1328 L146.7188,206.1328 L146.7188,193.7422 Z " fill="#000000"/><text fill="#000000" font-family="sans-serif" font-size="12" font-style="italic" lengthAdjust="spacing" textLength="59.7832" x="174.6885" y="196.1387">&#171;module&#187;</text><text fill="#000000" font-family="sans-serif" font-size="14" lengthAdjust="spacing" textLength="79.1602" x="165" y="211.9639">subprocess</text><line style="stroke:#181818;stroke-width:0.5;" x1="137" x2="246.1602" y1="220.2656" y2="220.2656"/><line style="stroke:#181818;stroke-width:0.5;" x1="137" x2="246.1602" y1="228.2656" y2="228.2656"/></g><!--class PlantUML--><g class="entity" data-qualified-name="PlantUML" data-source-line="2" id="ent0002"><rect fill="#F1F1F1" height="113.1875" rx="2.5" ry="2.5" style="stroke:#181818;stroke-width:0.5;" width="505.4385" x="7" y="7"/><ellipse cx="222.7695" cy="23" fill="#ADD1B2" rx="11" ry="11" style="stroke:#181818;stroke-width:1;"/><path d="M225.7383,28.6406 Q225.1602,28.9375 224.5195,29.0781 Q223.8789,29.2344 223.1758,29.2344 Q220.6758,29.2344 219.3477,27.5938 Q218.0352,25.9375 218.0352,22.8125 Q218.0352,19.6875 219.3477,18.0313 Q220.6758,16.375 223.1758,16.375 Q223.8789,16.375 224.5195,16.5313 Q225.1758,16.6875 225.7383,16.9844 L225.7383,19.7031 Q225.1133,19.125 224.5195,18.8594 Q223.9258,18.5781 223.3008,18.5781 Q221.957,18.5781 221.2695,19.6563 Q220.582,20.7188 220.582,22.8125 Q220.582,24.9063 221.2695,25.9844 Q221.957,27.0469 223.3008,27.0469 Q223.9258,27.0469 224.5195,26.7813 Q225.1133,26.5 225.7383,25.9219 L225.7383,28.6406 Z " fill="#000000"/><text fill="#000000" font-family="sans-serif" font-size="14" lengthAdjust="spacing" textLength="65.3994" x="243.2695" y="27.8467">PlantUML</text><line style="stroke:#181818;stroke-width:0.5;" x1="8" x2="511.4385" y1="39" y2="39"/><line style="stroke:#181818;stroke-width:0.5;" x1="8" x2="511.4385" y1="47" y2="47"/><g data-visibility-modifier="PUBLIC_METHOD"><ellipse cx="18" cy="60.6484" fill="#84BE84" rx="3" ry="3" style="stroke:#038048;stroke-width:1;"/></g><text fill="#000000" font-family="sans-serif" font-size="14" lengthAdjust="spacing" textLength="111.207" x="27" y="63.9951">__init__() : None</text><g data-visibility-modifier="PUBLIC_METHOD"><ellipse cx="18" cy="76.9453" fill="#84BE84" rx="3" ry="3" style="stroke:#038048;stroke-width:1;"/></g><text fill="#000000" font-family="sans-serif" font-size="14" lengthAdjust="spacing" textLength="287.8203" x="27" y="80.292">is_plantuml_file(diagram_path: str) : bool</text><g data-visibility-modifier="PUBLIC_METHOD"><ellipse cx="18" cy="93.2422" fill="#84BE84" rx="3" ry="3" style="stroke:#038048;stroke-width:1;"/></g><text fill="#000000" font-family="sans-serif" font-size="14" lengthAdjust="spacing" textLength="479.4385" x="27" y="96.5889">generate(diagram_type: str, diagram_path: str, dst_path: str) : None</text><g data-visibility-modifier="PUBLIC_METHOD"><ellipse cx="18" cy="109.5391" fill="#84BE84" rx="3" ry="3" style="stroke:#038048;stroke-width:1;"/></g><text fill="#000000" font-family="sans-serif" font-size="14" lengthAdjust="spacing" textLength="465.9717" x="27" y="112.8857">generate_to_bytes(diagram_type: str, diagram_source: str) : bytes</text></g><!--link PlantUML to requests--><g class="link" data-entity-1="ent0002" data-entity-2="ent0004" data-link-type="dependency" data-source-line="17" id="lnk6"><path codeLine="17" d="M286.37,120 C296.29,140.48 304.4747,157.38 312.6547,174.27" fill="none" id="PlantUML-to-requests" style="stroke:#181818;stroke-width:1;stroke-dasharray:7,7;"/><polygon fill="#181818" points="315.27,179.67,314.9471,169.8264,313.0906,175.17,307.7471,173.3135,315.27,179.67" style="stroke:#181818;stroke-width:1;"/></g><!--link PlantUML to subprocess--><g class="link" data-entity-1="ent0002" data-entity-2="ent0005" data-link-type="dependency" data-source-line="18" id="lnk7"><path codeLine="18" d="M233.01,120 C223.24,140.48 215.1841,157.365 207.1241,174.255" fill="none" id="PlantUML-to-subprocess" style="stroke:#181818;stroke-width:1;stroke-dasharray:7,7;"/><polygon fill="#181818" points="204.54,179.67,212.0261,173.2702,206.6934,175.1575,204.8061,169.8247,204.54,179.67" style="stroke:#181818;stroke-width:1;"/></g><?plantuml-src XP71QiCm44Jl-eebbpeqv0D2y2d7ffH2pqAM9xQeBAdQDJG4_tljf8qJ2kqUXxSpmwxrXfbUl0dojd-Yaw9n7hLsmOdMnP8sz1m3Bh9ZdIQoxxm-E8-YTgR9fjF9IBiXbZpnLOp-mZS8o4PcJeu9Psv5lrP7YUNUQKx-ST8ITNKKy5-M7FjiCVUPU3KefHveXuCB87mASZ2UQYI46i6w4Kd6lfi6jDZTg8llczZpeJ8-Uh0mRRV5dbRUDQrKliUIkbZt7cL9f-66vxvAELhmFnl3LEuLteYBWLkNM5r_ibwNrznxTNPNNm00?></g></svg>