<?plantuml 1.2026.1?><svg xmlns="http://www.w3.org/2000/svg" xmlns:xlink="http://www.w3.org/1999/xlink" contentStyleType="text/css" data-diagram-type="CLASS" height="609px" preserveAspectRatio="none" style="width:757px;height:609px;background:#FFFFFF;" version="1.1" viewBox="0 0 757 609" width="757px" zoomAndPan="magnify"><defs/><g><!--cluster Dependencies--><g class="cluster" data-qualified-name="Dependencies" data-source-line="17" id="ent0005"><path d="M150,335 L262.0088,335 A3.75,3.75 0 0 1 264.5088,337.5 L271.5088,357.2969 L748,357.2969 A2.5,2.5 0 0 1 750.5,359.7969 L750.5,599.5 A2.5,2.5 0 0 1 748,602 L150,602 A2.5,2.5 0 0 1 147.5,599.5 L147.5,337.5 A2.5,2.5 0 0 1 150,335" fill="none" style="stroke:#000000;stroke-width:1.5;"/><line style="stroke:#000000;stroke-width:1.5;" x1="147.5" x2="271.5088" y1="357.2969" y2="357.2969"/><text fill="#000000" font-family="sans-serif" font-size="14" font-weight="bold" lengthAdjust="spacing" textLength="111.0088" x="151.5" y="349.9951">Dependencies</text></g><!--class trlc--><g class="entity" data-qualified-name="Dependencies.trlc" data-source-line="19" id="ent0006"><rect fill="#F1F1F1" height="56.2656" rx="2.5" ry="2.5" style="stroke:#181818;stroke-width:0.5;" width="87.7832" x="459.5" y="392.5"/><ellipse cx="474.5" cy="412.6328" fill="#ADD8E6" rx="11" ry="11" style="stroke:#181818;stroke-width:1;"/><path d="M470.2188,406.2422 L473.1406,406.2422 L474.6094,411.6797 L476.0781,406.2422 L479.0156,406.2422 L479.0156,418.6328 L476.9063,418.6328 L476.9063,408.7109 L475.5938,414.1328 L473.6563,414.1328 L472.3281,408.7109 L472.3281,418.6328 L470.2188,418.6328 L470.2188,406.2422 Z " fill="#000000"/><text fill="#000000" font-family="sans-serif" font-size="12" font-style="italic" lengthAdjust="spacing" textLength="59.7832" x="486.5" y="408.6387">&#171;module&#187;</text><text fill="#000000" font-family="sans-serif" font-size="14" lengthAdjust="spacing" textLength="22.832" x="504.9756" y="424.4639">trlc</text><line style="stroke:#181818;stroke-width:0.5;" x1="460.5" x2="546.2832" y1="432.7656" y2="432.7656"/><line style="stroke:#181818;stroke-width:0.5;" x1="460.5" x2="546.2832" y1="440.7656" y2="440.7656"/></g><g class="entity" data-qualified-name="Dependencies.GMN7" data-source-line="23" id="ent0008"><path d="M582.5,370 L582.5,416.5 L547.7,420.5 L582.5,424.5 L582.5,470.7969 A0,0 0 0 0 582.5,470.7969 L734.0615,470.7969 A0,0 0 0 0 734.0615,470.7969 L734.0615,380 L724.0615,370 L582.5,370 A0,0 0 0 0 582.5,370" fill="#FEFFDD" style="stroke:#181818;stroke-width:0.5;"/><path d="M724.0615,370 L724.0615,380 L734.0615,380 L724.0615,370" fill="#FEFFDD" style="stroke:#181818;stroke-width:0.5;"/><text fill="#000000" font-family="sans-serif" font-size="13" lengthAdjust="spacing" textLength="130.3364" x="588.5" y="387.0669">Use TRLC ast items:</text><ellipse cx="594" cy="397.7656" fill="#000000" rx="2.5" ry="2.5"/><text fill="#000000" font-family="sans-serif" font-size="13" lengthAdjust="spacing" textLength="79.5171" x="600.5" y="402.1997">Implicit_Null</text><ellipse cx="594" cy="412.8984" fill="#000000" rx="2.5" ry="2.5"/><text fill="#000000" font-family="sans-serif" font-size="13" lengthAdjust="spacing" textLength="94.5674" x="600.5" y="417.3325">Record_Object</text><ellipse cx="594" cy="428.0313" fill="#000000" rx="2.5" ry="2.5"/><text fill="#000000" font-family="sans-serif" font-size="13" lengthAdjust="spacing" textLength="118.5615" x="600.5" y="432.4653">Record_Reference</text><ellipse cx="594" cy="443.1641" fill="#000000" rx="2.5" ry="2.5"/><text fill="#000000" font-family="sans-serif" font-size="13" lengthAdjust="spacing" textLength="86.1694" x="600.5" y="447.5981">String_Literal</text><ellipse cx="594" cy="458.2969" fill="#000000" rx="2.5" ry="2.5"/><text fill="#000000" font-family="sans-serif" font-size="13" lengthAdjust="spacing" textLength="70.8525" x="600.5" y="462.731">Expression</text></g><!--class TrlcAstWalker--><g class="entity" data-qualified-name="Dependencies.TrlcAstWalker" data-source-line="31" id="ent0010"><rect fill="#F1F1F1" height="48" rx="2.5" ry="2.5" style="stroke:#181818;stroke-width:0.5;" width="129.043" x="295" y="396.5"/><ellipse cx="310" cy="412.5" fill="#ADD1B2" rx="11" ry="11" style="stroke:#181818;stroke-width:1;"/><path d="M312.9688,418.1406 Q312.3906,418.4375 311.75,418.5781 Q311.1094,418.7344 310.4063,418.7344 Q307.9063,418.7344 306.5781,417.0938 Q305.2656,415.4375 305.2656,412.3125 Q305.2656,409.1875 306.5781,407.5313 Q307.9063,405.875 310.4063,405.875 Q311.1094,405.875 311.75,406.0313 Q312.4063,406.1875 312.9688,406.4844 L312.9688,409.2031 Q312.3438,408.625 311.75,408.3594 Q311.1563,408.0781 310.5313,408.0781 Q309.1875,408.0781 308.5,409.1563 Q307.8125,410.2188 307.8125,412.3125 Q307.8125,414.4063 308.5,415.4844 Q309.1875,416.5469 310.5313,416.5469 Q311.1563,416.5469 311.75,416.2813 Q312.3438,416 312.9688,415.4219 L312.9688,418.1406 Z " fill="#000000"/><text fill="#000000" font-family="sans-serif" font-size="14" lengthAdjust="spacing" textLength="97.043" x="324" y="417.3467">TrlcAstWalker</text><line style="stroke:#181818;stroke-width:0.5;" x1="296" x2="423.043" y1="428.5" y2="428.5"/><line style="stroke:#181818;stroke-width:0.5;" x1="296" x2="423.043" y1="436.5" y2="436.5"/></g><!--class PlantUML--><g class="entity" data-qualified-name="Dependencies.PlantUML" data-source-line="34" id="ent0011"><rect fill="#F1F1F1" height="48" rx="2.5" ry="2.5" style="stroke:#181818;stroke-width:0.5;" width="97.3994" x="163" y="396.5"/><ellipse cx="178" cy="412.5" fill="#ADD1B2" rx="11" ry="11" style="stroke:#181818;stroke-width:1;"/><path d="M180.9688,418.1406 Q180.3906,418.4375 179.75,418.5781 Q179.1094,418.7344 178.4063,418.7344 Q175.9063,418.7344 174.5781,417.0938 Q173.2656,415.4375 173.2656,412.3125 Q173.2656,409.1875 174.5781,407.5313 Q175.9063,405.875 178.4063,405.875 Q179.1094,405.875 179.75,406.0313 Q180.4063,406.1875 180.9688,406.4844 L180.9688,409.2031 Q180.3438,408.625 179.75,408.3594 Q179.1563,408.0781 178.5313,408.0781 Q177.1875,408.0781 176.5,409.1563 Q175.8125,410.2188 175.8125,412.3125 Q175.8125,414.4063 176.5,415.4844 Q177.1875,416.5469 178.5313,416.5469 Q179.1563,416.5469 179.75,416.2813 Q180.3438,416 180.9688,415.4219 L180.9688,418.1406 Z " fill="#000000"/><text fill="#000000" font-family="sans-serif" font-size="14" lengthAdjust="spacing" textLength="65.3994" x="192" y="417.3467">PlantUML</text><line style="stroke:#181818;stroke-width:0.5;" x1="164" x2="259.3994" y1="428.5" y2="428.5"/><line style="stroke:#181818;stroke-width:0.5;" x1="164" x2="259.3994" y1="436.5" y2="436.5"/></g><g class="entity" data-qualified-name="Dependencies.GMN12" data-source-line="37" id="ent0013"><path d="M163.5,531 L163.5,586.3984 A0,0 0 0 0 163.5,586.3984 L381.3218,586.3984 A0,0 0 0 0 381.3218,586.3984 L381.3218,541 L371.3218,531 L264.42,531 L221.85,444.57 L256.42,531 L163.5,531 A0,0 0 0 0 163.5,531" fill="#FEFFDD" style="stroke:#181818;stroke-width:0.5;"/><path d="M371.3218,531 L371.3218,541 L381.3218,541 L371.3218,531" fill="#FEFFDD" style="stroke:#181818;stroke-width:0.5;"/><text fill="#000000" font-family="sans-serif" font-size="13" lengthAdjust="spacing" textLength="193.8955" x="169.5" y="548.0669">Renders inline ```plantuml```</text><text fill="#000000" font-family="sans-serif" font-size="13" lengthAdjust="spacing" textLength="173.6274" x="169.5" y="563.1997">fenced code blocks to SVG</text><text fill="#000000" font-family="sans-serif" font-size="13" lengthAdjust="spacing" textLength="196.8218" x="169.5" y="578.3325">when --render-plantuml is set.</text></g><!--class BaseConverter--><g class="entity" data-qualified-name="BaseConverter" data-source-line="2" id="ent0002"><rect fill="#F1F1F1" height="48" rx="2.5" ry="2.5" style="stroke:#181818;stroke-width:0.5;" width="135.8174" x="291.5" y="7"/><ellipse cx="306.5" cy="23" fill="#ADD1B2" rx="11" ry="11" style="stroke:#181818;stroke-width:1;"/><path d="M309.4688,28.6406 Q308.8906,28.9375 308.25,29.0781 Q307.6094,29.2344 306.9063,29.2344 Q304.4063,29.2344 303.0781,27.5938 Q301.7656,25.9375 301.7656,22.8125 Q301.7656,19.6875 303.0781,18.0313 Q304.4063,16.375 306.9063,16.375 Q307.6094,16.375 308.25,16.5313 Q308.9063,16.6875 309.4688,16.9844 L309.4688,19.7031 Q308.8438,19.125 308.25,18.8594 Q307.6563,18.5781 307.0313,18.5781 Q305.6875,18.5781 305,19.6563 Q304.3125,20.7188 304.3125,22.8125 Q304.3125,24.9063 305,25.9844 Q305.6875,27.0469 307.0313,27.0469 Q307.6563,27.0469 308.25,26.7813 Q308.8438,26.5 309.4688,25.9219 L309.4688,28.6406 Z " fill="#000000"/><text fill="#000000" font-family="sans-serif" font-size="14" lengthAdjust="spacing" textLength="103.8174" x="320.5" y="27.8467">BaseConverter</text><line style="stroke:#181818;stroke-width:0.5;" x1="292.5" x2="426.3174" y1="39" y2="39"/><line style="stroke:#181818;stroke-width:0.5;" x1="292.5" x2="426.3174" y1="47" y2="47"/></g><!--class MarkdownConverter--><g class="entity" data-qualified-name="MarkdownConverter" data-source-line="4" id="ent0003"><rect fill="#F1F1F1" height="194.6719" rx="2.5" ry="2.5" style="stroke:#181818;stroke-width:0.5;" width="704.7129" x="7" y="115"/><ellipse cx="284.0947" cy="131" fill="#ADD1B2" rx="11" ry="11" style="stroke:#181818;stroke-width:1;"/><path d="M287.0635,136.6406 Q286.4854,136.9375 285.8447,137.0781 Q285.2041,137.2344 284.501,137.2344 Q282.001,137.2344 280.6729,135.5938 Q279.3604,133.9375 279.3604,130.8125 Q279.3604,127.6875 280.6729,126.0313 Q282.001,124.375 284.501,124.375 Q285.2041,124.375 285.8447,124.5313 Q286.501,124.6875 287.0635,124.9844 L287.0635,127.7031 Q286.4385,127.125 285.8447,126.8594 Q285.251,126.5781 284.626,126.5781 Q283.2822,126.5781 282.5947,127.6563 Q281.9072,128.7188 281.9072,130.8125 Q281.9072,132.9063 282.5947,133.9844 Q283.2822,135.0469 284.626,135.0469 Q285.251,135.0469 285.8447,134.7813 Q286.4385,134.5 287.0635,133.9219 L287.0635,136.6406 Z " fill="#000000"/><text fill="#000000" font-family="sans-serif" font-size="14" lengthAdjust="spacing" textLength="142.0234" x="304.5947" y="135.8467">MarkdownConverter</text><line style="stroke:#181818;stroke-width:0.5;" x1="8" x2="710.7129" y1="147" y2="147"/><line style="stroke:#181818;stroke-width:0.5;" x1="8" x2="710.7129" y1="155" y2="155"/><g data-visibility-modifier="PUBLIC_METHOD"><ellipse cx="18" cy="168.6484" fill="#84BE84" rx="3" ry="3" style="stroke:#038048;stroke-width:1;"/></g><text fill="#000000" font-family="sans-serif" font-size="14" lengthAdjust="spacing" textLength="168" x="27" y="171.9951">get_subcommand() : str</text><g data-visibility-modifier="PUBLIC_METHOD"><ellipse cx="18" cy="184.9453" fill="#84BE84" rx="3" ry="3" style="stroke:#038048;stroke-width:1;"/></g><text fill="#000000" font-family="sans-serif" font-size="14" lengthAdjust="spacing" textLength="150.9102" x="27" y="188.292">get_description() : str</text><g data-visibility-modifier="PUBLIC_METHOD"><ellipse cx="18" cy="201.2422" fill="#84BE84" rx="3" ry="3" style="stroke:#038048;stroke-width:1;"/></g><text fill="#000000" font-family="sans-serif" font-size="14" lengthAdjust="spacing" textLength="233.666" x="27" y="204.5889">register(args_parser: Any) : None</text><g data-visibility-modifier="PUBLIC_METHOD"><ellipse cx="18" cy="217.5391" fill="#84BE84" rx="3" ry="3" style="stroke:#038048;stroke-width:1;"/></g><text fill="#000000" font-family="sans-serif" font-size="14" lengthAdjust="spacing" textLength="87.5205" x="27" y="220.8857">begin() : Ret</text><g data-visibility-modifier="PUBLIC_METHOD"><ellipse cx="18" cy="233.8359" fill="#84BE84" rx="3" ry="3" style="stroke:#038048;stroke-width:1;"/></g><text fill="#000000" font-family="sans-serif" font-size="14" lengthAdjust="spacing" textLength="209.7676" x="27" y="237.1826">enter_file(file_name: str) : Ret</text><g data-visibility-modifier="PUBLIC_METHOD"><ellipse cx="18" cy="250.1328" fill="#84BE84" rx="3" ry="3" style="stroke:#038048;stroke-width:1;"/></g><text fill="#000000" font-family="sans-serif" font-size="14" lengthAdjust="spacing" textLength="210.4033" x="27" y="253.4795">leave_file(file_name: str) : Ret</text><g data-visibility-modifier="PUBLIC_METHOD"><ellipse cx="18" cy="266.4297" fill="#84BE84" rx="3" ry="3" style="stroke:#038048;stroke-width:1;"/></g><text fill="#000000" font-family="sans-serif" font-size="14" lengthAdjust="spacing" textLength="306.8105" x="27" y="269.7764">convert_section(section: str, level: int) : Ret</text><g data-visibility-modifier="PUBLIC_METHOD"><ellipse cx="18" cy="282.7266" fill="#84BE84" rx="3" ry="3" style="stroke:#038048;stroke-width:1;"/></g><text fill="#000000" font-family="sans-serif" font-size="14" lengthAdjust="spacing" textLength="678.7129" x="27" y="286.0732">convert_record_object_generic(record: Record_Object, level: int, translation: Optional[dict]) : Ret</text><g data-visibility-modifier="PUBLIC_METHOD"><ellipse cx="18" cy="299.0234" fill="#84BE84" rx="3" ry="3" style="stroke:#038048;stroke-width:1;"/></g><text fill="#000000" font-family="sans-serif" font-size="14" lengthAdjust="spacing" textLength="86.1191" x="27" y="302.3701">finish() : Ret</text></g><!--reverse link BaseConverter to MarkdownConverter--><g class="link" data-entity-1="ent0002" data-entity-2="ent0003" data-link-type="extension" data-source-line="5" id="lnk4"><path d="M359.5,73.1 C359.5,88.72 359.5,92.52 359.5,114.89" fill="none" id="BaseConverter-backto-MarkdownConverter" style="stroke:#181818;stroke-width:1;"/><polygon fill="none" points="359.5,55.1,353.5,73.1,365.5,73.1,359.5,55.1" style="stroke:#181818;stroke-width:1;"/></g><!--link MarkdownConverter to trlc--><g class="link" data-entity-1="ent0003" data-entity-2="ent0006" data-link-type="dependency" data-source-line="43" id="lnk15"><path codeLine="43" d="M429.74,310.24 C433.74,315.9 437.68,321.51 441.5,327 C456.63,348.74 470.0087,368.6965 482.2587,387.2065" fill="none" id="MarkdownConverter-to-trlc" style="stroke:#181818;stroke-width:1;stroke-dasharray:7,7;"/><polygon fill="#181818" points="485.57,392.21,483.9387,382.4972,482.8106,388.0404,477.2673,386.9123,485.57,392.21" style="stroke:#181818;stroke-width:1;"/></g><!--link MarkdownConverter to TrlcAstWalker--><g class="link" data-entity-1="ent0003" data-entity-2="ent0010" data-link-type="dependency" data-source-line="44" id="lnk16"><path codeLine="44" d="M359.5,310.17 C359.5,342.15 359.5,368.96 359.5,390.18" fill="none" id="MarkdownConverter-to-TrlcAstWalker" style="stroke:#181818;stroke-width:1;stroke-dasharray:7,7;"/><polygon fill="#181818" points="359.5,396.18,363.5,387.18,359.5,391.18,355.5,387.18,359.5,396.18" style="stroke:#181818;stroke-width:1;"/></g><!--link MarkdownConverter to PlantUML--><g class="link" data-entity-1="ent0003" data-entity-2="ent0011" data-link-type="dependency" data-source-line="45" id="lnk17"><path codeLine="45" d="M289.67,310.07 C285.55,315.79 281.47,321.47 277.5,327 C260.59,350.56 244.8203,372.6725 231.4903,391.3925" fill="none" id="MarkdownConverter-to-PlantUML" style="stroke:#181818;stroke-width:1;stroke-dasharray:7,7;"/><polygon fill="#181818" points="228.01,396.28,236.4887,391.2689,230.9102,392.2071,229.9721,386.6286,228.01,396.28" style="stroke:#181818;stroke-width:1;"/></g><?plantuml-src XLFDRfj04Bxp52EVdDRs0rYHfJIfgafsKZb9UwWgl5u6lFMoYsO69rNbT--on0JaHEK0QBwVcMy7j5NCy4anNdjtG18a-9iS4nthAqNxp3-vLmoV1Lrshe1mVInGKgwtsfUbSjdu0kR0GgzOXgp9L6Ay6uA4XU5WD5PKS5efOgGvNBa_3UlMEsnfsq1hbMkKjeGkoDBSM1mtjzIf4gFnW6LH7V2_BDtcIHbr7F7b6OaJi7X0EmVZv4qHeVQKfNxxEwZI0XsIqUEssj0ZUXVHljS4X9HZgzfET_5mbFsP6Is_1eroumplklJ794agfVUgG1ZTO1MsWauRv57OHbIqAnm9MJs2oyln2YRM53lPsXeleFHPRN6nQ5TtR2NE2m8r9F3vYpG2pVN820_hvJKe5Z229Syxx0DyBIjhj97qjhQsLnyaFw-lCKSAWsCFkXSohaYNeGUfljVdvugGEPnGB8R8SU9-t8SmyXNB3sNttNTvx1E-MUNaSRNii2xtreluiWb-udIjrytf4eU5MUCGDfjDrL3gqeRNZfKtEJBGFWjcrkizWtYu__wbOppjqC5qIj5kUl80my0eis6eCFNvxpURBKvhUHiSv7-7qyNx1m00?></g></svg>